<svg width="358" height="110" viewBox="0 0 358 110" fill="none" xmlns="http://www.w3.org/2000/svg">
<rect width="358" height="110" fill="#DEF2FC"/>
<path d="M82.7878 31.1855L82.4818 37.0175H78.3418L78.0718 31.1855H82.7878ZM88.5118 31.1855L88.2058 37.0175H84.0658L83.7958 31.1855H88.5118ZM90.1346 45.0455H97.0646V43.5155C95.3006 43.1675 93.9446 42.5135 92.9966 41.5535C92.0486 40.5935 91.5746 39.3875 91.5746 37.9355C91.5746 36.7235 91.9106 35.6795 92.5826 34.8035C93.2546 33.9155 94.2206 33.2435 95.4806 32.7875C96.7526 32.3195 98.2706 32.0855 100.035 32.0855C101.799 32.0855 103.311 32.3195 104.571 32.7875C105.843 33.2555 106.815 33.9275 107.487 34.8035C108.159 35.6795 108.495 36.7235 108.495 37.9355C108.495 39.3875 108.021 40.5935 107.073 41.5535C106.125 42.5135 104.769 43.1675 103.005 43.5155V45.0455H109.935V48.7535H90.1346V45.0455ZM100.035 39.8615C100.851 39.8615 101.493 39.6935 101.961 39.3575C102.429 39.0095 102.663 38.5355 102.663 37.9355C102.663 37.3355 102.429 36.8675 101.961 36.5315C101.493 36.1835 100.851 36.0095 100.035 36.0095C99.2186 36.0095 98.5766 36.1835 98.1086 36.5315C97.6406 36.8675 97.4066 37.3355 97.4066 37.9355C97.4066 38.5355 97.6406 39.0095 98.1086 39.3575C98.5766 39.6935 99.2186 39.8615 100.035 39.8615ZM117.948 37.6655C116.604 37.5815 115.566 37.4075 114.834 37.1435C114.102 36.8675 113.592 36.5075 113.304 36.0635C113.028 35.6195 112.89 35.0615 112.89 34.3895C112.89 33.8855 112.956 33.4415 113.088 33.0575C113.22 32.6735 113.394 32.2655 113.61 31.8335H118.614C118.53 32.2055 118.488 32.4995 118.488 32.7155C118.488 33.0995 118.596 33.4115 118.812 33.6515C119.028 33.8795 119.394 34.0355 119.91 34.1195C120.522 34.2275 121.56 34.2815 123.024 34.2815C124.128 34.2815 125.274 34.2455 126.462 34.1735C127.662 34.1015 128.766 33.9935 129.774 33.8495L130.17 37.4315C127.65 37.6715 124.956 37.7915 122.088 37.7915C120.456 37.7915 119.076 37.7495 117.948 37.6655ZM118.182 49.0055C116.67 48.8615 115.572 48.6575 114.888 48.3935C114.216 48.1415 113.88 47.7635 113.88 47.2595C113.88 46.9475 114.024 46.5455 114.312 46.0535H113.286V44.1815H125.22C125.34 43.9895 125.07 43.8575 124.41 43.7855C123.294 43.6775 121.848 43.6235 120.072 43.6235C118.596 43.6235 116.568 43.6655 113.988 43.7495L113.934 41.3195C116.478 41.2115 118.95 41.1575 121.35 41.1575C123.006 41.1575 124.614 41.1875 126.174 41.2475C127.506 41.3075 128.502 41.5055 129.162 41.8415C129.822 42.1775 130.152 42.5915 130.152 43.0835C130.152 43.4315 129.996 43.7975 129.684 44.1815H130.296V46.0535H119.46C119.412 46.1015 119.388 46.1555 119.388 46.2155C119.388 46.2995 119.472 46.3655 119.64 46.4135C119.808 46.4735 120.078 46.5155 120.45 46.5395C121.23 46.5995 122.172 46.6295 123.276 46.6295C124.404 46.6295 125.568 46.5995 126.768 46.5395C127.98 46.4915 129.03 46.4135 129.918 46.3055L130.35 48.7715C128.418 49.0835 126.108 49.2395 123.42 49.2395C121.572 49.2395 119.826 49.1615 118.182 49.0055ZM111.738 38.0975H131.538V40.7615H111.738V38.0975ZM145.164 48.1055C143.952 48.1055 142.902 47.8595 142.014 47.3675C141.126 46.8755 140.442 46.1555 139.962 45.2075C139.482 44.2475 139.242 43.0775 139.242 41.6975C139.242 40.1375 139.584 38.8595 140.268 37.8635L138.648 38.0075L138.558 34.2095C140.562 33.9695 142.608 33.8375 144.696 33.8135C143.496 33.3455 142.158 33.0575 140.682 32.9495L141.942 29.7815C145.194 30.3575 147.276 31.4615 148.188 33.0935L147.72 33.8675C148.932 33.9155 150.276 34.0295 151.752 34.2095L151.662 38.0075L150.042 37.8275C150.738 38.8835 151.086 40.1735 151.086 41.6975C151.086 43.0775 150.846 44.2475 150.366 45.2075C149.886 46.1555 149.202 46.8755 148.314 47.3675C147.426 47.8595 146.376 48.1055 145.164 48.1055ZM145.164 44.1275C145.644 44.1275 146.01 43.8815 146.262 43.3895C146.526 42.8975 146.658 42.0695 146.658 40.9055C146.658 39.7655 146.526 38.9555 146.262 38.4755C146.01 37.9835 145.644 37.7375 145.164 37.7375C144.684 37.7375 144.312 37.9835 144.048 38.4755C143.796 38.9555 143.67 39.7655 143.67 40.9055C143.67 42.0695 143.796 42.8975 144.048 43.3895C144.312 43.8815 144.684 44.1275 145.164 44.1275ZM152.544 48.9155C152.316 45.9875 152.202 42.9815 152.202 39.8975C152.202 37.3055 152.286 34.6115 152.454 31.8155H157.53C157.59 33.1235 157.62 34.6895 157.62 36.5135V37.8815H159.438V41.8415H157.512C157.392 44.3975 157.218 46.7555 156.99 48.9155H152.544ZM165.994 41.7515C164.686 41.6315 163.702 41.3975 163.042 41.0495C162.382 40.6895 162.052 40.2335 162.052 39.6815C162.052 39.2495 162.25 38.7635 162.646 38.2235H161.638V35.7935H172.726C172.798 35.6975 172.834 35.6255 172.834 35.5775C172.834 35.3855 172.498 35.2655 171.826 35.2175C170.554 35.1095 169.174 35.0555 167.686 35.0555C165.79 35.0555 163.984 35.1335 162.268 35.2895L162.178 32.2655C164.314 32.0495 166.54 31.9415 168.856 31.9415C170.692 31.9415 172.372 32.0195 173.896 32.1755C175.288 32.3195 176.332 32.5775 177.028 32.9495C177.724 33.3095 178.072 33.7415 178.072 34.2455C178.072 34.7375 177.754 35.2535 177.118 35.7935H178.018V38.2235H167.506C167.47 38.2715 167.452 38.3255 167.452 38.3855C167.452 38.5175 167.554 38.6195 167.758 38.6915C167.962 38.7515 168.31 38.7935 168.802 38.8175C169.57 38.8655 170.464 38.8895 171.484 38.8895C173.728 38.8895 175.84 38.7515 177.82 38.4755L178.432 41.3735C177.424 41.5655 176.254 41.7155 174.922 41.8235C173.59 41.9195 172.198 41.9675 170.746 41.9675C168.958 41.9675 167.374 41.8955 165.994 41.7515ZM167.47 48.9155C167.302 47.7995 167.218 46.6775 167.218 45.5495H160.342V42.3275H180.142V45.5495H173.266C173.266 46.6775 173.182 47.7995 173.014 48.9155H167.47ZM188.263 43.5335C186.763 43.2215 185.617 42.6515 184.825 41.8235C184.045 40.9955 183.655 40.0655 183.655 39.0335C183.655 38.1335 183.949 37.2695 184.537 36.4415L183.241 36.5135L183.061 32.5535C185.389 32.2055 188.113 32.0315 191.233 32.0315C194.461 32.0315 197.275 32.2175 199.675 32.5895L199.495 36.6215C196.783 36.3335 194.359 36.1895 192.223 36.1895C191.155 36.1895 190.333 36.2195 189.757 36.2795C189.433 36.5435 189.187 36.8195 189.019 37.1075C188.863 37.3955 188.785 37.6835 188.785 37.9715C188.785 38.3315 188.899 38.6555 189.127 38.9435C189.367 39.2195 189.685 39.4235 190.081 39.5555C190.945 39.8315 191.995 39.9695 193.231 39.9695C195.067 39.9695 197.005 39.6875 199.045 39.1235L199.855 42.9575C198.439 43.4135 196.789 43.7195 194.905 43.8755V45.1535H201.745V48.7535H181.945V45.1535H189.145V43.6955L188.263 43.5335ZM204.305 50.2115C204.905 49.8155 205.325 49.3835 205.565 48.9155C204.905 48.8315 204.353 48.5555 203.909 48.0875C203.465 47.6195 203.243 47.0255 203.243 46.3055C203.243 45.4775 203.501 44.8175 204.017 44.3255C204.533 43.8215 205.247 43.5695 206.159 43.5695C207.071 43.5695 207.785 43.8335 208.301 44.3615C208.817 44.8775 209.075 45.5855 209.075 46.4855C209.075 47.5415 208.775 48.5195 208.175 49.4195C207.587 50.3315 206.705 51.0215 205.529 51.4895L204.305 50.2115ZM78.9718 62.7895C80.7718 62.0935 82.1338 61.1095 83.0578 59.8375C83.9818 58.5535 84.4438 56.9395 84.4438 54.9955H90.4558C90.4558 56.3515 90.3058 57.6115 90.0058 58.7755C90.6778 58.4755 91.3918 58.3255 92.1478 58.3255C92.9278 58.3255 93.6538 58.4995 94.3258 58.8475C94.9978 59.1835 95.5378 59.6875 95.9458 60.3595C96.3538 61.0195 96.5578 61.8115 96.5578 62.7355C96.5578 63.7795 96.2938 64.9075 95.7658 66.1195H91.3918C91.4158 65.9275 91.4278 65.6515 91.4278 65.2915C91.4278 64.1995 91.2178 63.3775 90.7978 62.8255C90.3778 62.2615 89.8438 61.9795 89.1958 61.9795C89.0038 61.9795 88.7578 62.0215 88.4578 62.1055C86.9098 64.2535 84.4078 65.7475 80.9518 66.5875L78.9718 62.7895ZM78.2518 68.1535H85.5238C85.3918 67.3015 85.3258 66.4495 85.3258 65.5975C85.3258 65.2855 85.3318 65.0575 85.3438 64.9135H90.9598C90.9718 65.0575 90.9778 65.2855 90.9778 65.5975C90.9778 66.4495 90.9118 67.3015 90.7798 68.1535H98.0518V71.7535H78.2518V68.1535ZM100.845 59.4415C102.693 59.2855 104.451 59.0815 106.119 58.8295C107.787 58.5655 109.179 58.2595 110.295 57.9115H109.647C108.627 57.9115 107.511 57.9475 106.299 58.0195C105.099 58.0795 104.007 58.1635 103.023 58.2715L102.699 55.0855C104.499 54.8815 106.503 54.7795 108.711 54.7795C110.235 54.7795 111.591 54.8335 112.779 54.9415C113.871 55.0495 114.711 55.3075 115.299 55.7155C115.887 56.1115 116.181 56.5915 116.181 57.1555C116.181 57.7075 115.911 58.2655 115.371 58.8295C115.671 58.7455 115.983 58.7035 116.307 58.7035C116.895 58.7035 117.369 58.8595 117.729 59.1715C118.101 59.4715 118.287 59.9035 118.287 60.4675C118.287 61.0435 118.101 61.6855 117.729 62.3935H113.445C113.445 61.7335 113.385 61.2655 113.265 60.9895C113.157 60.7015 112.989 60.5515 112.761 60.5395C110.313 61.5955 106.659 62.3095 101.799 62.6815L100.845 59.4415ZM109.755 72.3295C107.019 72.3295 104.925 72.0775 103.473 71.5735C102.033 71.0815 101.313 70.2415 101.313 69.0535C101.313 68.1055 101.775 67.3975 102.699 66.9295C103.635 66.4615 105.003 66.1675 106.803 66.0475L106.767 65.5795H99.8553V62.8795H119.655V65.5795H112.743L112.707 66.0475C114.507 66.1675 115.869 66.4615 116.793 66.9295C117.729 67.3975 118.197 68.1055 118.197 69.0535C118.197 70.2415 117.471 71.0815 116.019 71.5735C114.579 72.0775 112.491 72.3295 109.755 72.3295ZM109.755 69.4495C110.547 69.4495 111.141 69.4375 111.537 69.4135C111.945 69.3895 112.227 69.3415 112.383 69.2695C112.551 69.2095 112.635 69.1135 112.635 68.9815C112.635 68.8015 112.437 68.6815 112.041 68.6215C111.645 68.5495 110.883 68.5135 109.755 68.5135C108.627 68.5135 107.865 68.5495 107.469 68.6215C107.073 68.6815 106.875 68.8015 106.875 68.9815C106.875 69.1135 106.953 69.2095 107.109 69.2695C107.277 69.3415 107.559 69.3895 107.955 69.4135C108.363 69.4375 108.963 69.4495 109.755 69.4495ZM127.885 71.1055C126.673 71.1055 125.623 70.8595 124.735 70.3675C123.847 69.8755 123.163 69.1555 122.683 68.2075C122.203 67.2475 121.963 66.0775 121.963 64.6975C121.963 63.1375 122.305 61.8595 122.989 60.8635L121.369 61.0075L121.279 57.2095C123.283 56.9695 125.329 56.8375 127.417 56.8135C126.217 56.3455 124.879 56.0575 123.403 55.9495L124.663 52.7815C127.915 53.3575 129.997 54.4615 130.909 56.0935L130.441 56.8675C131.653 56.9155 132.997 57.0295 134.473 57.2095L134.383 61.0075L132.763 60.8275C133.459 61.8835 133.807 63.1735 133.807 64.6975C133.807 66.0775 133.567 67.2475 133.087 68.2075C132.607 69.1555 131.923 69.8755 131.035 70.3675C130.147 70.8595 129.097 71.1055 127.885 71.1055ZM127.885 67.1275C128.365 67.1275 128.731 66.8815 128.983 66.3895C129.247 65.8975 129.379 65.0695 129.379 63.9055C129.379 62.7655 129.247 61.9555 128.983 61.4755C128.731 60.9835 128.365 60.7375 127.885 60.7375C127.405 60.7375 127.033 60.9835 126.769 61.4755C126.517 61.9555 126.391 62.7655 126.391 63.9055C126.391 65.0695 126.517 65.8975 126.769 66.3895C127.033 66.8815 127.405 67.1275 127.885 67.1275ZM135.265 71.9155C135.037 68.9875 134.923 65.9815 134.923 62.8975C134.923 60.3055 135.007 57.6115 135.175 54.8155H140.251C140.311 56.1235 140.341 57.6895 140.341 59.5135V60.8815H142.159V64.8415H140.233C140.113 67.3975 139.939 69.7555 139.711 71.9155H135.265ZM142.918 66.5515C144.274 66.0235 145.3 65.3755 145.996 64.6075C146.704 63.8275 147.058 62.9695 147.058 62.0335C147.058 61.8655 147.034 61.6255 146.986 61.3135C146.902 60.8455 146.71 60.4795 146.41 60.2155C146.11 59.9515 145.75 59.8195 145.33 59.8195C144.742 59.8195 144.124 60.0715 143.476 60.5755L142.99 57.0295C143.626 56.4415 144.304 55.9975 145.024 55.6975C145.744 55.3975 146.47 55.2475 147.202 55.2475C148.03 55.2475 148.804 55.4335 149.524 55.8055C150.244 56.1775 150.844 56.7295 151.324 57.4615C151.816 58.1935 152.134 59.0635 152.278 60.0715L152.296 60.1975H153.43C153.406 59.0695 153.394 57.3955 153.394 55.1755H157.624V71.5555H153.916C153.724 68.6875 153.598 66.2215 153.538 64.1575H152.188C151.888 65.5255 151.33 66.7075 150.514 67.7035C149.71 68.6875 148.756 69.4675 147.652 70.0435C146.56 70.6195 145.396 71.0035 144.16 71.1955L142.918 66.5515ZM158.65 54.8155H163.024C163.036 55.4875 163.042 56.4955 163.042 57.8395C163.042 62.7475 162.862 67.4395 162.502 71.9155H158.65V54.8155ZM170.458 66.5515C172.378 66.0715 173.818 65.4175 174.778 64.5895C175.75 63.7495 176.236 62.8195 176.236 61.7995C176.236 61.5715 176.206 61.3195 176.146 61.0435C176.026 60.5515 175.786 60.1795 175.426 59.9275C175.078 59.6635 174.628 59.5315 174.076 59.5315C173.2 59.5315 172.18 59.8495 171.016 60.4855L170.53 56.8675C171.406 56.2555 172.318 55.7935 173.266 55.4815C174.214 55.1695 175.144 55.0135 176.056 55.0135C177.064 55.0135 177.988 55.1995 178.828 55.5715C179.68 55.9435 180.382 56.5015 180.934 57.2455C181.486 57.9775 181.834 58.8655 181.978 59.9095C182.05 60.4495 182.086 60.9715 182.086 61.4755C182.086 63.3835 181.606 65.0335 180.646 66.4255C179.686 67.8175 178.414 68.9095 176.83 69.7015C175.258 70.4935 173.548 70.9915 171.7 71.1955L170.458 66.5515ZM183.868 71.9155C183.64 68.9875 183.526 65.9815 183.526 62.8975C183.526 60.3055 183.61 57.6115 183.778 54.8155H189.394C189.466 56.4355 189.502 58.0495 189.502 59.6575C189.502 63.7375 189.286 67.8235 188.854 71.9155H183.868ZM204.536 71.3035C204.536 70.8835 204.464 70.5955 204.32 70.4395C204.176 70.2955 203.918 70.1995 203.546 70.1515C202.622 70.0315 201.356 69.9715 199.748 69.9715C197.828 69.9715 195.836 70.0495 193.772 70.2055L193.592 67.0555C196.136 66.8515 198.572 66.7495 200.9 66.7495C202.544 66.7495 204.194 66.8035 205.85 66.9115C208.91 67.1155 210.44 67.9855 210.44 69.5215C210.44 70.1815 210.134 70.9795 209.522 71.9155H204.5L204.536 71.3035ZM191.666 63.5455H198.686V63.1135L197.57 63.0235C196.082 62.8915 195.002 62.6815 194.33 62.3935C193.67 62.1055 193.34 61.6975 193.34 61.1695C193.34 60.8335 193.46 60.4375 193.7 59.9815H192.98V58.0015H204.428C204.56 57.7855 204.29 57.6355 203.618 57.5515C202.598 57.4075 201.194 57.3355 199.406 57.3355C197.63 57.3355 195.716 57.3955 193.664 57.5155L193.574 54.9235C195.542 54.8035 197.57 54.7435 199.658 54.7435C202.106 54.7435 204.134 54.8275 205.742 54.9955C207.026 55.1275 207.974 55.3555 208.586 55.6795C209.198 55.9915 209.504 56.3755 209.504 56.8315C209.504 57.1915 209.324 57.5815 208.964 58.0015H209.72V59.9815H198.83C198.794 60.0295 198.776 60.0835 198.776 60.1435C198.776 60.3595 199.13 60.4915 199.838 60.5395C200.618 60.5995 201.548 60.6295 202.628 60.6295C203.78 60.6295 204.956 60.5995 206.156 60.5395C207.368 60.4675 208.418 60.3655 209.306 60.2335L209.828 62.6455C208.352 62.9215 206.558 63.1075 204.446 63.2035V63.5455H211.466V66.3355H191.666V63.5455ZM219.695 71.1055C218.483 71.1055 217.433 70.8595 216.545 70.3675C215.657 69.8755 214.973 69.1555 214.493 68.2075C214.013 67.2475 213.773 66.0775 213.773 64.6975C213.773 63.1375 214.115 61.8595 214.799 60.8635L213.179 61.0075L213.089 57.2095C215.093 56.9695 217.139 56.8375 219.227 56.8135C218.027 56.3455 216.689 56.0575 215.213 55.9495L216.473 52.7815C219.725 53.3575 221.807 54.4615 222.719 56.0935L222.251 56.8675C223.463 56.9155 224.807 57.0295 226.283 57.2095L226.193 61.0075L224.573 60.8275C225.269 61.8835 225.617 63.1735 225.617 64.6975C225.617 66.0775 225.377 67.2475 224.897 68.2075C224.417 69.1555 223.733 69.8755 222.845 70.3675C221.957 70.8595 220.907 71.1055 219.695 71.1055ZM219.695 67.1275C220.175 67.1275 220.541 66.8815 220.793 66.3895C221.057 65.8975 221.189 65.0695 221.189 63.9055C221.189 62.7655 221.057 61.9555 220.793 61.4755C220.541 60.9835 220.175 60.7375 219.695 60.7375C219.215 60.7375 218.843 60.9835 218.579 61.4755C218.327 61.9555 218.201 62.7655 218.201 63.9055C218.201 65.0695 218.327 65.8975 218.579 66.3895C218.843 66.8815 219.215 67.1275 219.695 67.1275ZM227.075 71.9155C226.847 68.9875 226.733 65.9815 226.733 62.8975C226.733 60.3055 226.817 57.6115 226.985 54.8155H232.061C232.121 56.1235 232.151 57.6895 232.151 59.5135V60.8815H233.969V64.8415H232.043C231.923 67.3975 231.749 69.7555 231.521 71.9155H227.075ZM233.793 68.9095C235.953 66.3895 237.015 61.9075 236.979 55.4635L242.271 55.4455C242.271 58.2895 242.091 60.6775 241.731 62.6095C241.995 62.5135 242.247 62.4655 242.487 62.4655C242.907 62.4655 243.303 62.5735 243.675 62.7895V60.1615H246.069C246.045 59.0455 246.033 57.3835 246.033 55.1755H249.993V71.5555H246.555C246.375 69.1435 246.249 66.6655 246.177 64.1215H244.953C245.325 64.8055 245.511 65.6095 245.511 66.5335C245.511 67.8535 245.121 69.2875 244.341 70.8355H240.777C240.921 69.7195 240.993 68.7355 240.993 67.8835C240.993 66.9115 240.885 66.3175 240.669 66.1015C240.237 67.0855 239.697 67.9975 239.049 68.8375C238.401 69.6895 237.615 70.5055 236.691 71.2855L233.793 68.9095ZM250.785 54.8155H254.835C254.847 55.4875 254.853 56.4955 254.853 57.8395C254.853 62.7475 254.673 67.4395 254.313 71.9155H250.785V54.8155ZM266.376 66.7855C265.908 66.7855 265.458 66.7675 265.026 66.7315V68.0455H267.906V66.7135C267.474 66.7615 266.964 66.7855 266.376 66.7855ZM256.476 68.0455H260.886V65.6695C259.914 65.1775 259.176 64.5295 258.672 63.7255C258.168 62.9215 257.916 61.9915 257.916 60.9355C257.916 59.7235 258.252 58.6795 258.924 57.8035C259.596 56.9155 260.562 56.2435 261.822 55.7875C263.094 55.3195 264.612 55.0855 266.376 55.0855C268.14 55.0855 269.652 55.3195 270.912 55.7875C272.184 56.2555 273.156 56.9275 273.828 57.8035C274.5 58.6795 274.836 59.7235 274.836 60.9355C274.836 61.9555 274.596 62.8615 274.116 63.6535C273.648 64.4335 272.958 65.0755 272.046 65.5795V68.0455H276.276V71.7535H256.476V68.0455ZM266.376 62.8615C267.192 62.8615 267.834 62.6935 268.302 62.3575C268.77 62.0095 269.004 61.5355 269.004 60.9355C269.004 60.3355 268.77 59.8675 268.302 59.5315C267.834 59.1835 267.192 59.0095 266.376 59.0095C265.56 59.0095 264.918 59.1835 264.45 59.5315C263.982 59.8675 263.748 60.3355 263.748 60.9355C263.748 61.5355 263.982 62.0095 264.45 62.3575C264.918 62.6935 265.56 62.8615 266.376 62.8615ZM280.69 72.0235C279.778 72.0235 279.064 71.7775 278.548 71.2855C278.032 70.8055 277.774 70.1455 277.774 69.3055C277.774 68.4775 278.032 67.8175 278.548 67.3255C279.064 66.8215 279.778 66.5695 280.69 66.5695C281.59 66.5695 282.298 66.8215 282.814 67.3255C283.342 67.8175 283.606 68.4775 283.606 69.3055C283.606 70.1335 283.348 70.7935 282.832 71.2855C282.316 71.7775 281.602 72.0235 280.69 72.0235ZM289.63 54.1855L289.324 60.0175H285.184L284.914 54.1855H289.63ZM295.354 54.1855L295.048 60.0175H290.908L290.638 54.1855H295.354Z" fill="#0092CB"/>
<path d="M36 29.0107L52.3966 36.5041" stroke="#40BCEE" stroke-width="3" stroke-linecap="round"/>
<path d="M50.2412 20.627L57.1433 30.6947" stroke="#40BCEE" stroke-width="3" stroke-linecap="round"/>
<path d="M64.3975 16L67.242 24.3704" stroke="#40BCEE" stroke-width="3" stroke-linecap="round"/>
<path d="M324.24 29.0107L307.843 36.5041" stroke="#40BCEE" stroke-width="3" stroke-linecap="round"/>
<path d="M309.999 20.627L303.097 30.6947" stroke="#40BCEE" stroke-width="3" stroke-linecap="round"/>
<path d="M295.843 16L292.998 24.3704" stroke="#40BCEE" stroke-width="3" stroke-linecap="round"/>
<rect x="3" y="4" width="351" height="102" stroke="#0092CB" stroke-width="2"/>
</svg>
