<svg width="404" height="296" viewBox="0 0 404 296" fill="none" xmlns="http://www.w3.org/2000/svg">
<rect x="1" y="1" width="402" height="294" rx="15" fill="#DEF2FC"/>
<rect x="1" y="1" width="402" height="294" rx="15" stroke="black" stroke-width="2"/>
<path d="M68.248 119.608L67.84 127.384H62.32L61.96 119.608H68.248ZM75.88 119.608L75.472 127.384H69.952L69.592 119.608H75.88ZM78.0438 138.088H87.2838V136.048C84.9318 135.584 83.1238 134.712 81.8598 133.432C80.5958 132.152 79.9638 130.544 79.9638 128.608C79.9638 126.992 80.4118 125.6 81.3078 124.432C82.2038 123.248 83.4918 122.352 85.1718 121.744C86.8678 121.12 88.8918 120.808 91.2438 120.808C93.5958 120.808 95.6118 121.12 97.2918 121.744C98.9878 122.368 100.284 123.264 101.18 124.432C102.076 125.6 102.524 126.992 102.524 128.608C102.524 130.544 101.892 132.152 100.628 133.432C99.3638 134.712 97.5558 135.584 95.2038 136.048V138.088H104.444V143.032H78.0438V138.088ZM91.2438 131.176C92.3318 131.176 93.1878 130.952 93.8118 130.504C94.4358 130.04 94.7478 129.408 94.7478 128.608C94.7478 127.808 94.4358 127.184 93.8118 126.736C93.1878 126.272 92.3318 126.04 91.2438 126.04C90.1558 126.04 89.2998 126.272 88.6758 126.736C88.0518 127.184 87.7398 127.808 87.7398 128.608C87.7398 129.408 88.0518 130.04 88.6758 130.504C89.2998 130.952 90.1558 131.176 91.2438 131.176ZM115.128 128.248C113.336 128.136 111.952 127.904 110.976 127.552C110 127.184 109.32 126.704 108.936 126.112C108.568 125.52 108.384 124.776 108.384 123.88C108.384 123.208 108.472 122.616 108.648 122.104C108.824 121.592 109.056 121.048 109.344 120.472H116.016C115.904 120.968 115.848 121.36 115.848 121.648C115.848 122.16 115.992 122.576 116.28 122.896C116.568 123.2 117.056 123.408 117.744 123.52C118.56 123.664 119.944 123.736 121.896 123.736C123.368 123.736 124.896 123.688 126.48 123.592C128.08 123.496 129.552 123.352 130.896 123.16L131.424 127.936C128.064 128.256 124.472 128.416 120.648 128.416C118.472 128.416 116.632 128.36 115.128 128.248ZM115.44 143.368C113.424 143.176 111.96 142.904 111.048 142.552C110.152 142.216 109.704 141.712 109.704 141.04C109.704 140.624 109.896 140.088 110.28 139.432H108.912V136.936H124.824C124.984 136.68 124.624 136.504 123.744 136.408C122.256 136.264 120.328 136.192 117.96 136.192C115.992 136.192 113.288 136.248 109.848 136.36L109.776 133.12C113.168 132.976 116.464 132.904 119.664 132.904C121.872 132.904 124.016 132.944 126.096 133.024C127.872 133.104 129.2 133.368 130.08 133.816C130.96 134.264 131.4 134.816 131.4 135.472C131.4 135.936 131.192 136.424 130.776 136.936H131.592V139.432H117.144C117.08 139.496 117.048 139.568 117.048 139.648C117.048 139.76 117.16 139.848 117.384 139.912C117.608 139.992 117.968 140.048 118.464 140.08C119.504 140.16 120.76 140.2 122.232 140.2C123.736 140.2 125.288 140.16 126.888 140.08C128.504 140.016 129.904 139.912 131.088 139.768L131.664 143.056C129.088 143.472 126.008 143.68 122.424 143.68C119.96 143.68 117.632 143.576 115.44 143.368ZM106.848 128.824H133.248V132.376H106.848V128.824ZM151.416 142.168C149.8 142.168 148.4 141.84 147.216 141.184C146.032 140.528 145.12 139.568 144.48 138.304C143.84 137.024 143.52 135.464 143.52 133.624C143.52 131.544 143.976 129.84 144.888 128.512L142.728 128.704L142.608 123.64C145.28 123.32 148.008 123.144 150.792 123.112C149.192 122.488 147.408 122.104 145.44 121.96L147.12 117.736C151.456 118.504 154.232 119.976 155.448 122.152L154.824 123.184C156.44 123.248 158.232 123.4 160.2 123.64L160.08 128.704L157.92 128.464C158.848 129.872 159.312 131.592 159.312 133.624C159.312 135.464 158.992 137.024 158.352 138.304C157.712 139.568 156.8 140.528 155.616 141.184C154.432 141.84 153.032 142.168 151.416 142.168ZM151.416 136.864C152.056 136.864 152.544 136.536 152.88 135.88C153.232 135.224 153.408 134.12 153.408 132.568C153.408 131.048 153.232 129.968 152.88 129.328C152.544 128.672 152.056 128.344 151.416 128.344C150.776 128.344 150.28 128.672 149.928 129.328C149.592 129.968 149.424 131.048 149.424 132.568C149.424 134.12 149.592 135.224 149.928 135.88C150.28 136.536 150.776 136.864 151.416 136.864ZM161.256 143.248C160.952 139.344 160.8 135.336 160.8 131.224C160.8 127.768 160.912 124.176 161.136 120.448H167.904C167.984 122.192 168.024 124.28 168.024 126.712V128.536H170.448V133.816H167.88C167.72 137.224 167.488 140.368 167.184 143.248H161.256ZM179.189 133.696C177.445 133.536 176.133 133.224 175.253 132.76C174.373 132.28 173.933 131.672 173.933 130.936C173.933 130.36 174.197 129.712 174.725 128.992H173.381V125.752H188.165C188.261 125.624 188.309 125.528 188.309 125.464C188.309 125.208 187.861 125.048 186.965 124.984C185.269 124.84 183.429 124.768 181.445 124.768C178.917 124.768 176.509 124.872 174.221 125.08L174.101 121.048C176.949 120.76 179.917 120.616 183.005 120.616C185.453 120.616 187.693 120.72 189.725 120.928C191.581 121.12 192.973 121.464 193.901 121.96C194.829 122.44 195.293 123.016 195.293 123.688C195.293 124.344 194.869 125.032 194.021 125.752H195.221V128.992H181.205C181.157 129.056 181.133 129.128 181.133 129.208C181.133 129.384 181.269 129.52 181.541 129.616C181.813 129.696 182.277 129.752 182.933 129.784C183.957 129.848 185.149 129.88 186.509 129.88C189.501 129.88 192.317 129.696 194.957 129.328L195.773 133.192C194.429 133.448 192.869 133.648 191.093 133.792C189.317 133.92 187.461 133.984 185.525 133.984C183.141 133.984 181.029 133.888 179.189 133.696ZM181.157 143.248C180.933 141.76 180.821 140.264 180.821 138.76H171.653V134.464H198.053V138.76H188.885C188.885 140.264 188.773 141.76 188.549 143.248H181.157ZM208.882 136.072C206.882 135.656 205.354 134.896 204.298 133.792C203.258 132.688 202.738 131.448 202.738 130.072C202.738 128.872 203.13 127.72 203.914 126.616L202.186 126.712L201.946 121.432C205.05 120.968 208.682 120.736 212.842 120.736C217.146 120.736 220.898 120.984 224.098 121.48L223.858 126.856C220.242 126.472 217.01 126.28 214.162 126.28C212.738 126.28 211.642 126.32 210.874 126.4C210.442 126.752 210.114 127.12 209.89 127.504C209.682 127.888 209.578 128.272 209.578 128.656C209.578 129.136 209.73 129.568 210.034 129.952C210.354 130.32 210.778 130.592 211.306 130.768C212.458 131.136 213.858 131.32 215.506 131.32C217.954 131.32 220.538 130.944 223.258 130.192L224.338 135.304C222.45 135.912 220.25 136.32 217.738 136.528V138.232H226.858V143.032H200.458V138.232H210.058V136.288L208.882 136.072ZM230.271 144.976C231.071 144.448 231.631 143.872 231.951 143.248C231.071 143.136 230.335 142.768 229.743 142.144C229.15 141.52 228.854 140.728 228.854 139.768C228.854 138.664 229.199 137.784 229.887 137.128C230.575 136.456 231.527 136.12 232.743 136.12C233.959 136.12 234.911 136.472 235.599 137.176C236.287 137.864 236.631 138.808 236.631 140.008C236.631 141.416 236.231 142.72 235.431 143.92C234.647 145.136 233.471 146.056 231.903 146.68L230.271 144.976ZM63.16 161.08C65.56 160.152 67.376 158.84 68.608 157.144C69.84 155.432 70.456 153.28 70.456 150.688H78.472C78.472 152.496 78.272 154.176 77.872 155.728C78.768 155.328 79.72 155.128 80.728 155.128C81.768 155.128 82.736 155.36 83.632 155.824C84.528 156.272 85.248 156.944 85.792 157.84C86.336 158.72 86.608 159.776 86.608 161.008C86.608 162.4 86.256 163.904 85.552 165.52H79.72C79.752 165.264 79.768 164.896 79.768 164.416C79.768 162.96 79.488 161.864 78.928 161.128C78.368 160.376 77.656 160 76.792 160C76.536 160 76.208 160.056 75.808 160.168C73.744 163.032 70.408 165.024 65.8 166.144L63.16 161.08ZM62.2 168.232H71.896C71.72 167.096 71.632 165.96 71.632 164.824C71.632 164.408 71.64 164.104 71.656 163.912H79.144C79.16 164.104 79.168 164.408 79.168 164.824C79.168 165.96 79.08 167.096 78.904 168.232H88.6V173.032H62.2V168.232ZM92.3247 156.616C94.7887 156.408 97.1327 156.136 99.3567 155.8C101.581 155.448 103.437 155.04 104.925 154.576H104.061C102.701 154.576 101.213 154.624 99.5967 154.72C97.9967 154.8 96.5407 154.912 95.2287 155.056L94.7967 150.808C97.1967 150.536 99.8687 150.4 102.813 150.4C104.845 150.4 106.653 150.472 108.237 150.616C109.693 150.76 110.813 151.104 111.597 151.648C112.381 152.176 112.773 152.816 112.773 153.568C112.773 154.304 112.413 155.048 111.693 155.8C112.093 155.688 112.509 155.632 112.941 155.632C113.725 155.632 114.357 155.84 114.837 156.256C115.333 156.656 115.581 157.232 115.581 157.984C115.581 158.752 115.333 159.608 114.837 160.552H109.125C109.125 159.672 109.045 159.048 108.885 158.68C108.741 158.296 108.517 158.096 108.213 158.08C104.949 159.488 100.077 160.44 93.5967 160.936L92.3247 156.616ZM104.205 173.8C100.557 173.8 97.7647 173.464 95.8287 172.792C93.9087 172.136 92.9487 171.016 92.9487 169.432C92.9487 168.168 93.5647 167.224 94.7967 166.6C96.0447 165.976 97.8687 165.584 100.269 165.424L100.221 164.8H91.0047V161.2H117.405V164.8H108.189L108.141 165.424C110.541 165.584 112.357 165.976 113.589 166.6C114.837 167.224 115.461 168.168 115.461 169.432C115.461 171.016 114.493 172.136 112.557 172.792C110.637 173.464 107.853 173.8 104.205 173.8ZM104.205 169.96C105.261 169.96 106.053 169.944 106.581 169.912C107.125 169.88 107.501 169.816 107.709 169.72C107.933 169.64 108.045 169.512 108.045 169.336C108.045 169.096 107.781 168.936 107.253 168.856C106.725 168.76 105.709 168.712 104.205 168.712C102.701 168.712 101.685 168.76 101.157 168.856C100.629 168.936 100.365 169.096 100.365 169.336C100.365 169.512 100.469 169.64 100.677 169.72C100.901 169.816 101.277 169.88 101.805 169.912C102.349 169.944 103.149 169.96 104.205 169.96ZM128.377 172.168C126.761 172.168 125.361 171.84 124.177 171.184C122.993 170.528 122.081 169.568 121.441 168.304C120.801 167.024 120.481 165.464 120.481 163.624C120.481 161.544 120.937 159.84 121.849 158.512L119.689 158.704L119.569 153.64C122.241 153.32 124.969 153.144 127.753 153.112C126.153 152.488 124.369 152.104 122.401 151.96L124.081 147.736C128.417 148.504 131.193 149.976 132.409 152.152L131.785 153.184C133.401 153.248 135.193 153.4 137.161 153.64L137.041 158.704L134.881 158.464C135.809 159.872 136.273 161.592 136.273 163.624C136.273 165.464 135.953 167.024 135.313 168.304C134.673 169.568 133.761 170.528 132.577 171.184C131.393 171.84 129.993 172.168 128.377 172.168ZM128.377 166.864C129.017 166.864 129.505 166.536 129.841 165.88C130.193 165.224 130.369 164.12 130.369 162.568C130.369 161.048 130.193 159.968 129.841 159.328C129.505 158.672 129.017 158.344 128.377 158.344C127.737 158.344 127.241 158.672 126.889 159.328C126.553 159.968 126.385 161.048 126.385 162.568C126.385 164.12 126.553 165.224 126.889 165.88C127.241 166.536 127.737 166.864 128.377 166.864ZM138.217 173.248C137.913 169.344 137.761 165.336 137.761 161.224C137.761 157.768 137.873 154.176 138.097 150.448H144.865C144.945 152.192 144.985 154.28 144.985 156.712V158.536H147.409V163.816H144.841C144.681 167.224 144.449 170.368 144.145 173.248H138.217ZM148.422 166.096C150.23 165.392 151.598 164.528 152.526 163.504C153.47 162.464 153.942 161.32 153.942 160.072C153.942 159.848 153.91 159.528 153.846 159.112C153.734 158.488 153.478 158 153.078 157.648C152.678 157.296 152.198 157.12 151.638 157.12C150.854 157.12 150.03 157.456 149.166 158.128L148.518 153.4C149.366 152.616 150.27 152.024 151.23 151.624C152.19 151.224 153.158 151.024 154.134 151.024C155.238 151.024 156.27 151.272 157.23 151.768C158.19 152.264 158.99 153 159.63 153.976C160.286 154.952 160.71 156.112 160.902 157.456L160.926 157.624H162.438C162.406 156.12 162.39 153.888 162.39 150.928H168.03V172.768H163.086C162.83 168.944 162.662 165.656 162.582 162.904H160.782C160.382 164.728 159.638 166.304 158.55 167.632C157.478 168.944 156.206 169.984 154.734 170.752C153.278 171.52 151.726 172.032 150.078 172.288L148.422 166.096ZM169.398 150.448H175.23C175.246 151.344 175.254 152.688 175.254 154.48C175.254 161.024 175.014 167.28 174.534 173.248H169.398V150.448ZM185.142 166.096C187.702 165.456 189.622 164.584 190.902 163.48C192.198 162.36 192.846 161.12 192.846 159.76C192.846 159.456 192.806 159.12 192.726 158.752C192.566 158.096 192.246 157.6 191.766 157.264C191.302 156.912 190.702 156.736 189.966 156.736C188.798 156.736 187.438 157.16 185.886 158.008L185.238 153.184C186.406 152.368 187.622 151.752 188.886 151.336C190.15 150.92 191.39 150.712 192.606 150.712C193.95 150.712 195.182 150.96 196.302 151.456C197.438 151.952 198.374 152.696 199.11 153.688C199.846 154.664 200.31 155.848 200.502 157.24C200.598 157.96 200.646 158.656 200.646 159.328C200.646 161.872 200.006 164.072 198.726 165.928C197.446 167.784 195.75 169.24 193.638 170.296C191.542 171.352 189.262 172.016 186.798 172.288L185.142 166.096ZM203.022 173.248C202.718 169.344 202.566 165.336 202.566 161.224C202.566 157.768 202.678 154.176 202.902 150.448H210.39C210.486 152.608 210.534 154.76 210.534 156.904C210.534 162.344 210.246 167.792 209.67 173.248H203.022ZM230.579 172.432C230.579 171.872 230.483 171.488 230.291 171.28C230.099 171.088 229.755 170.96 229.259 170.896C228.027 170.736 226.339 170.656 224.195 170.656C221.635 170.656 218.979 170.76 216.227 170.968L215.987 166.768C219.379 166.496 222.627 166.36 225.731 166.36C227.923 166.36 230.123 166.432 232.331 166.576C236.411 166.848 238.451 168.008 238.451 170.056C238.451 170.936 238.043 172 237.227 173.248H230.531L230.579 172.432ZM213.419 162.088H222.779V161.512L221.291 161.392C219.307 161.216 217.867 160.936 216.971 160.552C216.091 160.168 215.651 159.624 215.651 158.92C215.651 158.472 215.811 157.944 216.131 157.336H215.171V154.696H230.435C230.611 154.408 230.251 154.208 229.355 154.096C227.995 153.904 226.123 153.808 223.739 153.808C221.371 153.808 218.819 153.888 216.083 154.048L215.963 150.592C218.587 150.432 221.291 150.352 224.075 150.352C227.339 150.352 230.043 150.464 232.187 150.688C233.899 150.864 235.163 151.168 235.979 151.6C236.795 152.016 237.203 152.528 237.203 153.136C237.203 153.616 236.963 154.136 236.483 154.696H237.491V157.336H222.971C222.923 157.4 222.899 157.472 222.899 157.552C222.899 157.84 223.371 158.016 224.315 158.08C225.355 158.16 226.595 158.2 228.035 158.2C229.571 158.2 231.139 158.16 232.739 158.08C234.355 157.984 235.755 157.848 236.939 157.672L237.635 160.888C235.667 161.256 233.275 161.504 230.459 161.632V162.088H239.819V165.808H213.419V162.088ZM250.791 172.168C249.175 172.168 247.775 171.84 246.591 171.184C245.407 170.528 244.495 169.568 243.855 168.304C243.215 167.024 242.895 165.464 242.895 163.624C242.895 161.544 243.351 159.84 244.263 158.512L242.103 158.704L241.983 153.64C244.655 153.32 247.383 153.144 250.167 153.112C248.567 152.488 246.783 152.104 244.815 151.96L246.495 147.736C250.831 148.504 253.607 149.976 254.823 152.152L254.199 153.184C255.815 153.248 257.607 153.4 259.575 153.64L259.455 158.704L257.295 158.464C258.223 159.872 258.687 161.592 258.687 163.624C258.687 165.464 258.367 167.024 257.727 168.304C257.087 169.568 256.175 170.528 254.991 171.184C253.807 171.84 252.407 172.168 250.791 172.168ZM250.791 166.864C251.431 166.864 251.919 166.536 252.255 165.88C252.607 165.224 252.783 164.12 252.783 162.568C252.783 161.048 252.607 159.968 252.255 159.328C251.919 158.672 251.431 158.344 250.791 158.344C250.151 158.344 249.655 158.672 249.303 159.328C248.967 159.968 248.799 161.048 248.799 162.568C248.799 164.12 248.967 165.224 249.303 165.88C249.655 166.536 250.151 166.864 250.791 166.864ZM260.631 173.248C260.327 169.344 260.175 165.336 260.175 161.224C260.175 157.768 260.287 154.176 260.511 150.448H267.279C267.359 152.192 267.399 154.28 267.399 156.712V158.536H269.823V163.816H267.255C267.095 167.224 266.863 170.368 266.559 173.248H260.631ZM269.588 169.24C272.468 165.88 273.884 159.904 273.836 151.312L280.892 151.288C280.892 155.08 280.652 158.264 280.172 160.84C280.524 160.712 280.86 160.648 281.18 160.648C281.74 160.648 282.268 160.792 282.764 161.08V157.576H285.956C285.924 156.088 285.908 153.872 285.908 150.928H291.188V172.768H286.604C286.364 169.552 286.196 166.248 286.1 162.856H284.468C284.964 163.768 285.212 164.84 285.212 166.072C285.212 167.832 284.692 169.744 283.652 171.808H278.9C279.092 170.32 279.188 169.008 279.188 167.872C279.188 166.576 279.044 165.784 278.756 165.496C278.18 166.808 277.46 168.024 276.596 169.144C275.732 170.28 274.684 171.368 273.452 172.408L269.588 169.24ZM292.244 150.448H297.644C297.66 151.344 297.668 152.688 297.668 154.48C297.668 161.024 297.428 167.28 296.948 173.248H292.244V150.448ZM313.033 166.408C312.409 166.408 311.809 166.384 311.233 166.336V168.088H315.073V166.312C314.497 166.376 313.817 166.408 313.033 166.408ZM299.833 168.088H305.713V164.92C304.417 164.264 303.433 163.4 302.761 162.328C302.089 161.256 301.753 160.016 301.753 158.608C301.753 156.992 302.201 155.6 303.097 154.432C303.993 153.248 305.281 152.352 306.961 151.744C308.657 151.12 310.681 150.808 313.033 150.808C315.385 150.808 317.401 151.12 319.081 151.744C320.777 152.368 322.073 153.264 322.969 154.432C323.865 155.6 324.313 156.992 324.313 158.608C324.313 159.968 323.993 161.176 323.353 162.232C322.729 163.272 321.809 164.128 320.593 164.8V168.088H326.233V173.032H299.833V168.088ZM313.033 161.176C314.121 161.176 314.977 160.952 315.601 160.504C316.225 160.04 316.537 159.408 316.537 158.608C316.537 157.808 316.225 157.184 315.601 156.736C314.977 156.272 314.121 156.04 313.033 156.04C311.945 156.04 311.089 156.272 310.465 156.736C309.841 157.184 309.529 157.808 309.529 158.608C309.529 159.408 309.841 160.04 310.465 160.504C311.089 160.952 311.945 161.176 313.033 161.176ZM332.118 173.392C330.902 173.392 329.95 173.064 329.262 172.408C328.574 171.768 328.229 170.888 328.229 169.768C328.229 168.664 328.574 167.784 329.262 167.128C329.95 166.456 330.902 166.12 332.118 166.12C333.318 166.12 334.262 166.456 334.95 167.128C335.654 167.784 336.006 168.664 336.006 169.768C336.006 170.872 335.662 171.752 334.974 172.408C334.286 173.064 333.334 173.392 332.118 173.392ZM344.037 149.608L343.629 157.384H338.109L337.749 149.608H344.037ZM351.669 149.608L351.261 157.384H345.741L345.381 149.608H351.669Z" fill="#0092CB"/>
<path d="M33 113.012L49.3966 120.505" stroke="#40BCEE" stroke-width="3" stroke-linecap="round"/>
<path d="M47.2422 104.625L54.1443 114.693" stroke="#40BCEE" stroke-width="3" stroke-linecap="round"/>
<path d="M61.3984 100L64.243 108.37" stroke="#40BCEE" stroke-width="3" stroke-linecap="round"/>
<path d="M370.24 113.012L353.844 120.505" stroke="#40BCEE" stroke-width="3" stroke-linecap="round"/>
<path d="M355.998 104.625L349.096 114.693" stroke="#40BCEE" stroke-width="3" stroke-linecap="round"/>
<path d="M341.842 100L338.997 108.37" stroke="#40BCEE" stroke-width="3" stroke-linecap="round"/>
</svg>
