<svg width="992" height="110" viewBox="0 0 992 110" fill="none" xmlns="http://www.w3.org/2000/svg">
<rect width="992" height="110" fill="#FED377"/>
<path d="M448.076 68.678H451.226C451.235 69.2007 451.24 69.9847 451.24 71.03C451.24 74.8473 451.1 78.4967 450.82 81.978H448.076V68.678ZM439.326 78.688L439.522 78.674C439.709 78.5713 439.849 78.436 439.942 78.268C440.035 78.1 440.101 77.806 440.138 77.386C440.185 76.9567 440.208 76.3033 440.208 75.426L438.976 75.482C438.976 77.5353 438.929 79.4207 438.836 81.138H436.26C435.793 78.6927 435.56 76.0233 435.56 73.13C435.56 71.9167 435.602 70.6893 435.686 69.448H438.836C438.873 70.1293 438.911 71.1793 438.948 72.598L440.18 72.542L440.11 69.252H443.428C443.437 69.9427 443.442 70.862 443.442 72.01C443.442 73.802 443.4 75.1087 443.316 75.93C443.232 76.742 443.087 77.3113 442.882 77.638C442.677 77.9647 442.341 78.2447 441.874 78.478L443.33 78.366V81.152H439.186L439.326 78.688ZM443.708 73.256H444.604C444.576 72.2853 444.562 70.8527 444.562 68.958H447.46V81.698H444.968C444.837 79.85 444.744 78.0627 444.688 76.336H443.708V73.256ZM456.535 81.054C455.648 80.8767 454.892 80.5593 454.267 80.102C453.651 79.654 453.184 79.108 452.867 78.464C452.559 77.8107 452.405 77.1013 452.405 76.336C452.405 75.692 452.512 75.034 452.727 74.362C452.951 73.69 453.282 73.032 453.721 72.388L452.643 72.43L452.503 69.35C453.931 69.2193 455.503 69.154 457.221 69.154C458.929 69.154 460.497 69.2193 461.925 69.35L461.785 72.458C460.795 72.374 459.787 72.332 458.761 72.332C458.238 72.332 457.865 72.3413 457.641 72.36C457.211 72.6773 456.861 73.102 456.591 73.634C457.16 73.6153 458.009 73.606 459.139 73.606C460.268 73.606 461.113 73.6153 461.673 73.634L461.743 76.504C460.408 76.5507 459.199 76.574 458.117 76.574C457.361 76.574 456.791 76.5693 456.409 76.56C456.679 77.1573 457.132 77.568 457.767 77.792C458.233 77.96 458.784 78.044 459.419 78.044C460.249 78.044 461.061 77.9087 461.855 77.638L462.485 80.55C461.934 80.7647 461.304 80.928 460.595 81.04C459.885 81.1613 459.171 81.222 458.453 81.222C457.753 81.222 457.113 81.166 456.535 81.054ZM463.213 81.978C463.007 79.5513 462.905 77.0733 462.905 74.544C462.905 72.5187 462.965 70.5633 463.087 68.678H466.993C467.067 70.1433 467.105 71.5153 467.105 72.794V73.396H468.603V76.476H467.021C466.955 78.24 466.82 80.074 466.615 81.978H463.213ZM468.549 79.388C469.716 78.4267 470.565 77.106 471.097 75.426C471.629 73.7367 471.886 71.6087 471.867 69.042L476.263 69.028C476.263 70.288 476.212 71.4127 476.109 72.402C476.016 73.3913 475.862 74.292 475.647 75.104C475.927 74.9733 476.212 74.908 476.501 74.908C476.959 74.908 477.407 75.0433 477.845 75.314C478.293 75.5847 478.657 75.9673 478.937 76.462C479.227 76.9567 479.371 77.526 479.371 78.17C479.371 79.122 479.059 80.1113 478.433 81.138H475.381C475.465 80.4847 475.507 79.9293 475.507 79.472C475.507 78.8093 475.442 78.3193 475.311 78.002C475.181 77.6847 475.022 77.526 474.835 77.526C474.779 77.526 474.723 77.54 474.667 77.568C474.219 78.3427 473.655 79.0473 472.973 79.682C472.292 80.326 471.461 80.928 470.481 81.488L468.549 79.388ZM477.747 71.716H480.127C480.155 70.5773 480.202 69.5647 480.267 68.678H484.593C484.668 70.1713 484.705 71.5667 484.705 72.864C484.705 75.86 484.542 78.898 484.215 81.978H480.393C480.207 79.7287 480.104 77.428 480.085 75.076H477.747V71.716ZM497.448 81.978C497.243 79.5513 497.14 77.0733 497.14 74.544C497.14 72.5187 497.201 70.5633 497.322 68.678H501.368C501.443 70.1713 501.48 71.5667 501.48 72.864C501.48 75.86 501.317 78.898 500.99 81.978H497.448ZM486.808 81.138C486.342 78.6927 486.108 76.0233 486.108 73.13C486.108 71.9167 486.15 70.6893 486.234 69.448H490.014C490.052 70.1293 490.089 71.1793 490.126 72.598L492.366 72.472L492.31 69.182H496.146C496.156 69.6953 496.16 70.3907 496.16 71.268C496.16 73.228 496.109 74.67 496.006 75.594C495.904 76.518 495.736 77.162 495.502 77.526C495.278 77.8807 494.91 78.184 494.396 78.436L495.978 78.338V81.152H490.434L490.574 78.688L491.12 78.646C491.419 78.5247 491.648 78.3707 491.806 78.184C491.965 77.9973 492.086 77.6893 492.17 77.26C492.264 76.8213 492.324 76.1867 492.352 75.356L490.154 75.482C490.154 77.5353 490.108 79.4207 490.014 81.138H486.808ZM503.471 75.02C504.871 74.4787 505.93 73.6993 506.649 72.682C507.368 71.6553 507.727 70.3673 507.727 68.818H512.403C512.403 69.91 512.282 70.918 512.039 71.842C512.562 71.6087 513.117 71.492 513.705 71.492C514.321 71.492 514.89 71.6273 515.413 71.898C515.936 72.1687 516.356 72.5653 516.673 73.088C516.99 73.6107 517.149 74.236 517.149 74.964C517.149 75.7853 516.944 76.6673 516.533 77.61H513.131C513.15 77.4607 513.159 77.2413 513.159 76.952C513.159 76.0933 512.991 75.4447 512.655 75.006C512.328 74.558 511.908 74.334 511.395 74.334C511.227 74.334 511.05 74.362 510.863 74.418C509.65 76.1353 507.699 77.3207 505.011 77.974L503.471 75.02ZM502.911 78.912H518.311V81.852H502.911V78.912ZM523.911 78.968H529.301V77.778C527.929 77.5073 526.874 76.9987 526.137 76.252C525.4 75.5053 525.031 74.5673 525.031 73.438C525.031 72.4953 525.292 71.6833 525.815 71.002C526.338 70.3113 527.089 69.7887 528.069 69.434C529.058 69.07 530.239 68.888 531.611 68.888C532.983 68.888 534.159 69.07 535.139 69.434C536.128 69.798 536.884 70.3207 537.407 71.002C537.93 71.6833 538.191 72.4953 538.191 73.438C538.191 74.5673 537.822 75.5053 537.085 76.252C536.348 76.9987 535.293 77.5073 533.921 77.778V78.968H539.311V81.852H523.911V78.968ZM531.611 74.936C532.246 74.936 532.745 74.8053 533.109 74.544C533.473 74.2733 533.655 73.9047 533.655 73.438C533.655 72.9713 533.473 72.6073 533.109 72.346C532.745 72.0753 532.246 71.94 531.611 71.94C530.976 71.94 530.477 72.0753 530.113 72.346C529.749 72.6073 529.567 72.9713 529.567 73.438C529.567 73.9047 529.749 74.2733 530.113 74.544C530.477 74.8053 530.976 74.936 531.611 74.936ZM545.502 82.02C544.531 81.9733 543.77 81.8473 543.22 81.642C542.678 81.4367 542.296 81.166 542.072 80.83C541.857 80.5033 541.75 80.0973 541.75 79.612C541.75 79.3973 541.787 79.1733 541.862 78.94C541.946 78.7067 542.048 78.506 542.17 78.338L546.426 78.45C546.407 78.5247 546.398 78.632 546.398 78.772C546.398 78.996 546.463 79.1687 546.594 79.29C546.734 79.402 546.976 79.4627 547.322 79.472C547.844 79.5 548.372 79.514 548.904 79.514C550.668 79.514 552.684 79.3647 554.952 79.066L555.428 81.586C553.038 81.9313 550.71 82.104 548.442 82.104C547.508 82.104 546.528 82.076 545.502 82.02ZM540.714 75.832H556.114V78.044H540.714V75.832ZM542.268 73.368L544.312 73.312C544.088 73.2373 543.924 73.1533 543.822 73.06C543.719 72.9573 543.649 72.808 543.612 72.612C543.584 72.4067 543.57 72.094 543.57 71.674C544.764 71.5807 545.982 71.534 547.224 71.534L547.168 73.242L549.086 73.2C549.44 73.0693 549.674 72.92 549.786 72.752C549.907 72.584 549.968 72.29 549.968 71.87L549.94 71.24C549.594 71.2307 549.076 71.226 548.386 71.226C545.922 71.226 543.822 71.3007 542.086 71.45L541.946 69.14C543.822 68.972 545.959 68.888 548.358 68.888C550.766 68.888 552.94 68.972 554.882 69.14L554.742 71.45L553.524 71.366C553.514 71.7953 553.477 72.1173 553.412 72.332C553.356 72.5373 553.244 72.696 553.076 72.808C552.908 72.9107 552.642 73.0133 552.278 73.116L554.56 73.06V75.454H542.268V73.368Z" fill="black"/>
<g clip-path="url(#clip0_3749_54192)">
<path d="M442.459 46.5347C440.898 46.0899 439.906 45.2344 439.477 43.9752C439.156 43.024 439.156 41.8948 439.491 40.6014L438.258 41.1763L436 35.5372C439.196 33.9906 442.492 32.6082 445.896 31.4038C449.3 30.1994 452.717 29.2002 456.141 28.3995L457.762 34.1891C455.558 34.716 453.26 35.4004 450.868 36.249C449.715 36.6596 448.73 37.0428 447.92 37.3987C447.544 38.0899 447.424 38.6442 447.564 39.0548C447.685 39.4038 447.973 39.6433 448.429 39.7528C448.891 39.8692 449.494 39.8418 450.251 39.6639C451.055 39.4928 451.812 39.2875 452.523 39.0343C454.425 38.3568 456.422 37.3302 458.519 35.9342L461.648 40.6356C459.437 42.3465 456.63 43.8041 453.226 45.0086C451.605 45.5834 450.131 46.0146 448.797 46.302C446.117 46.9042 444 46.9795 442.446 46.5347H442.459ZM451.122 61.4739C449.802 61.3645 448.978 60.817 448.65 59.8452C448.462 59.284 448.422 58.5723 448.536 57.6964L446.834 58.2986L445.621 54.7263L465.95 47.527C465.923 47.1164 465.374 47.0274 464.288 47.2464C462.66 47.5954 460.549 48.225 457.956 49.142C454.653 50.3123 450.874 51.811 446.62 53.645L444.958 49.2584C448.905 47.5133 453.24 45.8024 457.956 44.1326C460.871 43.0993 463.457 42.2507 465.709 41.5937C468.027 40.9367 469.829 40.7041 471.122 40.8957C472.415 41.0873 473.213 41.6485 473.534 42.5792C473.755 43.2224 473.755 43.9752 473.548 44.8307L474.338 44.5501L475.551 48.1224L457.286 54.5894C457.387 55.089 458.097 55.2053 459.417 54.9453C460.583 54.6921 462.164 54.213 464.168 53.5082C466.03 52.8512 467.966 52.0847 469.977 51.2225C471.987 50.3602 473.735 49.539 475.216 48.7588L477.682 52.6117C476.194 53.5082 474.365 54.4389 472.194 55.4038C470.023 56.3687 467.719 57.2858 465.266 58.1549C462.492 59.1403 459.752 59.9684 457.059 60.6459C454.419 61.3029 452.442 61.5698 451.122 61.4603V61.4739ZM459.464 33.5595C458.781 31.5544 458.211 29.4397 457.749 27.2156L467.229 23.8555C467.759 25.1489 468.268 26.4423 468.75 27.7357L471.792 26.6613L473.903 32.8683L470.593 34.0385C470.901 35.4141 471.142 36.9059 471.33 38.5073L462.915 41.4911C461.407 38.5278 460.261 35.8863 459.477 33.5663L459.464 33.5595Z" fill="black"/>
<path d="M479.27 45.7588L486.955 45.6014C486.419 44.4517 485.997 43.0762 485.682 41.468C485.374 39.8666 485.2 38.1352 485.16 36.2738C485.153 35.8564 485.16 35.1925 485.187 34.2687L495.86 34.0497L495.887 35.4321C495.927 37.3619 496.041 39.1891 496.235 40.9274C496.43 42.6656 496.677 44.1575 496.979 45.3961L514.634 45.0334L514.768 51.8016L479.398 52.5202L479.264 45.752L479.27 45.7588ZM501.247 36.2122C501.207 34.2618 500.684 32.8042 499.666 31.8256C498.647 30.847 497.079 30.2653 494.949 30.0668C493.917 29.9778 493.026 29.9436 492.275 29.9573C490.754 29.9915 489.274 30.1694 487.847 30.5048C486.419 30.8401 484.939 31.3328 483.404 31.9761L481.964 23.9898C485.77 22.4432 490.225 21.6151 495.331 21.5125C496.208 21.4919 496.885 21.4919 497.354 21.5056C501.857 21.5672 505.294 22.5732 507.659 24.5168C510.024 26.4603 511.244 29.184 511.311 32.6878C511.364 35.5552 510.661 38.8675 509.187 42.6177L500.215 42.8025C500.939 40.1609 501.28 37.9641 501.247 36.2122Z" fill="black"/>
<path d="M520.174 48.8863C519.256 47.6613 518.74 46.0257 518.627 43.9795C518.513 41.9333 518.861 39.3123 519.678 36.1164C520.127 34.3576 520.737 32.3662 521.514 30.1352C522.291 27.9111 523.142 25.7075 524.074 23.5312L532.791 25.8375C531.35 29.7793 530.204 33.3995 529.367 36.7049C529.186 37.4029 529.012 38.1831 528.838 39.0454C528.516 40.6536 528.482 41.9333 528.73 42.8709C528.978 43.8084 529.467 44.5749 530.204 45.1771C530.801 45.6972 531.692 46.1147 532.878 46.4295C534.352 46.8195 536.107 46.9769 538.137 46.9085L537.776 54.2105C534.627 54.7374 531.544 54.5937 528.509 53.793C527.015 53.3961 525.575 52.8349 524.188 52.1027C522.425 51.1857 521.085 50.1112 520.168 48.8863H520.174ZM541.608 41.2079C542.774 36.6091 544.04 32.2019 545.394 27.9932L555.015 30.5389C554.338 33.9128 553.628 37.0471 552.891 39.9555L552.543 41.3242L556 42.2413L554.224 49.2353L550.58 48.2703C549.414 52.2395 548.06 56.3251 546.506 60.527L538.01 58.2755C538.955 52.6433 540.154 46.9564 541.615 41.2079H541.608Z" fill="black"/>
</g>
<path d="M414.703 35.4914C415.111 34.2351 416.889 34.2351 417.297 35.4914L419.062 40.9225C419.244 41.4843 419.768 41.8647 420.358 41.8647H426.069C427.39 41.8647 427.939 43.5551 426.871 44.3316L422.251 47.6882C421.773 48.0354 421.573 48.6509 421.755 49.2128L423.52 54.6438C423.928 55.9002 422.49 56.9449 421.421 56.1684L416.802 52.8118C416.324 52.4646 415.676 52.4646 415.198 52.8118L410.579 56.1684C409.51 56.9449 408.072 55.9002 408.48 54.6438L410.245 49.2128C410.427 48.6509 410.227 48.0354 409.749 47.6882L405.129 44.3316C404.061 43.5551 404.61 41.8647 405.931 41.8647H411.642C412.232 41.8647 412.756 41.4843 412.938 40.9225L414.703 35.4914Z" fill="#F09E3C"/>
<path d="M578.297 35.4914C577.889 34.2351 576.111 34.2351 575.703 35.4914L573.938 40.9225C573.756 41.4843 573.232 41.8647 572.642 41.8647H566.931C565.61 41.8647 565.061 43.5551 566.129 44.3316L570.749 47.6882C571.227 48.0354 571.427 48.6509 571.245 49.2128L569.48 54.6438C569.072 55.9002 570.51 56.9449 571.579 56.1684L576.198 52.8118C576.676 52.4646 577.324 52.4646 577.802 52.8118L582.421 56.1684C583.49 56.9449 584.928 55.9002 584.52 54.6438L582.755 49.2128C582.573 48.6509 582.773 48.0354 583.251 47.6882L587.871 44.3316C588.939 43.5551 588.39 41.8647 587.069 41.8647H581.358C580.768 41.8647 580.244 41.4843 580.062 40.9225L578.297 35.4914Z" fill="#F09E3C"/>
<path d="M420.135 69.161C420.408 68.3234 421.592 68.3234 421.865 69.161L423.041 72.7817C423.163 73.1562 423.512 73.4098 423.906 73.4098H427.713C428.593 73.4098 428.959 74.5368 428.247 75.0544L425.167 77.2921C424.848 77.5236 424.715 77.9339 424.837 78.3085L426.013 81.9292C426.285 82.7668 425.327 83.4632 424.614 82.9456L421.534 80.7079C421.216 80.4764 420.784 80.4764 420.466 80.7079L417.386 82.9456C416.673 83.4632 415.715 82.7668 415.987 81.9292L417.163 78.3085C417.285 77.9339 417.152 77.5236 416.833 77.2921L413.753 75.0544C413.041 74.5368 413.407 73.4098 414.287 73.4098H418.094C418.488 73.4098 418.837 73.1562 418.959 72.7817L420.135 69.161Z" fill="#F09E3C"/>
<path d="M395.135 59.161C395.408 58.3234 396.592 58.3234 396.865 59.161L397.817 62.0907C397.938 62.4652 398.287 62.7188 398.681 62.7188H401.762C402.642 62.7188 403.008 63.8458 402.296 64.3634L399.804 66.1741C399.485 66.4056 399.352 66.8159 399.474 67.1905L400.425 70.1202C400.698 70.9578 399.739 71.6542 399.027 71.1366L396.534 69.3259C396.216 69.0944 395.784 69.0944 395.466 69.3259L392.973 71.1366C392.261 71.6542 391.302 70.9578 391.575 70.1202L392.526 67.1905C392.648 66.8159 392.515 66.4056 392.196 66.1741L389.704 64.3634C388.992 63.8458 389.358 62.7188 390.238 62.7188H393.319C393.713 62.7188 394.062 62.4652 394.183 62.0907L395.135 59.161Z" fill="#F09E3C"/>
<path d="M594.135 59.161C594.408 58.3234 595.592 58.3234 595.865 59.161L596.817 62.0907C596.938 62.4652 597.287 62.7188 597.681 62.7188H600.762C601.642 62.7188 602.008 63.8458 601.296 64.3634L598.804 66.1741C598.485 66.4056 598.352 66.8159 598.474 67.1905L599.425 70.1202C599.698 70.9578 598.739 71.6542 598.027 71.1366L595.534 69.3259C595.216 69.0944 594.784 69.0944 594.466 69.3259L591.973 71.1366C591.261 71.6542 590.302 70.9578 590.575 70.1202L591.526 67.1905C591.648 66.8159 591.515 66.4056 591.196 66.1741L588.704 64.3634C587.992 63.8458 588.358 62.7188 589.238 62.7188H592.319C592.713 62.7188 593.062 62.4652 593.183 62.0907L594.135 59.161Z" fill="#F09E3C"/>
<path d="M572.865 69.161C572.592 68.3234 571.408 68.3234 571.135 69.161L569.959 72.7817C569.837 73.1562 569.488 73.4098 569.094 73.4098H565.287C564.407 73.4098 564.041 74.5368 564.753 75.0544L567.833 77.2921C568.152 77.5236 568.285 77.9339 568.163 78.3085L566.987 81.9292C566.715 82.7668 567.673 83.4632 568.386 82.9456L571.466 80.7079C571.784 80.4764 572.216 80.4764 572.534 80.7079L575.614 82.9456C576.327 83.4632 577.285 82.7668 577.013 81.9292L575.837 78.3085C575.715 77.9339 575.848 77.5236 576.167 77.2921L579.247 75.0544C579.959 74.5368 579.593 73.4098 578.713 73.4098H574.906C574.512 73.4098 574.163 73.1562 574.041 72.7817L572.865 69.161Z" fill="#F09E3C"/>
<rect x="3" y="3" width="986" height="104" stroke="#F09E3C" stroke-width="2"/>
<defs>
<clipPath id="clip0_3749_54192">
<rect width="120" height="40" fill="white" transform="translate(436 21.5)"/>
</clipPath>
</defs>
</svg>
