<svg width="992" height="110" viewBox="0 0 992 110" fill="none" xmlns="http://www.w3.org/2000/svg">
<rect width="992" height="110" fill="#DEF2FC"/>
<path d="M398.788 27.1865L398.482 33.0185H394.342L394.072 27.1865H398.788ZM404.512 27.1865L404.206 33.0185H400.066L399.796 27.1865H404.512ZM406.134 41.0465H413.064V39.5165C411.3 39.1685 409.944 38.5145 408.996 37.5545C408.048 36.5945 407.574 35.3885 407.574 33.9365C407.574 32.7245 407.91 31.6805 408.582 30.8045C409.254 29.9165 410.22 29.2445 411.48 28.7885C412.752 28.3205 414.27 28.0865 416.034 28.0865C417.798 28.0865 419.31 28.3205 420.57 28.7885C421.842 29.2565 422.814 29.9285 423.486 30.8045C424.158 31.6805 424.494 32.7245 424.494 33.9365C424.494 35.3885 424.02 36.5945 423.072 37.5545C422.124 38.5145 420.768 39.1685 419.004 39.5165V41.0465H425.934V44.7545H406.134V41.0465ZM416.034 35.8625C416.85 35.8625 417.492 35.6945 417.96 35.3585C418.428 35.0105 418.662 34.5365 418.662 33.9365C418.662 33.3365 418.428 32.8685 417.96 32.5325C417.492 32.1845 416.85 32.0105 416.034 32.0105C415.218 32.0105 414.576 32.1845 414.108 32.5325C413.64 32.8685 413.406 33.3365 413.406 33.9365C413.406 34.5365 413.64 35.0105 414.108 35.3585C414.576 35.6945 415.218 35.8625 416.034 35.8625ZM433.948 33.6665C432.604 33.5825 431.566 33.4085 430.834 33.1445C430.102 32.8685 429.592 32.5085 429.304 32.0645C429.028 31.6205 428.89 31.0625 428.89 30.3905C428.89 29.8865 428.956 29.4425 429.088 29.0585C429.22 28.6745 429.394 28.2665 429.61 27.8345H434.614C434.53 28.2065 434.488 28.5005 434.488 28.7165C434.488 29.1005 434.596 29.4125 434.812 29.6525C435.028 29.8805 435.394 30.0365 435.91 30.1205C436.522 30.2285 437.56 30.2825 439.024 30.2825C440.128 30.2825 441.274 30.2465 442.462 30.1745C443.662 30.1025 444.766 29.9945 445.774 29.8505L446.17 33.4325C443.65 33.6725 440.956 33.7925 438.088 33.7925C436.456 33.7925 435.076 33.7505 433.948 33.6665ZM434.182 45.0065C432.67 44.8625 431.572 44.6585 430.888 44.3945C430.216 44.1425 429.88 43.7645 429.88 43.2605C429.88 42.9485 430.024 42.5465 430.312 42.0545H429.286V40.1825H441.22C441.34 39.9905 441.07 39.8585 440.41 39.7865C439.294 39.6785 437.848 39.6245 436.072 39.6245C434.596 39.6245 432.568 39.6665 429.988 39.7505L429.934 37.3205C432.478 37.2125 434.95 37.1585 437.35 37.1585C439.006 37.1585 440.614 37.1885 442.174 37.2485C443.506 37.3085 444.502 37.5065 445.162 37.8425C445.822 38.1785 446.152 38.5925 446.152 39.0845C446.152 39.4325 445.996 39.7985 445.684 40.1825H446.296V42.0545H435.46C435.412 42.1025 435.388 42.1565 435.388 42.2165C435.388 42.3005 435.472 42.3665 435.64 42.4145C435.808 42.4745 436.078 42.5165 436.45 42.5405C437.23 42.6005 438.172 42.6305 439.276 42.6305C440.404 42.6305 441.568 42.6005 442.768 42.5405C443.98 42.4925 445.03 42.4145 445.918 42.3065L446.35 44.7725C444.418 45.0845 442.108 45.2405 439.42 45.2405C437.572 45.2405 435.826 45.1625 434.182 45.0065ZM427.738 34.0985H447.538V36.7625H427.738V34.0985ZM461.164 44.1065C459.952 44.1065 458.902 43.8605 458.014 43.3685C457.126 42.8765 456.442 42.1565 455.962 41.2085C455.482 40.2485 455.242 39.0785 455.242 37.6985C455.242 36.1385 455.584 34.8605 456.268 33.8645L454.648 34.0085L454.558 30.2105C456.562 29.9705 458.608 29.8385 460.696 29.8145C459.496 29.3465 458.158 29.0585 456.682 28.9505L457.942 25.7825C461.194 26.3585 463.276 27.4625 464.188 29.0945L463.72 29.8685C464.932 29.9165 466.276 30.0305 467.752 30.2105L467.662 34.0085L466.042 33.8285C466.738 34.8845 467.086 36.1745 467.086 37.6985C467.086 39.0785 466.846 40.2485 466.366 41.2085C465.886 42.1565 465.202 42.8765 464.314 43.3685C463.426 43.8605 462.376 44.1065 461.164 44.1065ZM461.164 40.1285C461.644 40.1285 462.01 39.8825 462.262 39.3905C462.526 38.8985 462.658 38.0705 462.658 36.9065C462.658 35.7665 462.526 34.9565 462.262 34.4765C462.01 33.9845 461.644 33.7385 461.164 33.7385C460.684 33.7385 460.312 33.9845 460.048 34.4765C459.796 34.9565 459.67 35.7665 459.67 36.9065C459.67 38.0705 459.796 38.8985 460.048 39.3905C460.312 39.8825 460.684 40.1285 461.164 40.1285ZM468.544 44.9165C468.316 41.9885 468.202 38.9825 468.202 35.8985C468.202 33.3065 468.286 30.6125 468.454 27.8165H473.53C473.59 29.1245 473.62 30.6905 473.62 32.5145V33.8825H475.438V37.8425H473.512C473.392 40.3985 473.218 42.7565 472.99 44.9165H468.544ZM481.993 37.7525C480.685 37.6325 479.701 37.3985 479.041 37.0505C478.381 36.6905 478.051 36.2345 478.051 35.6825C478.051 35.2505 478.249 34.7645 478.645 34.2245H477.637V31.7945H488.725C488.797 31.6985 488.833 31.6265 488.833 31.5785C488.833 31.3865 488.497 31.2665 487.825 31.2185C486.553 31.1105 485.173 31.0565 483.685 31.0565C481.789 31.0565 479.983 31.1345 478.267 31.2905L478.177 28.2665C480.313 28.0505 482.539 27.9425 484.855 27.9425C486.691 27.9425 488.371 28.0205 489.895 28.1765C491.287 28.3205 492.331 28.5785 493.027 28.9505C493.723 29.3105 494.071 29.7425 494.071 30.2465C494.071 30.7385 493.753 31.2545 493.117 31.7945H494.017V34.2245H483.505C483.469 34.2725 483.451 34.3265 483.451 34.3865C483.451 34.5185 483.553 34.6205 483.757 34.6925C483.961 34.7525 484.309 34.7945 484.801 34.8185C485.569 34.8665 486.463 34.8905 487.483 34.8905C489.727 34.8905 491.839 34.7525 493.819 34.4765L494.431 37.3745C493.423 37.5665 492.253 37.7165 490.921 37.8245C489.589 37.9205 488.197 37.9685 486.745 37.9685C484.957 37.9685 483.373 37.8965 481.993 37.7525ZM483.469 44.9165C483.301 43.8005 483.217 42.6785 483.217 41.5505H476.341V38.3285H496.141V41.5505H489.265C489.265 42.6785 489.181 43.8005 489.013 44.9165H483.469ZM504.263 39.5345C502.763 39.2225 501.617 38.6525 500.825 37.8245C500.045 36.9965 499.655 36.0665 499.655 35.0345C499.655 34.1345 499.949 33.2705 500.537 32.4425L499.241 32.5145L499.061 28.5545C501.389 28.2065 504.113 28.0325 507.233 28.0325C510.461 28.0325 513.275 28.2185 515.675 28.5905L515.495 32.6225C512.783 32.3345 510.359 32.1905 508.223 32.1905C507.155 32.1905 506.333 32.2205 505.757 32.2805C505.433 32.5445 505.187 32.8205 505.019 33.1085C504.863 33.3965 504.785 33.6845 504.785 33.9725C504.785 34.3325 504.899 34.6565 505.127 34.9445C505.367 35.2205 505.685 35.4245 506.081 35.5565C506.945 35.8325 507.995 35.9705 509.231 35.9705C511.067 35.9705 513.005 35.6885 515.045 35.1245L515.855 38.9585C514.439 39.4145 512.789 39.7205 510.905 39.8765V41.1545H517.745V44.7545H497.945V41.1545H505.145V39.6965L504.263 39.5345ZM520.304 46.2125C520.904 45.8165 521.324 45.3845 521.564 44.9165C520.904 44.8325 520.352 44.5565 519.908 44.0885C519.464 43.6205 519.242 43.0265 519.242 42.3065C519.242 41.4785 519.5 40.8185 520.016 40.3265C520.532 39.8225 521.246 39.5705 522.158 39.5705C523.07 39.5705 523.784 39.8345 524.3 40.3625C524.816 40.8785 525.074 41.5865 525.074 42.4865C525.074 43.5425 524.774 44.5205 524.174 45.4205C523.586 46.3325 522.704 47.0225 521.528 47.4905L520.304 46.2125ZM394.972 58.7905C396.772 58.0945 398.134 57.1105 399.058 55.8385C399.982 54.5545 400.444 52.9405 400.444 50.9965H406.456C406.456 52.3525 406.306 53.6125 406.006 54.7765C406.678 54.4765 407.392 54.3265 408.148 54.3265C408.928 54.3265 409.654 54.5005 410.326 54.8485C410.998 55.1845 411.538 55.6885 411.946 56.3605C412.354 57.0205 412.558 57.8125 412.558 58.7365C412.558 59.7805 412.294 60.9085 411.766 62.1205H407.392C407.416 61.9285 407.428 61.6525 407.428 61.2925C407.428 60.2005 407.218 59.3785 406.798 58.8265C406.378 58.2625 405.844 57.9805 405.196 57.9805C405.004 57.9805 404.758 58.0225 404.458 58.1065C402.91 60.2545 400.408 61.7485 396.952 62.5885L394.972 58.7905ZM394.252 64.1545H401.524C401.392 63.3025 401.326 62.4505 401.326 61.5985C401.326 61.2865 401.332 61.0585 401.344 60.9145H406.96C406.972 61.0585 406.978 61.2865 406.978 61.5985C406.978 62.4505 406.912 63.3025 406.78 64.1545H414.052V67.7545H394.252V64.1545ZM416.845 55.4425C418.693 55.2865 420.451 55.0825 422.119 54.8305C423.787 54.5665 425.179 54.2605 426.295 53.9125H425.647C424.627 53.9125 423.511 53.9485 422.299 54.0205C421.099 54.0805 420.007 54.1645 419.023 54.2725L418.699 51.0865C420.499 50.8825 422.503 50.7805 424.711 50.7805C426.235 50.7805 427.591 50.8345 428.779 50.9425C429.871 51.0505 430.711 51.3085 431.299 51.7165C431.887 52.1125 432.181 52.5925 432.181 53.1565C432.181 53.7085 431.911 54.2665 431.371 54.8305C431.671 54.7465 431.983 54.7045 432.307 54.7045C432.895 54.7045 433.369 54.8605 433.729 55.1725C434.101 55.4725 434.287 55.9045 434.287 56.4685C434.287 57.0445 434.101 57.6865 433.729 58.3945H429.445C429.445 57.7345 429.385 57.2665 429.265 56.9905C429.157 56.7025 428.989 56.5525 428.761 56.5405C426.313 57.5965 422.659 58.3105 417.799 58.6825L416.845 55.4425ZM425.755 68.3305C423.019 68.3305 420.925 68.0785 419.473 67.5745C418.033 67.0825 417.313 66.2425 417.313 65.0545C417.313 64.1065 417.775 63.3985 418.699 62.9305C419.635 62.4625 421.003 62.1685 422.803 62.0485L422.767 61.5805H415.855V58.8805H435.655V61.5805H428.743L428.707 62.0485C430.507 62.1685 431.869 62.4625 432.793 62.9305C433.729 63.3985 434.197 64.1065 434.197 65.0545C434.197 66.2425 433.471 67.0825 432.019 67.5745C430.579 68.0785 428.491 68.3305 425.755 68.3305ZM425.755 65.4505C426.547 65.4505 427.141 65.4385 427.537 65.4145C427.945 65.3905 428.227 65.3425 428.383 65.2705C428.551 65.2105 428.635 65.1145 428.635 64.9825C428.635 64.8025 428.437 64.6825 428.041 64.6225C427.645 64.5505 426.883 64.5145 425.755 64.5145C424.627 64.5145 423.865 64.5505 423.469 64.6225C423.073 64.6825 422.875 64.8025 422.875 64.9825C422.875 65.1145 422.953 65.2105 423.109 65.2705C423.277 65.3425 423.559 65.3905 423.955 65.4145C424.363 65.4385 424.963 65.4505 425.755 65.4505ZM443.885 67.1065C442.673 67.1065 441.623 66.8605 440.735 66.3685C439.847 65.8765 439.163 65.1565 438.683 64.2085C438.203 63.2485 437.963 62.0785 437.963 60.6985C437.963 59.1385 438.305 57.8605 438.989 56.8645L437.369 57.0085L437.279 53.2105C439.283 52.9705 441.329 52.8385 443.417 52.8145C442.217 52.3465 440.879 52.0585 439.403 51.9505L440.663 48.7825C443.915 49.3585 445.997 50.4625 446.909 52.0945L446.441 52.8685C447.653 52.9165 448.997 53.0305 450.473 53.2105L450.383 57.0085L448.763 56.8285C449.459 57.8845 449.807 59.1745 449.807 60.6985C449.807 62.0785 449.567 63.2485 449.087 64.2085C448.607 65.1565 447.923 65.8765 447.035 66.3685C446.147 66.8605 445.097 67.1065 443.885 67.1065ZM443.885 63.1285C444.365 63.1285 444.731 62.8825 444.983 62.3905C445.247 61.8985 445.379 61.0705 445.379 59.9065C445.379 58.7665 445.247 57.9565 444.983 57.4765C444.731 56.9845 444.365 56.7385 443.885 56.7385C443.405 56.7385 443.033 56.9845 442.769 57.4765C442.517 57.9565 442.391 58.7665 442.391 59.9065C442.391 61.0705 442.517 61.8985 442.769 62.3905C443.033 62.8825 443.405 63.1285 443.885 63.1285ZM451.265 67.9165C451.037 64.9885 450.923 61.9825 450.923 58.8985C450.923 56.3065 451.007 53.6125 451.175 50.8165H456.251C456.311 52.1245 456.341 53.6905 456.341 55.5145V56.8825H458.159V60.8425H456.233C456.113 63.3985 455.939 65.7565 455.711 67.9165H451.265ZM458.918 62.5525C460.274 62.0245 461.3 61.3765 461.996 60.6085C462.704 59.8285 463.058 58.9705 463.058 58.0345C463.058 57.8665 463.034 57.6265 462.986 57.3145C462.902 56.8465 462.71 56.4805 462.41 56.2165C462.11 55.9525 461.75 55.8205 461.33 55.8205C460.742 55.8205 460.124 56.0725 459.476 56.5765L458.99 53.0305C459.626 52.4425 460.304 51.9985 461.024 51.6985C461.744 51.3985 462.47 51.2485 463.202 51.2485C464.03 51.2485 464.804 51.4345 465.524 51.8065C466.244 52.1785 466.844 52.7305 467.324 53.4625C467.816 54.1945 468.134 55.0645 468.278 56.0725L468.296 56.1985H469.43C469.406 55.0705 469.394 53.3965 469.394 51.1765H473.624V67.5565H469.916C469.724 64.6885 469.598 62.2225 469.538 60.1585H468.188C467.888 61.5265 467.33 62.7085 466.514 63.7045C465.71 64.6885 464.756 65.4685 463.652 66.0445C462.56 66.6205 461.396 67.0045 460.16 67.1965L458.918 62.5525ZM474.65 50.8165H479.024C479.036 51.4885 479.042 52.4965 479.042 53.8405C479.042 58.7485 478.862 63.4405 478.502 67.9165H474.65V50.8165ZM486.458 62.5525C488.378 62.0725 489.818 61.4185 490.778 60.5905C491.75 59.7505 492.236 58.8205 492.236 57.8005C492.236 57.5725 492.206 57.3205 492.146 57.0445C492.026 56.5525 491.786 56.1805 491.426 55.9285C491.078 55.6645 490.628 55.5325 490.076 55.5325C489.2 55.5325 488.18 55.8505 487.016 56.4865L486.53 52.8685C487.406 52.2565 488.318 51.7945 489.266 51.4825C490.214 51.1705 491.144 51.0145 492.056 51.0145C493.064 51.0145 493.988 51.2005 494.828 51.5725C495.68 51.9445 496.382 52.5025 496.934 53.2465C497.486 53.9785 497.834 54.8665 497.978 55.9105C498.05 56.4505 498.086 56.9725 498.086 57.4765C498.086 59.3845 497.606 61.0345 496.646 62.4265C495.686 63.8185 494.414 64.9105 492.83 65.7025C491.258 66.4945 489.548 66.9925 487.7 67.1965L486.458 62.5525ZM499.868 67.9165C499.64 64.9885 499.526 61.9825 499.526 58.8985C499.526 56.3065 499.61 53.6125 499.778 50.8165H505.394C505.466 52.4365 505.502 54.0505 505.502 55.6585C505.502 59.7385 505.286 63.8245 504.854 67.9165H499.868ZM520.536 67.3045C520.536 66.8845 520.464 66.5965 520.32 66.4405C520.176 66.2965 519.918 66.2005 519.546 66.1525C518.622 66.0325 517.356 65.9725 515.748 65.9725C513.828 65.9725 511.836 66.0505 509.772 66.2065L509.592 63.0565C512.136 62.8525 514.572 62.7505 516.9 62.7505C518.544 62.7505 520.194 62.8045 521.85 62.9125C524.91 63.1165 526.44 63.9865 526.44 65.5225C526.44 66.1825 526.134 66.9805 525.522 67.9165H520.5L520.536 67.3045ZM507.666 59.5465H514.686V59.1145L513.57 59.0245C512.082 58.8925 511.002 58.6825 510.33 58.3945C509.67 58.1065 509.34 57.6985 509.34 57.1705C509.34 56.8345 509.46 56.4385 509.7 55.9825H508.98V54.0025H520.428C520.56 53.7865 520.29 53.6365 519.618 53.5525C518.598 53.4085 517.194 53.3365 515.406 53.3365C513.63 53.3365 511.716 53.3965 509.664 53.5165L509.574 50.9245C511.542 50.8045 513.57 50.7445 515.658 50.7445C518.106 50.7445 520.134 50.8285 521.742 50.9965C523.026 51.1285 523.974 51.3565 524.586 51.6805C525.198 51.9925 525.504 52.3765 525.504 52.8325C525.504 53.1925 525.324 53.5825 524.964 54.0025H525.72V55.9825H514.83C514.794 56.0305 514.776 56.0845 514.776 56.1445C514.776 56.3605 515.13 56.4925 515.838 56.5405C516.618 56.6005 517.548 56.6305 518.628 56.6305C519.78 56.6305 520.956 56.6005 522.156 56.5405C523.368 56.4685 524.418 56.3665 525.306 56.2345L525.828 58.6465C524.352 58.9225 522.558 59.1085 520.446 59.2045V59.5465H527.466V62.3365H507.666V59.5465ZM535.695 67.1065C534.483 67.1065 533.433 66.8605 532.545 66.3685C531.657 65.8765 530.973 65.1565 530.493 64.2085C530.013 63.2485 529.773 62.0785 529.773 60.6985C529.773 59.1385 530.115 57.8605 530.799 56.8645L529.179 57.0085L529.089 53.2105C531.093 52.9705 533.139 52.8385 535.227 52.8145C534.027 52.3465 532.689 52.0585 531.213 51.9505L532.473 48.7825C535.725 49.3585 537.807 50.4625 538.719 52.0945L538.251 52.8685C539.463 52.9165 540.807 53.0305 542.283 53.2105L542.193 57.0085L540.573 56.8285C541.269 57.8845 541.617 59.1745 541.617 60.6985C541.617 62.0785 541.377 63.2485 540.897 64.2085C540.417 65.1565 539.733 65.8765 538.845 66.3685C537.957 66.8605 536.907 67.1065 535.695 67.1065ZM535.695 63.1285C536.175 63.1285 536.541 62.8825 536.793 62.3905C537.057 61.8985 537.189 61.0705 537.189 59.9065C537.189 58.7665 537.057 57.9565 536.793 57.4765C536.541 56.9845 536.175 56.7385 535.695 56.7385C535.215 56.7385 534.843 56.9845 534.579 57.4765C534.327 57.9565 534.201 58.7665 534.201 59.9065C534.201 61.0705 534.327 61.8985 534.579 62.3905C534.843 62.8825 535.215 63.1285 535.695 63.1285ZM543.075 67.9165C542.847 64.9885 542.733 61.9825 542.733 58.8985C542.733 56.3065 542.817 53.6125 542.985 50.8165H548.061C548.121 52.1245 548.151 53.6905 548.151 55.5145V56.8825H549.969V60.8425H548.043C547.923 63.3985 547.749 65.7565 547.521 67.9165H543.075ZM549.793 64.9105C551.953 62.3905 553.015 57.9085 552.979 51.4645L558.271 51.4465C558.271 54.2905 558.091 56.6785 557.731 58.6105C557.995 58.5145 558.247 58.4665 558.487 58.4665C558.907 58.4665 559.303 58.5745 559.675 58.7905V56.1625H562.069C562.045 55.0465 562.033 53.3845 562.033 51.1765H565.993V67.5565H562.555C562.375 65.1445 562.249 62.6665 562.177 60.1225H560.953C561.325 60.8065 561.511 61.6105 561.511 62.5345C561.511 63.8545 561.121 65.2885 560.341 66.8365H556.777C556.921 65.7205 556.993 64.7365 556.993 63.8845C556.993 62.9125 556.885 62.3185 556.669 62.1025C556.237 63.0865 555.697 63.9985 555.049 64.8385C554.401 65.6905 553.615 66.5065 552.691 67.2865L549.793 64.9105ZM566.785 50.8165H570.835C570.847 51.4885 570.853 52.4965 570.853 53.8405C570.853 58.7485 570.673 63.4405 570.313 67.9165H566.785V50.8165ZM582.376 62.7865C581.908 62.7865 581.458 62.7685 581.026 62.7325V64.0465H583.906V62.7145C583.474 62.7625 582.964 62.7865 582.376 62.7865ZM572.476 64.0465H576.886V61.6705C575.914 61.1785 575.176 60.5305 574.672 59.7265C574.168 58.9225 573.916 57.9925 573.916 56.9365C573.916 55.7245 574.252 54.6805 574.924 53.8045C575.596 52.9165 576.562 52.2445 577.822 51.7885C579.094 51.3205 580.612 51.0865 582.376 51.0865C584.14 51.0865 585.652 51.3205 586.912 51.7885C588.184 52.2565 589.156 52.9285 589.828 53.8045C590.5 54.6805 590.836 55.7245 590.836 56.9365C590.836 57.9565 590.596 58.8625 590.116 59.6545C589.648 60.4345 588.958 61.0765 588.046 61.5805V64.0465H592.276V67.7545H572.476V64.0465ZM582.376 58.8625C583.192 58.8625 583.834 58.6945 584.302 58.3585C584.77 58.0105 585.004 57.5365 585.004 56.9365C585.004 56.3365 584.77 55.8685 584.302 55.5325C583.834 55.1845 583.192 55.0105 582.376 55.0105C581.56 55.0105 580.918 55.1845 580.45 55.5325C579.982 55.8685 579.748 56.3365 579.748 56.9365C579.748 57.5365 579.982 58.0105 580.45 58.3585C580.918 58.6945 581.56 58.8625 582.376 58.8625ZM596.69 68.0245C595.778 68.0245 595.064 67.7785 594.548 67.2865C594.032 66.8065 593.774 66.1465 593.774 65.3065C593.774 64.4785 594.032 63.8185 594.548 63.3265C595.064 62.8225 595.778 62.5705 596.69 62.5705C597.59 62.5705 598.298 62.8225 598.814 63.3265C599.342 63.8185 599.606 64.4785 599.606 65.3065C599.606 66.1345 599.348 66.7945 598.832 67.2865C598.316 67.7785 597.602 68.0245 596.69 68.0245ZM605.629 50.1865L605.323 56.0185H601.183L600.913 50.1865H605.629ZM611.353 50.1865L611.047 56.0185H606.907L606.637 50.1865H611.353Z" fill="#0092CB"/>
<path d="M352 25.0117L368.397 32.5051" stroke="#40BCEE" stroke-width="3" stroke-linecap="round"/>
<path d="M366.242 16.625L373.144 26.6928" stroke="#40BCEE" stroke-width="3" stroke-linecap="round"/>
<path d="M380.398 12L383.243 20.3704" stroke="#40BCEE" stroke-width="3" stroke-linecap="round"/>
<path d="M640.24 25.0117L623.844 32.5051" stroke="#40BCEE" stroke-width="3" stroke-linecap="round"/>
<path d="M625.998 16.625L619.096 26.6928" stroke="#40BCEE" stroke-width="3" stroke-linecap="round"/>
<path d="M611.842 12L608.997 20.3704" stroke="#40BCEE" stroke-width="3" stroke-linecap="round"/>
<rect x="3" y="4" width="985" height="102" stroke="#0092CB" stroke-width="2"/>
</svg>
