<svg width="404" height="296" viewBox="0 0 404 296" fill="none" xmlns="http://www.w3.org/2000/svg">
<rect x="1" y="1" width="402" height="294" rx="15" fill="#FED377"/>
<rect x="1" y="1" width="402" height="294" rx="15" stroke="black" stroke-width="2"/>
<path d="M131.271 167.276H135.72C135.733 168.015 135.74 169.122 135.74 170.599C135.74 175.991 135.542 181.145 135.147 186.063H131.271V167.276ZM118.911 181.416L119.188 181.396C119.452 181.251 119.65 181.06 119.781 180.822C119.913 180.585 120.005 180.17 120.058 179.576C120.124 178.97 120.157 178.047 120.157 176.808L118.417 176.887C118.417 179.787 118.351 182.45 118.219 184.876H114.581C113.921 181.422 113.592 177.652 113.592 173.565C113.592 171.851 113.651 170.117 113.77 168.364H118.219C118.272 169.326 118.325 170.81 118.377 172.813L120.118 172.734L120.019 168.087H124.705C124.719 169.063 124.725 170.361 124.725 171.983C124.725 174.514 124.666 176.36 124.547 177.52C124.428 178.667 124.224 179.471 123.934 179.932C123.644 180.394 123.169 180.789 122.51 181.119L124.567 180.961V184.896H118.714L118.911 181.416ZM125.101 173.743H126.366C126.327 172.372 126.307 170.348 126.307 167.672H130.401V185.667H126.881C126.696 183.057 126.564 180.532 126.485 178.093H125.101V173.743ZM143.219 184.758C141.966 184.507 140.898 184.059 140.015 183.413C139.145 182.78 138.486 182.009 138.038 181.099C137.602 180.176 137.385 179.174 137.385 178.093C137.385 177.184 137.537 176.254 137.84 175.305C138.156 174.356 138.624 173.426 139.244 172.517L137.721 172.576L137.523 168.226C139.54 168.041 141.762 167.949 144.188 167.949C146.6 167.949 148.815 168.041 150.832 168.226L150.634 172.616C149.237 172.497 147.813 172.438 146.363 172.438C145.625 172.438 145.097 172.451 144.781 172.477C144.174 172.925 143.68 173.525 143.298 174.277C144.102 174.25 145.302 174.237 146.897 174.237C148.492 174.237 149.685 174.25 150.476 174.277L150.575 178.331C148.69 178.397 146.982 178.43 145.453 178.43C144.385 178.43 143.581 178.423 143.041 178.41C143.423 179.253 144.062 179.834 144.959 180.15C145.618 180.387 146.396 180.506 147.292 180.506C148.466 180.506 149.613 180.315 150.733 179.932L151.623 184.046C150.845 184.349 149.955 184.58 148.953 184.738C147.951 184.909 146.943 184.995 145.928 184.995C144.939 184.995 144.036 184.916 143.219 184.758ZM152.651 186.063C152.361 182.635 152.216 179.135 152.216 175.562C152.216 172.701 152.302 169.939 152.473 167.276H157.991C158.096 169.346 158.149 171.284 158.149 173.09V173.941H160.265V178.291H158.03C157.938 180.783 157.747 183.373 157.457 186.063H152.651ZM160.189 182.404C161.837 181.046 163.037 179.181 163.788 176.808C164.54 174.422 164.902 171.416 164.876 167.791L171.085 167.771C171.085 169.551 171.013 171.139 170.868 172.537C170.736 173.934 170.519 175.206 170.215 176.353C170.611 176.169 171.013 176.076 171.422 176.076C172.068 176.076 172.7 176.267 173.32 176.65C173.953 177.032 174.467 177.573 174.862 178.271C175.271 178.97 175.475 179.774 175.475 180.684C175.475 182.029 175.034 183.426 174.151 184.876H169.84C169.958 183.953 170.018 183.169 170.018 182.523C170.018 181.587 169.925 180.895 169.741 180.447C169.556 179.998 169.332 179.774 169.068 179.774C168.989 179.774 168.91 179.794 168.831 179.834C168.198 180.928 167.401 181.923 166.438 182.82C165.476 183.729 164.303 184.58 162.918 185.371L160.189 182.404ZM173.182 171.568H176.543C176.583 169.959 176.649 168.529 176.741 167.276H182.852C182.957 169.386 183.01 171.357 183.01 173.189C183.01 177.421 182.779 181.712 182.318 186.063H176.919C176.655 182.885 176.51 179.636 176.484 176.314H173.182V171.568ZM201.009 186.063C200.719 182.635 200.574 179.135 200.574 175.562C200.574 172.701 200.66 169.939 200.831 167.276H206.546C206.651 169.386 206.704 171.357 206.704 173.189C206.704 177.421 206.473 181.712 206.012 186.063H201.009ZM185.98 184.876C185.321 181.422 184.991 177.652 184.991 173.565C184.991 171.851 185.05 170.117 185.169 168.364H190.508C190.561 169.326 190.614 170.81 190.667 172.813L193.831 172.635L193.751 167.988H199.17C199.183 168.713 199.19 169.696 199.19 170.935C199.19 173.703 199.117 175.74 198.972 177.045C198.827 178.35 198.59 179.26 198.26 179.774C197.944 180.275 197.423 180.704 196.698 181.06L198.932 180.921V184.896H191.102L191.299 181.416L192.071 181.356C192.492 181.185 192.815 180.967 193.04 180.704C193.264 180.44 193.435 180.005 193.554 179.398C193.686 178.779 193.771 177.882 193.811 176.709L190.706 176.887C190.706 179.787 190.64 182.45 190.508 184.876H185.98ZM209.516 176.234C211.493 175.47 212.99 174.369 214.005 172.932C215.02 171.482 215.528 169.663 215.528 167.474H222.132C222.132 169.017 221.961 170.44 221.618 171.746C222.357 171.416 223.141 171.251 223.972 171.251C224.842 171.251 225.646 171.442 226.384 171.825C227.122 172.207 227.716 172.767 228.164 173.506C228.612 174.244 228.836 175.127 228.836 176.155C228.836 177.316 228.546 178.561 227.966 179.893H223.161C223.187 179.682 223.2 179.372 223.2 178.963C223.2 177.751 222.963 176.834 222.488 176.215C222.027 175.582 221.434 175.266 220.709 175.266C220.471 175.266 220.221 175.305 219.957 175.384C218.243 177.81 215.488 179.484 211.691 180.407L209.516 176.234ZM208.725 181.732H230.477V185.885H208.725V181.732ZM238.387 181.811H246.001V180.13C244.063 179.748 242.573 179.029 241.532 177.975C240.49 176.92 239.969 175.595 239.969 174C239.969 172.668 240.339 171.521 241.077 170.559C241.815 169.584 242.876 168.845 244.261 168.344C245.658 167.83 247.326 167.573 249.264 167.573C251.202 167.573 252.863 167.83 254.247 168.344C255.644 168.858 256.712 169.597 257.451 170.559C258.189 171.521 258.558 172.668 258.558 174C258.558 175.595 258.037 176.92 256.996 177.975C255.954 179.029 254.465 179.748 252.527 180.13V181.811H260.14V185.885H238.387V181.811ZM249.264 176.116C250.16 176.116 250.866 175.931 251.38 175.562C251.894 175.18 252.151 174.659 252.151 174C252.151 173.341 251.894 172.827 251.38 172.457C250.866 172.075 250.16 171.884 249.264 171.884C248.367 171.884 247.662 172.075 247.148 172.457C246.634 172.827 246.377 173.341 246.377 174C246.377 174.659 246.634 175.18 247.148 175.562C247.662 175.931 248.367 176.116 249.264 176.116ZM268.884 186.122C267.513 186.056 266.439 185.878 265.661 185.588C264.896 185.298 264.356 184.916 264.04 184.441C263.736 183.98 263.585 183.406 263.585 182.721C263.585 182.417 263.637 182.101 263.743 181.771C263.862 181.442 264.007 181.158 264.178 180.921L270.19 181.079C270.163 181.185 270.15 181.336 270.15 181.534C270.15 181.851 270.242 182.094 270.427 182.266C270.625 182.424 270.967 182.51 271.455 182.523C272.193 182.562 272.938 182.582 273.69 182.582C276.181 182.582 279.029 182.371 282.233 181.949L282.905 185.509C279.53 185.997 276.241 186.241 273.037 186.241C271.719 186.241 270.335 186.201 268.884 186.122ZM262.121 177.381H283.874V180.506H262.121V177.381ZM264.316 173.901L267.204 173.822C266.887 173.716 266.656 173.598 266.511 173.466C266.366 173.321 266.267 173.11 266.215 172.833C266.175 172.543 266.155 172.102 266.155 171.508C267.843 171.376 269.563 171.311 271.317 171.311L271.238 173.723L273.947 173.664C274.448 173.479 274.777 173.268 274.936 173.031C275.107 172.794 275.193 172.378 275.193 171.785L275.153 170.895C274.665 170.882 273.934 170.875 272.958 170.875C269.478 170.875 266.511 170.981 264.059 171.192L263.862 167.929C266.511 167.692 269.53 167.573 272.918 167.573C276.32 167.573 279.392 167.692 282.134 167.929L281.936 171.192L280.215 171.073C280.202 171.68 280.15 172.134 280.057 172.438C279.978 172.728 279.82 172.952 279.583 173.11C279.345 173.255 278.97 173.4 278.455 173.545L281.679 173.466V176.848H264.316V173.901Z" fill="black"/>
<g clip-path="url(#clip0_3970_36828)">
<path d="M123.767 137.359C121.458 136.73 119.991 135.522 119.357 133.743C118.881 132.4 118.881 130.805 119.376 128.978L117.553 129.79L114.213 121.825C118.94 119.64 123.816 117.688 128.851 115.986C133.886 114.285 138.94 112.874 144.004 111.743L146.403 119.92C143.142 120.665 139.743 121.631 136.205 122.83C134.5 123.41 133.043 123.951 131.844 124.454C131.289 125.43 131.111 126.213 131.319 126.793C131.497 127.286 131.923 127.625 132.597 127.779C133.281 127.944 134.173 127.905 135.293 127.654C136.482 127.412 137.602 127.122 138.653 126.764C141.467 125.807 144.421 124.357 147.523 122.385L152.151 129.026C148.88 131.443 144.728 133.502 139.693 135.203C137.295 136.015 135.114 136.624 133.142 137.03C129.178 137.881 126.046 137.987 123.747 137.359H123.767ZM136.581 158.46C134.629 158.306 133.41 157.532 132.924 156.16C132.647 155.367 132.587 154.362 132.756 153.124L130.238 153.975L128.445 148.929L158.514 138.76C158.474 138.18 157.661 138.055 156.056 138.364C153.647 138.857 150.526 139.746 146.69 141.042C141.804 142.694 136.215 144.811 129.921 147.402L127.463 141.206C133.301 138.741 139.713 136.324 146.69 133.966C151.001 132.506 154.827 131.307 158.157 130.379C161.586 129.452 164.252 129.123 166.165 129.394C168.077 129.664 169.257 130.457 169.732 131.771C170.059 132.68 170.059 133.743 169.752 134.952L170.922 134.555L172.716 139.601L145.699 148.736C145.848 149.442 146.898 149.606 148.851 149.239C150.575 148.881 152.914 148.204 155.877 147.209C158.632 146.281 161.497 145.198 164.47 143.98C167.443 142.762 170.03 141.602 172.22 140.5L175.867 145.942C173.667 147.209 170.961 148.523 167.75 149.886C164.539 151.249 161.13 152.544 157.503 153.772C153.4 155.164 149.346 156.334 145.362 157.291C141.457 158.219 138.534 158.596 136.581 158.441V158.46ZM148.92 119.031C147.909 116.199 147.067 113.212 146.383 110.07L160.406 105.324C161.189 107.151 161.943 108.978 162.656 110.805L167.156 109.287L170.278 118.055L165.382 119.708C165.838 121.651 166.194 123.758 166.472 126.02L154.024 130.234C151.794 126.049 150.099 122.318 148.94 119.041L148.92 119.031Z" fill="black"/>
<path d="M178.217 136.267L189.584 136.045C188.792 134.421 188.167 132.478 187.701 130.206C187.246 127.944 186.988 125.499 186.928 122.87C186.919 122.28 186.928 121.342 186.968 120.037L202.756 119.728L202.795 121.681C202.855 124.407 203.023 126.987 203.311 129.443C203.598 131.898 203.965 134.005 204.411 135.755L230.525 135.243L230.724 144.803L178.405 145.818L178.207 136.258L178.217 136.267ZM210.724 122.783C210.664 120.028 209.891 117.969 208.385 116.586C206.879 115.204 204.559 114.383 201.408 114.102C199.882 113.977 198.564 113.928 197.454 113.948C195.204 113.996 193.014 114.247 190.903 114.721C188.792 115.195 186.601 115.89 184.332 116.799L182.201 105.518C187.83 103.334 194.421 102.164 201.973 102.019C203.271 101.99 204.272 101.99 204.966 102.01C211.626 102.097 216.71 103.518 220.208 106.263C223.707 109.008 225.511 112.855 225.61 117.804C225.689 121.855 224.648 126.533 222.468 131.83L209.198 132.091C210.268 128.36 210.773 125.257 210.724 122.783Z" fill="black"/>
<path d="M238.721 140.685C237.363 138.955 236.6 136.644 236.432 133.754C236.263 130.864 236.778 127.162 237.987 122.648C238.651 120.163 239.553 117.35 240.703 114.199C241.853 111.058 243.111 107.945 244.489 104.871L257.383 108.129C255.252 113.697 253.557 118.81 252.318 123.479C252.051 124.465 251.793 125.567 251.535 126.785C251.06 129.056 251.01 130.864 251.377 132.188C251.743 133.513 252.467 134.595 253.557 135.446C254.439 136.181 255.757 136.77 257.511 137.215C259.692 137.766 262.288 137.988 265.291 137.891L264.756 148.205C260.098 148.95 255.539 148.747 251.05 147.616C248.84 147.055 246.709 146.263 244.657 145.228C242.051 143.933 240.069 142.415 238.711 140.685H238.721ZM270.425 129.839C272.15 123.344 274.023 117.118 276.025 111.174L290.256 114.769C289.255 119.535 288.205 123.962 287.115 128.07L286.599 130.004L291.713 131.299L289.087 141.178L283.695 139.815C281.971 145.422 279.969 151.192 277.67 157.128L265.103 153.947C266.5 145.992 268.274 137.959 270.435 129.839H270.425Z" fill="black"/>
</g>
<path d="M88.1661 120.777C88.8007 119.134 91.1251 119.134 91.7596 120.777L95.1419 129.533C95.4287 130.276 96.1427 130.765 96.9387 130.765L107.072 130.765C109.018 130.765 109.737 133.32 108.077 134.335L100.484 138.975C99.69 139.461 99.3565 140.444 99.6919 141.313L102.72 149.153C103.384 150.87 101.49 152.45 99.919 151.49L90.9673 146.019C90.3507 145.642 89.5751 145.642 88.9584 146.019L80.0068 151.49C78.4357 152.45 76.5422 150.87 77.2056 149.153L80.2339 141.313C80.5692 140.444 80.2357 139.461 79.4415 138.975L71.8489 134.335C70.1891 133.32 70.9081 130.765 72.8533 130.765L82.9871 130.765C83.7831 130.765 84.4971 130.276 84.7839 129.533L88.1661 120.777Z" fill="#F09E3C"/>
<path d="M319.172 120.777C318.537 119.134 316.213 119.134 315.578 120.777L312.196 129.533C311.909 130.276 311.195 130.765 310.399 130.765L300.265 130.765C298.32 130.765 297.601 133.32 299.261 134.335L306.854 138.975C307.648 139.461 307.981 140.444 307.646 141.313L304.618 149.153C303.954 150.87 305.848 152.45 307.419 151.49L316.371 146.019C316.987 145.642 317.763 145.642 318.379 146.019L327.331 151.49C328.902 152.45 330.796 150.87 330.132 149.153L327.104 141.313C326.769 140.444 327.102 139.461 327.896 138.975L335.489 134.335C337.149 133.32 336.43 130.765 334.485 130.765L324.351 130.765C323.555 130.765 322.841 130.276 322.554 129.533L319.172 120.777Z" fill="#F09E3C"/>
<path d="M95.8402 168.405C96.2793 167.352 97.7715 167.352 98.2106 168.405L100.765 174.533C100.965 175.011 101.432 175.323 101.951 175.323L109.389 175.323C110.709 175.323 111.17 177.074 110.022 177.724L104.6 180.794C104.035 181.114 103.798 181.806 104.048 182.405L106.238 187.658C106.708 188.787 105.484 189.872 104.42 189.27L97.6581 185.441C97.2656 185.219 96.7852 185.219 96.3927 185.441L89.631 189.27C88.5668 189.872 87.3425 188.787 87.8131 187.658L90.003 182.405C90.253 181.806 90.0158 181.114 89.4505 180.794L84.0289 177.724C82.8807 177.074 83.3421 175.323 84.6616 175.323L92.1002 175.323C92.6185 175.323 93.086 175.011 93.2854 174.533L95.8402 168.405Z" fill="#F09E3C"/>
<path d="M60.5316 154.202C60.9757 153.162 62.4493 153.162 62.8934 154.202L65.1316 159.442C65.3336 159.915 65.7983 160.222 66.3125 160.222L72.6288 160.222C73.9553 160.222 74.4109 161.988 73.2499 162.63L68.7992 165.089C68.2225 165.408 67.9806 166.112 68.2395 166.718L70.0685 171C70.5485 172.123 69.336 173.219 68.2666 172.628L62.3336 169.349C61.9471 169.135 61.4779 169.135 61.0914 169.349L55.1584 172.628C54.089 173.219 52.8765 172.123 53.3565 171L55.1855 166.718C55.4444 166.112 55.2025 165.408 54.6258 165.089L50.1751 162.63C49.0141 161.988 49.4697 160.222 50.7962 160.222L57.1125 160.222C57.6267 160.222 58.0914 159.915 58.2934 159.442L60.5316 154.202Z" fill="#F09E3C"/>
<path d="M341.62 154.202C342.064 153.162 343.537 153.162 343.981 154.202L346.22 159.442C346.422 159.915 346.886 160.222 347.4 160.222L353.717 160.222C355.043 160.222 355.499 161.988 354.338 162.63L349.887 165.089C349.31 165.408 349.069 166.112 349.327 166.718L351.156 171C351.636 172.123 350.424 173.219 349.354 172.628L343.422 169.349C343.035 169.135 342.566 169.135 342.179 169.349L336.246 172.628C335.177 173.219 333.964 172.123 334.444 171L336.273 166.718C336.532 166.112 336.29 165.408 335.714 165.089L331.263 162.63C330.102 161.988 330.558 160.222 331.884 160.222L338.2 160.222C338.715 160.222 339.179 159.915 339.381 159.442L341.62 154.202Z" fill="#F09E3C"/>
<path d="M311.498 168.405C311.059 167.352 309.566 167.352 309.127 168.405L306.573 174.533C306.373 175.011 305.906 175.323 305.387 175.323L297.949 175.323C296.629 175.323 296.168 177.074 297.316 177.724L302.738 180.794C303.303 181.114 303.54 181.806 303.29 182.405L301.1 187.658C300.63 188.787 301.854 189.872 302.918 189.27L309.68 185.441C310.072 185.219 310.553 185.219 310.945 185.441L317.707 189.27C318.771 189.872 319.995 188.787 319.525 187.658L317.335 182.405C317.085 181.806 317.322 181.114 317.887 180.794L323.309 177.724C324.457 177.074 323.996 175.323 322.676 175.323L315.238 175.323C314.719 175.323 314.252 175.011 314.052 174.533L311.498 168.405Z" fill="#F09E3C"/>
<defs>
<clipPath id="clip0_3970_36828">
<rect width="177.5" height="56.5" fill="white" transform="translate(114.213 102)"/>
</clipPath>
</defs>
</svg>
