<svg width="100" height="120" viewBox="0 0 100 120" fill="none" xmlns="http://www.w3.org/2000/svg">
<path d="M0 4C0 1.79086 1.79086 0 4 0H96C98.2091 0 100 1.79086 100 4V116C100 118.209 98.2091 120 96 120H4C1.79086 120 0 118.209 0 116V4Z" fill="#921E1F"/>
<path d="M8 0.5V120" stroke="white"/>
<mask id="path-3-outside-1_2631_12877" maskUnits="userSpaceOnUse" x="24" y="45" width="57" height="25" fill="black">
<rect fill="white" x="24" y="45" width="57" height="25"/>
<path d="M33.616 68.296H29.056V53.776H25.72V50.2C28.096 50.104 29.416 49.336 29.824 47.248H33.616V68.296ZM48.9211 60.064L45.0091 64.264H52.6891V68.296H39.1291V64.84L46.1371 56.992C47.5531 55.384 48.1771 54.352 48.1771 53.056C48.1771 51.76 47.2411 50.896 45.8011 50.896C44.3611 50.896 43.3051 51.664 43.2091 53.824H39.1291C39.1051 49.24 42.1771 46.864 45.8731 46.864C49.7371 46.864 52.6651 49.24 52.6651 52.912C52.6651 55.744 51.3211 57.472 48.9211 60.064ZM67.9418 59.656V57.472H74.5178V46.432H79.0778V60.184H74.5178V59.656H67.9418ZM68.1818 53.128H62.0378C59.5178 53.128 58.0298 52.048 58.0298 50.008V49.936C58.0298 47.896 59.5178 46.816 62.0378 46.816H68.1818C70.7018 46.816 72.1898 47.896 72.1898 49.936V50.008C72.1898 52.048 70.7018 53.128 68.1818 53.128ZM62.3978 49.96V49.984C62.3978 50.512 62.7818 50.848 63.4778 50.848H66.7658C67.4618 50.848 67.8218 50.512 67.8218 49.984V49.96C67.8218 49.408 67.4618 49.096 66.7658 49.096H63.4778C62.7818 49.096 62.3978 49.408 62.3978 49.96ZM66.3578 60.064H62.0618V56.704H57.4778V54.088H68.3018C70.7738 54.088 72.0698 53.992 73.3418 53.8V56.416C72.0698 56.608 70.7738 56.704 68.3018 56.704H66.3578V60.064ZM63.6698 65.632V66.4H79.4378V68.824H58.9658V63.664H74.5418V62.92H58.9658V60.544H79.0538V65.632H63.6698Z"/>
</mask>
<path d="M33.616 68.296H29.056V53.776H25.72V50.2C28.096 50.104 29.416 49.336 29.824 47.248H33.616V68.296ZM48.9211 60.064L45.0091 64.264H52.6891V68.296H39.1291V64.84L46.1371 56.992C47.5531 55.384 48.1771 54.352 48.1771 53.056C48.1771 51.76 47.2411 50.896 45.8011 50.896C44.3611 50.896 43.3051 51.664 43.2091 53.824H39.1291C39.1051 49.24 42.1771 46.864 45.8731 46.864C49.7371 46.864 52.6651 49.24 52.6651 52.912C52.6651 55.744 51.3211 57.472 48.9211 60.064ZM67.9418 59.656V57.472H74.5178V46.432H79.0778V60.184H74.5178V59.656H67.9418ZM68.1818 53.128H62.0378C59.5178 53.128 58.0298 52.048 58.0298 50.008V49.936C58.0298 47.896 59.5178 46.816 62.0378 46.816H68.1818C70.7018 46.816 72.1898 47.896 72.1898 49.936V50.008C72.1898 52.048 70.7018 53.128 68.1818 53.128ZM62.3978 49.96V49.984C62.3978 50.512 62.7818 50.848 63.4778 50.848H66.7658C67.4618 50.848 67.8218 50.512 67.8218 49.984V49.96C67.8218 49.408 67.4618 49.096 66.7658 49.096H63.4778C62.7818 49.096 62.3978 49.408 62.3978 49.96ZM66.3578 60.064H62.0618V56.704H57.4778V54.088H68.3018C70.7738 54.088 72.0698 53.992 73.3418 53.8V56.416C72.0698 56.608 70.7738 56.704 68.3018 56.704H66.3578V60.064ZM63.6698 65.632V66.4H79.4378V68.824H58.9658V63.664H74.5418V62.92H58.9658V60.544H79.0538V65.632H63.6698Z" fill="#00473F"/>
<path d="M33.616 68.296V69.296H34.616V68.296H33.616ZM29.056 68.296H28.056V69.296H29.056V68.296ZM29.056 53.776H30.056V52.776H29.056V53.776ZM25.72 53.776H24.72V54.776H25.72V53.776ZM25.72 50.2L25.6796 49.2008L24.72 49.2396V50.2H25.72ZM29.824 47.248V46.248H29.0005L28.8426 47.0562L29.824 47.248ZM33.616 47.248H34.616V46.248H33.616V47.248ZM33.616 67.296H29.056V69.296H33.616V67.296ZM30.056 68.296V53.776H28.056V68.296H30.056ZM29.056 52.776H25.72V54.776H29.056V52.776ZM26.72 53.776V50.2H24.72V53.776H26.72ZM25.7604 51.1992C27.0248 51.1481 28.1707 50.9163 29.0756 50.2957C30.0203 49.6478 30.5643 48.6741 30.8054 47.4398L28.8426 47.0562C28.6757 47.9099 28.3557 48.3642 27.9444 48.6463C27.4933 48.9557 26.7912 49.1559 25.6796 49.2008L25.7604 51.1992ZM29.824 48.248H33.616V46.248H29.824V48.248ZM32.616 47.248V68.296H34.616V47.248H32.616ZM48.9211 60.064L49.6528 60.7456L49.6548 60.7434L48.9211 60.064ZM45.0091 64.264L44.2773 63.5824L42.711 65.264H45.0091V64.264ZM52.6891 64.264H53.6891V63.264H52.6891V64.264ZM52.6891 68.296V69.296H53.6891V68.296H52.6891ZM39.1291 68.296H38.1291V69.296H39.1291V68.296ZM39.1291 64.84L38.3832 64.1739L38.1291 64.4585V64.84H39.1291ZM46.1371 56.992L46.883 57.6581L46.8876 57.6529L46.1371 56.992ZM43.2091 53.824V54.824H44.1656L44.2081 53.8684L43.2091 53.824ZM39.1291 53.824L38.1291 53.8292L38.1343 54.824H39.1291V53.824ZM48.1893 59.3824L44.2773 63.5824L45.7408 64.9456L49.6528 60.7456L48.1893 59.3824ZM45.0091 65.264H52.6891V63.264H45.0091V65.264ZM51.6891 64.264V68.296H53.6891V64.264H51.6891ZM52.6891 67.296H39.1291V69.296H52.6891V67.296ZM40.1291 68.296V64.84H38.1291V68.296H40.1291ZM39.875 65.5061L46.883 57.6581L45.3912 56.3259L38.3832 64.1739L39.875 65.5061ZM46.8876 57.6529C48.3197 56.0266 49.1771 54.7493 49.1771 53.056H47.1771C47.1771 53.9547 46.7865 54.7414 45.3866 56.3311L46.8876 57.6529ZM49.1771 53.056C49.1771 52.155 48.8446 51.3371 48.2033 50.7515C47.5704 50.1736 46.7193 49.896 45.8011 49.896V51.896C46.3228 51.896 46.6597 52.0504 46.8548 52.2285C47.0415 52.3989 47.1771 52.661 47.1771 53.056H49.1771ZM45.8011 49.896C44.9067 49.896 43.9899 50.1378 43.2894 50.8475C42.5983 51.5477 42.2644 52.5556 42.21 53.7796L44.2081 53.8684C44.2497 52.9324 44.4918 52.4763 44.7128 52.2525C44.9242 52.0382 45.2554 51.896 45.8011 51.896V49.896ZM43.2091 52.824H39.1291V54.824H43.2091V52.824ZM40.129 53.8188C40.1183 51.7626 40.7952 50.3007 41.7952 49.3496C42.8058 48.3885 44.2361 47.864 45.8731 47.864V45.864C43.814 45.864 41.8603 46.5275 40.4169 47.9004C38.9629 49.2833 38.1158 51.3014 38.1291 53.8292L40.129 53.8188ZM45.8731 47.864C47.6044 47.864 49.058 48.3956 50.0631 49.2667C51.0557 50.1269 51.6651 51.3617 51.6651 52.912H53.6651C53.6651 50.7903 52.8104 49.0011 51.373 47.7553C49.9481 46.5204 48.0057 45.864 45.8731 45.864V47.864ZM51.6651 52.912C51.6651 55.3219 50.5852 56.7949 48.1873 59.3846L49.6548 60.7434C52.0569 58.1491 53.6651 56.1661 53.6651 52.912H51.6651ZM67.9418 59.656H66.9418V60.656H67.9418V59.656ZM67.9418 57.472V56.472H66.9418V57.472H67.9418ZM74.5178 57.472V58.472H75.5178V57.472H74.5178ZM74.5178 46.432V45.432H73.5178V46.432H74.5178ZM79.0778 46.432H80.0778V45.432H79.0778V46.432ZM79.0778 60.184V61.184H80.0778V60.184H79.0778ZM74.5178 60.184H73.5178V61.184H74.5178V60.184ZM74.5178 59.656H75.5178V58.656H74.5178V59.656ZM66.3578 60.064V61.064H67.3578V60.064H66.3578ZM62.0618 60.064H61.0618V61.064H62.0618V60.064ZM62.0618 56.704H63.0618V55.704H62.0618V56.704ZM57.4778 56.704H56.4778V57.704H57.4778V56.704ZM57.4778 54.088V53.088H56.4778V54.088H57.4778ZM73.3418 53.8H74.3418V52.6377L73.1926 52.8112L73.3418 53.8ZM73.3418 56.416L73.4911 57.4048L74.3418 57.2764V56.416H73.3418ZM66.3578 56.704V55.704H65.3578V56.704H66.3578ZM63.6698 65.632V64.632H62.6698V65.632H63.6698ZM63.6698 66.4H62.6698V67.4H63.6698V66.4ZM79.4378 66.4H80.4378V65.4H79.4378V66.4ZM79.4378 68.824V69.824H80.4378V68.824H79.4378ZM58.9658 68.824H57.9658V69.824H58.9658V68.824ZM58.9658 63.664V62.664H57.9658V63.664H58.9658ZM74.5418 63.664V64.664H75.5418V63.664H74.5418ZM74.5418 62.92H75.5418V61.92H74.5418V62.92ZM58.9658 62.92H57.9658V63.92H58.9658V62.92ZM58.9658 60.544V59.544H57.9658V60.544H58.9658ZM79.0538 60.544H80.0538V59.544H79.0538V60.544ZM79.0538 65.632V66.632H80.0538V65.632H79.0538ZM68.9418 59.656V57.472H66.9418V59.656H68.9418ZM67.9418 58.472H74.5178V56.472H67.9418V58.472ZM75.5178 57.472V46.432H73.5178V57.472H75.5178ZM74.5178 47.432H79.0778V45.432H74.5178V47.432ZM78.0778 46.432V60.184H80.0778V46.432H78.0778ZM79.0778 59.184H74.5178V61.184H79.0778V59.184ZM75.5178 60.184V59.656H73.5178V60.184H75.5178ZM74.5178 58.656H67.9418V60.656H74.5178V58.656ZM68.1818 52.128H62.0378V54.128H68.1818V52.128ZM62.0378 52.128C60.9005 52.128 60.1448 51.8814 59.696 51.5384C59.2879 51.2266 59.0298 50.7581 59.0298 50.008H57.0298C57.0298 51.2979 57.5157 52.3894 58.4816 53.1276C59.4068 53.8346 60.6552 54.128 62.0378 54.128V52.128ZM59.0298 50.008V49.936H57.0298V50.008H59.0298ZM59.0298 49.936C59.0298 49.1859 59.2879 48.7174 59.696 48.4056C60.1448 48.0626 60.9005 47.816 62.0378 47.816V45.816C60.6552 45.816 59.4068 46.1094 58.4816 46.8164C57.5157 47.5546 57.0298 48.6461 57.0298 49.936H59.0298ZM62.0378 47.816H68.1818V45.816H62.0378V47.816ZM68.1818 47.816C69.3192 47.816 70.0748 48.0626 70.5236 48.4056C70.9317 48.7174 71.1898 49.1859 71.1898 49.936H73.1898C73.1898 48.6461 72.7039 47.5546 71.738 46.8164C70.8128 46.1094 69.5645 45.816 68.1818 45.816V47.816ZM71.1898 49.936V50.008H73.1898V49.936H71.1898ZM71.1898 50.008C71.1898 50.7581 70.9317 51.2266 70.5236 51.5384C70.0748 51.8814 69.3192 52.128 68.1818 52.128V54.128C69.5645 54.128 70.8128 53.8346 71.738 53.1276C72.7039 52.3894 73.1898 51.2979 73.1898 50.008H71.1898ZM61.3978 49.96V49.984H63.3978V49.96H61.3978ZM61.3978 49.984C61.3978 50.51 61.6006 51.0248 62.0429 51.3874C62.4599 51.7292 62.982 51.848 63.4778 51.848V49.848C63.3825 49.848 63.326 49.8363 63.3001 49.8286C63.2753 49.8212 63.2853 49.8198 63.3107 49.8406C63.3384 49.8633 63.3655 49.8973 63.3829 49.9365C63.3993 49.9736 63.3978 49.9941 63.3978 49.984H61.3978ZM63.4778 51.848H66.7658V49.848H63.4778V51.848ZM66.7658 51.848C67.2614 51.848 67.7857 51.7292 68.2013 51.3769C68.6398 51.0053 68.8218 50.4892 68.8218 49.984H66.8218C66.8218 50.0025 66.8188 49.9874 66.8334 49.953C66.8492 49.9155 66.876 49.8784 66.9083 49.8511C66.9384 49.8256 66.9546 49.8241 66.9353 49.8299C66.9144 49.8363 66.8613 49.848 66.7658 49.848V51.848ZM68.8218 49.984V49.96H66.8218V49.984H68.8218ZM68.8218 49.96C68.8218 49.4534 68.6463 48.9276 68.1937 48.5517C67.7715 48.2011 67.2445 48.096 66.7658 48.096V50.096C66.8676 50.096 66.9246 50.1077 66.9479 50.1144C66.9693 50.1205 66.9503 50.1189 66.9159 50.0903C66.899 50.0763 66.8818 50.0584 66.8661 50.0372C66.8505 50.016 66.8394 49.9953 66.8319 49.9774C66.8169 49.9416 66.8218 49.9299 66.8218 49.96H68.8218ZM66.7658 48.096H63.4778V50.096H66.7658V48.096ZM63.4778 48.096C62.9985 48.096 62.474 48.2013 62.0506 48.5414C61.5938 48.9083 61.3978 49.4325 61.3978 49.96H63.3978C63.3978 49.938 63.4014 49.9551 63.3845 49.9938C63.366 50.0358 63.3359 50.0743 63.3031 50.1006C63.2735 50.1244 63.2607 50.1232 63.2877 50.1156C63.3159 50.1076 63.3763 50.096 63.4778 50.096V48.096ZM66.3578 59.064H62.0618V61.064H66.3578V59.064ZM63.0618 60.064V56.704H61.0618V60.064H63.0618ZM62.0618 55.704H57.4778V57.704H62.0618V55.704ZM58.4778 56.704V54.088H56.4778V56.704H58.4778ZM57.4778 55.088H68.3018V53.088H57.4778V55.088ZM68.3018 55.088C70.8027 55.088 72.1525 54.9908 73.4911 54.7888L73.1926 52.8112C71.9871 52.9931 70.7449 53.088 68.3018 53.088V55.088ZM72.3418 53.8V56.416H74.3418V53.8H72.3418ZM73.1926 55.4272C71.9871 55.6091 70.7449 55.704 68.3018 55.704V57.704C70.8027 57.704 72.1525 57.6068 73.4911 57.4048L73.1926 55.4272ZM68.3018 55.704H66.3578V57.704H68.3018V55.704ZM65.3578 56.704V60.064H67.3578V56.704H65.3578ZM62.6698 65.632V66.4H64.6698V65.632H62.6698ZM63.6698 67.4H79.4378V65.4H63.6698V67.4ZM78.4378 66.4V68.824H80.4378V66.4H78.4378ZM79.4378 67.824H58.9658V69.824H79.4378V67.824ZM59.9658 68.824V63.664H57.9658V68.824H59.9658ZM58.9658 64.664H74.5418V62.664H58.9658V64.664ZM75.5418 63.664V62.92H73.5418V63.664H75.5418ZM74.5418 61.92H58.9658V63.92H74.5418V61.92ZM59.9658 62.92V60.544H57.9658V62.92H59.9658ZM58.9658 61.544H79.0538V59.544H58.9658V61.544ZM78.0538 60.544V65.632H80.0538V60.544H78.0538ZM79.0538 64.632H63.6698V66.632H79.0538V64.632Z" fill="white" mask="url(#path-3-outside-1_2631_12877)"/>
<rect x="16.5" y="10.5" width="74" height="19" fill="white"/>
<rect x="16.5" y="10.5" width="74" height="19" stroke="#D9D9D9"/>
<path d="M34.3195 19.0666V19.6123H32.7986V25.6378H31.1152V23.2926C30.558 23.3971 29.8033 23.4667 29.3738 23.4667H28.294C27.7252 23.4667 27.226 23.2461 27.226 22.6889V15.6998H30.3722V16.2222H28.8745V22.6773C28.8745 22.8746 28.9558 22.9443 29.1416 22.9443H29.5247C29.9194 22.9443 30.5928 22.8862 31.1152 22.7818V15.1077H32.7986V19.0666H34.3195ZM25.5774 22.9443H25.8676C26.2623 22.9443 26.6106 22.8979 27.0054 22.805L27.1215 23.3042C26.6687 23.4203 26.1927 23.4667 25.7167 23.4667H24.695C24.1261 23.4667 23.6269 23.2461 23.6269 22.6889V15.6998H26.9357V16.2222H25.3103V22.6773C25.3103 22.8746 25.3916 22.9443 25.5774 22.9443ZM44.2629 25.7539L40.1879 24.024C39.1894 24.9412 37.3319 25.51 35.6949 25.7539L35.5672 25.2198C37.506 24.6858 39.2011 23.9079 39.2011 22.4567V21.7253H40.9425V22.5147C40.9425 22.9559 40.78 23.3506 40.4897 23.6989C40.838 23.4667 41.2908 23.4783 41.7784 23.6293L44.7157 24.5929L44.2629 25.7539ZM40.1531 18.5442V15.3283H44.2977V15.8623H41.8945V18.4745C41.8945 18.6719 42.0106 18.7648 42.1964 18.7648H44.4138V19.2988H41.1863C40.6174 19.2988 40.1531 19.1015 40.1531 18.5442ZM39.6887 15.8623H37.5757V18.4745C37.5757 18.6719 37.6918 18.7648 37.8775 18.7648H39.8048V19.2988H36.9255C36.3567 19.2988 35.8342 19.0434 35.8342 18.4861V15.3283H39.6887V15.8623ZM34.7545 20.4134H45.3891V20.9474H34.7545V20.4134ZM52.3371 19.7632C52.3371 21.1332 51.2226 21.9342 49.5043 21.9342C47.7861 21.9342 46.6716 21.1332 46.6716 19.7632C46.6716 18.3933 47.7861 17.5922 49.5043 17.5922C51.2226 17.5922 52.3371 18.3933 52.3371 19.7632ZM57.0855 18.5558V19.1015H55.4485V23.2578H53.7071V15.1077H55.4485V18.5558H57.0855ZM47.5655 22.6192H49.307V24.7554C49.307 24.9412 49.4231 25.0457 49.6088 25.0457H55.6227V25.5797H48.6684C48.088 25.5797 47.5655 25.3127 47.5655 24.767V22.6192ZM52.848 17.1278H46.1027V16.5938H48.6336V14.8407H50.3751V16.5938H52.848V17.1278ZM50.7234 19.7632C50.7234 18.6371 50.2125 18.1379 49.5043 18.1379C48.7962 18.1379 48.2853 18.6371 48.2853 19.7632C48.2853 20.8894 48.7962 21.3886 49.5043 21.3886C50.2125 21.3886 50.7234 20.8894 50.7234 19.7632ZM70.6605 15.1077V22.6773H68.919V19.6703H67.0383C66.5855 20.5875 65.6683 21.0751 64.3912 21.0751C62.5337 21.0751 61.4307 20.0419 61.4307 18.1727C61.4307 16.3035 62.5337 15.2702 64.3912 15.2702C65.587 15.2702 66.481 15.6998 66.957 16.5125H68.919V15.1077H70.6605ZM63.1606 18.1727C63.1606 19.6239 63.5321 20.5411 64.3912 20.5411C65.2503 20.5411 65.6219 19.6239 65.6219 18.1727C65.6219 16.7215 65.2503 15.8043 64.3912 15.8043C63.5321 15.8043 63.1606 16.7215 63.1606 18.1727ZM62.6614 22.0387H64.4028V24.7554C64.4028 24.9412 64.5189 25.0457 64.7047 25.0457H70.8346V25.5797H63.7643C63.1838 25.5797 62.6614 25.3127 62.6614 24.767V22.0387ZM67.3517 18.1727C67.3517 18.521 67.3169 18.846 67.2356 19.1247H68.919V17.0581H67.1892C67.2937 17.3948 67.3517 17.7663 67.3517 18.1727ZM78.4909 20.0535H73.9747C73.4058 20.0535 72.8718 19.798 72.8718 19.2408V15.3515H78.4909V20.0535ZM81.8694 25.6958H74.799C74.2185 25.6958 73.7541 25.5217 73.7541 24.9412V23.0604H79.9537V21.644H73.7541V21.11H81.6952V23.5944H75.4956V24.9063C75.4956 25.1037 75.5769 25.1618 75.7626 25.1618H81.8694V25.6958ZM83.3322 17.4297V17.9753H81.6952V20.5295H79.9537V15.1077H81.6952V17.4297H83.3322ZM74.6016 19.2176C74.6016 19.4149 74.7177 19.5194 74.9035 19.5194H76.7611V15.8856H74.6016V19.2176Z" fill="black"/>
</svg>
