<svg width="100" height="120" viewBox="0 0 100 120" fill="none" xmlns="http://www.w3.org/2000/svg">
<rect width="100" height="120" rx="4" fill="#009161"/>
<path d="M8 0.5V120" stroke="white"/>
<rect x="16.5" y="10.5" width="74" height="19" fill="white"/>
<rect x="16.5" y="10.5" width="74" height="19" stroke="#D9D9D9"/>
<path d="M34.3195 19.0666V19.6123H32.7986V25.6378H31.1152V23.2926C30.558 23.3971 29.8033 23.4667 29.3738 23.4667H28.294C27.7252 23.4667 27.226 23.2461 27.226 22.6889V15.6998H30.3722V16.2222H28.8745V22.6773C28.8745 22.8746 28.9558 22.9443 29.1416 22.9443H29.5247C29.9194 22.9443 30.5928 22.8862 31.1152 22.7818V15.1077H32.7986V19.0666H34.3195ZM25.5774 22.9443H25.8676C26.2623 22.9443 26.6106 22.8979 27.0054 22.805L27.1215 23.3042C26.6687 23.4203 26.1927 23.4667 25.7167 23.4667H24.695C24.1261 23.4667 23.6269 23.2461 23.6269 22.6889V15.6998H26.9357V16.2222H25.3103V22.6773C25.3103 22.8746 25.3916 22.9443 25.5774 22.9443ZM44.2629 25.7539L40.1879 24.024C39.1894 24.9412 37.3319 25.51 35.6949 25.7539L35.5672 25.2198C37.506 24.6858 39.2011 23.9079 39.2011 22.4567V21.7253H40.9425V22.5147C40.9425 22.9559 40.78 23.3506 40.4897 23.6989C40.838 23.4667 41.2908 23.4783 41.7784 23.6293L44.7157 24.5929L44.2629 25.7539ZM40.1531 18.5442V15.3283H44.2977V15.8623H41.8945V18.4745C41.8945 18.6719 42.0106 18.7648 42.1964 18.7648H44.4138V19.2988H41.1863C40.6174 19.2988 40.1531 19.1015 40.1531 18.5442ZM39.6887 15.8623H37.5757V18.4745C37.5757 18.6719 37.6918 18.7648 37.8775 18.7648H39.8048V19.2988H36.9255C36.3567 19.2988 35.8342 19.0434 35.8342 18.4861V15.3283H39.6887V15.8623ZM34.7545 20.4134H45.3891V20.9474H34.7545V20.4134ZM52.3371 19.7632C52.3371 21.1332 51.2226 21.9342 49.5043 21.9342C47.7861 21.9342 46.6716 21.1332 46.6716 19.7632C46.6716 18.3933 47.7861 17.5922 49.5043 17.5922C51.2226 17.5922 52.3371 18.3933 52.3371 19.7632ZM57.0855 18.5558V19.1015H55.4485V23.2578H53.7071V15.1077H55.4485V18.5558H57.0855ZM47.5655 22.6192H49.307V24.7554C49.307 24.9412 49.4231 25.0457 49.6088 25.0457H55.6227V25.5797H48.6684C48.088 25.5797 47.5655 25.3127 47.5655 24.767V22.6192ZM52.848 17.1278H46.1027V16.5938H48.6336V14.8407H50.3751V16.5938H52.848V17.1278ZM50.7234 19.7632C50.7234 18.6371 50.2125 18.1379 49.5043 18.1379C48.7962 18.1379 48.2853 18.6371 48.2853 19.7632C48.2853 20.8894 48.7962 21.3886 49.5043 21.3886C50.2125 21.3886 50.7234 20.8894 50.7234 19.7632ZM67.2008 23.4667H62.6498C62.0809 23.4667 61.5468 23.2113 61.5468 22.654V15.6998H67.2008V23.4667ZM71.9492 19.0666V19.6123H70.3122V25.6378H68.5707V15.1077H70.3122V19.0666H71.9492ZM63.2883 16.2339V22.6308C63.2883 22.8282 63.4044 22.9327 63.5902 22.9327H65.4593V16.2339H63.2883ZM81.73 25.6378H74.7526C74.1837 25.6378 73.6613 25.3823 73.6613 24.8251V21.8994H81.73V25.6378ZM75.4027 22.4335V24.8135C75.4027 25.0108 75.5188 25.1037 75.7046 25.1037H79.9886V22.4335H75.4027ZM72.3842 20.216H83.0187V20.75H72.3842V20.216ZM77.7014 15.1541C80.6271 15.1541 81.8926 16.0133 81.8926 17.1975C81.8926 18.3817 80.6271 19.2408 77.7014 19.2408C74.7758 19.2408 73.5103 18.3817 73.5103 17.1975C73.5103 16.0133 74.7758 15.1541 77.7014 15.1541ZM77.7014 18.7067C79.3036 18.7067 80.1627 18.103 80.1627 17.1975C80.1627 16.2919 79.3036 15.6882 77.7014 15.6882C76.0993 15.6882 75.2402 16.2919 75.2402 17.1975C75.2402 18.103 76.0993 18.7067 77.7014 18.7067Z" fill="black"/>
<mask id="path-5-outside-1_2631_12823" maskUnits="userSpaceOnUse" x="31" y="45" width="44" height="25" fill="black">
<rect fill="white" x="31" y="45" width="44" height="25"/>
<path d="M42.752 60.064L38.84 64.264H46.52V68.296H32.96V64.84L39.968 56.992C41.384 55.384 42.008 54.352 42.008 53.056C42.008 51.76 41.072 50.896 39.632 50.896C38.192 50.896 37.136 51.664 37.04 53.824H32.96C32.936 49.24 36.008 46.864 39.704 46.864C43.568 46.864 46.496 49.24 46.496 52.912C46.496 55.744 45.152 57.472 42.752 60.064ZM61.7728 59.656V57.472H68.3488V46.432H72.9088V60.184H68.3488V59.656H61.7728ZM62.0128 53.128H55.8688C53.3488 53.128 51.8608 52.048 51.8608 50.008V49.936C51.8608 47.896 53.3488 46.816 55.8688 46.816H62.0128C64.5328 46.816 66.0208 47.896 66.0208 49.936V50.008C66.0208 52.048 64.5328 53.128 62.0128 53.128ZM56.2288 49.96V49.984C56.2288 50.512 56.6128 50.848 57.3088 50.848H60.5968C61.2928 50.848 61.6528 50.512 61.6528 49.984V49.96C61.6528 49.408 61.2928 49.096 60.5968 49.096H57.3088C56.6128 49.096 56.2288 49.408 56.2288 49.96ZM60.1888 60.064H55.8928V56.704H51.3088V54.088H62.1328C64.6048 54.088 65.9008 53.992 67.1728 53.8V56.416C65.9008 56.608 64.6048 56.704 62.1328 56.704H60.1888V60.064ZM57.5008 65.632V66.4H73.2688V68.824H52.7968V63.664H68.3728V62.92H52.7968V60.544H72.8848V65.632H57.5008Z"/>
</mask>
<path d="M42.752 60.064L38.84 64.264H46.52V68.296H32.96V64.84L39.968 56.992C41.384 55.384 42.008 54.352 42.008 53.056C42.008 51.76 41.072 50.896 39.632 50.896C38.192 50.896 37.136 51.664 37.04 53.824H32.96C32.936 49.24 36.008 46.864 39.704 46.864C43.568 46.864 46.496 49.24 46.496 52.912C46.496 55.744 45.152 57.472 42.752 60.064ZM61.7728 59.656V57.472H68.3488V46.432H72.9088V60.184H68.3488V59.656H61.7728ZM62.0128 53.128H55.8688C53.3488 53.128 51.8608 52.048 51.8608 50.008V49.936C51.8608 47.896 53.3488 46.816 55.8688 46.816H62.0128C64.5328 46.816 66.0208 47.896 66.0208 49.936V50.008C66.0208 52.048 64.5328 53.128 62.0128 53.128ZM56.2288 49.96V49.984C56.2288 50.512 56.6128 50.848 57.3088 50.848H60.5968C61.2928 50.848 61.6528 50.512 61.6528 49.984V49.96C61.6528 49.408 61.2928 49.096 60.5968 49.096H57.3088C56.6128 49.096 56.2288 49.408 56.2288 49.96ZM60.1888 60.064H55.8928V56.704H51.3088V54.088H62.1328C64.6048 54.088 65.9008 53.992 67.1728 53.8V56.416C65.9008 56.608 64.6048 56.704 62.1328 56.704H60.1888V60.064ZM57.5008 65.632V66.4H73.2688V68.824H52.7968V63.664H68.3728V62.92H52.7968V60.544H72.8848V65.632H57.5008Z" fill="#C54B26"/>
<path d="M42.752 60.064L43.4838 60.7456L43.4858 60.7434L42.752 60.064ZM38.84 64.264L38.1083 63.5824L36.542 65.264H38.84V64.264ZM46.52 64.264H47.52V63.264H46.52V64.264ZM46.52 68.296V69.296H47.52V68.296H46.52ZM32.96 68.296H31.96V69.296H32.96V68.296ZM32.96 64.84L32.2141 64.1739L31.96 64.4585V64.84H32.96ZM39.968 56.992L40.7139 57.6581L40.7185 57.6529L39.968 56.992ZM37.04 53.824V54.824H37.9965L38.039 53.8684L37.04 53.824ZM32.96 53.824L31.96 53.8292L31.9652 54.824H32.96V53.824ZM42.0203 59.3824L38.1083 63.5824L39.5718 64.9456L43.4838 60.7456L42.0203 59.3824ZM38.84 65.264H46.52V63.264H38.84V65.264ZM45.52 64.264V68.296H47.52V64.264H45.52ZM46.52 67.296H32.96V69.296H46.52V67.296ZM33.96 68.296V64.84H31.96V68.296H33.96ZM33.7059 65.5061L40.7139 57.6581L39.2221 56.3259L32.2141 64.1739L33.7059 65.5061ZM40.7185 57.6529C42.1506 56.0266 43.008 54.7493 43.008 53.056H41.008C41.008 53.9547 40.6174 54.7414 39.2175 56.3311L40.7185 57.6529ZM43.008 53.056C43.008 52.155 42.6756 51.3371 42.0343 50.7515C41.4013 50.1736 40.5502 49.896 39.632 49.896V51.896C40.1538 51.896 40.4907 52.0504 40.6857 52.2285C40.8724 52.3989 41.008 52.661 41.008 53.056H43.008ZM39.632 49.896C38.7377 49.896 37.8208 50.1378 37.1203 50.8475C36.4293 51.5477 36.0954 52.5556 36.041 53.7796L38.039 53.8684C38.0806 52.9324 38.3227 52.4763 38.5437 52.2525C38.7552 52.0382 39.0863 51.896 39.632 51.896V49.896ZM37.04 52.824H32.96V54.824H37.04V52.824ZM33.96 53.8188C33.9492 51.7626 34.6262 50.3007 35.6262 49.3496C36.6367 48.3885 38.067 47.864 39.704 47.864V45.864C37.645 45.864 35.6913 46.5275 34.2478 47.9004C32.7938 49.2833 31.9468 51.3014 31.96 53.8292L33.96 53.8188ZM39.704 47.864C41.4353 47.864 42.8889 48.3956 43.8941 49.2667C44.8867 50.1269 45.496 51.3617 45.496 52.912H47.496C47.496 50.7903 46.6413 49.0011 45.2039 47.7553C43.7791 46.5204 41.8367 45.864 39.704 45.864V47.864ZM45.496 52.912C45.496 55.3219 44.4161 56.7949 42.0182 59.3846L43.4858 60.7434C45.8879 58.1491 47.496 56.1661 47.496 52.912H45.496ZM61.7728 59.656H60.7728V60.656H61.7728V59.656ZM61.7728 57.472V56.472H60.7728V57.472H61.7728ZM68.3488 57.472V58.472H69.3488V57.472H68.3488ZM68.3488 46.432V45.432H67.3488V46.432H68.3488ZM72.9088 46.432H73.9088V45.432H72.9088V46.432ZM72.9088 60.184V61.184H73.9088V60.184H72.9088ZM68.3488 60.184H67.3488V61.184H68.3488V60.184ZM68.3488 59.656H69.3488V58.656H68.3488V59.656ZM60.1888 60.064V61.064H61.1888V60.064H60.1888ZM55.8928 60.064H54.8928V61.064H55.8928V60.064ZM55.8928 56.704H56.8928V55.704H55.8928V56.704ZM51.3088 56.704H50.3088V57.704H51.3088V56.704ZM51.3088 54.088V53.088H50.3088V54.088H51.3088ZM67.1728 53.8H68.1728V52.6377L67.0235 52.8112L67.1728 53.8ZM67.1728 56.416L67.322 57.4048L68.1728 57.2764V56.416H67.1728ZM60.1888 56.704V55.704H59.1888V56.704H60.1888ZM57.5008 65.632V64.632H56.5008V65.632H57.5008ZM57.5008 66.4H56.5008V67.4H57.5008V66.4ZM73.2688 66.4H74.2688V65.4H73.2688V66.4ZM73.2688 68.824V69.824H74.2688V68.824H73.2688ZM52.7968 68.824H51.7968V69.824H52.7968V68.824ZM52.7968 63.664V62.664H51.7968V63.664H52.7968ZM68.3728 63.664V64.664H69.3728V63.664H68.3728ZM68.3728 62.92H69.3728V61.92H68.3728V62.92ZM52.7968 62.92H51.7968V63.92H52.7968V62.92ZM52.7968 60.544V59.544H51.7968V60.544H52.7968ZM72.8848 60.544H73.8848V59.544H72.8848V60.544ZM72.8848 65.632V66.632H73.8848V65.632H72.8848ZM62.7728 59.656V57.472H60.7728V59.656H62.7728ZM61.7728 58.472H68.3488V56.472H61.7728V58.472ZM69.3488 57.472V46.432H67.3488V57.472H69.3488ZM68.3488 47.432H72.9088V45.432H68.3488V47.432ZM71.9088 46.432V60.184H73.9088V46.432H71.9088ZM72.9088 59.184H68.3488V61.184H72.9088V59.184ZM69.3488 60.184V59.656H67.3488V60.184H69.3488ZM68.3488 58.656H61.7728V60.656H68.3488V58.656ZM62.0128 52.128H55.8688V54.128H62.0128V52.128ZM55.8688 52.128C54.7314 52.128 53.9757 51.8814 53.5269 51.5384C53.1189 51.2266 52.8608 50.7581 52.8608 50.008H50.8608C50.8608 51.2979 51.3466 52.3894 52.3126 53.1276C53.2378 53.8346 54.4861 54.128 55.8688 54.128V52.128ZM52.8608 50.008V49.936H50.8608V50.008H52.8608ZM52.8608 49.936C52.8608 49.1859 53.1189 48.7174 53.5269 48.4056C53.9757 48.0626 54.7314 47.816 55.8688 47.816V45.816C54.4861 45.816 53.2378 46.1094 52.3126 46.8164C51.3466 47.5546 50.8608 48.6461 50.8608 49.936H52.8608ZM55.8688 47.816H62.0128V45.816H55.8688V47.816ZM62.0128 47.816C63.1501 47.816 63.9058 48.0626 64.3546 48.4056C64.7626 48.7174 65.0208 49.1859 65.0208 49.936H67.0208C67.0208 48.6461 66.5349 47.5546 65.5689 46.8164C64.6437 46.1094 63.3954 45.816 62.0128 45.816V47.816ZM65.0208 49.936V50.008H67.0208V49.936H65.0208ZM65.0208 50.008C65.0208 50.7581 64.7626 51.2266 64.3546 51.5384C63.9058 51.8814 63.1501 52.128 62.0128 52.128V54.128C63.3954 54.128 64.6437 53.8346 65.5689 53.1276C66.5349 52.3894 67.0208 51.2979 67.0208 50.008H65.0208ZM55.2288 49.96V49.984H57.2288V49.96H55.2288ZM55.2288 49.984C55.2288 50.51 55.4315 51.0248 55.8738 51.3874C56.2909 51.7292 56.8129 51.848 57.3088 51.848V49.848C57.2135 49.848 57.157 49.8363 57.131 49.8286C57.1062 49.8212 57.1163 49.8198 57.1417 49.8406C57.1694 49.8633 57.1964 49.8973 57.2138 49.9365C57.2303 49.9736 57.2288 49.9941 57.2288 49.984H55.2288ZM57.3088 51.848H60.5968V49.848H57.3088V51.848ZM60.5968 51.848C61.0923 51.848 61.6166 51.7292 62.0323 51.3769C62.4708 51.0053 62.6528 50.4892 62.6528 49.984H60.6528C60.6528 50.0025 60.6497 49.9874 60.6643 49.953C60.6801 49.9155 60.707 49.8784 60.7392 49.8511C60.7693 49.8256 60.7855 49.8241 60.7663 49.8299C60.7453 49.8363 60.6922 49.848 60.5968 49.848V51.848ZM62.6528 49.984V49.96H60.6528V49.984H62.6528ZM62.6528 49.96C62.6528 49.4534 62.4772 48.9276 62.0247 48.5517C61.6025 48.2011 61.0755 48.096 60.5968 48.096V50.096C60.6986 50.096 60.7556 50.1077 60.7788 50.1144C60.8002 50.1205 60.7812 50.1189 60.7469 50.0903C60.73 50.0763 60.7127 50.0584 60.6971 50.0372C60.6815 50.016 60.6703 49.9953 60.6628 49.9774C60.6479 49.9416 60.6528 49.9299 60.6528 49.96H62.6528ZM60.5968 48.096H57.3088V50.096H60.5968V48.096ZM57.3088 48.096C56.8294 48.096 56.3049 48.2013 55.8815 48.5414C55.4247 48.9083 55.2288 49.4325 55.2288 49.96H57.2288C57.2288 49.938 57.2324 49.9551 57.2154 49.9938C57.197 50.0358 57.1668 50.0743 57.134 50.1006C57.1044 50.1244 57.0917 50.1232 57.1186 50.1156C57.1468 50.1076 57.2072 50.096 57.3088 50.096V48.096ZM60.1888 59.064H55.8928V61.064H60.1888V59.064ZM56.8928 60.064V56.704H54.8928V60.064H56.8928ZM55.8928 55.704H51.3088V57.704H55.8928V55.704ZM52.3088 56.704V54.088H50.3088V56.704H52.3088ZM51.3088 55.088H62.1328V53.088H51.3088V55.088ZM62.1328 55.088C64.6337 55.088 65.9834 54.9908 67.322 54.7888L67.0235 52.8112C65.8181 52.9931 64.5759 53.088 62.1328 53.088V55.088ZM66.1728 53.8V56.416H68.1728V53.8H66.1728ZM67.0235 55.4272C65.8181 55.6091 64.5759 55.704 62.1328 55.704V57.704C64.6337 57.704 65.9834 57.6068 67.322 57.4048L67.0235 55.4272ZM62.1328 55.704H60.1888V57.704H62.1328V55.704ZM59.1888 56.704V60.064H61.1888V56.704H59.1888ZM56.5008 65.632V66.4H58.5008V65.632H56.5008ZM57.5008 67.4H73.2688V65.4H57.5008V67.4ZM72.2688 66.4V68.824H74.2688V66.4H72.2688ZM73.2688 67.824H52.7968V69.824H73.2688V67.824ZM53.7968 68.824V63.664H51.7968V68.824H53.7968ZM52.7968 64.664H68.3728V62.664H52.7968V64.664ZM69.3728 63.664V62.92H67.3728V63.664H69.3728ZM68.3728 61.92H52.7968V63.92H68.3728V61.92ZM53.7968 62.92V60.544H51.7968V62.92H53.7968ZM52.7968 61.544H72.8848V59.544H52.7968V61.544ZM71.8848 60.544V65.632H73.8848V60.544H71.8848ZM72.8848 64.632H57.5008V66.632H72.8848V64.632Z" fill="white" mask="url(#path-5-outside-1_2631_12823)"/>
</svg>
