<svg width="108" height="108" viewBox="0 0 108 108" fill="none" xmlns="http://www.w3.org/2000/svg">
<rect x="0.5" y="0.5" width="107" height="107" rx="15.5" fill="white"/>
<rect x="0.5" y="0.5" width="107" height="107" rx="15.5" stroke="black"/>
<line x1="36.5" y1="23.5" x2="36.5" y2="56.5" stroke="black"/>
<line x1="40.5" y1="23.5" x2="40.5" y2="56.5" stroke="black"/>
<line x1="33" y1="26.9962" x2="75" y2="26.9962" stroke="black"/>
<line x1="33" y1="39.9962" x2="75" y2="39.9962" stroke="black"/>
<line x1="33" y1="52.9962" x2="75" y2="52.9962" stroke="black"/>
<path d="M51.5664 27.9951V32.1787H53.1953V33.1045H51.5664V38.4834H50.4531V27.9951H51.5664ZM48.8242 29.0967C48.8125 32.1318 47.4766 34.8389 44.0195 36.5498L43.3984 35.6826C46.0293 34.3701 47.459 32.4717 47.6875 30.0225H43.9258V29.0967H48.8242Z" fill="black"/>
<path d="M53.1953 45.1078V46.0219H51.5664V51.4711H50.4531V40.9828H51.5664V45.1078H53.1953ZM44.8867 42.0023V47.9086C46.3516 47.9086 47.8809 47.7855 49.5508 47.4398L49.6797 48.3773C47.8867 48.7406 46.2227 48.8344 44.6523 48.8344H43.7852V42.0023H44.8867ZM61.9375 40.9828V45.0492H63.625V45.9633H61.9375V51.5062H60.8242V40.9828H61.9375ZM59.1133 41.9906V42.8929H55.3164V47.9672C57.0801 47.9613 58.4043 47.8851 59.8984 47.6156L60.0391 48.5531C58.3984 48.8461 57.0039 48.9047 55.0469 48.8929H54.2031V41.9906H59.1133Z" fill="black"/>
<path d="M33.672 74.252H48.008V75.916H41.992V76.876H46.2V80.828H37.8V81.612H46.44V83.308H35.48V79.292H43.88V78.572H35.48V76.876H39.672V75.916H33.672V74.252ZM35.288 70.3V68.508H46.408V70.3H42.008V70.444C42.008 71.244 45.24 71.772 46.872 72.012L46.328 73.884C44.632 73.66 41.752 73.02 40.856 72.396C40.008 73.02 37.32 73.66 35.464 73.884L34.92 72.012C36.616 71.772 39.688 71.244 39.688 70.444V70.3H35.288ZM62.0475 76.652H57.6795V79.516H63.6955V81.356H49.3595V79.516H55.3595V76.652H51.1675V69.02H53.4875V74.812H62.0475V76.652ZM66.855 77.596V69.02H77.575V70.86H69.175V72.364H77.255V74.172H69.175V75.756H77.735V77.596H66.855ZM65.047 79.756H79.383V81.596H65.047V79.756Z" fill="black"/>
</svg>
