<svg width="100" height="120" viewBox="0 0 100 120" fill="none" xmlns="http://www.w3.org/2000/svg">
<path d="M0 4C0 1.79086 1.79086 0 4 0H96C98.2091 0 100 1.79086 100 4V116C100 118.209 98.2091 120 96 120H4C1.79086 120 0 118.209 0 116V4Z" fill="#19788C"/>
<path d="M8 0.5V120" stroke="white"/>
<rect x="16.5" y="10.5" width="74" height="19" fill="white"/>
<rect x="16.5" y="10.5" width="74" height="19" stroke="#D9D9D9"/>
<path d="M32.8915 25.6958H25.6935C25.113 25.6958 24.6486 25.4868 24.6486 24.9412V23.1068H30.9875V21.853H24.6486V21.3189H32.7174V23.6525H26.3784V24.9063C26.3784 25.0921 26.4597 25.1618 26.6455 25.1618H32.8915V25.6958ZM27.9341 19.473L27.6903 18.9505C27.8877 18.8577 28.0619 18.7648 28.236 18.6487L27.0402 17.4297C26.4597 18.2075 25.4497 18.7648 24.2887 19.2292L24.0449 18.7416C25.1594 18.045 25.856 17.3136 25.856 15.874V15.1541H27.5394V15.932C27.5394 16.408 27.4117 16.826 27.2027 17.1859C27.5278 17.0117 27.9922 17.093 28.2592 17.3252L29.0371 18.0101C29.5247 17.4761 29.8033 16.8143 29.8033 15.9668V15.1541H31.4867V15.932C31.4867 16.4428 31.3126 16.9304 31.0107 17.36C31.359 17.151 31.8699 17.2207 32.1833 17.4877L33.4023 18.521L32.6477 19.2988L30.8598 17.569C30.2097 18.3817 29.13 19.0318 27.9341 19.473ZM23.3715 19.8909H34.006V20.425H23.3715V19.8909ZM44.2745 25.6958H37.0765C36.496 25.6958 36.0316 25.4868 36.0316 24.9412V23.1068H42.3705V21.853H36.0316V21.3189H44.1004V23.6525H37.7614V24.9063C37.7614 25.0921 37.8427 25.1618 38.0285 25.1618H44.2745V25.6958ZM39.3171 19.473L39.0733 18.9505C39.2707 18.8577 39.4449 18.7648 39.619 18.6487L38.4232 17.4297C37.8427 18.2075 36.8327 18.7648 35.6717 19.2292L35.4279 18.7416C36.5424 18.045 37.239 17.3136 37.239 15.874V15.1541H38.9224V15.932C38.9224 16.408 38.7947 16.826 38.5857 17.1859C38.9108 17.0117 39.3752 17.093 39.6422 17.3252L40.4201 18.0101C40.9077 17.4761 41.1863 16.8143 41.1863 15.9668V15.1541H42.8697V15.932C42.8697 16.4428 42.6956 16.9304 42.3937 17.36C42.742 17.151 43.2529 17.2207 43.5663 17.4877L44.7853 18.521L44.0307 19.2988L42.2428 17.569C41.5927 18.3817 40.513 19.0318 39.3171 19.473ZM34.7545 19.8909H45.3891V20.425H34.7545V19.8909ZM52.3371 19.7632C52.3371 21.1332 51.2226 21.9342 49.5043 21.9342C47.7861 21.9342 46.6716 21.1332 46.6716 19.7632C46.6716 18.3933 47.7861 17.5922 49.5043 17.5922C51.2226 17.5922 52.3371 18.3933 52.3371 19.7632ZM57.0855 18.5558V19.1015H55.4485V23.2578H53.7071V15.1077H55.4485V18.5558H57.0855ZM47.5655 22.6192H49.307V24.7554C49.307 24.9412 49.4231 25.0457 49.6088 25.0457H55.6227V25.5797H48.6684C48.088 25.5797 47.5655 25.3127 47.5655 24.767V22.6192ZM52.848 17.1278H46.1027V16.5938H48.6336V14.8407H50.3751V16.5938H52.848V17.1278ZM50.7234 19.7632C50.7234 18.6371 50.2125 18.1379 49.5043 18.1379C48.7962 18.1379 48.2853 18.6371 48.2853 19.7632C48.2853 20.8894 48.7962 21.3886 49.5043 21.3886C50.2125 21.3886 50.7234 20.8894 50.7234 19.7632ZM66.3765 21.3538C69.0816 21.3538 70.3703 22.2825 70.3703 23.6409C70.3703 24.9992 69.0816 25.928 66.3765 25.928C63.6714 25.928 62.3827 24.9992 62.3827 23.6409C62.3827 22.2825 63.6714 21.3538 66.3765 21.3538ZM71.9492 17.6386V18.1843H70.3122V21.11H68.5707V19.9838C67.3517 20.2276 65.587 20.2857 64.4841 20.2857H62.7078C62.1389 20.2857 61.6049 20.0419 61.6049 19.473V15.3515H63.358V19.4498C63.358 19.6355 63.4624 19.74 63.6482 19.74H64.6931C65.6567 19.74 67.3517 19.7052 68.5707 19.4498V15.1077H70.3122V17.6386H71.9492ZM66.3765 25.394C67.8277 25.394 68.6404 24.6393 68.6404 23.6409C68.6404 22.6424 67.8277 21.8878 66.3765 21.8878C64.9253 21.8878 64.1126 22.6424 64.1126 23.6409C64.1126 24.6393 64.9253 25.394 66.3765 25.394ZM78.4909 20.901H73.9747C73.4058 20.901 72.8718 20.6456 72.8718 20.0883V15.4444H78.4909V20.901ZM83.3322 18.4397V18.9854H81.6952V22.6773H79.9537V15.1077H81.6952V18.4397H83.3322ZM74.6016 20.0651C74.6016 20.2624 74.7177 20.3669 74.9035 20.3669H76.7611V15.9784H74.6016V20.0651ZM73.8122 22.0387H75.5536V24.7554C75.5536 24.9412 75.6697 25.0457 75.8555 25.0457H81.8694V25.5797H74.9151C74.3346 25.5797 73.8122 25.3127 73.8122 24.767V22.0387Z" fill="black"/>
<mask id="path-5-outside-1_2631_12867" maskUnits="userSpaceOnUse" x="24" y="45" width="58" height="25" fill="black">
<rect fill="white" x="24" y="45" width="58" height="25"/>
<path d="M33.616 68.296H29.056V53.776H25.72V50.2C28.096 50.104 29.416 49.336 29.824 47.248H33.616V68.296ZM46.4491 68.68C42.4171 68.68 39.3691 66.376 39.3691 61.888V53.656C39.3691 49.192 42.4171 46.864 46.4491 46.864C50.4811 46.864 53.5291 49.192 53.5291 53.656V61.888C53.5291 66.376 50.4811 68.68 46.4491 68.68ZM46.4491 64.648C47.7691 64.648 48.9451 63.904 48.9451 62.224V53.32C48.9451 51.688 47.7691 50.896 46.4491 50.896C45.1291 50.896 43.9531 51.688 43.9531 53.32V62.224C43.9531 63.904 45.1291 64.648 46.4491 64.648ZM69.0434 59.656V57.472H75.6194V46.432H80.1794V60.184H75.6194V59.656H69.0434ZM69.2834 53.128H63.1394C60.6194 53.128 59.1314 52.048 59.1314 50.008V49.936C59.1314 47.896 60.6194 46.816 63.1394 46.816H69.2834C71.8034 46.816 73.2914 47.896 73.2914 49.936V50.008C73.2914 52.048 71.8034 53.128 69.2834 53.128ZM63.4994 49.96V49.984C63.4994 50.512 63.8834 50.848 64.5794 50.848H67.8674C68.5634 50.848 68.9234 50.512 68.9234 49.984V49.96C68.9234 49.408 68.5634 49.096 67.8674 49.096H64.5794C63.8834 49.096 63.4994 49.408 63.4994 49.96ZM67.4594 60.064H63.1634V56.704H58.5794V54.088H69.4034C71.8754 54.088 73.1714 53.992 74.4434 53.8V56.416C73.1714 56.608 71.8754 56.704 69.4034 56.704H67.4594V60.064ZM64.7714 65.632V66.4H80.5394V68.824H60.0674V63.664H75.6434V62.92H60.0674V60.544H80.1554V65.632H64.7714Z"/>
</mask>
<path d="M33.616 68.296H29.056V53.776H25.72V50.2C28.096 50.104 29.416 49.336 29.824 47.248H33.616V68.296ZM46.4491 68.68C42.4171 68.68 39.3691 66.376 39.3691 61.888V53.656C39.3691 49.192 42.4171 46.864 46.4491 46.864C50.4811 46.864 53.5291 49.192 53.5291 53.656V61.888C53.5291 66.376 50.4811 68.68 46.4491 68.68ZM46.4491 64.648C47.7691 64.648 48.9451 63.904 48.9451 62.224V53.32C48.9451 51.688 47.7691 50.896 46.4491 50.896C45.1291 50.896 43.9531 51.688 43.9531 53.32V62.224C43.9531 63.904 45.1291 64.648 46.4491 64.648ZM69.0434 59.656V57.472H75.6194V46.432H80.1794V60.184H75.6194V59.656H69.0434ZM69.2834 53.128H63.1394C60.6194 53.128 59.1314 52.048 59.1314 50.008V49.936C59.1314 47.896 60.6194 46.816 63.1394 46.816H69.2834C71.8034 46.816 73.2914 47.896 73.2914 49.936V50.008C73.2914 52.048 71.8034 53.128 69.2834 53.128ZM63.4994 49.96V49.984C63.4994 50.512 63.8834 50.848 64.5794 50.848H67.8674C68.5634 50.848 68.9234 50.512 68.9234 49.984V49.96C68.9234 49.408 68.5634 49.096 67.8674 49.096H64.5794C63.8834 49.096 63.4994 49.408 63.4994 49.96ZM67.4594 60.064H63.1634V56.704H58.5794V54.088H69.4034C71.8754 54.088 73.1714 53.992 74.4434 53.8V56.416C73.1714 56.608 71.8754 56.704 69.4034 56.704H67.4594V60.064ZM64.7714 65.632V66.4H80.5394V68.824H60.0674V63.664H75.6434V62.92H60.0674V60.544H80.1554V65.632H64.7714Z" fill="#F2573B"/>
<path d="M33.616 68.296V69.296H34.616V68.296H33.616ZM29.056 68.296H28.056V69.296H29.056V68.296ZM29.056 53.776H30.056V52.776H29.056V53.776ZM25.72 53.776H24.72V54.776H25.72V53.776ZM25.72 50.2L25.6796 49.2008L24.72 49.2396V50.2H25.72ZM29.824 47.248V46.248H29.0005L28.8426 47.0562L29.824 47.248ZM33.616 47.248H34.616V46.248H33.616V47.248ZM33.616 67.296H29.056V69.296H33.616V67.296ZM30.056 68.296V53.776H28.056V68.296H30.056ZM29.056 52.776H25.72V54.776H29.056V52.776ZM26.72 53.776V50.2H24.72V53.776H26.72ZM25.7604 51.1992C27.0248 51.1481 28.1707 50.9163 29.0756 50.2957C30.0203 49.6478 30.5643 48.6741 30.8054 47.4398L28.8426 47.0562C28.6757 47.9099 28.3557 48.3642 27.9444 48.6463C27.4933 48.9557 26.7912 49.1559 25.6796 49.2008L25.7604 51.1992ZM29.824 48.248H33.616V46.248H29.824V48.248ZM32.616 47.248V68.296H34.616V47.248H32.616ZM46.4491 67.68C44.6163 67.68 43.1054 67.1572 42.0652 66.223C41.0409 65.303 40.3691 63.8918 40.3691 61.888H38.3691C38.3691 64.3722 39.2212 66.357 40.7289 67.711C42.2207 69.0508 44.2499 69.68 46.4491 69.68V67.68ZM40.3691 61.888V53.656H38.3691V61.888H40.3691ZM40.3691 53.656C40.3691 51.6655 41.0401 50.2531 42.0662 49.3291C43.1076 48.3914 44.6188 47.864 46.4491 47.864V45.864C44.2473 45.864 42.2186 46.5006 40.7279 47.8429C39.222 49.1989 38.3691 51.1825 38.3691 53.656H40.3691ZM46.4491 47.864C48.2793 47.864 49.7906 48.3914 50.8319 49.3291C51.858 50.2531 52.5291 51.6655 52.5291 53.656H54.5291C54.5291 51.1825 53.6761 49.1989 52.1702 47.8429C50.6796 46.5006 48.6508 45.864 46.4491 45.864V47.864ZM52.5291 53.656V61.888H54.5291V53.656H52.5291ZM52.5291 61.888C52.5291 63.8918 51.8572 65.303 50.8329 66.223C49.7927 67.1572 48.2819 67.68 46.4491 67.68V69.68C48.6483 69.68 50.6774 69.0508 52.1692 67.711C53.6769 66.357 54.5291 64.3722 54.5291 61.888H52.5291ZM46.4491 65.648C47.2855 65.648 48.1619 65.4128 48.8453 64.8232C49.5518 64.2136 49.9451 63.3166 49.9451 62.224H47.9451C47.9451 62.8114 47.7503 63.1264 47.5388 63.3088C47.3042 63.5112 46.9326 63.648 46.4491 63.648V65.648ZM49.9451 62.224V53.32H47.9451V62.224H49.9451ZM49.9451 53.32C49.9451 52.2441 49.5471 51.3535 48.8509 50.7437C48.1743 50.1512 47.3001 49.896 46.4491 49.896V51.896C46.918 51.896 47.2918 52.0368 47.5332 52.2483C47.755 52.4425 47.9451 52.7639 47.9451 53.32H49.9451ZM46.4491 49.896C45.598 49.896 44.7238 50.1512 44.0472 50.7437C43.351 51.3535 42.9531 52.2441 42.9531 53.32H44.9531C44.9531 52.7639 45.1431 52.4425 45.3649 52.2483C45.6063 52.0368 45.9801 51.896 46.4491 51.896V49.896ZM42.9531 53.32V62.224H44.9531V53.32H42.9531ZM42.9531 62.224C42.9531 63.3166 43.3463 64.2136 44.0528 64.8232C44.7362 65.4128 45.6126 65.648 46.4491 65.648V63.648C45.9655 63.648 45.5939 63.5112 45.3593 63.3088C45.1478 63.1264 44.9531 62.8114 44.9531 62.224H42.9531ZM69.0434 59.656H68.0434V60.656H69.0434V59.656ZM69.0434 57.472V56.472H68.0434V57.472H69.0434ZM75.6194 57.472V58.472H76.6194V57.472H75.6194ZM75.6194 46.432V45.432H74.6194V46.432H75.6194ZM80.1794 46.432H81.1794V45.432H80.1794V46.432ZM80.1794 60.184V61.184H81.1794V60.184H80.1794ZM75.6194 60.184H74.6194V61.184H75.6194V60.184ZM75.6194 59.656H76.6194V58.656H75.6194V59.656ZM67.4594 60.064V61.064H68.4594V60.064H67.4594ZM63.1634 60.064H62.1634V61.064H63.1634V60.064ZM63.1634 56.704H64.1634V55.704H63.1634V56.704ZM58.5794 56.704H57.5794V57.704H58.5794V56.704ZM58.5794 54.088V53.088H57.5794V54.088H58.5794ZM74.4434 53.8H75.4434V52.6377L74.2941 52.8112L74.4434 53.8ZM74.4434 56.416L74.5926 57.4048L75.4434 57.2764V56.416H74.4434ZM67.4594 56.704V55.704H66.4594V56.704H67.4594ZM64.7714 65.632V64.632H63.7714V65.632H64.7714ZM64.7714 66.4H63.7714V67.4H64.7714V66.4ZM80.5394 66.4H81.5394V65.4H80.5394V66.4ZM80.5394 68.824V69.824H81.5394V68.824H80.5394ZM60.0674 68.824H59.0674V69.824H60.0674V68.824ZM60.0674 63.664V62.664H59.0674V63.664H60.0674ZM75.6434 63.664V64.664H76.6434V63.664H75.6434ZM75.6434 62.92H76.6434V61.92H75.6434V62.92ZM60.0674 62.92H59.0674V63.92H60.0674V62.92ZM60.0674 60.544V59.544H59.0674V60.544H60.0674ZM80.1554 60.544H81.1554V59.544H80.1554V60.544ZM80.1554 65.632V66.632H81.1554V65.632H80.1554ZM70.0434 59.656V57.472H68.0434V59.656H70.0434ZM69.0434 58.472H75.6194V56.472H69.0434V58.472ZM76.6194 57.472V46.432H74.6194V57.472H76.6194ZM75.6194 47.432H80.1794V45.432H75.6194V47.432ZM79.1794 46.432V60.184H81.1794V46.432H79.1794ZM80.1794 59.184H75.6194V61.184H80.1794V59.184ZM76.6194 60.184V59.656H74.6194V60.184H76.6194ZM75.6194 58.656H69.0434V60.656H75.6194V58.656ZM69.2834 52.128H63.1394V54.128H69.2834V52.128ZM63.1394 52.128C62.002 52.128 61.2464 51.8814 60.7976 51.5384C60.3895 51.2266 60.1314 50.7581 60.1314 50.008H58.1314C58.1314 51.2979 58.6173 52.3894 59.5832 53.1276C60.5084 53.8346 61.7567 54.128 63.1394 54.128V52.128ZM60.1314 50.008V49.936H58.1314V50.008H60.1314ZM60.1314 49.936C60.1314 49.1859 60.3895 48.7174 60.7976 48.4056C61.2464 48.0626 62.002 47.816 63.1394 47.816V45.816C61.7567 45.816 60.5084 46.1094 59.5832 46.8164C58.6173 47.5546 58.1314 48.6461 58.1314 49.936H60.1314ZM63.1394 47.816H69.2834V45.816H63.1394V47.816ZM69.2834 47.816C70.4207 47.816 71.1764 48.0626 71.6252 48.4056C72.0333 48.7174 72.2914 49.1859 72.2914 49.936H74.2914C74.2914 48.6461 73.8055 47.5546 72.8396 46.8164C71.9144 46.1094 70.666 45.816 69.2834 45.816V47.816ZM72.2914 49.936V50.008H74.2914V49.936H72.2914ZM72.2914 50.008C72.2914 50.7581 72.0333 51.2266 71.6252 51.5384C71.1764 51.8814 70.4207 52.128 69.2834 52.128V54.128C70.666 54.128 71.9144 53.8346 72.8396 53.1276C73.8055 52.3894 74.2914 51.2979 74.2914 50.008H72.2914ZM62.4994 49.96V49.984H64.4994V49.96H62.4994ZM62.4994 49.984C62.4994 50.51 62.7021 51.0248 63.1445 51.3874C63.5615 51.7292 64.0835 51.848 64.5794 51.848V49.848C64.4841 49.848 64.4276 49.8363 64.4016 49.8286C64.3768 49.8212 64.3869 49.8198 64.4123 49.8406C64.44 49.8633 64.4671 49.8973 64.4845 49.9365C64.5009 49.9736 64.4994 49.9941 64.4994 49.984H62.4994ZM64.5794 51.848H67.8674V49.848H64.5794V51.848ZM67.8674 51.848C68.363 51.848 68.8872 51.7292 69.3029 51.3769C69.7414 51.0053 69.9234 50.4892 69.9234 49.984H67.9234C67.9234 50.0025 67.9204 49.9874 67.9349 49.953C67.9507 49.9155 67.9776 49.8784 68.0099 49.8511C68.0399 49.8256 68.0561 49.8241 68.0369 49.8299C68.016 49.8363 67.9629 49.848 67.8674 49.848V51.848ZM69.9234 49.984V49.96H67.9234V49.984H69.9234ZM69.9234 49.96C69.9234 49.4534 69.7478 48.9276 69.2953 48.5517C68.8731 48.2011 68.3461 48.096 67.8674 48.096V50.096C67.9692 50.096 68.0262 50.1077 68.0495 50.1144C68.0709 50.1205 68.0519 50.1189 68.0175 50.0903C68.0006 50.0763 67.9833 50.0584 67.9677 50.0372C67.9521 50.016 67.9409 49.9953 67.9335 49.9774C67.9185 49.9416 67.9234 49.9299 67.9234 49.96H69.9234ZM67.8674 48.096H64.5794V50.096H67.8674V48.096ZM64.5794 48.096C64.1 48.096 63.5755 48.2013 63.1521 48.5414C62.6954 48.9083 62.4994 49.4325 62.4994 49.96H64.4994C64.4994 49.938 64.503 49.9551 64.486 49.9938C64.4676 50.0358 64.4374 50.0743 64.4046 50.1006C64.375 50.1244 64.3623 50.1232 64.3892 50.1156C64.4175 50.1076 64.4778 50.096 64.5794 50.096V48.096ZM67.4594 59.064H63.1634V61.064H67.4594V59.064ZM64.1634 60.064V56.704H62.1634V60.064H64.1634ZM63.1634 55.704H58.5794V57.704H63.1634V55.704ZM59.5794 56.704V54.088H57.5794V56.704H59.5794ZM58.5794 55.088H69.4034V53.088H58.5794V55.088ZM69.4034 55.088C71.9043 55.088 73.254 54.9908 74.5926 54.7888L74.2941 52.8112C73.0887 52.9931 71.8465 53.088 69.4034 53.088V55.088ZM73.4434 53.8V56.416H75.4434V53.8H73.4434ZM74.2941 55.4272C73.0887 55.6091 71.8465 55.704 69.4034 55.704V57.704C71.9043 57.704 73.254 57.6068 74.5926 57.4048L74.2941 55.4272ZM69.4034 55.704H67.4594V57.704H69.4034V55.704ZM66.4594 56.704V60.064H68.4594V56.704H66.4594ZM63.7714 65.632V66.4H65.7714V65.632H63.7714ZM64.7714 67.4H80.5394V65.4H64.7714V67.4ZM79.5394 66.4V68.824H81.5394V66.4H79.5394ZM80.5394 67.824H60.0674V69.824H80.5394V67.824ZM61.0674 68.824V63.664H59.0674V68.824H61.0674ZM60.0674 64.664H75.6434V62.664H60.0674V64.664ZM76.6434 63.664V62.92H74.6434V63.664H76.6434ZM75.6434 61.92H60.0674V63.92H75.6434V61.92ZM61.0674 62.92V60.544H59.0674V62.92H61.0674ZM60.0674 61.544H80.1554V59.544H60.0674V61.544ZM79.1554 60.544V65.632H81.1554V60.544H79.1554ZM80.1554 64.632H64.7714V66.632H80.1554V64.632Z" fill="white" mask="url(#path-5-outside-1_2631_12867)"/>
</svg>
