<svg width="108" height="108" viewBox="0 0 108 108" fill="none" xmlns="http://www.w3.org/2000/svg">
<rect x="0.5" y="0.5" width="107" height="107" rx="15.5" fill="white"/>
<rect x="0.5" y="0.5" width="107" height="107" rx="15.5" stroke="black"/>
<path d="M38.769 54C38.0007 54 37.347 53.7307 36.808 53.192C36.2693 52.653 36 51.9993 36 51.231V28.769C36 28.0007 36.2693 27.347 36.808 26.808C37.347 26.2693 38.0007 26 38.769 26H69.231C69.9993 26 70.653 26.2693 71.192 26.808C71.7307 27.347 72 28.0007 72 28.769V51.231C72 51.9993 71.7307 52.653 71.192 53.192C70.653 53.7307 69.9993 54 69.231 54H38.769ZM54 39.7075L37.5385 28.7115V51.231C37.5385 51.5897 37.6538 51.8845 37.8845 52.1155C38.1155 52.3462 38.4103 52.4615 38.769 52.4615H69.231C69.5897 52.4615 69.8845 52.3462 70.1155 52.1155C70.3462 51.8845 70.4615 51.5897 70.4615 51.231V28.7115L54 39.7075ZM54 37.9385L69.7615 27.5385H38.2885L54 37.9385ZM37.5385 28.7115V27.5385V51.231C37.5385 51.5897 37.6538 51.8845 37.8845 52.1155C38.1155 52.3462 38.4103 52.4615 38.769 52.4615H37.5385V28.7115Z" fill="#1C1B1F"/>
<path d="M31.04 74.984V73.144H32.368V68.856H34.608V73.144H35.984V68.856H38.224V73.096C38.768 73.064 39.184 73.016 39.888 72.904L40.016 74.68C38.464 74.92 37.248 74.984 35.664 74.984H31.04ZM41.28 77.016V72.792H39.408V71.032H41.28V70.28H39.408V68.52H41.28V65.896H43.6V77.016H41.28ZM33.04 80.648V75.928H35.36V78.808H44.032V80.648H33.04ZM39.568 66.376V68.216H31.2V66.376H39.568ZM46.9355 66.6H55.1755V68.44H52.2155V70.312C52.2155 73.112 53.8635 74.792 55.7035 76.104L54.5515 77.736C53.4155 77.064 51.6235 75.336 51.1275 74.184C50.5995 75.384 48.7275 77.144 47.4635 77.976L46.2475 76.392C48.3755 74.824 49.8955 73.112 49.8955 70.312V68.44H46.9355V66.6ZM56.9835 65.896H59.3035V80.728H56.9835V65.896ZM62.623 66.6H70.863V68.44H67.903V70.312C67.903 73.112 69.551 74.792 71.391 76.104L70.239 77.736C69.103 77.064 67.311 75.336 66.815 74.184C66.287 75.384 64.415 77.144 63.151 77.976L61.935 76.392C64.063 74.824 65.583 73.112 65.583 70.312V68.44H62.623V66.6ZM72.671 65.896H74.991V80.728H72.671V65.896Z" fill="black"/>
</svg>
