<svg width="100" height="120" viewBox="0 0 100 120" fill="none" xmlns="http://www.w3.org/2000/svg">
<path d="M0 4C0 1.79086 1.79086 0 4 0H96C98.2091 0 100 1.79086 100 4V116C100 118.209 98.2091 120 96 120H4C1.79086 120 0 118.209 0 116V4Z" fill="#DBB600"/>
<path d="M8 0.5V120" stroke="white"/>
<mask id="path-3-outside-1_2631_12840" maskUnits="userSpaceOnUse" x="31" y="45" width="44" height="25" fill="black">
<rect fill="white" x="31" y="45" width="44" height="25"/>
<path d="M40.568 54.496C43.76 54.496 47.12 56.632 47.12 61.216V61.672C47.12 66.376 43.88 68.68 39.872 68.68C36.2 68.68 33.248 66.592 32.72 63.28L36.824 62.44C37.136 63.88 38.408 64.648 39.872 64.648C41.48 64.648 42.656 63.592 42.656 61.672V61.216C42.656 59.296 41.48 58.216 39.632 58.216C38.696 58.216 37.808 58.576 37.184 59.296H33.2L34.448 47.248H45.992V51.256H38.384L37.976 55.096C38.624 54.712 39.464 54.496 40.568 54.496ZM62.1478 59.656V57.472H68.7238V46.432H73.2838V60.184H68.7238V59.656H62.1478ZM62.3878 53.128H56.2438C53.7238 53.128 52.2358 52.048 52.2358 50.008V49.936C52.2358 47.896 53.7238 46.816 56.2438 46.816H62.3878C64.9078 46.816 66.3958 47.896 66.3958 49.936V50.008C66.3958 52.048 64.9078 53.128 62.3878 53.128ZM56.6038 49.96V49.984C56.6038 50.512 56.9878 50.848 57.6838 50.848H60.9718C61.6678 50.848 62.0278 50.512 62.0278 49.984V49.96C62.0278 49.408 61.6678 49.096 60.9718 49.096H57.6838C56.9878 49.096 56.6038 49.408 56.6038 49.96ZM60.5638 60.064H56.2678V56.704H51.6838V54.088H62.5078C64.9798 54.088 66.2758 53.992 67.5478 53.8V56.416C66.2758 56.608 64.9798 56.704 62.5078 56.704H60.5638V60.064ZM57.8758 65.632V66.4H73.6438V68.824H53.1718V63.664H68.7478V62.92H53.1718V60.544H73.2598V65.632H57.8758Z"/>
</mask>
<path d="M40.568 54.496C43.76 54.496 47.12 56.632 47.12 61.216V61.672C47.12 66.376 43.88 68.68 39.872 68.68C36.2 68.68 33.248 66.592 32.72 63.28L36.824 62.44C37.136 63.88 38.408 64.648 39.872 64.648C41.48 64.648 42.656 63.592 42.656 61.672V61.216C42.656 59.296 41.48 58.216 39.632 58.216C38.696 58.216 37.808 58.576 37.184 59.296H33.2L34.448 47.248H45.992V51.256H38.384L37.976 55.096C38.624 54.712 39.464 54.496 40.568 54.496ZM62.1478 59.656V57.472H68.7238V46.432H73.2838V60.184H68.7238V59.656H62.1478ZM62.3878 53.128H56.2438C53.7238 53.128 52.2358 52.048 52.2358 50.008V49.936C52.2358 47.896 53.7238 46.816 56.2438 46.816H62.3878C64.9078 46.816 66.3958 47.896 66.3958 49.936V50.008C66.3958 52.048 64.9078 53.128 62.3878 53.128ZM56.6038 49.96V49.984C56.6038 50.512 56.9878 50.848 57.6838 50.848H60.9718C61.6678 50.848 62.0278 50.512 62.0278 49.984V49.96C62.0278 49.408 61.6678 49.096 60.9718 49.096H57.6838C56.9878 49.096 56.6038 49.408 56.6038 49.96ZM60.5638 60.064H56.2678V56.704H51.6838V54.088H62.5078C64.9798 54.088 66.2758 53.992 67.5478 53.8V56.416C66.2758 56.608 64.9798 56.704 62.5078 56.704H60.5638V60.064ZM57.8758 65.632V66.4H73.6438V68.824H53.1718V63.664H68.7478V62.92H53.1718V60.544H73.2598V65.632H57.8758Z" fill="#BF452F"/>
<path d="M32.72 63.28L32.5195 62.3003L31.5818 62.4922L31.7325 63.4374L32.72 63.28ZM36.824 62.44L37.8013 62.2282L37.592 61.2621L36.6235 61.4603L36.824 62.44ZM37.184 59.296V60.296H37.6406L37.9397 59.9509L37.184 59.296ZM33.2 59.296L32.2053 59.193L32.0911 60.296H33.2V59.296ZM34.448 47.248V46.248H33.5462L33.4533 47.145L34.448 47.248ZM45.992 47.248H46.992V46.248H45.992V47.248ZM45.992 51.256V52.256H46.992V51.256H45.992ZM38.384 51.256V50.256H37.4846L37.3896 51.1503L38.384 51.256ZM37.976 55.096L36.9816 54.9903L36.771 56.9725L38.4858 55.9563L37.976 55.096ZM40.568 55.496C41.9515 55.496 43.3424 55.9604 44.3747 56.8827C45.3873 57.7874 46.12 59.1893 46.12 61.216H48.12C48.12 58.6587 47.1727 56.7006 45.7073 55.3913C44.2616 54.0996 42.3765 53.496 40.568 53.496V55.496ZM46.12 61.216V61.672H48.12V61.216H46.12ZM46.12 61.672C46.12 63.7786 45.4039 65.2433 44.3351 66.1922C43.2483 67.1571 41.6927 67.68 39.872 67.68V69.68C42.0593 69.68 44.1277 69.0509 45.6629 67.6878C47.2161 66.3087 48.12 64.2694 48.12 61.672H46.12ZM39.872 67.68C36.5666 67.68 34.14 65.8354 33.7075 63.1226L31.7325 63.4374C32.356 67.3486 35.8334 69.68 39.872 69.68V67.68ZM32.9205 64.2597L37.0245 63.4197L36.6235 61.4603L32.5195 62.3003L32.9205 64.2597ZM35.8467 62.6518C36.2844 64.6721 38.0725 65.648 39.872 65.648V63.648C38.7435 63.648 37.9876 63.0879 37.8013 62.2282L35.8467 62.6518ZM39.872 65.648C40.8979 65.648 41.8672 65.3069 42.5804 64.5807C43.2944 63.8538 43.656 62.8391 43.656 61.672H41.656C41.656 62.4249 41.4296 62.8982 41.1536 63.1793C40.8768 63.4611 40.4541 63.648 39.872 63.648V65.648ZM43.656 61.672V61.216H41.656V61.672H43.656ZM43.656 61.216C43.656 60.0486 43.2935 59.0167 42.5338 58.2787C41.7786 57.5451 40.7484 57.216 39.632 57.216V59.216C40.3636 59.216 40.8454 59.4269 41.1402 59.7133C41.4305 59.9953 41.656 60.4634 41.656 61.216H43.656ZM39.632 57.216C38.4373 57.216 37.2618 57.6793 36.4283 58.6411L37.9397 59.9509C38.3542 59.4727 38.9547 59.216 39.632 59.216V57.216ZM37.184 58.296H33.2V60.296H37.184V58.296ZM34.1947 59.399L35.4427 47.351L33.4533 47.145L32.2053 59.193L34.1947 59.399ZM34.448 48.248H45.992V46.248H34.448V48.248ZM44.992 47.248V51.256H46.992V47.248H44.992ZM45.992 50.256H38.384V52.256H45.992V50.256ZM37.3896 51.1503L36.9816 54.9903L38.9704 55.2017L39.3784 51.3617L37.3896 51.1503ZM38.4858 55.9563C38.9415 55.6862 39.5934 55.496 40.568 55.496V53.496C39.3346 53.496 38.3065 53.7378 37.4662 54.2357L38.4858 55.9563ZM62.1478 59.656H61.1478V60.656H62.1478V59.656ZM62.1478 57.472V56.472H61.1478V57.472H62.1478ZM68.7238 57.472V58.472H69.7238V57.472H68.7238ZM68.7238 46.432V45.432H67.7238V46.432H68.7238ZM73.2838 46.432H74.2838V45.432H73.2838V46.432ZM73.2838 60.184V61.184H74.2838V60.184H73.2838ZM68.7238 60.184H67.7238V61.184H68.7238V60.184ZM68.7238 59.656H69.7238V58.656H68.7238V59.656ZM60.5638 60.064V61.064H61.5638V60.064H60.5638ZM56.2678 60.064H55.2678V61.064H56.2678V60.064ZM56.2678 56.704H57.2678V55.704H56.2678V56.704ZM51.6838 56.704H50.6838V57.704H51.6838V56.704ZM51.6838 54.088V53.088H50.6838V54.088H51.6838ZM67.5478 53.8H68.5478V52.6377L67.3985 52.8112L67.5478 53.8ZM67.5478 56.416L67.697 57.4048L68.5478 57.2764V56.416H67.5478ZM60.5638 56.704V55.704H59.5638V56.704H60.5638ZM57.8758 65.632V64.632H56.8758V65.632H57.8758ZM57.8758 66.4H56.8758V67.4H57.8758V66.4ZM73.6438 66.4H74.6438V65.4H73.6438V66.4ZM73.6438 68.824V69.824H74.6438V68.824H73.6438ZM53.1718 68.824H52.1718V69.824H53.1718V68.824ZM53.1718 63.664V62.664H52.1718V63.664H53.1718ZM68.7478 63.664V64.664H69.7478V63.664H68.7478ZM68.7478 62.92H69.7478V61.92H68.7478V62.92ZM53.1718 62.92H52.1718V63.92H53.1718V62.92ZM53.1718 60.544V59.544H52.1718V60.544H53.1718ZM73.2598 60.544H74.2598V59.544H73.2598V60.544ZM73.2598 65.632V66.632H74.2598V65.632H73.2598ZM63.1478 59.656V57.472H61.1478V59.656H63.1478ZM62.1478 58.472H68.7238V56.472H62.1478V58.472ZM69.7238 57.472V46.432H67.7238V57.472H69.7238ZM68.7238 47.432H73.2838V45.432H68.7238V47.432ZM72.2838 46.432V60.184H74.2838V46.432H72.2838ZM73.2838 59.184H68.7238V61.184H73.2838V59.184ZM69.7238 60.184V59.656H67.7238V60.184H69.7238ZM68.7238 58.656H62.1478V60.656H68.7238V58.656ZM62.3878 52.128H56.2438V54.128H62.3878V52.128ZM56.2438 52.128C55.1064 52.128 54.3507 51.8814 53.9019 51.5384C53.4939 51.2266 53.2358 50.7581 53.2358 50.008H51.2358C51.2358 51.2979 51.7216 52.3894 52.6876 53.1276C53.6128 53.8346 54.8611 54.128 56.2438 54.128V52.128ZM53.2358 50.008V49.936H51.2358V50.008H53.2358ZM53.2358 49.936C53.2358 49.1859 53.4939 48.7174 53.9019 48.4056C54.3507 48.0626 55.1064 47.816 56.2438 47.816V45.816C54.8611 45.816 53.6128 46.1094 52.6876 46.8164C51.7216 47.5546 51.2358 48.6461 51.2358 49.936H53.2358ZM56.2438 47.816H62.3878V45.816H56.2438V47.816ZM62.3878 47.816C63.5251 47.816 64.2808 48.0626 64.7296 48.4056C65.1376 48.7174 65.3958 49.1859 65.3958 49.936H67.3958C67.3958 48.6461 66.9099 47.5546 65.9439 46.8164C65.0187 46.1094 63.7704 45.816 62.3878 45.816V47.816ZM65.3958 49.936V50.008H67.3958V49.936H65.3958ZM65.3958 50.008C65.3958 50.7581 65.1376 51.2266 64.7296 51.5384C64.2808 51.8814 63.5251 52.128 62.3878 52.128V54.128C63.7704 54.128 65.0187 53.8346 65.9439 53.1276C66.9099 52.3894 67.3958 51.2979 67.3958 50.008H65.3958ZM55.6038 49.96V49.984H57.6038V49.96H55.6038ZM55.6038 49.984C55.6038 50.51 55.8065 51.0248 56.2488 51.3874C56.6659 51.7292 57.1879 51.848 57.6838 51.848V49.848C57.5885 49.848 57.532 49.8363 57.506 49.8286C57.4812 49.8212 57.4913 49.8198 57.5167 49.8406C57.5444 49.8633 57.5714 49.8973 57.5888 49.9365C57.6053 49.9736 57.6038 49.9941 57.6038 49.984H55.6038ZM57.6838 51.848H60.9718V49.848H57.6838V51.848ZM60.9718 51.848C61.4673 51.848 61.9916 51.7292 62.4073 51.3769C62.8458 51.0053 63.0278 50.4892 63.0278 49.984H61.0278C61.0278 50.0025 61.0247 49.9874 61.0393 49.953C61.0551 49.9155 61.082 49.8784 61.1142 49.8511C61.1443 49.8256 61.1605 49.8241 61.1413 49.8299C61.1203 49.8363 61.0672 49.848 60.9718 49.848V51.848ZM63.0278 49.984V49.96H61.0278V49.984H63.0278ZM63.0278 49.96C63.0278 49.4534 62.8522 48.9276 62.3997 48.5517C61.9775 48.2011 61.4505 48.096 60.9718 48.096V50.096C61.0736 50.096 61.1306 50.1077 61.1538 50.1144C61.1752 50.1205 61.1562 50.1189 61.1219 50.0903C61.105 50.0763 61.0877 50.0584 61.0721 50.0372C61.0565 50.016 61.0453 49.9953 61.0378 49.9774C61.0229 49.9416 61.0278 49.9299 61.0278 49.96H63.0278ZM60.9718 48.096H57.6838V50.096H60.9718V48.096ZM57.6838 48.096C57.2044 48.096 56.6799 48.2013 56.2565 48.5414C55.7997 48.9083 55.6038 49.4325 55.6038 49.96H57.6038C57.6038 49.938 57.6074 49.9551 57.5904 49.9938C57.572 50.0358 57.5418 50.0743 57.509 50.1006C57.4794 50.1244 57.4667 50.1232 57.4936 50.1156C57.5218 50.1076 57.5822 50.096 57.6838 50.096V48.096ZM60.5638 59.064H56.2678V61.064H60.5638V59.064ZM57.2678 60.064V56.704H55.2678V60.064H57.2678ZM56.2678 55.704H51.6838V57.704H56.2678V55.704ZM52.6838 56.704V54.088H50.6838V56.704H52.6838ZM51.6838 55.088H62.5078V53.088H51.6838V55.088ZM62.5078 55.088C65.0087 55.088 66.3584 54.9908 67.697 54.7888L67.3985 52.8112C66.1931 52.9931 64.9509 53.088 62.5078 53.088V55.088ZM66.5478 53.8V56.416H68.5478V53.8H66.5478ZM67.3985 55.4272C66.1931 55.6091 64.9509 55.704 62.5078 55.704V57.704C65.0087 57.704 66.3584 57.6068 67.697 57.4048L67.3985 55.4272ZM62.5078 55.704H60.5638V57.704H62.5078V55.704ZM59.5638 56.704V60.064H61.5638V56.704H59.5638ZM56.8758 65.632V66.4H58.8758V65.632H56.8758ZM57.8758 67.4H73.6438V65.4H57.8758V67.4ZM72.6438 66.4V68.824H74.6438V66.4H72.6438ZM73.6438 67.824H53.1718V69.824H73.6438V67.824ZM54.1718 68.824V63.664H52.1718V68.824H54.1718ZM53.1718 64.664H68.7478V62.664H53.1718V64.664ZM69.7478 63.664V62.92H67.7478V63.664H69.7478ZM68.7478 61.92H53.1718V63.92H68.7478V61.92ZM54.1718 62.92V60.544H52.1718V62.92H54.1718ZM53.1718 61.544H73.2598V59.544H53.1718V61.544ZM72.2598 60.544V65.632H74.2598V60.544H72.2598ZM73.2598 64.632H57.8758V66.632H73.2598V64.632Z" fill="white" mask="url(#path-3-outside-1_2631_12840)"/>
<rect x="16.5" y="10.5" width="74" height="19" fill="white"/>
<rect x="16.5" y="10.5" width="74" height="19" stroke="#D9D9D9"/>
<path d="M29.0371 25.928C26.332 25.928 24.9853 25.0573 24.9853 23.6989C24.9853 22.3406 26.332 21.4699 29.0371 21.4699C31.7421 21.4699 33.0889 22.3406 33.0889 23.6989C33.0889 25.0573 31.7421 25.928 29.0371 25.928ZM29.0371 22.0039C27.551 22.0039 26.7151 22.6889 26.7151 23.6989C26.7151 24.709 27.551 25.394 29.0371 25.394C30.5231 25.394 31.359 24.709 31.359 23.6989C31.359 22.6889 30.5231 22.0039 29.0371 22.0039ZM29.3854 20.8661L27.0634 18.5094C26.3436 19.7748 24.904 20.7152 23.3947 21.0983L23.209 20.5759C24.8343 19.8677 25.8212 18.4861 25.8212 16.8143V15.2935H27.5626V16.7099C27.5626 17.2671 27.4233 17.7896 27.1795 18.2772C27.5162 18.0218 27.9922 18.0682 28.3173 18.3468L30.2213 20.0186L29.3854 20.8661ZM33.0308 15.1077V21.226H31.2894V15.1077H33.0308ZM43.5895 22.4567L41.9061 22.1897C42.2196 20.634 42.3589 19.1943 42.3589 17.5574V16.3267H35.9735V15.7927H44.1004V17.2439C44.1004 19.1595 43.9146 20.9822 43.5895 22.4567ZM34.7661 23.9776H45.3891V24.5232H34.7661V23.9776ZM51.896 18.4978H48.4827V20.4134C48.4827 20.5991 48.5872 20.7036 48.7729 20.7036H49.8294C50.8859 20.7036 51.9076 20.692 53.1266 20.4482L53.2311 20.9706C52.0817 21.2028 50.8511 21.2493 49.6204 21.2493H47.8442C47.2753 21.2493 46.7412 21.0055 46.7412 20.4366V17.9521H50.1545V15.932H46.7412V15.3863H51.896V18.4978ZM55.7968 15.1077V22.9095H54.0554V18.37H52.3603V17.8244H54.0554V15.1077H55.7968ZM47.7977 22.2709H49.5392V24.7554C49.5392 24.9412 49.6553 25.0457 49.841 25.0457H55.971V25.5797H48.9006C48.3202 25.5797 47.7977 25.3127 47.7977 24.767V22.2709ZM70.4515 21.7369L66.4113 19.4265C65.5058 20.4714 63.7875 21.2957 61.8139 21.7369L61.6397 21.1912C63.9965 20.3205 65.3664 19.3917 65.3664 17.7315V17.4064H61.9416V16.8724H65.3664V14.9568H67.0963V16.8724H70.5212V17.4064H67.0963V17.7547C67.0963 18.2888 66.8989 18.7764 66.5623 19.2292C66.8757 18.9854 67.3633 18.9505 67.7697 19.1247L71.0088 20.5875L70.4515 21.7369ZM61.0012 23.9776H65.5058V21.4002H67.2472V23.9776H71.6357V24.5232H61.0012V23.9776ZM72.3842 20.9706H76.8888V19.7052H74.741C74.1605 19.7052 73.6961 19.4962 73.6961 18.9505V17.1394H79.9654V15.8043H73.6961V15.2702H81.6952V17.6851H75.4259V18.9157C75.4259 19.1015 75.5188 19.1711 75.693 19.1711H81.8694V19.7052H78.6302V20.9706H83.0187V21.5047H72.3842V20.9706ZM81.73 25.6958H79.9886V23.1417H73.6032V22.596H81.73V25.6958Z" fill="black"/>
</svg>
