<svg width="100" height="120" viewBox="0 0 100 120" fill="none" xmlns="http://www.w3.org/2000/svg">
<path d="M0 4C0 1.79086 1.79086 0 4 0H96C98.2091 0 100 1.79086 100 4V116C100 118.209 98.2091 120 96 120H4C1.79086 120 0 118.209 0 116V4Z" fill="#D84E35"/>
<path d="M8 0.5V120" stroke="white"/>
<mask id="path-3-outside-1_2631_12862" maskUnits="userSpaceOnUse" x="31" y="45" width="44" height="25" fill="black">
<rect fill="white" x="31" y="45" width="44" height="25"/>
<path d="M39.8 46.864C43.352 46.864 46.88 48.832 46.88 53.248V56.344C46.88 58.432 46.256 60.424 45.104 62.128L40.928 68.296H35.6L40.04 61.912C40.256 61.624 40.424 61.336 40.568 61.048C40.016 61.264 39.392 61.36 38.72 61.36C35.672 61.36 32.72 59.752 32.72 55.384V53.248C32.72 48.832 36.248 46.864 39.8 46.864ZM42.32 55.456V52.984C42.32 51.568 41.408 50.704 39.824 50.704C38.24 50.704 37.304 51.568 37.304 52.984V55.456C37.304 56.872 38.24 57.736 39.824 57.736C41.408 57.736 42.32 56.872 42.32 55.456ZM62.1478 59.656V57.472H68.7238V46.432H73.2838V60.184H68.7238V59.656H62.1478ZM62.3878 53.128H56.2438C53.7238 53.128 52.2358 52.048 52.2358 50.008V49.936C52.2358 47.896 53.7238 46.816 56.2438 46.816H62.3878C64.9078 46.816 66.3958 47.896 66.3958 49.936V50.008C66.3958 52.048 64.9078 53.128 62.3878 53.128ZM56.6038 49.96V49.984C56.6038 50.512 56.9878 50.848 57.6838 50.848H60.9718C61.6678 50.848 62.0278 50.512 62.0278 49.984V49.96C62.0278 49.408 61.6678 49.096 60.9718 49.096H57.6838C56.9878 49.096 56.6038 49.408 56.6038 49.96ZM60.5638 60.064H56.2678V56.704H51.6838V54.088H62.5078C64.9798 54.088 66.2758 53.992 67.5478 53.8V56.416C66.2758 56.608 64.9798 56.704 62.5078 56.704H60.5638V60.064ZM57.8758 65.632V66.4H73.6438V68.824H53.1718V63.664H68.7478V62.92H53.1718V60.544H73.2598V65.632H57.8758Z"/>
</mask>
<path d="M39.8 46.864C43.352 46.864 46.88 48.832 46.88 53.248V56.344C46.88 58.432 46.256 60.424 45.104 62.128L40.928 68.296H35.6L40.04 61.912C40.256 61.624 40.424 61.336 40.568 61.048C40.016 61.264 39.392 61.36 38.72 61.36C35.672 61.36 32.72 59.752 32.72 55.384V53.248C32.72 48.832 36.248 46.864 39.8 46.864ZM42.32 55.456V52.984C42.32 51.568 41.408 50.704 39.824 50.704C38.24 50.704 37.304 51.568 37.304 52.984V55.456C37.304 56.872 38.24 57.736 39.824 57.736C41.408 57.736 42.32 56.872 42.32 55.456ZM62.1478 59.656V57.472H68.7238V46.432H73.2838V60.184H68.7238V59.656H62.1478ZM62.3878 53.128H56.2438C53.7238 53.128 52.2358 52.048 52.2358 50.008V49.936C52.2358 47.896 53.7238 46.816 56.2438 46.816H62.3878C64.9078 46.816 66.3958 47.896 66.3958 49.936V50.008C66.3958 52.048 64.9078 53.128 62.3878 53.128ZM56.6038 49.96V49.984C56.6038 50.512 56.9878 50.848 57.6838 50.848H60.9718C61.6678 50.848 62.0278 50.512 62.0278 49.984V49.96C62.0278 49.408 61.6678 49.096 60.9718 49.096H57.6838C56.9878 49.096 56.6038 49.408 56.6038 49.96ZM60.5638 60.064H56.2678V56.704H51.6838V54.088H62.5078C64.9798 54.088 66.2758 53.992 67.5478 53.8V56.416C66.2758 56.608 64.9798 56.704 62.5078 56.704H60.5638V60.064ZM57.8758 65.632V66.4H73.6438V68.824H53.1718V63.664H68.7478V62.92H53.1718V60.544H73.2598V65.632H57.8758Z" fill="#EFD8B6"/>
<path d="M45.104 62.128L45.9321 62.6886L45.9324 62.6881L45.104 62.128ZM40.928 68.296V69.296H41.4586L41.7561 68.8566L40.928 68.296ZM35.6 68.296L34.779 67.725L33.6864 69.296H35.6V68.296ZM40.04 61.912L39.24 61.312L39.2293 61.3263L39.219 61.341L40.04 61.912ZM40.568 61.048L41.4624 61.4952L42.6255 59.1691L40.2036 60.1168L40.568 61.048ZM39.8 47.864C41.4068 47.864 42.9427 48.3112 44.0534 49.1857C45.133 50.0357 45.88 51.3394 45.88 53.248H47.88C47.88 50.7406 46.863 48.8523 45.2906 47.6143C43.7493 46.4008 41.7452 45.864 39.8 45.864V47.864ZM45.88 53.248V56.344H47.88V53.248H45.88ZM45.88 56.344C45.88 58.2294 45.3174 60.0268 44.2756 61.5679L45.9324 62.6881C47.1946 60.8212 47.88 58.6346 47.88 56.344H45.88ZM44.2759 61.5674L40.0999 67.7354L41.7561 68.8566L45.9321 62.6886L44.2759 61.5674ZM40.928 67.296H35.6V69.296H40.928V67.296ZM36.421 68.867L40.861 62.483L39.219 61.341L34.779 67.725L36.421 68.867ZM40.84 62.512C41.0997 62.1658 41.298 61.8241 41.4624 61.4952L39.6736 60.6008C39.55 60.8479 39.4123 61.0822 39.24 61.312L40.84 62.512ZM40.2036 60.1168C39.7949 60.2767 39.3003 60.36 38.72 60.36V62.36C39.4837 62.36 40.2371 62.2513 40.9324 61.9792L40.2036 60.1168ZM38.72 60.36C37.3563 60.36 36.111 59.9989 35.2234 59.247C34.3643 58.5192 33.72 57.3242 33.72 55.384H31.72C31.72 57.8118 32.5517 59.6048 33.9306 60.773C35.281 61.9171 37.0357 62.36 38.72 62.36V60.36ZM33.72 55.384V53.248H31.72V55.384H33.72ZM33.72 53.248C33.72 51.3394 34.467 50.0357 35.5466 49.1857C36.6573 48.3112 38.1932 47.864 39.8 47.864V45.864C37.8548 45.864 35.8507 46.4008 34.3094 47.6143C32.737 48.8523 31.72 50.7406 31.72 53.248H33.72ZM43.32 55.456V52.984H41.32V55.456H43.32ZM43.32 52.984C43.32 52.0543 43.014 51.1961 42.3441 50.578C41.6844 49.9694 40.7916 49.704 39.824 49.704V51.704C40.4404 51.704 40.7956 51.8706 40.9879 52.048C41.17 52.2159 41.32 52.4977 41.32 52.984H43.32ZM39.824 49.704C38.8566 49.704 37.9612 49.9692 37.2971 50.5733C36.6211 51.1883 36.304 52.0465 36.304 52.984H38.304C38.304 52.5055 38.4549 52.2237 38.6429 52.0527C38.8428 51.8708 39.2074 51.704 39.824 51.704V49.704ZM36.304 52.984V55.456H38.304V52.984H36.304ZM36.304 55.456C36.304 56.3935 36.6211 57.2517 37.2971 57.8667C37.9612 58.4708 38.8566 58.736 39.824 58.736V56.736C39.2074 56.736 38.8428 56.5692 38.6429 56.3873C38.4549 56.2163 38.304 55.9345 38.304 55.456H36.304ZM39.824 58.736C40.7916 58.736 41.6844 58.4706 42.3441 57.862C43.014 57.2439 43.32 56.3857 43.32 55.456H41.32C41.32 55.9423 41.17 56.2241 40.9879 56.392C40.7956 56.5694 40.4404 56.736 39.824 56.736V58.736ZM62.1478 59.656H61.1478V60.656H62.1478V59.656ZM62.1478 57.472V56.472H61.1478V57.472H62.1478ZM68.7238 57.472V58.472H69.7238V57.472H68.7238ZM68.7238 46.432V45.432H67.7238V46.432H68.7238ZM73.2838 46.432H74.2838V45.432H73.2838V46.432ZM73.2838 60.184V61.184H74.2838V60.184H73.2838ZM68.7238 60.184H67.7238V61.184H68.7238V60.184ZM68.7238 59.656H69.7238V58.656H68.7238V59.656ZM60.5638 60.064V61.064H61.5638V60.064H60.5638ZM56.2678 60.064H55.2678V61.064H56.2678V60.064ZM56.2678 56.704H57.2678V55.704H56.2678V56.704ZM51.6838 56.704H50.6838V57.704H51.6838V56.704ZM51.6838 54.088V53.088H50.6838V54.088H51.6838ZM67.5478 53.8H68.5478V52.6377L67.3985 52.8112L67.5478 53.8ZM67.5478 56.416L67.697 57.4048L68.5478 57.2764V56.416H67.5478ZM60.5638 56.704V55.704H59.5638V56.704H60.5638ZM57.8758 65.632V64.632H56.8758V65.632H57.8758ZM57.8758 66.4H56.8758V67.4H57.8758V66.4ZM73.6438 66.4H74.6438V65.4H73.6438V66.4ZM73.6438 68.824V69.824H74.6438V68.824H73.6438ZM53.1718 68.824H52.1718V69.824H53.1718V68.824ZM53.1718 63.664V62.664H52.1718V63.664H53.1718ZM68.7478 63.664V64.664H69.7478V63.664H68.7478ZM68.7478 62.92H69.7478V61.92H68.7478V62.92ZM53.1718 62.92H52.1718V63.92H53.1718V62.92ZM53.1718 60.544V59.544H52.1718V60.544H53.1718ZM73.2598 60.544H74.2598V59.544H73.2598V60.544ZM73.2598 65.632V66.632H74.2598V65.632H73.2598ZM63.1478 59.656V57.472H61.1478V59.656H63.1478ZM62.1478 58.472H68.7238V56.472H62.1478V58.472ZM69.7238 57.472V46.432H67.7238V57.472H69.7238ZM68.7238 47.432H73.2838V45.432H68.7238V47.432ZM72.2838 46.432V60.184H74.2838V46.432H72.2838ZM73.2838 59.184H68.7238V61.184H73.2838V59.184ZM69.7238 60.184V59.656H67.7238V60.184H69.7238ZM68.7238 58.656H62.1478V60.656H68.7238V58.656ZM62.3878 52.128H56.2438V54.128H62.3878V52.128ZM56.2438 52.128C55.1064 52.128 54.3507 51.8814 53.9019 51.5384C53.4939 51.2266 53.2358 50.7581 53.2358 50.008H51.2358C51.2358 51.2979 51.7216 52.3894 52.6876 53.1276C53.6128 53.8346 54.8611 54.128 56.2438 54.128V52.128ZM53.2358 50.008V49.936H51.2358V50.008H53.2358ZM53.2358 49.936C53.2358 49.1859 53.4939 48.7174 53.9019 48.4056C54.3507 48.0626 55.1064 47.816 56.2438 47.816V45.816C54.8611 45.816 53.6128 46.1094 52.6876 46.8164C51.7216 47.5546 51.2358 48.6461 51.2358 49.936H53.2358ZM56.2438 47.816H62.3878V45.816H56.2438V47.816ZM62.3878 47.816C63.5251 47.816 64.2808 48.0626 64.7296 48.4056C65.1376 48.7174 65.3958 49.1859 65.3958 49.936H67.3958C67.3958 48.6461 66.9099 47.5546 65.9439 46.8164C65.0187 46.1094 63.7704 45.816 62.3878 45.816V47.816ZM65.3958 49.936V50.008H67.3958V49.936H65.3958ZM65.3958 50.008C65.3958 50.7581 65.1376 51.2266 64.7296 51.5384C64.2808 51.8814 63.5251 52.128 62.3878 52.128V54.128C63.7704 54.128 65.0187 53.8346 65.9439 53.1276C66.9099 52.3894 67.3958 51.2979 67.3958 50.008H65.3958ZM55.6038 49.96V49.984H57.6038V49.96H55.6038ZM55.6038 49.984C55.6038 50.51 55.8065 51.0248 56.2488 51.3874C56.6659 51.7292 57.1879 51.848 57.6838 51.848V49.848C57.5885 49.848 57.532 49.8363 57.506 49.8286C57.4812 49.8212 57.4913 49.8198 57.5167 49.8406C57.5444 49.8633 57.5714 49.8973 57.5888 49.9365C57.6053 49.9736 57.6038 49.9941 57.6038 49.984H55.6038ZM57.6838 51.848H60.9718V49.848H57.6838V51.848ZM60.9718 51.848C61.4673 51.848 61.9916 51.7292 62.4073 51.3769C62.8458 51.0053 63.0278 50.4892 63.0278 49.984H61.0278C61.0278 50.0025 61.0247 49.9874 61.0393 49.953C61.0551 49.9155 61.082 49.8784 61.1142 49.8511C61.1443 49.8256 61.1605 49.8241 61.1413 49.8299C61.1203 49.8363 61.0672 49.848 60.9718 49.848V51.848ZM63.0278 49.984V49.96H61.0278V49.984H63.0278ZM63.0278 49.96C63.0278 49.4534 62.8522 48.9276 62.3997 48.5517C61.9775 48.2011 61.4505 48.096 60.9718 48.096V50.096C61.0736 50.096 61.1306 50.1077 61.1538 50.1144C61.1752 50.1205 61.1562 50.1189 61.1219 50.0903C61.105 50.0763 61.0877 50.0584 61.0721 50.0372C61.0565 50.016 61.0453 49.9953 61.0378 49.9774C61.0229 49.9416 61.0278 49.9299 61.0278 49.96H63.0278ZM60.9718 48.096H57.6838V50.096H60.9718V48.096ZM57.6838 48.096C57.2044 48.096 56.6799 48.2013 56.2565 48.5414C55.7997 48.9083 55.6038 49.4325 55.6038 49.96H57.6038C57.6038 49.938 57.6074 49.9551 57.5904 49.9938C57.572 50.0358 57.5418 50.0743 57.509 50.1006C57.4794 50.1244 57.4667 50.1232 57.4936 50.1156C57.5218 50.1076 57.5822 50.096 57.6838 50.096V48.096ZM60.5638 59.064H56.2678V61.064H60.5638V59.064ZM57.2678 60.064V56.704H55.2678V60.064H57.2678ZM56.2678 55.704H51.6838V57.704H56.2678V55.704ZM52.6838 56.704V54.088H50.6838V56.704H52.6838ZM51.6838 55.088H62.5078V53.088H51.6838V55.088ZM62.5078 55.088C65.0087 55.088 66.3584 54.9908 67.697 54.7888L67.3985 52.8112C66.1931 52.9931 64.9509 53.088 62.5078 53.088V55.088ZM66.5478 53.8V56.416H68.5478V53.8H66.5478ZM67.3985 55.4272C66.1931 55.6091 64.9509 55.704 62.5078 55.704V57.704C65.0087 57.704 66.3584 57.6068 67.697 57.4048L67.3985 55.4272ZM62.5078 55.704H60.5638V57.704H62.5078V55.704ZM59.5638 56.704V60.064H61.5638V56.704H59.5638ZM56.8758 65.632V66.4H58.8758V65.632H56.8758ZM57.8758 67.4H73.6438V65.4H57.8758V67.4ZM72.6438 66.4V68.824H74.6438V66.4H72.6438ZM73.6438 67.824H53.1718V69.824H73.6438V67.824ZM54.1718 68.824V63.664H52.1718V68.824H54.1718ZM53.1718 64.664H68.7478V62.664H53.1718V64.664ZM69.7478 63.664V62.92H67.7478V63.664H69.7478ZM68.7478 61.92H53.1718V63.92H68.7478V61.92ZM54.1718 62.92V60.544H52.1718V62.92H54.1718ZM53.1718 61.544H73.2598V59.544H53.1718V61.544ZM72.2598 60.544V65.632H74.2598V60.544H72.2598ZM73.2598 64.632H57.8758V66.632H73.2598V64.632Z" fill="#592016" mask="url(#path-3-outside-1_2631_12862)"/>
<rect x="16.5" y="10.5" width="74" height="19" fill="white"/>
<rect x="16.5" y="10.5" width="74" height="19" stroke="#D9D9D9"/>
<path d="M32.8195 19.0666V19.6123H31.1245V25.6378H29.383V15.1077H31.1245V19.0666H32.8195ZM22.243 23.5944L22.0921 23.0488C25.0642 21.9923 26.2716 19.8213 26.2716 17.6502V16.2571H22.5333V15.6998H28.0131V17.6735C28.0131 20.3205 25.726 22.805 22.243 23.5944ZM38.5718 15.0961C41.4974 15.0961 42.7629 15.8972 42.7629 17.0233C42.7629 18.1495 41.4974 18.9505 38.5718 18.9505C35.6461 18.9505 34.3807 18.1495 34.3807 17.0233C34.3807 15.8972 35.6461 15.0961 38.5718 15.0961ZM38.5718 18.4165C40.1855 18.4165 41.0331 17.8592 41.0331 17.0233C41.0331 16.1874 40.1855 15.6301 38.5718 15.6301C36.958 15.6301 36.1105 16.1874 36.1105 17.0233C36.1105 17.8592 36.958 18.4165 38.5718 18.4165ZM33.2545 19.7748H43.8891V20.3089H33.2545V19.7748ZM42.7745 25.6958H35.5765C34.996 25.6958 34.5316 25.4868 34.5316 24.9412V23.1068H40.8705V21.853H34.5316V21.3189H42.6004V23.6525H36.2614V24.9063C36.2614 25.0921 36.3427 25.1618 36.5285 25.1618H42.7745V25.6958ZM54.3294 21.5163L51.8913 19.5078C51.1483 20.5643 49.7552 21.3538 48.2923 21.7369L48.095 21.2144C49.7203 20.5411 50.7072 19.3685 50.7072 17.9289V17.2091H48.4432V16.6634H50.7072V14.8639H52.4602V16.6634H54.6661V17.2091H52.4602V17.8244C52.4602 18.3004 52.3325 18.7532 52.1119 19.1595C52.4022 18.997 52.7969 19.0318 53.1452 19.264L55.0492 20.634L54.3294 21.5163ZM57.7775 15.1077V22.2709H56.036V18.9041H53.9231V18.3584H56.036V15.1077H57.7775ZM57.8472 25.7539L53.7837 23.9079C52.855 24.8947 51.0903 25.4868 49.2327 25.7539L49.105 25.2198C51.3805 24.6161 52.7505 23.6525 52.7505 22.2129V21.6904H54.4803V22.2709C54.4803 22.7818 54.3178 23.2229 54.0275 23.6177C54.341 23.3855 54.7706 23.3622 55.1653 23.5016L58.3115 24.6277L57.8472 25.7539ZM65.1413 18.1727C65.1413 19.6239 65.536 20.5411 66.3951 20.5411C67.2542 20.5411 67.649 19.6239 67.649 18.1727C67.649 16.7215 67.2542 15.8043 66.3951 15.8043C65.536 15.8043 65.1413 16.7215 65.1413 18.1727ZM63.4114 18.1727C63.4114 16.3035 64.5375 15.2702 66.3951 15.2702C68.2527 15.2702 69.3788 16.3035 69.3788 18.1727C69.3788 20.0419 68.2527 21.0751 66.3951 21.0751C64.5375 21.0751 63.4114 20.0419 63.4114 18.1727ZM72.6412 15.1077V22.6773H70.8997V15.1077H72.6412ZM64.642 22.0387H66.3835V24.7554C66.3835 24.9412 66.4996 25.0457 66.6853 25.0457H72.8153V25.5797H65.745C65.1645 25.5797 64.642 25.3127 64.642 24.767V22.0387ZM85.3128 18.8693V19.4149H83.6759V25.6378H81.9344V15.1077H83.6759V18.8693H85.3128ZM78.5444 15.5837V18.5326C78.5444 19.0318 78.4631 19.5078 78.3122 19.9606C78.6604 19.798 79.0668 19.8793 79.4267 20.2973L81.4932 22.7353L80.3439 23.5712L78.1612 20.3205C77.5111 21.8298 76.0599 22.9791 74.3881 23.5828L74.0978 23.0372C76.0831 21.8298 76.8029 20.3437 76.8029 18.37V15.5837H78.5444Z" fill="black"/>
</svg>
