<svg width="108" height="108" viewBox="0 0 108 108" fill="none" xmlns="http://www.w3.org/2000/svg">
<rect x="0.5" y="0.5" width="107" height="107" rx="15.5" fill="white"/>
<rect x="0.5" y="0.5" width="107" height="107" rx="15.5" stroke="black"/>
<path d="M30.2505 23.75L30.2505 56.25" stroke="black"/>
<line x1="46.7505" y1="23.5" x2="46.7505" y2="56.5" stroke="black"/>
<line x1="62.7505" y1="23.5" x2="62.7505" y2="56.5" stroke="black"/>
<line x1="78.7505" y1="23.5" x2="78.7505" y2="56.5" stroke="black"/>
<path d="M26.3516 30.2122H81.891" stroke="black"/>
<path d="M26 48.8481H82" stroke="black"/>
<path d="M42.2168 34.4961V38.6797H43.8457V39.6055H42.2168V44.9844H41.1035V34.4961H42.2168ZM39.4746 35.5977C39.4629 38.6328 38.127 41.3398 34.6699 43.0508L34.0488 42.1836C36.6797 40.8711 38.1094 38.9727 38.3379 36.5234H34.5762V35.5977H39.4746Z" fill="black"/>
<path d="M59.8457 38.6211V39.5352H58.2168V44.9844H57.1035V34.4961H58.2168V38.6211H59.8457ZM51.5371 35.5156V41.4219C53.002 41.4219 54.5312 41.2988 56.2012 40.9531L56.3301 41.8906C54.5371 42.2539 52.873 42.3477 51.3027 42.3477H50.4355V35.5156H51.5371Z" fill="black"/>
<path d="M74.2168 34.4961V38.5625H75.9043V39.4766H74.2168V45.0195H73.1035V34.4961H74.2168ZM71.3926 35.5039V36.4062H67.5957V41.4805C69.3594 41.4746 70.6836 41.3984 72.1777 41.1289L72.3184 42.0664C70.6777 42.3594 69.2832 42.418 67.3262 42.4062H66.4824V35.5039H71.3926Z" fill="black"/>
<path d="M28.48 77.296V69.6H39.2V77.296H35.008V80.256H41.008V82.096H26.672V80.256H32.672V77.296H28.48ZM36.88 75.456V71.44H30.8V75.456H36.88ZM50.7595 80.128H48.4395V77.52H42.3595V75.68H56.6955V77.52H50.7595V80.128ZM44.2475 69.008H46.5675V72.656H54.9675V74.496H44.2475V69.008ZM44.1675 78.832H46.4875V81.808H55.2075V83.648H44.1675V78.832ZM65.215 84.128C61.727 84.128 59.807 83.008 59.807 81.184C59.807 79.36 61.727 78.24 65.215 78.24C68.703 78.24 70.623 79.36 70.623 81.184C70.623 83.008 68.703 84.128 65.215 84.128ZM59.663 70.928V69.088H70.783V70.928H66.383V71.216C66.383 72.16 69.343 72.848 71.343 73.168L70.703 75.088C68.623 74.768 66.127 73.952 65.231 73.328C64.383 73.952 61.791 74.768 59.839 75.088L59.167 73.168C60.719 72.848 64.063 72.16 64.063 71.216V70.928H59.663ZM64.047 74.432H66.367V75.904H72.383V77.744H58.047V75.904H64.047V74.432ZM65.215 80.032C63.295 80.032 62.079 80.384 62.079 81.184C62.079 81.984 63.295 82.336 65.215 82.336C67.135 82.336 68.351 81.984 68.351 81.184C68.351 80.384 67.135 80.032 65.215 80.032ZM80.2625 74.816C80.2625 72.496 79.5585 71.216 78.2785 71.216C76.9985 71.216 76.3265 72.496 76.3265 74.816C76.3265 77.136 76.9985 78.416 78.2785 78.416C79.5585 78.416 80.2625 77.152 80.2625 74.816ZM84.3585 68.896H86.6785V83.728H84.3585V68.896ZM82.5825 74.816C82.5825 78.4 81.0145 80.256 78.2785 80.256C75.5425 80.256 74.0065 78.4 74.0065 74.816C74.0065 71.232 75.5425 69.376 78.2785 69.376C81.0145 69.376 82.5825 71.232 82.5825 74.816Z" fill="black"/>
</svg>
