<svg width="100" height="120" viewBox="0 0 100 120" fill="none" xmlns="http://www.w3.org/2000/svg">
<path d="M0 4C0 1.79086 1.79086 0 4 0H96C98.2091 0 100 1.79086 100 4V116C100 118.209 98.2091 120 96 120H4C1.79086 120 0 118.209 0 116V4Z" fill="#56AFA9"/>
<path d="M8 0.5V120" stroke="white"/>
<rect x="16.5" y="10.5" width="74" height="19" fill="white"/>
<rect x="16.5" y="10.5" width="74" height="19" stroke="#D9D9D9"/>
<path d="M31.301 25.6378V21.6208H29.5247C29.1067 23.0372 28.1896 23.6293 26.7848 23.6293C24.8343 23.6293 23.8011 22.4799 23.8011 19.5775C23.8011 16.675 24.8343 15.5257 26.7848 15.5257C28.1547 15.5257 29.0719 16.0945 29.4899 17.4413H31.301V15.1077H33.0424V25.6378H31.301ZM25.5309 19.5775C25.5309 22.1897 25.9489 23.0952 26.7848 23.0952C27.6207 23.0952 28.0386 22.1897 28.0386 19.5775C28.0386 16.9653 27.6207 16.0597 26.7848 16.0597C25.9489 16.0597 25.5309 16.9653 25.5309 19.5775ZM29.7685 19.5775C29.7685 20.1463 29.722 20.6456 29.6524 21.0751H31.301V17.9869H29.6292C29.722 18.4513 29.7685 18.9738 29.7685 19.5775ZM44.1004 25.6378H37.1229C36.554 25.6378 36.0316 25.3823 36.0316 24.8251V22.2477H44.1004V25.6378ZM37.7731 22.7818V24.8135C37.7731 25.0108 37.8891 25.1037 38.0749 25.1037H42.3589V22.7818H37.7731ZM44.2397 19.473H37.1113C36.5308 19.473 36.0664 19.264 36.0664 18.7183V17.0233H42.3357V15.8043H36.0664V15.2702H44.0655V17.569H37.7963V18.6835C37.7963 18.8693 37.8891 18.9389 38.0633 18.9389H44.2397V19.473ZM34.7545 20.5643H45.3891V21.0983H34.7545V20.5643ZM46.6367 18.312C46.6367 16.5357 47.9486 15.4908 49.8642 15.4908C51.7799 15.4908 53.0918 16.5357 53.0918 18.312C53.0918 20.0883 51.7799 21.1332 49.8642 21.1332C47.9486 21.1332 46.6367 20.0883 46.6367 18.312ZM46.0214 23.6873V23.1417H50.8279C52.3023 23.1417 53.4401 23.0023 54.1715 22.8514V15.1077H55.9129V25.6378H54.1715V23.4087C53.6026 23.5248 52.372 23.6873 50.8279 23.6873H46.0214ZM48.3666 18.312C48.3666 19.7052 48.8658 20.5991 49.8642 20.5991C50.8627 20.5991 51.3619 19.7052 51.3619 18.312C51.3619 16.9188 50.8627 16.0249 49.8642 16.0249C48.8658 16.0249 48.3666 16.9188 48.3666 18.312ZM70.3122 19.4149H63.4044C62.8355 19.4149 62.3131 19.1595 62.3131 18.6022V15.3283H70.3122V19.4149ZM64.0545 15.8623V18.5906C64.0545 18.788 64.1706 18.8809 64.3564 18.8809H68.5707V15.8623H64.0545ZM61.0012 20.6223H71.6357V21.1564H67.3053V23.8266H65.5638V21.1564H61.0012V20.6223ZM62.2783 22.3058H64.0197V24.7554C64.0197 24.9412 64.1358 25.0457 64.3216 25.0457H70.5792V25.5797H63.3812C62.8007 25.5797 62.2783 25.3127 62.2783 24.767V22.3058ZM78.2587 15.3515V15.8972H74.7294V17.8012H77.8524V18.3468H74.7294V20.0302C74.7294 20.216 74.8338 20.3205 75.0196 20.3205H76.0761C77.1326 20.3205 78.1542 20.3089 79.3733 20.0651L79.4777 20.5875C78.3284 20.8197 77.0977 20.8661 75.8671 20.8661H74.0908C73.5219 20.8661 72.9879 20.6223 72.9879 20.0535V15.3515H78.2587ZM82.0435 15.1077V21.4002H80.302V18.254H78.3748V17.7083H80.302V15.1077H82.0435ZM73.9283 22.5844V22.0387H82.0435V25.6958H80.302V22.5844H73.9283Z" fill="black"/>
<ellipse cx="53.5" cy="58" rx="34.5" ry="19" fill="#D9D9D9"/>
<mask id="path-6-outside-1_2631_12845" maskUnits="userSpaceOnUse" x="31" y="45" width="44" height="25" fill="black">
<rect fill="white" x="31" y="45" width="44" height="25"/>
<path d="M41.12 54.208C44.168 54.208 47.12 55.816 47.12 60.184V62.32C47.12 66.736 43.592 68.704 40.04 68.704C36.488 68.704 32.96 66.736 32.96 62.32V59.464C32.96 57.376 33.656 55.168 34.736 53.44L38.672 47.248H44L39.8 53.656C39.608 53.944 39.44 54.232 39.296 54.496C39.848 54.304 40.448 54.208 41.12 54.208ZM42.536 62.584V60.112C42.536 58.696 41.6 57.832 40.016 57.832C38.432 57.832 37.52 58.696 37.52 60.112V62.584C37.52 64 38.432 64.864 40.016 64.864C41.6 64.864 42.536 64 42.536 62.584ZM62.1478 59.656V57.472H68.7238V46.432H73.2838V60.184H68.7238V59.656H62.1478ZM62.3878 53.128H56.2438C53.7238 53.128 52.2358 52.048 52.2358 50.008V49.936C52.2358 47.896 53.7238 46.816 56.2438 46.816H62.3878C64.9078 46.816 66.3958 47.896 66.3958 49.936V50.008C66.3958 52.048 64.9078 53.128 62.3878 53.128ZM56.6038 49.96V49.984C56.6038 50.512 56.9878 50.848 57.6838 50.848H60.9718C61.6678 50.848 62.0278 50.512 62.0278 49.984V49.96C62.0278 49.408 61.6678 49.096 60.9718 49.096H57.6838C56.9878 49.096 56.6038 49.408 56.6038 49.96ZM60.5638 60.064H56.2678V56.704H51.6838V54.088H62.5078C64.9798 54.088 66.2758 53.992 67.5478 53.8V56.416C66.2758 56.608 64.9798 56.704 62.5078 56.704H60.5638V60.064ZM57.8758 65.632V66.4H73.6438V68.824H53.1718V63.664H68.7478V62.92H53.1718V60.544H73.2598V65.632H57.8758Z"/>
</mask>
<path d="M41.12 54.208C44.168 54.208 47.12 55.816 47.12 60.184V62.32C47.12 66.736 43.592 68.704 40.04 68.704C36.488 68.704 32.96 66.736 32.96 62.32V59.464C32.96 57.376 33.656 55.168 34.736 53.44L38.672 47.248H44L39.8 53.656C39.608 53.944 39.44 54.232 39.296 54.496C39.848 54.304 40.448 54.208 41.12 54.208ZM42.536 62.584V60.112C42.536 58.696 41.6 57.832 40.016 57.832C38.432 57.832 37.52 58.696 37.52 60.112V62.584C37.52 64 38.432 64.864 40.016 64.864C41.6 64.864 42.536 64 42.536 62.584ZM62.1478 59.656V57.472H68.7238V46.432H73.2838V60.184H68.7238V59.656H62.1478ZM62.3878 53.128H56.2438C53.7238 53.128 52.2358 52.048 52.2358 50.008V49.936C52.2358 47.896 53.7238 46.816 56.2438 46.816H62.3878C64.9078 46.816 66.3958 47.896 66.3958 49.936V50.008C66.3958 52.048 64.9078 53.128 62.3878 53.128ZM56.6038 49.96V49.984C56.6038 50.512 56.9878 50.848 57.6838 50.848H60.9718C61.6678 50.848 62.0278 50.512 62.0278 49.984V49.96C62.0278 49.408 61.6678 49.096 60.9718 49.096H57.6838C56.9878 49.096 56.6038 49.408 56.6038 49.96ZM60.5638 60.064H56.2678V56.704H51.6838V54.088H62.5078C64.9798 54.088 66.2758 53.992 67.5478 53.8V56.416C66.2758 56.608 64.9798 56.704 62.5078 56.704H60.5638V60.064ZM57.8758 65.632V66.4H73.6438V68.824H53.1718V63.664H68.7478V62.92H53.1718V60.544H73.2598V65.632H57.8758Z" fill="#E88597"/>
<path d="M34.736 53.44L33.892 52.9035L33.888 52.91L34.736 53.44ZM38.672 47.248V46.248H38.1227L37.8281 46.7115L38.672 47.248ZM44 47.248L44.8364 47.7962L45.8511 46.248H44V47.248ZM39.8 53.656L40.6321 54.2107L40.6364 54.2042L39.8 53.656ZM39.296 54.496L38.4181 54.0171L37.1775 56.2916L39.6245 55.4405L39.296 54.496ZM41.12 55.208C42.4837 55.208 43.729 55.5691 44.6166 56.321C45.4757 57.0488 46.12 58.2438 46.12 60.184H48.12C48.12 57.7562 47.2883 55.9632 45.9094 54.795C44.559 53.6509 42.8043 53.208 41.12 53.208V55.208ZM46.12 60.184V62.32H48.12V60.184H46.12ZM46.12 62.32C46.12 64.2286 45.373 65.5323 44.2934 66.3823C43.1827 67.2568 41.6468 67.704 40.04 67.704V69.704C41.9852 69.704 43.9893 69.1672 45.5306 67.9537C47.103 66.7157 48.12 64.8274 48.12 62.32H46.12ZM40.04 67.704C38.4332 67.704 36.8973 67.2568 35.7866 66.3823C34.707 65.5323 33.96 64.2286 33.96 62.32H31.96C31.96 64.8274 32.977 66.7157 34.5494 67.9537C36.0907 69.1672 38.0948 69.704 40.04 69.704V67.704ZM33.96 62.32V59.464H31.96V62.32H33.96ZM33.96 59.464C33.96 57.5803 34.594 55.554 35.584 53.97L33.888 52.91C32.718 54.782 31.96 57.1717 31.96 59.464H33.96ZM35.5799 53.9765L39.5159 47.7845L37.8281 46.7115L33.8921 52.9035L35.5799 53.9765ZM38.672 48.248H44V46.248H38.672V48.248ZM43.1636 46.6998L38.9636 53.1078L40.6364 54.2042L44.8364 47.7962L43.1636 46.6998ZM38.968 53.1013C38.7552 53.4205 38.5719 53.7352 38.4181 54.0171L40.1739 54.9749C40.3081 54.7288 40.4608 54.4675 40.6321 54.2107L38.968 53.1013ZM39.6245 55.4405C40.0582 55.2897 40.5455 55.208 41.12 55.208V53.208C40.3505 53.208 39.6378 53.3183 38.9675 53.5515L39.6245 55.4405ZM43.536 62.584V60.112H41.536V62.584H43.536ZM43.536 60.112C43.536 59.1745 43.2189 58.3163 42.5429 57.7013C41.8788 57.0972 40.9834 56.832 40.016 56.832V58.832C40.6326 58.832 40.9972 58.9988 41.1971 59.1807C41.3851 59.3517 41.536 59.6335 41.536 60.112H43.536ZM40.016 56.832C39.0484 56.832 38.1556 57.0974 37.4959 57.706C36.826 58.3241 36.52 59.1823 36.52 60.112H38.52C38.52 59.6257 38.67 59.3439 38.8521 59.176C39.0444 58.9986 39.3996 58.832 40.016 58.832V56.832ZM36.52 60.112V62.584H38.52V60.112H36.52ZM36.52 62.584C36.52 63.5137 36.826 64.3719 37.4959 64.99C38.1556 65.5986 39.0484 65.864 40.016 65.864V63.864C39.3996 63.864 39.0444 63.6974 38.8521 63.52C38.67 63.3521 38.52 63.0703 38.52 62.584H36.52ZM40.016 65.864C40.9834 65.864 41.8788 65.5988 42.5429 64.9947C43.2189 64.3797 43.536 63.5215 43.536 62.584H41.536C41.536 63.0625 41.3851 63.3443 41.1971 63.5153C40.9972 63.6972 40.6326 63.864 40.016 63.864V65.864ZM62.1478 59.656H61.1478V60.656H62.1478V59.656ZM62.1478 57.472V56.472H61.1478V57.472H62.1478ZM68.7238 57.472V58.472H69.7238V57.472H68.7238ZM68.7238 46.432V45.432H67.7238V46.432H68.7238ZM73.2838 46.432H74.2838V45.432H73.2838V46.432ZM73.2838 60.184V61.184H74.2838V60.184H73.2838ZM68.7238 60.184H67.7238V61.184H68.7238V60.184ZM68.7238 59.656H69.7238V58.656H68.7238V59.656ZM60.5638 60.064V61.064H61.5638V60.064H60.5638ZM56.2678 60.064H55.2678V61.064H56.2678V60.064ZM56.2678 56.704H57.2678V55.704H56.2678V56.704ZM51.6838 56.704H50.6838V57.704H51.6838V56.704ZM51.6838 54.088V53.088H50.6838V54.088H51.6838ZM67.5478 53.8H68.5478V52.6377L67.3985 52.8112L67.5478 53.8ZM67.5478 56.416L67.697 57.4048L68.5478 57.2764V56.416H67.5478ZM60.5638 56.704V55.704H59.5638V56.704H60.5638ZM57.8758 65.632V64.632H56.8758V65.632H57.8758ZM57.8758 66.4H56.8758V67.4H57.8758V66.4ZM73.6438 66.4H74.6438V65.4H73.6438V66.4ZM73.6438 68.824V69.824H74.6438V68.824H73.6438ZM53.1718 68.824H52.1718V69.824H53.1718V68.824ZM53.1718 63.664V62.664H52.1718V63.664H53.1718ZM68.7478 63.664V64.664H69.7478V63.664H68.7478ZM68.7478 62.92H69.7478V61.92H68.7478V62.92ZM53.1718 62.92H52.1718V63.92H53.1718V62.92ZM53.1718 60.544V59.544H52.1718V60.544H53.1718ZM73.2598 60.544H74.2598V59.544H73.2598V60.544ZM73.2598 65.632V66.632H74.2598V65.632H73.2598ZM63.1478 59.656V57.472H61.1478V59.656H63.1478ZM62.1478 58.472H68.7238V56.472H62.1478V58.472ZM69.7238 57.472V46.432H67.7238V57.472H69.7238ZM68.7238 47.432H73.2838V45.432H68.7238V47.432ZM72.2838 46.432V60.184H74.2838V46.432H72.2838ZM73.2838 59.184H68.7238V61.184H73.2838V59.184ZM69.7238 60.184V59.656H67.7238V60.184H69.7238ZM68.7238 58.656H62.1478V60.656H68.7238V58.656ZM62.3878 52.128H56.2438V54.128H62.3878V52.128ZM56.2438 52.128C55.1064 52.128 54.3507 51.8814 53.9019 51.5384C53.4939 51.2266 53.2358 50.7581 53.2358 50.008H51.2358C51.2358 51.2979 51.7216 52.3894 52.6876 53.1276C53.6128 53.8346 54.8611 54.128 56.2438 54.128V52.128ZM53.2358 50.008V49.936H51.2358V50.008H53.2358ZM53.2358 49.936C53.2358 49.1859 53.4939 48.7174 53.9019 48.4056C54.3507 48.0626 55.1064 47.816 56.2438 47.816V45.816C54.8611 45.816 53.6128 46.1094 52.6876 46.8164C51.7216 47.5546 51.2358 48.6461 51.2358 49.936H53.2358ZM56.2438 47.816H62.3878V45.816H56.2438V47.816ZM62.3878 47.816C63.5251 47.816 64.2808 48.0626 64.7296 48.4056C65.1376 48.7174 65.3958 49.1859 65.3958 49.936H67.3958C67.3958 48.6461 66.9099 47.5546 65.9439 46.8164C65.0187 46.1094 63.7704 45.816 62.3878 45.816V47.816ZM65.3958 49.936V50.008H67.3958V49.936H65.3958ZM65.3958 50.008C65.3958 50.7581 65.1376 51.2266 64.7296 51.5384C64.2808 51.8814 63.5251 52.128 62.3878 52.128V54.128C63.7704 54.128 65.0187 53.8346 65.9439 53.1276C66.9099 52.3894 67.3958 51.2979 67.3958 50.008H65.3958ZM55.6038 49.96V49.984H57.6038V49.96H55.6038ZM55.6038 49.984C55.6038 50.51 55.8065 51.0248 56.2488 51.3874C56.6659 51.7292 57.1879 51.848 57.6838 51.848V49.848C57.5885 49.848 57.532 49.8363 57.506 49.8286C57.4812 49.8212 57.4913 49.8198 57.5167 49.8406C57.5444 49.8633 57.5714 49.8973 57.5888 49.9365C57.6053 49.9736 57.6038 49.9941 57.6038 49.984H55.6038ZM57.6838 51.848H60.9718V49.848H57.6838V51.848ZM60.9718 51.848C61.4673 51.848 61.9916 51.7292 62.4073 51.3769C62.8458 51.0053 63.0278 50.4892 63.0278 49.984H61.0278C61.0278 50.0025 61.0247 49.9874 61.0393 49.953C61.0551 49.9155 61.082 49.8784 61.1142 49.8511C61.1443 49.8256 61.1605 49.8241 61.1413 49.8299C61.1203 49.8363 61.0672 49.848 60.9718 49.848V51.848ZM63.0278 49.984V49.96H61.0278V49.984H63.0278ZM63.0278 49.96C63.0278 49.4534 62.8522 48.9276 62.3997 48.5517C61.9775 48.2011 61.4505 48.096 60.9718 48.096V50.096C61.0736 50.096 61.1306 50.1077 61.1538 50.1144C61.1752 50.1205 61.1562 50.1189 61.1219 50.0903C61.105 50.0763 61.0877 50.0584 61.0721 50.0372C61.0565 50.016 61.0453 49.9953 61.0378 49.9774C61.0229 49.9416 61.0278 49.9299 61.0278 49.96H63.0278ZM60.9718 48.096H57.6838V50.096H60.9718V48.096ZM57.6838 48.096C57.2044 48.096 56.6799 48.2013 56.2565 48.5414C55.7997 48.9083 55.6038 49.4325 55.6038 49.96H57.6038C57.6038 49.938 57.6074 49.9551 57.5904 49.9938C57.572 50.0358 57.5418 50.0743 57.509 50.1006C57.4794 50.1244 57.4667 50.1232 57.4936 50.1156C57.5218 50.1076 57.5822 50.096 57.6838 50.096V48.096ZM60.5638 59.064H56.2678V61.064H60.5638V59.064ZM57.2678 60.064V56.704H55.2678V60.064H57.2678ZM56.2678 55.704H51.6838V57.704H56.2678V55.704ZM52.6838 56.704V54.088H50.6838V56.704H52.6838ZM51.6838 55.088H62.5078V53.088H51.6838V55.088ZM62.5078 55.088C65.0087 55.088 66.3584 54.9908 67.697 54.7888L67.3985 52.8112C66.1931 52.9931 64.9509 53.088 62.5078 53.088V55.088ZM66.5478 53.8V56.416H68.5478V53.8H66.5478ZM67.3985 55.4272C66.1931 55.6091 64.9509 55.704 62.5078 55.704V57.704C65.0087 57.704 66.3584 57.6068 67.697 57.4048L67.3985 55.4272ZM62.5078 55.704H60.5638V57.704H62.5078V55.704ZM59.5638 56.704V60.064H61.5638V56.704H59.5638ZM56.8758 65.632V66.4H58.8758V65.632H56.8758ZM57.8758 67.4H73.6438V65.4H57.8758V67.4ZM72.6438 66.4V68.824H74.6438V66.4H72.6438ZM73.6438 67.824H53.1718V69.824H73.6438V67.824ZM54.1718 68.824V63.664H52.1718V68.824H54.1718ZM53.1718 64.664H68.7478V62.664H53.1718V64.664ZM69.7478 63.664V62.92H67.7478V63.664H69.7478ZM68.7478 61.92H53.1718V63.92H68.7478V61.92ZM54.1718 62.92V60.544H52.1718V62.92H54.1718ZM53.1718 61.544H73.2598V59.544H53.1718V61.544ZM72.2598 60.544V65.632H74.2598V60.544H72.2598ZM73.2598 64.632H57.8758V66.632H73.2598V64.632Z" fill="#EFE6DE" mask="url(#path-6-outside-1_2631_12845)"/>
</svg>
