<svg width="100" height="120" viewBox="0 0 100 120" fill="none" xmlns="http://www.w3.org/2000/svg">
<path d="M0 4C0 1.79086 1.79086 0 4 0H96C98.2091 0 100 1.79086 100 4V116C100 118.209 98.2091 120 96 120H4C1.79086 120 0 118.209 0 116V4Z" fill="#AE4B11"/>
<path d="M8 0.5V120" stroke="white"/>
<mask id="path-3-outside-1_2631_12872" maskUnits="userSpaceOnUse" x="27" y="45" width="52" height="25" fill="black">
<rect fill="white" x="27" y="45" width="52" height="25"/>
<path d="M36.616 68.296H32.056V53.776H28.72V50.2C31.096 50.104 32.416 49.336 32.824 47.248H36.616V68.296ZM49.7851 68.296H45.2251V53.776H41.8891V50.2C44.2651 50.104 45.5851 49.336 45.9931 47.248H49.7851V68.296ZM65.7621 59.656V57.472H72.3381V46.432H76.8981V60.184H72.3381V59.656H65.7621ZM66.0021 53.128H59.8581C57.3381 53.128 55.8501 52.048 55.8501 50.008V49.936C55.8501 47.896 57.3381 46.816 59.8581 46.816H66.0021C68.5221 46.816 70.0101 47.896 70.0101 49.936V50.008C70.0101 52.048 68.5221 53.128 66.0021 53.128ZM60.2181 49.96V49.984C60.2181 50.512 60.6021 50.848 61.2981 50.848H64.5861C65.2821 50.848 65.6421 50.512 65.6421 49.984V49.96C65.6421 49.408 65.2821 49.096 64.5861 49.096H61.2981C60.6021 49.096 60.2181 49.408 60.2181 49.96ZM64.1781 60.064H59.8821V56.704H55.2981V54.088H66.1221C68.5941 54.088 69.8901 53.992 71.1621 53.8V56.416C69.8901 56.608 68.5941 56.704 66.1221 56.704H64.1781V60.064ZM61.4901 65.632V66.4H77.2581V68.824H56.7861V63.664H72.3621V62.92H56.7861V60.544H76.8741V65.632H61.4901Z"/>
</mask>
<path d="M36.616 68.296H32.056V53.776H28.72V50.2C31.096 50.104 32.416 49.336 32.824 47.248H36.616V68.296ZM49.7851 68.296H45.2251V53.776H41.8891V50.2C44.2651 50.104 45.5851 49.336 45.9931 47.248H49.7851V68.296ZM65.7621 59.656V57.472H72.3381V46.432H76.8981V60.184H72.3381V59.656H65.7621ZM66.0021 53.128H59.8581C57.3381 53.128 55.8501 52.048 55.8501 50.008V49.936C55.8501 47.896 57.3381 46.816 59.8581 46.816H66.0021C68.5221 46.816 70.0101 47.896 70.0101 49.936V50.008C70.0101 52.048 68.5221 53.128 66.0021 53.128ZM60.2181 49.96V49.984C60.2181 50.512 60.6021 50.848 61.2981 50.848H64.5861C65.2821 50.848 65.6421 50.512 65.6421 49.984V49.96C65.6421 49.408 65.2821 49.096 64.5861 49.096H61.2981C60.6021 49.096 60.2181 49.408 60.2181 49.96ZM64.1781 60.064H59.8821V56.704H55.2981V54.088H66.1221C68.5941 54.088 69.8901 53.992 71.1621 53.8V56.416C69.8901 56.608 68.5941 56.704 66.1221 56.704H64.1781V60.064ZM61.4901 65.632V66.4H77.2581V68.824H56.7861V63.664H72.3621V62.92H56.7861V60.544H76.8741V65.632H61.4901Z" fill="#EFD8B6"/>
<path d="M36.616 68.296V69.296H37.616V68.296H36.616ZM32.056 68.296H31.056V69.296H32.056V68.296ZM32.056 53.776H33.056V52.776H32.056V53.776ZM28.72 53.776H27.72V54.776H28.72V53.776ZM28.72 50.2L28.6796 49.2008L27.72 49.2396V50.2H28.72ZM32.824 47.248V46.248H32.0005L31.8426 47.0562L32.824 47.248ZM36.616 47.248H37.616V46.248H36.616V47.248ZM36.616 67.296H32.056V69.296H36.616V67.296ZM33.056 68.296V53.776H31.056V68.296H33.056ZM32.056 52.776H28.72V54.776H32.056V52.776ZM29.72 53.776V50.2H27.72V53.776H29.72ZM28.7604 51.1992C30.0248 51.1481 31.1707 50.9163 32.0756 50.2957C33.0203 49.6478 33.5643 48.6741 33.8054 47.4398L31.8426 47.0562C31.6757 47.9099 31.3557 48.3642 30.9444 48.6463C30.4933 48.9557 29.7912 49.1559 28.6796 49.2008L28.7604 51.1992ZM32.824 48.248H36.616V46.248H32.824V48.248ZM35.616 47.248V68.296H37.616V47.248H35.616ZM49.7851 68.296V69.296H50.7851V68.296H49.7851ZM45.2251 68.296H44.2251V69.296H45.2251V68.296ZM45.2251 53.776H46.2251V52.776H45.2251V53.776ZM41.8891 53.776H40.8891V54.776H41.8891V53.776ZM41.8891 50.2L41.8487 49.2008L40.8891 49.2396V50.2H41.8891ZM45.9931 47.248V46.248H45.1696L45.0116 47.0562L45.9931 47.248ZM49.7851 47.248H50.7851V46.248H49.7851V47.248ZM49.7851 67.296H45.2251V69.296H49.7851V67.296ZM46.2251 68.296V53.776H44.2251V68.296H46.2251ZM45.2251 52.776H41.8891V54.776H45.2251V52.776ZM42.8891 53.776V50.2H40.8891V53.776H42.8891ZM41.9294 51.1992C43.1939 51.1481 44.3398 50.9163 45.2447 50.2957C46.1893 49.6478 46.7333 48.6741 46.9745 47.4398L45.0116 47.0562C44.8448 47.9099 44.5248 48.3642 44.1135 48.6463C43.6623 48.9557 42.9602 49.1559 41.8487 49.2008L41.9294 51.1992ZM45.9931 48.248H49.7851V46.248H45.9931V48.248ZM48.7851 47.248V68.296H50.7851V47.248H48.7851ZM65.7621 59.656H64.7621V60.656H65.7621V59.656ZM65.7621 57.472V56.472H64.7621V57.472H65.7621ZM72.3381 57.472V58.472H73.3381V57.472H72.3381ZM72.3381 46.432V45.432H71.3381V46.432H72.3381ZM76.8981 46.432H77.8981V45.432H76.8981V46.432ZM76.8981 60.184V61.184H77.8981V60.184H76.8981ZM72.3381 60.184H71.3381V61.184H72.3381V60.184ZM72.3381 59.656H73.3381V58.656H72.3381V59.656ZM64.1781 60.064V61.064H65.1781V60.064H64.1781ZM59.8821 60.064H58.8821V61.064H59.8821V60.064ZM59.8821 56.704H60.8821V55.704H59.8821V56.704ZM55.2981 56.704H54.2981V57.704H55.2981V56.704ZM55.2981 54.088V53.088H54.2981V54.088H55.2981ZM71.1621 53.8H72.1621V52.6377L71.0129 52.8112L71.1621 53.8ZM71.1621 56.416L71.3114 57.4048L72.1621 57.2764V56.416H71.1621ZM64.1781 56.704V55.704H63.1781V56.704H64.1781ZM61.4901 65.632V64.632H60.4901V65.632H61.4901ZM61.4901 66.4H60.4901V67.4H61.4901V66.4ZM77.2581 66.4H78.2581V65.4H77.2581V66.4ZM77.2581 68.824V69.824H78.2581V68.824H77.2581ZM56.7861 68.824H55.7861V69.824H56.7861V68.824ZM56.7861 63.664V62.664H55.7861V63.664H56.7861ZM72.3621 63.664V64.664H73.3621V63.664H72.3621ZM72.3621 62.92H73.3621V61.92H72.3621V62.92ZM56.7861 62.92H55.7861V63.92H56.7861V62.92ZM56.7861 60.544V59.544H55.7861V60.544H56.7861ZM76.8741 60.544H77.8741V59.544H76.8741V60.544ZM76.8741 65.632V66.632H77.8741V65.632H76.8741ZM66.7621 59.656V57.472H64.7621V59.656H66.7621ZM65.7621 58.472H72.3381V56.472H65.7621V58.472ZM73.3381 57.472V46.432H71.3381V57.472H73.3381ZM72.3381 47.432H76.8981V45.432H72.3381V47.432ZM75.8981 46.432V60.184H77.8981V46.432H75.8981ZM76.8981 59.184H72.3381V61.184H76.8981V59.184ZM73.3381 60.184V59.656H71.3381V60.184H73.3381ZM72.3381 58.656H65.7621V60.656H72.3381V58.656ZM66.0021 52.128H59.8581V54.128H66.0021V52.128ZM59.8581 52.128C58.7208 52.128 57.9651 51.8814 57.5163 51.5384C57.1082 51.2266 56.8501 50.7581 56.8501 50.008H54.8501C54.8501 51.2979 55.336 52.3894 56.3019 53.1276C57.2271 53.8346 58.4755 54.128 59.8581 54.128V52.128ZM56.8501 50.008V49.936H54.8501V50.008H56.8501ZM56.8501 49.936C56.8501 49.1859 57.1082 48.7174 57.5163 48.4056C57.9651 48.0626 58.7208 47.816 59.8581 47.816V45.816C58.4755 45.816 57.2271 46.1094 56.3019 46.8164C55.336 47.5546 54.8501 48.6461 54.8501 49.936H56.8501ZM59.8581 47.816H66.0021V45.816H59.8581V47.816ZM66.0021 47.816C67.1395 47.816 67.8951 48.0626 68.3439 48.4056C68.752 48.7174 69.0101 49.1859 69.0101 49.936H71.0101C71.0101 48.6461 70.5242 47.5546 69.5583 46.8164C68.6331 46.1094 67.3848 45.816 66.0021 45.816V47.816ZM69.0101 49.936V50.008H71.0101V49.936H69.0101ZM69.0101 50.008C69.0101 50.7581 68.752 51.2266 68.3439 51.5384C67.8951 51.8814 67.1395 52.128 66.0021 52.128V54.128C67.3848 54.128 68.6331 53.8346 69.5583 53.1276C70.5242 52.3894 71.0101 51.2979 71.0101 50.008H69.0101ZM59.2181 49.96V49.984H61.2181V49.96H59.2181ZM59.2181 49.984C59.2181 50.51 59.4209 51.0248 59.8632 51.3874C60.2802 51.7292 60.8023 51.848 61.2981 51.848V49.848C61.2029 49.848 61.1464 49.8363 61.1204 49.8286C61.0956 49.8212 61.1057 49.8198 61.1311 49.8406C61.1587 49.8633 61.1858 49.8973 61.2032 49.9365C61.2196 49.9736 61.2181 49.9941 61.2181 49.984H59.2181ZM61.2981 51.848H64.5861V49.848H61.2981V51.848ZM64.5861 51.848C65.0817 51.848 65.606 51.7292 66.0216 51.3769C66.4602 51.0053 66.6421 50.4892 66.6421 49.984H64.6421C64.6421 50.0025 64.6391 49.9874 64.6537 49.953C64.6695 49.9155 64.6964 49.8784 64.7286 49.8511C64.7587 49.8256 64.7749 49.8241 64.7557 49.8299C64.7347 49.8363 64.6816 49.848 64.5861 49.848V51.848ZM66.6421 49.984V49.96H64.6421V49.984H66.6421ZM66.6421 49.96C66.6421 49.4534 66.4666 48.9276 66.014 48.5517C65.5918 48.2011 65.0649 48.096 64.5861 48.096V50.096C64.6879 50.096 64.7449 50.1077 64.7682 50.1144C64.7896 50.1205 64.7706 50.1189 64.7362 50.0903C64.7194 50.0763 64.7021 50.0584 64.6864 50.0372C64.6708 50.016 64.6597 49.9953 64.6522 49.9774C64.6373 49.9416 64.6421 49.9299 64.6421 49.96H66.6421ZM64.5861 48.096H61.2981V50.096H64.5861V48.096ZM61.2981 48.096C60.8188 48.096 60.2943 48.2013 59.8709 48.5414C59.4141 48.9083 59.2181 49.4325 59.2181 49.96H61.2181C61.2181 49.938 61.2217 49.9551 61.2048 49.9938C61.1864 50.0358 61.1562 50.0743 61.1234 50.1006C61.0938 50.1244 61.0811 50.1232 61.108 50.1156C61.1362 50.1076 61.1966 50.096 61.2981 50.096V48.096ZM64.1781 59.064H59.8821V61.064H64.1781V59.064ZM60.8821 60.064V56.704H58.8821V60.064H60.8821ZM59.8821 55.704H55.2981V57.704H59.8821V55.704ZM56.2981 56.704V54.088H54.2981V56.704H56.2981ZM55.2981 55.088H66.1221V53.088H55.2981V55.088ZM66.1221 55.088C68.623 55.088 69.9728 54.9908 71.3114 54.7888L71.0129 52.8112C69.8075 52.9931 68.5652 53.088 66.1221 53.088V55.088ZM70.1621 53.8V56.416H72.1621V53.8H70.1621ZM71.0129 55.4272C69.8075 55.6091 68.5652 55.704 66.1221 55.704V57.704C68.623 57.704 69.9728 57.6068 71.3114 57.4048L71.0129 55.4272ZM66.1221 55.704H64.1781V57.704H66.1221V55.704ZM63.1781 56.704V60.064H65.1781V56.704H63.1781ZM60.4901 65.632V66.4H62.4901V65.632H60.4901ZM61.4901 67.4H77.2581V65.4H61.4901V67.4ZM76.2581 66.4V68.824H78.2581V66.4H76.2581ZM77.2581 67.824H56.7861V69.824H77.2581V67.824ZM57.7861 68.824V63.664H55.7861V68.824H57.7861ZM56.7861 64.664H72.3621V62.664H56.7861V64.664ZM73.3621 63.664V62.92H71.3621V63.664H73.3621ZM72.3621 61.92H56.7861V63.92H72.3621V61.92ZM57.7861 62.92V60.544H55.7861V62.92H57.7861ZM56.7861 61.544H76.8741V59.544H56.7861V61.544ZM75.8741 60.544V65.632H77.8741V60.544H75.8741ZM76.8741 64.632H61.4901V66.632H76.8741V64.632Z" fill="#C88E29" mask="url(#path-3-outside-1_2631_12872)"/>
<rect x="16.5" y="10.5" width="74" height="19" fill="white"/>
<rect x="16.5" y="10.5" width="74" height="19" stroke="#D9D9D9"/>
<path d="M39.8195 17.6967V18.2423H38.1825V21.0519H36.4411V19.9838C35.222 20.2276 33.4574 20.2857 32.3544 20.2857H30.5781C30.0093 20.2857 29.4752 20.0419 29.4752 19.473V15.3515H31.2283V19.4498C31.2283 19.6355 31.3328 19.74 31.5185 19.74H32.5634C33.527 19.74 35.222 19.7052 36.4411 19.4498V15.1077H38.1825V17.6967H39.8195ZM30.1834 22.2361V21.6904H38.1825V25.6958H36.4411V22.2361H30.1834ZM40.6841 17.8476C40.6841 16.3035 41.787 15.2354 43.6446 15.2354C44.8288 15.2354 45.7111 15.6766 46.1871 16.3964H48.1724V15.1077H49.9138V20.8778H48.1724V19.1479H46.28C45.8272 19.9606 44.91 20.4598 43.6446 20.4598C41.787 20.4598 40.6841 19.3917 40.6841 17.8476ZM49.9138 21.5163V25.6378H43.0176C42.4371 25.6378 41.9147 25.3707 41.9147 24.8251V21.5163H43.6562V22.9675H48.1724V21.5163H49.9138ZM42.4139 17.8476C42.4139 19.0666 42.7854 19.9258 43.6446 19.9258C44.5037 19.9258 44.8752 19.0666 44.8752 17.8476C44.8752 16.6286 44.5037 15.7695 43.6446 15.7695C42.7854 15.7695 42.4139 16.6286 42.4139 17.8476ZM43.6562 24.8135C43.6562 24.9992 43.7723 25.1037 43.958 25.1037H48.1724V23.5132H43.6562V24.8135ZM46.6051 17.8476C46.6051 18.1146 46.5702 18.37 46.5006 18.6022H48.1724V16.942H46.4657C46.5586 17.2207 46.6051 17.5225 46.6051 17.8476ZM52.1367 18.312C52.1367 16.5357 53.4486 15.4908 55.3642 15.4908C57.2799 15.4908 58.5918 16.5357 58.5918 18.312C58.5918 20.0883 57.2799 21.1332 55.3642 21.1332C53.4486 21.1332 52.1367 20.0883 52.1367 18.312ZM51.5214 23.6873V23.1417H56.3279C57.8023 23.1417 58.9401 23.0023 59.6715 22.8514V15.1077H61.4129V25.6378H59.6715V23.4087C59.1026 23.5248 57.872 23.6873 56.3279 23.6873H51.5214ZM53.8666 18.312C53.8666 19.7052 54.3658 20.5991 55.3642 20.5991C56.3627 20.5991 56.8619 19.7052 56.8619 18.312C56.8619 16.9188 56.3627 16.0249 55.3642 16.0249C54.3658 16.0249 53.8666 16.9188 53.8666 18.312ZM66.5012 20.3669H77.1357V20.901H72.6892V22.2477H75.847V25.6378H68.8696C68.3007 25.6378 67.7783 25.3823 67.7783 24.8251V22.2477H70.9477V20.901H66.5012V20.3669ZM76.0676 19.9141L71.8068 18.2307C70.6923 19.0899 68.6142 19.5194 67.3023 19.8213L67.1745 19.2756C68.7999 18.8228 70.8664 18.1611 70.8664 16.8492V16.7331H67.4764V16.199H70.8664V14.6085H72.5963V16.199H75.9863V16.7331H72.5963V16.8724C72.5963 17.2903 72.4105 17.6502 72.1087 17.9637C72.4338 17.7896 72.8633 17.7663 73.3277 17.894L76.4507 18.788L76.0676 19.9141ZM69.5197 22.7818V24.8135C69.5197 25.0108 69.6358 25.1037 69.8216 25.1037H74.1056V22.7818H69.5197Z" fill="black"/>
</svg>
