<svg width="100" height="120" viewBox="0 0 100 120" fill="none" xmlns="http://www.w3.org/2000/svg">
<path d="M0 4C0 1.79086 1.79086 0 4 0H96C98.2091 0 100 1.79086 100 4V116C100 118.209 98.2091 120 96 120H4C1.79086 120 0 118.209 0 116V4Z" fill="#265D40"/>
<ellipse cx="53.5" cy="59" rx="34.5" ry="19" fill="white"/>
<path d="M8 0.5V120" stroke="white"/>
<mask id="path-4-outside-1_2631_12856" maskUnits="userSpaceOnUse" x="32" y="45" width="44" height="25" fill="black">
<rect fill="white" x="32" y="45" width="44" height="25"/>
<path d="M45.368 57.232C46.712 58.072 47.648 59.416 47.648 61.384V63.016C47.648 66.928 44.096 68.68 40.424 68.68C36.752 68.68 33.2 66.928 33.2 63.016V61.384C33.2 59.416 34.112 58.072 35.456 57.232C34.328 56.392 33.56 55.144 33.56 53.392V52.432C33.56 48.472 36.92 46.864 40.424 46.864C43.856 46.864 47.288 48.472 47.288 52.432V53.392C47.288 55.144 46.52 56.392 45.368 57.232ZM38.072 52.624V53.656C38.072 54.736 39.008 55.528 40.424 55.528C41.84 55.528 42.776 54.736 42.776 53.656V52.624C42.776 51.544 41.84 50.752 40.424 50.752C39.008 50.752 38.072 51.544 38.072 52.624ZM43.088 62.512V61.456C43.088 60.136 42.152 59.2 40.424 59.2C38.696 59.2 37.76 60.136 37.76 61.456V62.512C37.76 63.832 38.696 64.768 40.424 64.768C42.152 64.768 43.088 63.832 43.088 62.512ZM63.1556 59.656V57.472H69.7316V46.432H74.2916V60.184H69.7316V59.656H63.1556ZM63.3956 53.128H57.2516C54.7316 53.128 53.2436 52.048 53.2436 50.008V49.936C53.2436 47.896 54.7316 46.816 57.2516 46.816H63.3956C65.9156 46.816 67.4036 47.896 67.4036 49.936V50.008C67.4036 52.048 65.9156 53.128 63.3956 53.128ZM57.6116 49.96V49.984C57.6116 50.512 57.9956 50.848 58.6916 50.848H61.9796C62.6756 50.848 63.0356 50.512 63.0356 49.984V49.96C63.0356 49.408 62.6756 49.096 61.9796 49.096H58.6916C57.9956 49.096 57.6116 49.408 57.6116 49.96ZM61.5716 60.064H57.2756V56.704H52.6916V54.088H63.5156C65.9876 54.088 67.2836 53.992 68.5556 53.8V56.416C67.2836 56.608 65.9876 56.704 63.5156 56.704H61.5716V60.064ZM58.8836 65.632V66.4H74.6516V68.824H54.1796V63.664H69.7556V62.92H54.1796V60.544H74.2676V65.632H58.8836Z"/>
</mask>
<path d="M45.368 57.232C46.712 58.072 47.648 59.416 47.648 61.384V63.016C47.648 66.928 44.096 68.68 40.424 68.68C36.752 68.68 33.2 66.928 33.2 63.016V61.384C33.2 59.416 34.112 58.072 35.456 57.232C34.328 56.392 33.56 55.144 33.56 53.392V52.432C33.56 48.472 36.92 46.864 40.424 46.864C43.856 46.864 47.288 48.472 47.288 52.432V53.392C47.288 55.144 46.52 56.392 45.368 57.232ZM38.072 52.624V53.656C38.072 54.736 39.008 55.528 40.424 55.528C41.84 55.528 42.776 54.736 42.776 53.656V52.624C42.776 51.544 41.84 50.752 40.424 50.752C39.008 50.752 38.072 51.544 38.072 52.624ZM43.088 62.512V61.456C43.088 60.136 42.152 59.2 40.424 59.2C38.696 59.2 37.76 60.136 37.76 61.456V62.512C37.76 63.832 38.696 64.768 40.424 64.768C42.152 64.768 43.088 63.832 43.088 62.512ZM63.1556 59.656V57.472H69.7316V46.432H74.2916V60.184H69.7316V59.656H63.1556ZM63.3956 53.128H57.2516C54.7316 53.128 53.2436 52.048 53.2436 50.008V49.936C53.2436 47.896 54.7316 46.816 57.2516 46.816H63.3956C65.9156 46.816 67.4036 47.896 67.4036 49.936V50.008C67.4036 52.048 65.9156 53.128 63.3956 53.128ZM57.6116 49.96V49.984C57.6116 50.512 57.9956 50.848 58.6916 50.848H61.9796C62.6756 50.848 63.0356 50.512 63.0356 49.984V49.96C63.0356 49.408 62.6756 49.096 61.9796 49.096H58.6916C57.9956 49.096 57.6116 49.408 57.6116 49.96ZM61.5716 60.064H57.2756V56.704H52.6916V54.088H63.5156C65.9876 54.088 67.2836 53.992 68.5556 53.8V56.416C67.2836 56.608 65.9876 56.704 63.5156 56.704H61.5716V60.064ZM58.8836 65.632V66.4H74.6516V68.824H54.1796V63.664H69.7556V62.92H54.1796V60.544H74.2676V65.632H58.8836Z" fill="#C54B26"/>
<path d="M45.368 57.232L44.7788 56.424L43.5832 57.2958L44.838 58.08L45.368 57.232ZM35.456 57.232L35.986 58.08L37.2273 57.3042L36.0533 56.43L35.456 57.232ZM44.838 58.08C45.9204 58.7565 46.648 59.7956 46.648 61.384H48.648C48.648 59.0364 47.5036 57.3875 45.898 56.384L44.838 58.08ZM46.648 61.384V63.016H48.648V61.384H46.648ZM46.648 63.016C46.648 64.619 45.9422 65.7369 44.8461 66.4912C43.7109 67.2724 42.1202 67.68 40.424 67.68V69.68C42.3998 69.68 44.4211 69.2115 45.9799 68.1388C47.5778 67.0391 48.648 65.325 48.648 63.016H46.648ZM40.424 67.68C38.7278 67.68 37.1371 67.2724 36.0019 66.4912C34.9058 65.7369 34.2 64.619 34.2 63.016H32.2C32.2 65.325 33.2702 67.0391 34.8681 68.1388C36.4269 69.2115 38.4482 69.68 40.424 69.68V67.68ZM34.2 63.016V61.384H32.2V63.016H34.2ZM34.2 61.384C34.2 59.786 34.9123 58.751 35.986 58.08L34.926 56.384C33.3117 57.393 32.2 59.046 32.2 61.384H34.2ZM36.0533 56.43C35.158 55.7633 34.56 54.8031 34.56 53.392H32.56C32.56 55.4849 33.498 57.0207 34.8587 58.034L36.0533 56.43ZM34.56 53.392V52.432H32.56V53.392H34.56ZM34.56 52.432C34.56 50.781 35.2386 49.6931 36.2525 48.9815C37.3109 48.2386 38.8044 47.864 40.424 47.864V45.864C38.5396 45.864 36.6011 46.2933 35.1035 47.3445C33.5614 48.4269 32.56 50.123 32.56 52.432H34.56ZM40.424 47.864C42.0044 47.864 43.5007 48.2373 44.5712 48.9834C45.5982 49.6992 46.288 50.789 46.288 52.432H48.288C48.288 50.115 47.2618 48.4208 45.7148 47.3426C44.2113 46.2947 42.2756 45.864 40.424 45.864V47.864ZM46.288 52.432V53.392H48.288V52.432H46.288ZM46.288 53.392C46.288 54.8015 45.6919 55.7582 44.7788 56.424L45.9572 58.04C47.3481 57.0258 48.288 55.4865 48.288 53.392H46.288ZM37.072 52.624V53.656H39.072V52.624H37.072ZM37.072 53.656C37.072 54.5084 37.4507 55.258 38.0875 55.774C38.711 56.2792 39.5355 56.528 40.424 56.528V54.528C39.8965 54.528 39.545 54.3808 39.3465 54.22C39.1613 54.07 39.072 53.8836 39.072 53.656H37.072ZM40.424 56.528C41.3125 56.528 42.137 56.2792 42.7605 55.774C43.3973 55.258 43.776 54.5084 43.776 53.656H41.776C41.776 53.8836 41.6867 54.07 41.5015 54.22C41.303 54.3808 40.9515 54.528 40.424 54.528V56.528ZM43.776 53.656V52.624H41.776V53.656H43.776ZM43.776 52.624C43.776 51.7716 43.3973 51.022 42.7605 50.506C42.137 50.0008 41.3125 49.752 40.424 49.752V51.752C40.9515 51.752 41.303 51.8992 41.5015 52.06C41.6867 52.21 41.776 52.3964 41.776 52.624H43.776ZM40.424 49.752C39.5355 49.752 38.711 50.0008 38.0875 50.506C37.4507 51.022 37.072 51.7716 37.072 52.624H39.072C39.072 52.3964 39.1613 52.21 39.3465 52.06C39.545 51.8992 39.8965 51.752 40.424 51.752V49.752ZM44.088 62.512V61.456H42.088V62.512H44.088ZM44.088 61.456C44.088 60.5479 43.7584 59.6974 43.0674 59.0848C42.3884 58.4826 41.4628 58.2 40.424 58.2V60.2C41.1132 60.2 41.5196 60.3854 41.7406 60.5812C41.9496 60.7666 42.088 61.0441 42.088 61.456H44.088ZM40.424 58.2C39.3852 58.2 38.4596 58.4826 37.7806 59.0848C37.0896 59.6974 36.76 60.5479 36.76 61.456H38.76C38.76 61.0441 38.8984 60.7666 39.1074 60.5812C39.3284 60.3854 39.7348 60.2 40.424 60.2V58.2ZM36.76 61.456V62.512H38.76V61.456H36.76ZM36.76 62.512C36.76 63.4201 37.0896 64.2706 37.7806 64.8832C38.4596 65.4854 39.3852 65.768 40.424 65.768V63.768C39.7348 63.768 39.3284 63.5826 39.1074 63.3868C38.8984 63.2014 38.76 62.9239 38.76 62.512H36.76ZM40.424 65.768C41.4628 65.768 42.3884 65.4854 43.0674 64.8832C43.7584 64.2706 44.088 63.4201 44.088 62.512H42.088C42.088 62.9239 41.9496 63.2014 41.7406 63.3868C41.5196 63.5826 41.1132 63.768 40.424 63.768V65.768ZM63.1556 59.656H62.1556V60.656H63.1556V59.656ZM63.1556 57.472V56.472H62.1556V57.472H63.1556ZM69.7316 57.472V58.472H70.7316V57.472H69.7316ZM69.7316 46.432V45.432H68.7316V46.432H69.7316ZM74.2916 46.432H75.2916V45.432H74.2916V46.432ZM74.2916 60.184V61.184H75.2916V60.184H74.2916ZM69.7316 60.184H68.7316V61.184H69.7316V60.184ZM69.7316 59.656H70.7316V58.656H69.7316V59.656ZM61.5716 60.064V61.064H62.5716V60.064H61.5716ZM57.2756 60.064H56.2756V61.064H57.2756V60.064ZM57.2756 56.704H58.2756V55.704H57.2756V56.704ZM52.6916 56.704H51.6916V57.704H52.6916V56.704ZM52.6916 54.088V53.088H51.6916V54.088H52.6916ZM68.5556 53.8H69.5556V52.6377L68.4063 52.8112L68.5556 53.8ZM68.5556 56.416L68.7048 57.4048L69.5556 57.2764V56.416H68.5556ZM61.5716 56.704V55.704H60.5716V56.704H61.5716ZM58.8836 65.632V64.632H57.8836V65.632H58.8836ZM58.8836 66.4H57.8836V67.4H58.8836V66.4ZM74.6516 66.4H75.6516V65.4H74.6516V66.4ZM74.6516 68.824V69.824H75.6516V68.824H74.6516ZM54.1796 68.824H53.1796V69.824H54.1796V68.824ZM54.1796 63.664V62.664H53.1796V63.664H54.1796ZM69.7556 63.664V64.664H70.7556V63.664H69.7556ZM69.7556 62.92H70.7556V61.92H69.7556V62.92ZM54.1796 62.92H53.1796V63.92H54.1796V62.92ZM54.1796 60.544V59.544H53.1796V60.544H54.1796ZM74.2676 60.544H75.2676V59.544H74.2676V60.544ZM74.2676 65.632V66.632H75.2676V65.632H74.2676ZM64.1556 59.656V57.472H62.1556V59.656H64.1556ZM63.1556 58.472H69.7316V56.472H63.1556V58.472ZM70.7316 57.472V46.432H68.7316V57.472H70.7316ZM69.7316 47.432H74.2916V45.432H69.7316V47.432ZM73.2916 46.432V60.184H75.2916V46.432H73.2916ZM74.2916 59.184H69.7316V61.184H74.2916V59.184ZM70.7316 60.184V59.656H68.7316V60.184H70.7316ZM69.7316 58.656H63.1556V60.656H69.7316V58.656ZM63.3956 52.128H57.2516V54.128H63.3956V52.128ZM57.2516 52.128C56.1142 52.128 55.3586 51.8814 54.9098 51.5384C54.5017 51.2266 54.2436 50.7581 54.2436 50.008H52.2436C52.2436 51.2979 52.7295 52.3894 53.6954 53.1276C54.6206 53.8346 55.8689 54.128 57.2516 54.128V52.128ZM54.2436 50.008V49.936H52.2436V50.008H54.2436ZM54.2436 49.936C54.2436 49.1859 54.5017 48.7174 54.9098 48.4056C55.3586 48.0626 56.1142 47.816 57.2516 47.816V45.816C55.8689 45.816 54.6206 46.1094 53.6954 46.8164C52.7295 47.5546 52.2436 48.6461 52.2436 49.936H54.2436ZM57.2516 47.816H63.3956V45.816H57.2516V47.816ZM63.3956 47.816C64.5329 47.816 65.2886 48.0626 65.7374 48.4056C66.1455 48.7174 66.4036 49.1859 66.4036 49.936H68.4036C68.4036 48.6461 67.9177 47.5546 66.9518 46.8164C66.0266 46.1094 64.7782 45.816 63.3956 45.816V47.816ZM66.4036 49.936V50.008H68.4036V49.936H66.4036ZM66.4036 50.008C66.4036 50.7581 66.1455 51.2266 65.7374 51.5384C65.2886 51.8814 64.5329 52.128 63.3956 52.128V54.128C64.7782 54.128 66.0266 53.8346 66.9518 53.1276C67.9177 52.3894 68.4036 51.2979 68.4036 50.008H66.4036ZM56.6116 49.96V49.984H58.6116V49.96H56.6116ZM56.6116 49.984C56.6116 50.51 56.8143 51.0248 57.2566 51.3874C57.6737 51.7292 58.1957 51.848 58.6916 51.848V49.848C58.5963 49.848 58.5398 49.8363 58.5138 49.8286C58.489 49.8212 58.4991 49.8198 58.5245 49.8406C58.5522 49.8633 58.5793 49.8973 58.5967 49.9365C58.6131 49.9736 58.6116 49.9941 58.6116 49.984H56.6116ZM58.6916 51.848H61.9796V49.848H58.6916V51.848ZM61.9796 51.848C62.4751 51.848 62.9994 51.7292 63.4151 51.3769C63.8536 51.0053 64.0356 50.4892 64.0356 49.984H62.0356C62.0356 50.0025 62.0326 49.9874 62.0471 49.953C62.0629 49.9155 62.0898 49.8784 62.122 49.8511C62.1521 49.8256 62.1683 49.8241 62.1491 49.8299C62.1282 49.8363 62.0751 49.848 61.9796 49.848V51.848ZM64.0356 49.984V49.96H62.0356V49.984H64.0356ZM64.0356 49.96C64.0356 49.4534 63.86 48.9276 63.4075 48.5517C62.9853 48.2011 62.4583 48.096 61.9796 48.096V50.096C62.0814 50.096 62.1384 50.1077 62.1617 50.1144C62.183 50.1205 62.1641 50.1189 62.1297 50.0903C62.1128 50.0763 62.0955 50.0584 62.0799 50.0372C62.0643 50.016 62.0531 49.9953 62.0457 49.9774C62.0307 49.9416 62.0356 49.9299 62.0356 49.96H64.0356ZM61.9796 48.096H58.6916V50.096H61.9796V48.096ZM58.6916 48.096C58.2122 48.096 57.6877 48.2013 57.2643 48.5414C56.8075 48.9083 56.6116 49.4325 56.6116 49.96H58.6116C58.6116 49.938 58.6152 49.9551 58.5982 49.9938C58.5798 50.0358 58.5496 50.0743 58.5168 50.1006C58.4872 50.1244 58.4745 50.1232 58.5014 50.1156C58.5296 50.1076 58.59 50.096 58.6916 50.096V48.096ZM61.5716 59.064H57.2756V61.064H61.5716V59.064ZM58.2756 60.064V56.704H56.2756V60.064H58.2756ZM57.2756 55.704H52.6916V57.704H57.2756V55.704ZM53.6916 56.704V54.088H51.6916V56.704H53.6916ZM52.6916 55.088H63.5156V53.088H52.6916V55.088ZM63.5156 55.088C66.0165 55.088 67.3662 54.9908 68.7048 54.7888L68.4063 52.8112C67.2009 52.9931 65.9587 53.088 63.5156 53.088V55.088ZM67.5556 53.8V56.416H69.5556V53.8H67.5556ZM68.4063 55.4272C67.2009 55.6091 65.9587 55.704 63.5156 55.704V57.704C66.0165 57.704 67.3662 57.6068 68.7048 57.4048L68.4063 55.4272ZM63.5156 55.704H61.5716V57.704H63.5156V55.704ZM60.5716 56.704V60.064H62.5716V56.704H60.5716ZM57.8836 65.632V66.4H59.8836V65.632H57.8836ZM58.8836 67.4H74.6516V65.4H58.8836V67.4ZM73.6516 66.4V68.824H75.6516V66.4H73.6516ZM74.6516 67.824H54.1796V69.824H74.6516V67.824ZM55.1796 68.824V63.664H53.1796V68.824H55.1796ZM54.1796 64.664H69.7556V62.664H54.1796V64.664ZM70.7556 63.664V62.92H68.7556V63.664H70.7556ZM69.7556 61.92H54.1796V63.92H69.7556V61.92ZM55.1796 62.92V60.544H53.1796V62.92H55.1796ZM54.1796 61.544H74.2676V59.544H54.1796V61.544ZM73.2676 60.544V65.632H75.2676V60.544H73.2676ZM74.2676 64.632H58.8836V66.632H74.2676V64.632Z" fill="white" mask="url(#path-4-outside-1_2631_12856)"/>
<rect x="16.5" y="10.5" width="74" height="19" fill="white"/>
<rect x="16.5" y="10.5" width="74" height="19" stroke="#D9D9D9"/>
<path d="M24.0711 19.7632C24.0711 21.1332 22.9566 21.9342 21.2383 21.9342C19.5201 21.9342 18.4056 21.1332 18.4056 19.7632C18.4056 18.3933 19.5201 17.5922 21.2383 17.5922C22.9566 17.5922 24.0711 18.3933 24.0711 19.7632ZM28.8195 18.5558V19.1015H27.1825V23.2578H25.4411V15.1077H27.1825V18.5558H28.8195ZM19.2995 22.6192H21.041V24.7554C21.041 24.9412 21.1571 25.0457 21.3428 25.0457H27.3567V25.5797H20.4024C19.822 25.5797 19.2995 25.3127 19.2995 24.767V22.6192ZM24.582 17.1278H17.8367V16.5938H20.3676V14.8407H22.1091V16.5938H24.582V17.1278ZM22.4574 19.7632C22.4574 18.6371 21.9465 18.1379 21.2383 18.1379C20.5301 18.1379 20.0193 18.6371 20.0193 19.7632C20.0193 20.8894 20.5301 21.3886 21.2383 21.3886C21.9465 21.3886 22.4574 20.8894 22.4574 19.7632ZM37.184 25.6378V21.6208H35.4077C34.9897 23.0372 34.0726 23.6293 32.6678 23.6293C30.7173 23.6293 29.6841 22.4799 29.6841 19.5775C29.6841 16.675 30.7173 15.5257 32.6678 15.5257C34.0377 15.5257 34.9549 16.0945 35.3729 17.4413H37.184V15.1077H38.9254V25.6378H37.184ZM31.4139 19.5775C31.4139 22.1897 31.8319 23.0952 32.6678 23.0952C33.5037 23.0952 33.9216 22.1897 33.9216 19.5775C33.9216 16.9653 33.5037 16.0597 32.6678 16.0597C31.8319 16.0597 31.4139 16.9653 31.4139 19.5775ZM35.6515 19.5775C35.6515 20.1463 35.6051 20.6456 35.5354 21.0751H37.184V17.9869H35.5122C35.6051 18.4513 35.6515 18.9738 35.6515 19.5775ZM49.9834 25.6378H43.0059C42.437 25.6378 41.9146 25.3823 41.9146 24.8251V22.2477H49.9834V25.6378ZM43.6561 22.7818V24.8135C43.6561 25.0108 43.7722 25.1037 43.9579 25.1037H48.2419V22.7818H43.6561ZM50.1227 19.473H42.9943C42.4138 19.473 41.9494 19.264 41.9494 18.7183V17.0233H48.2187V15.8043H41.9494V15.2702H49.9485V17.569H43.6793V18.6835C43.6793 18.8693 43.7722 18.9389 43.9463 18.9389H50.1227V19.473ZM40.6375 20.5643H51.2721V21.0983H40.6375V20.5643ZM52.5197 18.312C52.5197 16.5357 53.8316 15.4908 55.7472 15.4908C57.6629 15.4908 58.9748 16.5357 58.9748 18.312C58.9748 20.0883 57.6629 21.1332 55.7472 21.1332C53.8316 21.1332 52.5197 20.0883 52.5197 18.312ZM51.9044 23.6873V23.1417H56.7109C58.1853 23.1417 59.3231 23.0023 60.0545 22.8514V15.1077H61.7959V25.6378H60.0545V23.4087C59.4856 23.5248 58.255 23.6873 56.7109 23.6873H51.9044ZM54.2496 18.312C54.2496 19.7052 54.7488 20.5991 55.7472 20.5991C56.7457 20.5991 57.2449 19.7052 57.2449 18.312C57.2449 16.9188 56.7457 16.0249 55.7472 16.0249C54.7488 16.0249 54.2496 16.9188 54.2496 18.312ZM76.3577 20.9242L72.1434 18.9041C71.203 19.7864 69.566 20.425 67.6969 20.9242L67.5227 20.3785C69.8795 19.5078 71.2494 18.6139 71.2494 17.1394V16.9885H67.8246V16.4544H71.2494V14.5969H72.9793V16.4544H76.4042V16.9885H72.9793V17.1626C72.9793 17.7083 72.7703 18.1843 72.4104 18.6139C72.7007 18.4281 73.107 18.3817 73.5946 18.5558L76.8686 19.7284L76.3577 20.9242ZM66.8842 21.7137H77.5187V22.2593H73.0722V25.6378H71.3307V22.2593H66.8842V21.7137ZM87.9265 15.1077V21.168H86.185V18.2191H84.6061C84.5016 19.74 83.4103 20.692 81.6572 20.692C79.7997 20.692 78.6967 19.6239 78.6967 17.9637C78.6967 16.3035 79.7997 15.2354 81.6572 15.2354C83.3987 15.2354 84.4784 16.1874 84.6061 17.6735H86.185V15.1077H87.9265ZM79.8113 22.3522V21.8065H87.9265V25.6958H86.185V22.3522H79.8113ZM80.4266 17.9637C80.4266 19.2988 80.7981 20.158 81.6572 20.158C82.5164 20.158 82.8879 19.2988 82.8879 17.9637C82.8879 16.6286 82.5164 15.7695 81.6572 15.7695C80.7981 15.7695 80.4266 16.6286 80.4266 17.9637Z" fill="black"/>
</svg>
