<svg width="100" height="120" viewBox="0 0 100 120" fill="none" xmlns="http://www.w3.org/2000/svg">
<rect width="100" height="120" rx="4" fill="#F7D7B7"/>
<path d="M8 0.5V120" stroke="white"/>
<mask id="path-3-outside-1_2631_12830" maskUnits="userSpaceOnUse" x="31" y="45" width="44" height="25" fill="black">
<rect fill="white" x="31" y="45" width="44" height="25"/>
<path d="M46.016 51.208L41.48 55.6C44.624 55.936 46.808 58.36 46.808 61.384V62.032C46.808 66.304 43.424 68.68 39.488 68.68C35.816 68.68 32.984 66.592 32.48 63.328L36.536 62.464C36.872 63.76 38 64.648 39.488 64.648C41.072 64.648 42.344 63.64 42.344 61.792V61.624C42.344 59.8 41.072 58.72 38.888 58.72H36.224V55.552L40.712 51.208H33.632V47.248H46.016V51.208ZM61.8431 59.656V57.472H68.4191V46.432H72.9791V60.184H68.4191V59.656H61.8431ZM62.0831 53.128H55.9391C53.4191 53.128 51.9311 52.048 51.9311 50.008V49.936C51.9311 47.896 53.4191 46.816 55.9391 46.816H62.0831C64.6031 46.816 66.0911 47.896 66.0911 49.936V50.008C66.0911 52.048 64.6031 53.128 62.0831 53.128ZM56.2991 49.96V49.984C56.2991 50.512 56.6831 50.848 57.3791 50.848H60.6671C61.3631 50.848 61.7231 50.512 61.7231 49.984V49.96C61.7231 49.408 61.3631 49.096 60.6671 49.096H57.3791C56.6831 49.096 56.2991 49.408 56.2991 49.96ZM60.2591 60.064H55.9631V56.704H51.3791V54.088H62.2031C64.6751 54.088 65.9711 53.992 67.2431 53.8V56.416C65.9711 56.608 64.6751 56.704 62.2031 56.704H60.2591V60.064ZM57.5711 65.632V66.4H73.3391V68.824H52.8671V63.664H68.4431V62.92H52.8671V60.544H72.9551V65.632H57.5711Z"/>
</mask>
<path d="M46.016 51.208L41.48 55.6C44.624 55.936 46.808 58.36 46.808 61.384V62.032C46.808 66.304 43.424 68.68 39.488 68.68C35.816 68.68 32.984 66.592 32.48 63.328L36.536 62.464C36.872 63.76 38 64.648 39.488 64.648C41.072 64.648 42.344 63.64 42.344 61.792V61.624C42.344 59.8 41.072 58.72 38.888 58.72H36.224V55.552L40.712 51.208H33.632V47.248H46.016V51.208ZM61.8431 59.656V57.472H68.4191V46.432H72.9791V60.184H68.4191V59.656H61.8431ZM62.0831 53.128H55.9391C53.4191 53.128 51.9311 52.048 51.9311 50.008V49.936C51.9311 47.896 53.4191 46.816 55.9391 46.816H62.0831C64.6031 46.816 66.0911 47.896 66.0911 49.936V50.008C66.0911 52.048 64.6031 53.128 62.0831 53.128ZM56.2991 49.96V49.984C56.2991 50.512 56.6831 50.848 57.3791 50.848H60.6671C61.3631 50.848 61.7231 50.512 61.7231 49.984V49.96C61.7231 49.408 61.3631 49.096 60.6671 49.096H57.3791C56.6831 49.096 56.2991 49.408 56.2991 49.96ZM60.2591 60.064H55.9631V56.704H51.3791V54.088H62.2031C64.6751 54.088 65.9711 53.992 67.2431 53.8V56.416C65.9711 56.608 64.6751 56.704 62.2031 56.704H60.2591V60.064ZM57.5711 65.632V66.4H73.3391V68.824H52.8671V63.664H68.4431V62.92H52.8671V60.544H72.9551V65.632H57.5711Z" fill="#56AFA9"/>
<path d="M46.016 51.208L46.7116 51.9264L47.016 51.6317V51.208H46.016ZM41.48 55.6L40.7844 54.8816L39.2499 56.3674L41.3737 56.5943L41.48 55.6ZM32.48 63.328L32.2717 62.3499L31.3475 62.5468L31.4917 63.4806L32.48 63.328ZM36.536 62.464L37.504 62.213L37.2638 61.2865L36.3277 61.4859L36.536 62.464ZM36.224 58.72H35.224V59.72H36.224V58.72ZM36.224 55.552L35.5285 54.8335L35.224 55.1282V55.552H36.224ZM40.712 51.208L41.4075 51.9265L43.183 50.208H40.712V51.208ZM33.632 51.208H32.632V52.208H33.632V51.208ZM33.632 47.248V46.248H32.632V47.248H33.632ZM46.016 47.248H47.016V46.248H46.016V47.248ZM45.3204 50.4896L40.7844 54.8816L42.1756 56.3184L46.7116 51.9264L45.3204 50.4896ZM41.3737 56.5943C44.0256 56.8777 45.808 58.8872 45.808 61.384H47.808C47.808 57.8328 45.2224 54.9943 41.5863 54.6057L41.3737 56.5943ZM45.808 61.384V62.032H47.808V61.384H45.808ZM45.808 62.032C45.808 63.8793 45.0875 65.2593 43.9794 66.1934C42.8523 67.1437 41.2633 67.68 39.488 67.68V69.68C41.6487 69.68 43.7197 69.0283 45.2686 67.7226C46.8365 66.4007 47.808 64.4567 47.808 62.032H45.808ZM39.488 67.68C36.1977 67.68 33.8811 65.8491 33.4683 63.1754L31.4917 63.4806C32.0869 67.3349 35.4343 69.68 39.488 69.68V67.68ZM32.6883 64.3061L36.7443 63.4421L36.3277 61.4859L32.2717 62.3499L32.6883 64.3061ZM35.568 62.715C36.0239 64.4733 37.5668 65.648 39.488 65.648V63.648C38.4332 63.648 37.7201 63.0467 37.504 62.213L35.568 62.715ZM39.488 65.648C40.4892 65.648 41.4619 65.3277 42.1934 64.6431C42.9354 63.9485 43.344 62.958 43.344 61.792H41.344C41.344 62.474 41.1166 62.9115 40.8266 63.1829C40.5261 63.4643 40.0708 63.648 39.488 63.648V65.648ZM43.344 61.792V61.624H41.344V61.792H43.344ZM43.344 61.624C43.344 60.4631 42.9288 59.439 42.0794 58.7233C41.2531 58.0271 40.1324 57.72 38.888 57.72V59.72C39.8276 59.72 40.4349 59.9529 40.7906 60.2527C41.1232 60.533 41.344 60.9609 41.344 61.624H43.344ZM38.888 57.72H36.224V59.72H38.888V57.72ZM37.224 58.72V55.552H35.224V58.72H37.224ZM36.9195 56.2705L41.4075 51.9265L40.0165 50.4895L35.5285 54.8335L36.9195 56.2705ZM40.712 50.208H33.632V52.208H40.712V50.208ZM34.632 51.208V47.248H32.632V51.208H34.632ZM33.632 48.248H46.016V46.248H33.632V48.248ZM45.016 47.248V51.208H47.016V47.248H45.016ZM61.8431 59.656H60.8431V60.656H61.8431V59.656ZM61.8431 57.472V56.472H60.8431V57.472H61.8431ZM68.4191 57.472V58.472H69.4191V57.472H68.4191ZM68.4191 46.432V45.432H67.4191V46.432H68.4191ZM72.9791 46.432H73.9791V45.432H72.9791V46.432ZM72.9791 60.184V61.184H73.9791V60.184H72.9791ZM68.4191 60.184H67.4191V61.184H68.4191V60.184ZM68.4191 59.656H69.4191V58.656H68.4191V59.656ZM60.2591 60.064V61.064H61.2591V60.064H60.2591ZM55.9631 60.064H54.9631V61.064H55.9631V60.064ZM55.9631 56.704H56.9631V55.704H55.9631V56.704ZM51.3791 56.704H50.3791V57.704H51.3791V56.704ZM51.3791 54.088V53.088H50.3791V54.088H51.3791ZM67.2431 53.8H68.2431V52.6377L67.0938 52.8112L67.2431 53.8ZM67.2431 56.416L67.3923 57.4048L68.2431 57.2764V56.416H67.2431ZM60.2591 56.704V55.704H59.2591V56.704H60.2591ZM57.5711 65.632V64.632H56.5711V65.632H57.5711ZM57.5711 66.4H56.5711V67.4H57.5711V66.4ZM73.3391 66.4H74.3391V65.4H73.3391V66.4ZM73.3391 68.824V69.824H74.3391V68.824H73.3391ZM52.8671 68.824H51.8671V69.824H52.8671V68.824ZM52.8671 63.664V62.664H51.8671V63.664H52.8671ZM68.4431 63.664V64.664H69.4431V63.664H68.4431ZM68.4431 62.92H69.4431V61.92H68.4431V62.92ZM52.8671 62.92H51.8671V63.92H52.8671V62.92ZM52.8671 60.544V59.544H51.8671V60.544H52.8671ZM72.9551 60.544H73.9551V59.544H72.9551V60.544ZM72.9551 65.632V66.632H73.9551V65.632H72.9551ZM62.8431 59.656V57.472H60.8431V59.656H62.8431ZM61.8431 58.472H68.4191V56.472H61.8431V58.472ZM69.4191 57.472V46.432H67.4191V57.472H69.4191ZM68.4191 47.432H72.9791V45.432H68.4191V47.432ZM71.9791 46.432V60.184H73.9791V46.432H71.9791ZM72.9791 59.184H68.4191V61.184H72.9791V59.184ZM69.4191 60.184V59.656H67.4191V60.184H69.4191ZM68.4191 58.656H61.8431V60.656H68.4191V58.656ZM62.0831 52.128H55.9391V54.128H62.0831V52.128ZM55.9391 52.128C54.8017 52.128 54.0461 51.8814 53.5973 51.5384C53.1892 51.2266 52.9311 50.7581 52.9311 50.008H50.9311C50.9311 51.2979 51.417 52.3894 52.3829 53.1276C53.3081 53.8346 54.5564 54.128 55.9391 54.128V52.128ZM52.9311 50.008V49.936H50.9311V50.008H52.9311ZM52.9311 49.936C52.9311 49.1859 53.1892 48.7174 53.5973 48.4056C54.0461 48.0626 54.8017 47.816 55.9391 47.816V45.816C54.5564 45.816 53.3081 46.1094 52.3829 46.8164C51.417 47.5546 50.9311 48.6461 50.9311 49.936H52.9311ZM55.9391 47.816H62.0831V45.816H55.9391V47.816ZM62.0831 47.816C63.2204 47.816 63.9761 48.0626 64.4249 48.4056C64.833 48.7174 65.0911 49.1859 65.0911 49.936H67.0911C67.0911 48.6461 66.6052 47.5546 65.6393 46.8164C64.7141 46.1094 63.4657 45.816 62.0831 45.816V47.816ZM65.0911 49.936V50.008H67.0911V49.936H65.0911ZM65.0911 50.008C65.0911 50.7581 64.833 51.2266 64.4249 51.5384C63.9761 51.8814 63.2204 52.128 62.0831 52.128V54.128C63.4657 54.128 64.7141 53.8346 65.6393 53.1276C66.6052 52.3894 67.0911 51.2979 67.0911 50.008H65.0911ZM55.2991 49.96V49.984H57.2991V49.96H55.2991ZM55.2991 49.984C55.2991 50.51 55.5018 51.0248 55.9441 51.3874C56.3612 51.7292 56.8832 51.848 57.3791 51.848V49.848C57.2838 49.848 57.2273 49.8363 57.2013 49.8286C57.1765 49.8212 57.1866 49.8198 57.212 49.8406C57.2397 49.8633 57.2668 49.8973 57.2842 49.9365C57.3006 49.9736 57.2991 49.9941 57.2991 49.984H55.2991ZM57.3791 51.848H60.6671V49.848H57.3791V51.848ZM60.6671 51.848C61.1626 51.848 61.6869 51.7292 62.1026 51.3769C62.5411 51.0053 62.7231 50.4892 62.7231 49.984H60.7231C60.7231 50.0025 60.7201 49.9874 60.7346 49.953C60.7504 49.9155 60.7773 49.8784 60.8095 49.8511C60.8396 49.8256 60.8558 49.8241 60.8366 49.8299C60.8157 49.8363 60.7626 49.848 60.6671 49.848V51.848ZM62.7231 49.984V49.96H60.7231V49.984H62.7231ZM62.7231 49.96C62.7231 49.4534 62.5475 48.9276 62.095 48.5517C61.6728 48.2011 61.1458 48.096 60.6671 48.096V50.096C60.7689 50.096 60.8259 50.1077 60.8492 50.1144C60.8705 50.1205 60.8516 50.1189 60.8172 50.0903C60.8003 50.0763 60.783 50.0584 60.7674 50.0372C60.7518 50.016 60.7406 49.9953 60.7332 49.9774C60.7182 49.9416 60.7231 49.9299 60.7231 49.96H62.7231ZM60.6671 48.096H57.3791V50.096H60.6671V48.096ZM57.3791 48.096C56.8997 48.096 56.3752 48.2013 55.9518 48.5414C55.495 48.9083 55.2991 49.4325 55.2991 49.96H57.2991C57.2991 49.938 57.3027 49.9551 57.2857 49.9938C57.2673 50.0358 57.2371 50.0743 57.2043 50.1006C57.1747 50.1244 57.162 50.1232 57.1889 50.1156C57.2171 50.1076 57.2775 50.096 57.3791 50.096V48.096ZM60.2591 59.064H55.9631V61.064H60.2591V59.064ZM56.9631 60.064V56.704H54.9631V60.064H56.9631ZM55.9631 55.704H51.3791V57.704H55.9631V55.704ZM52.3791 56.704V54.088H50.3791V56.704H52.3791ZM51.3791 55.088H62.2031V53.088H51.3791V55.088ZM62.2031 55.088C64.704 55.088 66.0537 54.9908 67.3923 54.7888L67.0938 52.8112C65.8884 52.9931 64.6462 53.088 62.2031 53.088V55.088ZM66.2431 53.8V56.416H68.2431V53.8H66.2431ZM67.0938 55.4272C65.8884 55.6091 64.6462 55.704 62.2031 55.704V57.704C64.704 57.704 66.0537 57.6068 67.3923 57.4048L67.0938 55.4272ZM62.2031 55.704H60.2591V57.704H62.2031V55.704ZM59.2591 56.704V60.064H61.2591V56.704H59.2591ZM56.5711 65.632V66.4H58.5711V65.632H56.5711ZM57.5711 67.4H73.3391V65.4H57.5711V67.4ZM72.3391 66.4V68.824H74.3391V66.4H72.3391ZM73.3391 67.824H52.8671V69.824H73.3391V67.824ZM53.8671 68.824V63.664H51.8671V68.824H53.8671ZM52.8671 64.664H68.4431V62.664H52.8671V64.664ZM69.4431 63.664V62.92H67.4431V63.664H69.4431ZM68.4431 61.92H52.8671V63.92H68.4431V61.92ZM53.8671 62.92V60.544H51.8671V62.92H53.8671ZM52.8671 61.544H72.9551V59.544H52.8671V61.544ZM71.9551 60.544V65.632H73.9551V60.544H71.9551ZM72.9551 64.632H57.5711V66.632H72.9551V64.632Z" fill="white" mask="url(#path-3-outside-1_2631_12830)"/>
<rect x="16.5" y="10.5" width="74" height="19" fill="white"/>
<rect x="16.5" y="10.5" width="74" height="19" stroke="#D9D9D9"/>
<path d="M28.8715 20.6223H33.318V19.2988H31.2747C30.7059 19.2988 30.1834 19.0434 30.1834 18.4861V15.2702H31.9249V16.7563H36.4411V15.2702H38.1825V19.2988H35.0595V20.6223H39.506V21.1564H28.8715V20.6223ZM38.2174 25.6378H31.2399C30.671 25.6378 30.1486 25.3823 30.1486 24.8251V22.1316H38.2174V25.6378ZM31.89 22.6657V24.8135C31.89 25.0108 32.0061 25.1037 32.1919 25.1037H36.4759V22.6657H31.89ZM36.4411 18.7648V17.2903H31.9249V18.4745C31.9249 18.6719 32.041 18.7648 32.2267 18.7648H36.4411ZM40.7537 18.312C40.7537 16.5357 42.0656 15.4908 43.9812 15.4908C45.8969 15.4908 47.2088 16.5357 47.2088 18.312C47.2088 20.0883 45.8969 21.1332 43.9812 21.1332C42.0656 21.1332 40.7537 20.0883 40.7537 18.312ZM40.1384 23.6873V23.1417H44.9449C46.4193 23.1417 47.5571 23.0023 48.2885 22.8514V15.1077H50.0299V25.6378H48.2885V23.4087C47.7196 23.5248 46.489 23.6873 44.9449 23.6873H40.1384ZM42.4836 18.312C42.4836 19.7052 42.9828 20.5991 43.9812 20.5991C44.9797 20.5991 45.4789 19.7052 45.4789 18.312C45.4789 16.9188 44.9797 16.0249 43.9812 16.0249C42.9828 16.0249 42.4836 16.9188 42.4836 18.312ZM63.0476 25.6378V15.1077H64.7891V25.6378H63.0476ZM59.4138 15.5837V18.5326C59.4138 19.0318 59.3325 19.5078 59.1816 19.9606C59.5299 19.798 59.9362 19.8793 60.2961 20.2973L62.3627 22.7353L61.2133 23.5712L59.0307 20.3205C58.3805 21.8298 56.9293 22.9791 55.2575 23.5828L54.9672 23.0372C56.9525 21.8298 57.6723 20.3437 57.6723 18.37V15.5837H59.4138ZM72.5847 20.9242L70.2279 18.6022C69.4965 19.8213 68.0104 20.6572 66.4663 21.0403L66.2806 20.5179C67.906 19.8097 68.9741 18.7183 68.9741 17.0465V15.9552H66.7334V15.4096H72.8865V15.9552H70.7039V16.942C70.7039 17.4529 70.5762 17.9173 70.3672 18.3468C70.6923 18.1262 71.1567 18.1727 71.4934 18.4513L73.3858 20.1115L72.5847 20.9242ZM77.4492 17.6967V18.2423H75.8122V21.168H74.0707V15.1077H75.8122V17.6967H77.4492ZM67.8131 22.3522V21.8065H75.8122V25.6958H74.0707V22.3522H67.8131Z" fill="black"/>
</svg>
