<svg width="100" height="120" viewBox="0 0 100 120" fill="none" xmlns="http://www.w3.org/2000/svg">
<path d="M0 4C0 1.79086 1.79086 0 4 0H96C98.2091 0 100 1.79086 100 4V116C100 118.209 98.2091 120 96 120H4C1.79086 120 0 118.209 0 116V4Z" fill="#1D8DA5"/>
<path d="M8 0.5V120" stroke="white"/>
<rect x="16.5" y="10.5" width="74" height="19" fill="white"/>
<rect x="16.5" y="10.5" width="74" height="19" stroke="#D9D9D9"/>
<path d="M36.3134 15.1658V18.1379H37.1144V15.1077H38.705V22.5031H37.1144V18.6835H36.3134V21.6904H34.746V15.1658H36.3134ZM33.9682 19.6123C33.9682 20.8081 33.1671 21.7369 31.5418 21.7369C29.9164 21.7369 29.1153 20.8081 29.1153 19.6123C29.1153 18.4165 29.9164 17.4877 31.5418 17.4877C33.1671 17.4877 33.9682 18.4165 33.9682 19.6123ZM38.7514 25.7539L34.6183 24.0588C33.6663 24.9296 31.8436 25.452 29.9628 25.7539L29.8583 25.2198C32.1339 24.6161 33.5619 24.0008 33.5619 22.5612V22.0387H35.2917V22.6192C35.2917 23.014 35.164 23.3622 34.9434 23.6757C35.2569 23.5016 35.6632 23.5132 36.0115 23.6177L39.181 24.6161L38.7514 25.7539ZM34.3049 17.0581H28.7206V16.5241H30.671V14.8059H32.4125V16.5241H34.3049V17.0581ZM32.3544 19.6123C32.3544 18.6255 32.0874 18.0334 31.5418 18.0334C30.9961 18.0334 30.7291 18.6255 30.7291 19.6123C30.7291 20.5991 30.9961 21.1912 31.5418 21.1912C32.0874 21.1912 32.3544 20.5991 32.3544 19.6123ZM49.7397 25.6958H42.6693C42.0889 25.6958 41.6245 25.5217 41.6245 24.9412V23.0604H47.8241V21.644H41.6245V21.11H49.5655V23.5944H43.3659V24.9063C43.3659 25.1037 43.4472 25.1618 43.633 25.1618H49.7397V25.6958ZM46.2916 20.4018L43.8884 18.1843C43.1686 19.3337 41.729 20.0767 40.2197 20.4598L40.0339 19.9374C41.6593 19.2292 42.6461 18.254 42.6461 16.5821V15.2354H44.3876V16.4777C44.3876 17.0233 44.2483 17.5109 44.0161 17.9521C44.3528 17.7199 44.8171 17.7896 45.1422 18.0334L47.0462 19.5426L46.2916 20.4018ZM51.2025 17.4297V17.9753H49.5655V20.5295H47.8241V15.1077H49.5655V17.4297H51.2025ZM66.0662 19.0666V19.6123H64.3712V25.6378H62.6297V15.1077H64.3712V19.0666H66.0662ZM55.4897 23.5944L55.3388 23.0488C58.3109 21.9923 59.5183 19.8213 59.5183 17.6502V16.2571H55.7799V15.6998H61.2597V17.6735C61.2597 20.3205 58.9726 22.805 55.4897 23.5944ZM75.8122 15.8623H69.5545V18.4745C69.5545 18.6719 69.6706 18.7648 69.8564 18.7648H75.9283V19.2988H68.9044C68.3355 19.2988 67.8131 19.0434 67.8131 18.4861V15.3283H75.8122V15.8623ZM75.847 25.6958H74.1056V22.7934H67.7202V22.2477H75.847V25.6958ZM66.5012 20.4714H77.1357V21.0055H66.5012V20.4714Z" fill="black"/>
<mask id="path-5-outside-1_2631_12851" maskUnits="userSpaceOnUse" x="32" y="45" width="43" height="25" fill="black">
<rect fill="white" x="32" y="45" width="43" height="25"/>
<path d="M33.6 51.352V47.248H47.16V50.776L41.184 68.296H36.456L42.384 51.352H33.6ZM62.0696 59.656V57.472H68.6456V46.432H73.2056V60.184H68.6456V59.656H62.0696ZM62.3096 53.128H56.1656C53.6456 53.128 52.1576 52.048 52.1576 50.008V49.936C52.1576 47.896 53.6456 46.816 56.1656 46.816H62.3096C64.8296 46.816 66.3176 47.896 66.3176 49.936V50.008C66.3176 52.048 64.8296 53.128 62.3096 53.128ZM56.5256 49.96V49.984C56.5256 50.512 56.9096 50.848 57.6056 50.848H60.8936C61.5896 50.848 61.9496 50.512 61.9496 49.984V49.96C61.9496 49.408 61.5896 49.096 60.8936 49.096H57.6056C56.9096 49.096 56.5256 49.408 56.5256 49.96ZM60.4856 60.064H56.1896V56.704H51.6056V54.088H62.4296C64.9016 54.088 66.1976 53.992 67.4696 53.8V56.416C66.1976 56.608 64.9016 56.704 62.4296 56.704H60.4856V60.064ZM57.7976 65.632V66.4H73.5656V68.824H53.0936V63.664H68.6696V62.92H53.0936V60.544H73.1816V65.632H57.7976Z"/>
</mask>
<path d="M33.6 51.352V47.248H47.16V50.776L41.184 68.296H36.456L42.384 51.352H33.6ZM62.0696 59.656V57.472H68.6456V46.432H73.2056V60.184H68.6456V59.656H62.0696ZM62.3096 53.128H56.1656C53.6456 53.128 52.1576 52.048 52.1576 50.008V49.936C52.1576 47.896 53.6456 46.816 56.1656 46.816H62.3096C64.8296 46.816 66.3176 47.896 66.3176 49.936V50.008C66.3176 52.048 64.8296 53.128 62.3096 53.128ZM56.5256 49.96V49.984C56.5256 50.512 56.9096 50.848 57.6056 50.848H60.8936C61.5896 50.848 61.9496 50.512 61.9496 49.984V49.96C61.9496 49.408 61.5896 49.096 60.8936 49.096H57.6056C56.9096 49.096 56.5256 49.408 56.5256 49.96ZM60.4856 60.064H56.1896V56.704H51.6056V54.088H62.4296C64.9016 54.088 66.1976 53.992 67.4696 53.8V56.416C66.1976 56.608 64.9016 56.704 62.4296 56.704H60.4856V60.064ZM57.7976 65.632V66.4H73.5656V68.824H53.0936V63.664H68.6696V62.92H53.0936V60.544H73.1816V65.632H57.7976Z" fill="#DED1B3"/>
<path d="M33.6 51.352H32.6V52.352H33.6V51.352ZM33.6 47.248V46.248H32.6V47.248H33.6ZM47.16 47.248H48.16V46.248H47.16V47.248ZM47.16 50.776L48.1065 51.0988L48.16 50.9419V50.776H47.16ZM41.184 68.296V69.296H41.8995L42.1305 68.6188L41.184 68.296ZM36.456 68.296L35.5121 67.9658L35.0467 69.296H36.456V68.296ZM42.384 51.352L43.3279 51.6822L43.7933 50.352H42.384V51.352ZM34.6 51.352V47.248H32.6V51.352H34.6ZM33.6 48.248H47.16V46.248H33.6V48.248ZM46.16 47.248V50.776H48.16V47.248H46.16ZM46.2135 50.4532L40.2375 67.9732L42.1305 68.6188L48.1065 51.0988L46.2135 50.4532ZM41.184 67.296H36.456V69.296H41.184V67.296ZM37.3999 68.6262L43.3279 51.6822L41.4401 51.0218L35.5121 67.9658L37.3999 68.6262ZM42.384 50.352H33.6V52.352H42.384V50.352ZM62.0696 59.656H61.0696V60.656H62.0696V59.656ZM62.0696 57.472V56.472H61.0696V57.472H62.0696ZM68.6456 57.472V58.472H69.6456V57.472H68.6456ZM68.6456 46.432V45.432H67.6456V46.432H68.6456ZM73.2056 46.432H74.2056V45.432H73.2056V46.432ZM73.2056 60.184V61.184H74.2056V60.184H73.2056ZM68.6456 60.184H67.6456V61.184H68.6456V60.184ZM68.6456 59.656H69.6456V58.656H68.6456V59.656ZM60.4856 60.064V61.064H61.4856V60.064H60.4856ZM56.1896 60.064H55.1896V61.064H56.1896V60.064ZM56.1896 56.704H57.1896V55.704H56.1896V56.704ZM51.6056 56.704H50.6056V57.704H51.6056V56.704ZM51.6056 54.088V53.088H50.6056V54.088H51.6056ZM67.4696 53.8H68.4696V52.6377L67.3204 52.8112L67.4696 53.8ZM67.4696 56.416L67.6189 57.4048L68.4696 57.2764V56.416H67.4696ZM60.4856 56.704V55.704H59.4856V56.704H60.4856ZM57.7976 65.632V64.632H56.7976V65.632H57.7976ZM57.7976 66.4H56.7976V67.4H57.7976V66.4ZM73.5656 66.4H74.5656V65.4H73.5656V66.4ZM73.5656 68.824V69.824H74.5656V68.824H73.5656ZM53.0936 68.824H52.0936V69.824H53.0936V68.824ZM53.0936 63.664V62.664H52.0936V63.664H53.0936ZM68.6696 63.664V64.664H69.6696V63.664H68.6696ZM68.6696 62.92H69.6696V61.92H68.6696V62.92ZM53.0936 62.92H52.0936V63.92H53.0936V62.92ZM53.0936 60.544V59.544H52.0936V60.544H53.0936ZM73.1816 60.544H74.1816V59.544H73.1816V60.544ZM73.1816 65.632V66.632H74.1816V65.632H73.1816ZM63.0696 59.656V57.472H61.0696V59.656H63.0696ZM62.0696 58.472H68.6456V56.472H62.0696V58.472ZM69.6456 57.472V46.432H67.6456V57.472H69.6456ZM68.6456 47.432H73.2056V45.432H68.6456V47.432ZM72.2056 46.432V60.184H74.2056V46.432H72.2056ZM73.2056 59.184H68.6456V61.184H73.2056V59.184ZM69.6456 60.184V59.656H67.6456V60.184H69.6456ZM68.6456 58.656H62.0696V60.656H68.6456V58.656ZM62.3096 52.128H56.1656V54.128H62.3096V52.128ZM56.1656 52.128C55.0283 52.128 54.2726 51.8814 53.8238 51.5384C53.4157 51.2266 53.1576 50.7581 53.1576 50.008H51.1576C51.1576 51.2979 51.6435 52.3894 52.6094 53.1276C53.5346 53.8346 54.783 54.128 56.1656 54.128V52.128ZM53.1576 50.008V49.936H51.1576V50.008H53.1576ZM53.1576 49.936C53.1576 49.1859 53.4157 48.7174 53.8238 48.4056C54.2726 48.0626 55.0283 47.816 56.1656 47.816V45.816C54.783 45.816 53.5346 46.1094 52.6094 46.8164C51.6435 47.5546 51.1576 48.6461 51.1576 49.936H53.1576ZM56.1656 47.816H62.3096V45.816H56.1656V47.816ZM62.3096 47.816C63.447 47.816 64.2026 48.0626 64.6514 48.4056C65.0595 48.7174 65.3176 49.1859 65.3176 49.936H67.3176C67.3176 48.6461 66.8317 47.5546 65.8658 46.8164C64.9406 46.1094 63.6923 45.816 62.3096 45.816V47.816ZM65.3176 49.936V50.008H67.3176V49.936H65.3176ZM65.3176 50.008C65.3176 50.7581 65.0595 51.2266 64.6514 51.5384C64.2026 51.8814 63.447 52.128 62.3096 52.128V54.128C63.6923 54.128 64.9406 53.8346 65.8658 53.1276C66.8317 52.3894 67.3176 51.2979 67.3176 50.008H65.3176ZM55.5256 49.96V49.984H57.5256V49.96H55.5256ZM55.5256 49.984C55.5256 50.51 55.7284 51.0248 56.1707 51.3874C56.5877 51.7292 57.1098 51.848 57.6056 51.848V49.848C57.5104 49.848 57.4539 49.8363 57.4279 49.8286C57.4031 49.8212 57.4132 49.8198 57.4386 49.8406C57.4662 49.8633 57.4933 49.8973 57.5107 49.9365C57.5271 49.9736 57.5256 49.9941 57.5256 49.984H55.5256ZM57.6056 51.848H60.8936V49.848H57.6056V51.848ZM60.8936 51.848C61.3892 51.848 61.9135 51.7292 62.3291 51.3769C62.7677 51.0053 62.9496 50.4892 62.9496 49.984H60.9496C60.9496 50.0025 60.9466 49.9874 60.9612 49.953C60.977 49.9155 61.0039 49.8784 61.0361 49.8511C61.0662 49.8256 61.0824 49.8241 61.0632 49.8299C61.0422 49.8363 60.9891 49.848 60.8936 49.848V51.848ZM62.9496 49.984V49.96H60.9496V49.984H62.9496ZM62.9496 49.96C62.9496 49.4534 62.7741 48.9276 62.3215 48.5517C61.8993 48.2011 61.3724 48.096 60.8936 48.096V50.096C60.9954 50.096 61.0524 50.1077 61.0757 50.1144C61.0971 50.1205 61.0781 50.1189 61.0437 50.0903C61.0269 50.0763 61.0096 50.0584 60.9939 50.0372C60.9783 50.016 60.9672 49.9953 60.9597 49.9774C60.9448 49.9416 60.9496 49.9299 60.9496 49.96H62.9496ZM60.8936 48.096H57.6056V50.096H60.8936V48.096ZM57.6056 48.096C57.1263 48.096 56.6018 48.2013 56.1784 48.5414C55.7216 48.9083 55.5256 49.4325 55.5256 49.96H57.5256C57.5256 49.938 57.5292 49.9551 57.5123 49.9938C57.4939 50.0358 57.4637 50.0743 57.4309 50.1006C57.4013 50.1244 57.3886 50.1232 57.4155 50.1156C57.4437 50.1076 57.5041 50.096 57.6056 50.096V48.096ZM60.4856 59.064H56.1896V61.064H60.4856V59.064ZM57.1896 60.064V56.704H55.1896V60.064H57.1896ZM56.1896 55.704H51.6056V57.704H56.1896V55.704ZM52.6056 56.704V54.088H50.6056V56.704H52.6056ZM51.6056 55.088H62.4296V53.088H51.6056V55.088ZM62.4296 55.088C64.9305 55.088 66.2803 54.9908 67.6189 54.7888L67.3204 52.8112C66.115 52.9931 64.8727 53.088 62.4296 53.088V55.088ZM66.4696 53.8V56.416H68.4696V53.8H66.4696ZM67.3204 55.4272C66.115 55.6091 64.8727 55.704 62.4296 55.704V57.704C64.9305 57.704 66.2803 57.6068 67.6189 57.4048L67.3204 55.4272ZM62.4296 55.704H60.4856V57.704H62.4296V55.704ZM59.4856 56.704V60.064H61.4856V56.704H59.4856ZM56.7976 65.632V66.4H58.7976V65.632H56.7976ZM57.7976 67.4H73.5656V65.4H57.7976V67.4ZM72.5656 66.4V68.824H74.5656V66.4H72.5656ZM73.5656 67.824H53.0936V69.824H73.5656V67.824ZM54.0936 68.824V63.664H52.0936V68.824H54.0936ZM53.0936 64.664H68.6696V62.664H53.0936V64.664ZM69.6696 63.664V62.92H67.6696V63.664H69.6696ZM68.6696 61.92H53.0936V63.92H68.6696V61.92ZM54.0936 62.92V60.544H52.0936V62.92H54.0936ZM53.0936 61.544H73.1816V59.544H53.0936V61.544ZM72.1816 60.544V65.632H74.1816V60.544H72.1816ZM73.1816 64.632H57.7976V66.632H73.1816V64.632Z" fill="#B1A4A1" mask="url(#path-5-outside-1_2631_12851)"/>
</svg>
