<svg width="108" height="108" viewBox="0 0 108 108" fill="none" xmlns="http://www.w3.org/2000/svg">
<rect x="0.5" y="0.5" width="107" height="107" rx="15.5" fill="#FCA697"/>
<rect x="0.5" y="0.5" width="107" height="107" rx="15.5" stroke="white"/>
<path d="M30.2502 23.75L30.2502 56.25" stroke="white"/>
<line x1="46.7502" y1="23.5" x2="46.7502" y2="56.5" stroke="white"/>
<line x1="62.7502" y1="23.5" x2="62.7502" y2="56.5" stroke="white"/>
<line x1="78.7502" y1="23.5" x2="78.7502" y2="56.5" stroke="white"/>
<path d="M26.3518 30.2122H81.8912" stroke="white"/>
<path d="M26 48.8481H82" stroke="white"/>
<path d="M42.2166 38.6797H43.8455V39.6055H42.2166V44.9844H41.1033V34.4961H42.2166V38.6797ZM34.0486 42.1836C35.3611 41.5273 36.3748 40.7266 37.0896 39.7812C37.8083 38.8359 38.2244 37.75 38.3376 36.5234H34.5759V35.5977H39.4744C39.4666 37.1992 39.0779 38.6387 38.3083 39.916C37.5388 41.1895 36.3259 42.2344 34.6697 43.0508L34.0486 42.1836Z" fill="white"/>
<path d="M59.8455 39.5352H58.2166V44.9844H57.1033V34.4961H58.2166V38.6211H59.8455V39.5352ZM50.4353 35.5156H51.5369V41.4219C53.1423 41.4141 54.697 41.2578 56.2009 40.9531L56.3298 41.8906C55.4783 42.0586 54.6404 42.1777 53.8162 42.248C52.9919 42.3184 52.1541 42.3516 51.3025 42.3477H50.4353V35.5156Z" fill="white"/>
<path d="M74.2166 38.5625H75.9041V39.4766H74.2166V45.0195H73.1033V34.4961H74.2166V38.5625ZM66.4822 35.5039H71.3923V36.4062H67.5955V41.4805C68.5251 41.4766 69.3416 41.4492 70.0447 41.3984C70.7478 41.3477 71.4587 41.2578 72.1775 41.1289L72.3181 42.0664C71.5759 42.1992 70.8474 42.2891 70.1326 42.3359C69.4216 42.3828 68.5759 42.4062 67.5955 42.4062H67.3259H66.4822V35.5039Z" fill="white"/>
<path d="M29.536 70C30.112 70 30.4533 70.0213 30.56 70.064C31.2 70.0213 31.7333 70 32.16 70H35.424C36.192 70 36.576 70.4267 36.576 71.28C36.6613 71.8027 36.704 72.464 36.704 73.264C36.704 75.2267 36.576 76.208 36.32 76.208C36.0427 76.464 35.7867 76.592 35.552 76.592C31.072 76.592 28.832 76.4853 28.832 76.272C28.6613 76.272 28.512 74.544 28.384 71.088V70.768C28.384 70.3093 28.768 70.0533 29.536 70ZM29.792 71.408L29.856 71.728C29.856 72.4427 29.8987 73.5733 29.984 75.12C31.2 75.1627 32.9493 75.184 35.232 75.184C35.2747 74.896 35.296 74.6613 35.296 74.48V73.008C35.296 72.6453 35.2747 72.112 35.232 71.408H29.792ZM32.608 76.32C33.0347 76.4267 33.248 76.6613 33.248 77.024L33.264 79.344H36.144C36.3893 79.344 36.7307 79.3653 37.168 79.408C37.2427 79.3653 37.3493 79.344 37.488 79.344C37.9147 79.4613 38.128 79.6747 38.128 79.984V80.112C38.032 80.5387 37.8187 80.752 37.488 80.752C32.4747 80.7093 29.2107 80.688 27.696 80.688C27.0987 80.688 26.8 80.4747 26.8 80.048V79.92C26.8 79.5787 27.0347 79.3653 27.504 79.28H31.856C31.856 79.1947 31.8613 78.7893 31.872 78.064C31.8507 77.4987 31.84 77.152 31.84 77.024C31.84 76.672 32.096 76.4373 32.608 76.32ZM41.6099 68.4H41.7379C42.1219 68.4 42.3352 68.656 42.3779 69.168C42.4205 70.6187 42.4419 71.4293 42.4419 71.6H42.5059C44.6605 71.5573 46.3459 71.536 47.5619 71.536H48.3939C49.1619 71.536 49.5459 71.8133 49.5459 72.368C49.3965 72.752 49.1832 72.944 48.9059 72.944H44.2339C43.6152 72.944 42.7832 72.9653 41.7379 73.008C41.3112 73.008 41.0979 72.5387 41.0979 71.6C41.0125 70.544 40.9699 69.712 40.9699 69.104C41.0552 68.6347 41.2685 68.4 41.6099 68.4ZM40.4259 74.144C41.4072 74.144 43.1779 74.1653 45.7379 74.208C47.2845 74.1653 48.3939 74.144 49.0659 74.144V74.208L49.1939 74.144C50.3885 74.144 50.9859 74.3573 50.9859 74.784V74.976C50.8899 75.4027 50.6765 75.616 50.3459 75.616C49.7699 75.5733 49.3432 75.552 49.0659 75.552H47.6579C47.2952 75.552 46.7192 75.5733 45.9299 75.616V76.704C45.8872 77.216 45.6525 77.472 45.2259 77.472C44.7565 77.472 44.5219 77.0453 44.5219 76.192V75.616C44.0205 75.5733 43.6579 75.552 43.4339 75.552H40.7459C40.0632 75.552 39.7219 75.3387 39.7219 74.912V74.784C39.7219 74.432 39.9565 74.2187 40.4259 74.144ZM41.6259 77.088C42.1379 77.088 42.3939 78.048 42.3939 79.968V80.672H45.7859C46.5539 80.672 47.5992 80.6507 48.9219 80.608C49.3485 80.7253 49.5619 80.9387 49.5619 81.248V81.376C49.5619 81.664 49.3699 81.8773 48.9859 82.016C47.1512 82.0587 45.7432 82.08 44.7619 82.08H41.8179C41.2632 82.08 40.9859 81.632 40.9859 80.736C40.9859 79.456 40.9645 78.432 40.9219 77.664C41.0605 77.28 41.2952 77.088 41.6259 77.088ZM54.4533 68.688H55.3493C56.9493 68.688 59.2746 68.7093 62.3253 68.752C62.7093 68.9013 62.9013 69.1147 62.9013 69.392V69.52C62.9013 69.904 62.6453 70.1173 62.1333 70.16H61.2373C60.7466 70.16 59.9999 70.1387 58.9973 70.096V70.16C59.3066 70.8427 60.1386 71.4187 61.4933 71.888C62.6026 71.888 63.1573 72.1653 63.1573 72.72V72.784C63.1573 73.136 62.9226 73.3493 62.4533 73.424C61.2053 73.424 59.8613 72.8693 58.4213 71.76C58.2186 71.4613 58.0906 71.312 58.0373 71.312H57.9733C57.4079 72.2293 56.4693 72.8907 55.1573 73.296L53.8773 73.552C53.4506 73.456 53.2373 73.2427 53.2373 72.912V72.784C53.2373 72.368 53.7066 72.0907 54.6453 71.952C55.4666 71.952 56.2986 71.3333 57.1413 70.096H54.5173C53.9626 70.0427 53.6853 69.8293 53.6853 69.456V69.328C53.6853 68.944 53.9413 68.7307 54.4533 68.688ZM58.1493 72.528H58.4693C58.7679 72.6987 58.9173 72.9547 58.9173 73.296V74.384H59.4293C60.0693 74.384 61.1146 74.4267 62.5653 74.512L63.2053 74.448C63.5893 74.576 63.7813 74.7893 63.7813 75.088V75.216C63.6853 75.6427 63.4719 75.856 63.1413 75.856C62.7253 75.856 60.5066 75.8133 56.4852 75.728C54.7786 75.7707 53.7973 75.792 53.5413 75.792C52.9013 75.7173 52.5813 75.4827 52.5813 75.088V75.024C52.6666 74.5973 52.8799 74.384 53.2213 74.384C53.9999 74.384 55.4506 74.3627 57.5733 74.32L57.5093 74.192V73.68C57.5093 72.912 57.7226 72.528 58.1493 72.528ZM58.2933 76.72C60.2133 76.72 61.5359 77.3547 62.2613 78.624C62.4319 79.0613 62.5173 79.4933 62.5173 79.92C62.5173 81.4667 61.3653 82.4693 59.0613 82.928H58.4853C56.0533 82.928 54.5386 82.288 53.9413 81.008C53.8133 80.6667 53.7493 80.352 53.7493 80.064V79.856C53.7493 78.5227 54.4746 77.5893 55.9253 77.056C56.4693 76.832 57.2586 76.72 58.2933 76.72ZM55.0933 80.064C55.3706 80.9707 56.3306 81.424 57.9733 81.424H58.9333C59.9359 81.424 60.6613 80.9707 61.1093 80.064V79.792C61.1093 78.8853 60.2133 78.3627 58.4213 78.224H58.2293C56.1386 78.224 55.0933 78.8373 55.0933 80.064ZM68.6421 69.856C69.8795 69.856 70.7968 70.752 71.3941 72.544C71.5648 73.4187 71.6501 73.9733 71.6501 74.208V75.04C71.6501 76.864 70.8608 78.1013 69.2821 78.752C68.9088 78.7947 68.5888 78.816 68.3221 78.816C67.0848 78.816 66.1461 77.8133 65.5061 75.808C65.4208 75.2533 65.3781 74.848 65.3781 74.592C65.3781 72.1173 66.2315 70.56 67.9381 69.92C68.0341 69.92 68.2688 69.8987 68.6421 69.856ZM66.7861 74.656V74.72C66.7861 76.0213 67.2768 76.9173 68.2581 77.408H68.4501C69.6875 77.408 70.3061 76.4693 70.3061 74.592C70.0395 72.6293 69.7195 71.648 69.3461 71.648C69.1755 71.392 68.9195 71.264 68.5781 71.264H68.3861C67.5115 71.52 66.9995 72.3307 66.8501 73.696C66.8075 73.8773 66.7861 74.1973 66.7861 74.656ZM74.7221 68.448C75.1488 68.448 75.3621 68.9173 75.3621 69.856C75.4048 70.3893 75.4261 70.6667 75.4261 70.688C75.3408 73.3547 75.2981 75.1467 75.2981 76.064C75.3408 77.9307 75.3835 78.9547 75.4261 79.136C75.3835 79.296 75.3621 79.488 75.3621 79.712V79.84C75.3621 80.0213 75.3835 80.256 75.4261 80.544C75.4261 80.9067 75.1701 81.1413 74.6581 81.248C74.3061 81.248 74.0928 80.992 74.0181 80.48C74.0181 79.4667 73.9755 77.8453 73.8901 75.616C73.9755 73.408 74.0181 71.6587 74.0181 70.368C74.0181 70.2507 73.9968 69.824 73.9541 69.088C73.9541 68.736 74.2101 68.5227 74.7221 68.448Z" fill="white"/>
</svg>
