<svg width="100" height="120" viewBox="0 0 100 120" fill="none" xmlns="http://www.w3.org/2000/svg">
<path d="M0 4C0 1.79086 1.79086 0 4 0H96C98.2091 0 100 1.79086 100 4V116C100 118.209 98.2091 120 96 120H4C1.79086 120 0 118.209 0 116V4Z" fill="#191A44"/>
<path d="M8 0.5V120" stroke="white"/>
<rect x="16.5" y="10.5" width="74" height="19" fill="white"/>
<rect x="16.5" y="10.5" width="74" height="19" stroke="#D9D9D9"/>
<path d="M29.5363 20.4598H25.0781C24.5093 20.4598 23.9752 20.2044 23.9752 19.6471V15.3515H25.6935V17.302H27.8645V15.3515H29.5363V17.5574H31.2894V15.1077H33.0308V21.0519H31.2894V18.103H29.5363V20.4598ZM24.9156 22.2361V21.6904H33.0308V22.2361H29.8614V22.4799C29.8614 22.9675 29.6756 23.3971 29.3505 23.7802C29.6524 23.606 30.082 23.5596 30.5231 23.6989L33.5649 24.6277L33.1237 25.7539L29.0371 24.1053C28.1199 24.9063 26.5061 25.452 24.7182 25.7539L24.5905 25.2198C26.6339 24.6974 28.1199 23.757 28.1199 22.4451V22.2361H24.9156ZM25.6935 19.6239C25.6935 19.8213 25.8096 19.9258 25.9953 19.9258H27.8645V17.8476H25.6935V19.6239ZM35.9155 22.2477H39.2127V20.8778H40.9541V22.2477H44.2165V22.7818H40.9541V22.9559C40.9541 23.3739 40.7916 23.7221 40.513 24.0356C40.8032 23.8615 41.2095 23.815 41.6623 23.9195L44.7621 24.6625L44.4022 25.7539L40.2111 24.3142C39.2011 25.1153 37.3319 25.5333 35.6833 25.7539L35.5672 25.2198C37.506 24.6974 39.2127 24.3723 39.2127 22.9211V22.7818H35.9155V22.2477ZM39.3288 17.4645H41.0586V19.8793H45.3891V20.4134H34.7545V19.8793H39.3288V17.4645ZM43.903 19.1479L42.1731 18.8809C42.3357 17.9637 42.4402 17.1278 42.4402 16.2803V15.8043H39.4565V15.2702H44.1816V16.0249C44.1816 17.2439 44.1004 18.0334 43.903 19.1479ZM38.7367 19.1479L36.9836 18.9041C37.1345 18.045 37.2506 17.151 37.2506 16.2803V15.8043H35.3118V15.2702H38.9921V16.0249C38.9921 17.0117 38.934 17.9869 38.7367 19.1479ZM50.8511 19.5775C50.8511 16.9653 50.4099 16.0597 49.574 16.0597C48.7381 16.0597 48.2969 16.9653 48.2969 19.5775C48.2969 22.1897 48.7381 23.0952 49.574 23.0952C50.4099 23.0952 50.8511 22.1897 50.8511 19.5775ZM52.5809 19.5775C52.5809 22.4799 51.5244 23.6293 49.574 23.6293C47.6236 23.6293 46.5671 22.4799 46.5671 19.5775C46.5671 16.675 47.6236 15.5257 49.574 15.5257C51.5244 15.5257 52.5809 16.675 52.5809 19.5775ZM54.067 25.6378V15.1077H55.8084V25.6378H54.067ZM64.8556 23.4667H61.0244V22.9211H62.1622V16.826H63.9036V22.9211H65.3084V16.826H67.0499V22.863C67.7 22.8166 68.3153 22.7237 68.9306 22.538V15.1077H70.6721V25.6378H68.9306V23.0952C67.7581 23.4319 66.3765 23.4667 64.8556 23.4667ZM67.9554 16.2455H61.1405V15.6998H67.9554V16.2455ZM75.0776 22.805H76.3895C77.6898 22.805 78.8392 22.7701 79.9537 22.4915V15.1077H81.6952V18.8344H83.3322V19.3801H81.6952V25.6378H79.9537V23.0256C78.8392 23.3042 77.597 23.3506 76.1806 23.3506H74.1373C73.5684 23.3506 73.0459 23.1068 73.0459 22.538V15.6998H78.6418V16.2339H74.7758V22.5263C74.7758 22.7121 74.8919 22.805 75.0776 22.805Z" fill="black"/>
<mask id="path-5-outside-1_2631_12835" maskUnits="userSpaceOnUse" x="31" y="45" width="45" height="25" fill="black">
<rect fill="white" x="31" y="45" width="45" height="25"/>
<path d="M45.584 60.904H47.744V64.744H45.584V68.296H41.384V64.744H32.6V61.6L40.88 47.248H45.584V60.904ZM41.384 53.872L37.424 60.904H41.384V53.872ZM62.6399 59.656V57.472H69.2159V46.432H73.7759V60.184H69.2159V59.656H62.6399ZM62.8799 53.128H56.7359C54.2159 53.128 52.7279 52.048 52.7279 50.008V49.936C52.7279 47.896 54.2159 46.816 56.7359 46.816H62.8799C65.3999 46.816 66.8879 47.896 66.8879 49.936V50.008C66.8879 52.048 65.3999 53.128 62.8799 53.128ZM57.0959 49.96V49.984C57.0959 50.512 57.4799 50.848 58.1759 50.848H61.4639C62.1599 50.848 62.5199 50.512 62.5199 49.984V49.96C62.5199 49.408 62.1599 49.096 61.4639 49.096H58.1759C57.4799 49.096 57.0959 49.408 57.0959 49.96ZM61.0559 60.064H56.7599V56.704H52.1759V54.088H62.9999C65.4719 54.088 66.7679 53.992 68.0399 53.8V56.416C66.7679 56.608 65.4719 56.704 62.9999 56.704H61.0559V60.064ZM58.3679 65.632V66.4H74.1359V68.824H53.6639V63.664H69.2399V62.92H53.6639V60.544H73.7519V65.632H58.3679Z"/>
</mask>
<path d="M45.584 60.904H47.744V64.744H45.584V68.296H41.384V64.744H32.6V61.6L40.88 47.248H45.584V60.904ZM41.384 53.872L37.424 60.904H41.384V53.872ZM62.6399 59.656V57.472H69.2159V46.432H73.7759V60.184H69.2159V59.656H62.6399ZM62.8799 53.128H56.7359C54.2159 53.128 52.7279 52.048 52.7279 50.008V49.936C52.7279 47.896 54.2159 46.816 56.7359 46.816H62.8799C65.3999 46.816 66.8879 47.896 66.8879 49.936V50.008C66.8879 52.048 65.3999 53.128 62.8799 53.128ZM57.0959 49.96V49.984C57.0959 50.512 57.4799 50.848 58.1759 50.848H61.4639C62.1599 50.848 62.5199 50.512 62.5199 49.984V49.96C62.5199 49.408 62.1599 49.096 61.4639 49.096H58.1759C57.4799 49.096 57.0959 49.408 57.0959 49.96ZM61.0559 60.064H56.7599V56.704H52.1759V54.088H62.9999C65.4719 54.088 66.7679 53.992 68.0399 53.8V56.416C66.7679 56.608 65.4719 56.704 62.9999 56.704H61.0559V60.064ZM58.3679 65.632V66.4H74.1359V68.824H53.6639V63.664H69.2399V62.92H53.6639V60.544H73.7519V65.632H58.3679Z" fill="#C54B26"/>
<path d="M45.584 60.904H44.584V61.904H45.584V60.904ZM47.744 60.904H48.744V59.904H47.744V60.904ZM47.744 64.744V65.744H48.744V64.744H47.744ZM45.584 64.744V63.744H44.584V64.744H45.584ZM45.584 68.296V69.296H46.584V68.296H45.584ZM41.384 68.296H40.384V69.296H41.384V68.296ZM41.384 64.744H42.384V63.744H41.384V64.744ZM32.6 64.744H31.6V65.744H32.6V64.744ZM32.6 61.6L31.7338 61.1003L31.6 61.3322V61.6H32.6ZM40.88 47.248V46.248H40.3024L40.0138 46.7483L40.88 47.248ZM45.584 47.248H46.584V46.248H45.584V47.248ZM41.384 53.872H42.384V50.0583L40.5127 53.3813L41.384 53.872ZM37.424 60.904L36.5527 60.4133L35.7132 61.904H37.424V60.904ZM41.384 60.904V61.904H42.384V60.904H41.384ZM45.584 61.904H47.744V59.904H45.584V61.904ZM46.744 60.904V64.744H48.744V60.904H46.744ZM47.744 63.744H45.584V65.744H47.744V63.744ZM44.584 64.744V68.296H46.584V64.744H44.584ZM45.584 67.296H41.384V69.296H45.584V67.296ZM42.384 68.296V64.744H40.384V68.296H42.384ZM41.384 63.744H32.6V65.744H41.384V63.744ZM33.6 64.744V61.6H31.6V64.744H33.6ZM33.4662 62.0997L41.7462 47.7477L40.0138 46.7483L31.7338 61.1003L33.4662 62.0997ZM40.88 48.248H45.584V46.248H40.88V48.248ZM44.584 47.248V60.904H46.584V47.248H44.584ZM40.5127 53.3813L36.5527 60.4133L38.2953 61.3947L42.2553 54.3627L40.5127 53.3813ZM37.424 61.904H41.384V59.904H37.424V61.904ZM42.384 60.904V53.872H40.384V60.904H42.384ZM62.6399 59.656H61.6399V60.656H62.6399V59.656ZM62.6399 57.472V56.472H61.6399V57.472H62.6399ZM69.2159 57.472V58.472H70.2159V57.472H69.2159ZM69.2159 46.432V45.432H68.2159V46.432H69.2159ZM73.7759 46.432H74.7759V45.432H73.7759V46.432ZM73.7759 60.184V61.184H74.7759V60.184H73.7759ZM69.2159 60.184H68.2159V61.184H69.2159V60.184ZM69.2159 59.656H70.2159V58.656H69.2159V59.656ZM61.0559 60.064V61.064H62.0559V60.064H61.0559ZM56.7599 60.064H55.7599V61.064H56.7599V60.064ZM56.7599 56.704H57.7599V55.704H56.7599V56.704ZM52.1759 56.704H51.1759V57.704H52.1759V56.704ZM52.1759 54.088V53.088H51.1759V54.088H52.1759ZM68.0399 53.8H69.0399V52.6377L67.8907 52.8112L68.0399 53.8ZM68.0399 56.416L68.1892 57.4048L69.0399 57.2764V56.416H68.0399ZM61.0559 56.704V55.704H60.0559V56.704H61.0559ZM58.3679 65.632V64.632H57.3679V65.632H58.3679ZM58.3679 66.4H57.3679V67.4H58.3679V66.4ZM74.1359 66.4H75.1359V65.4H74.1359V66.4ZM74.1359 68.824V69.824H75.1359V68.824H74.1359ZM53.6639 68.824H52.6639V69.824H53.6639V68.824ZM53.6639 63.664V62.664H52.6639V63.664H53.6639ZM69.2399 63.664V64.664H70.2399V63.664H69.2399ZM69.2399 62.92H70.2399V61.92H69.2399V62.92ZM53.6639 62.92H52.6639V63.92H53.6639V62.92ZM53.6639 60.544V59.544H52.6639V60.544H53.6639ZM73.7519 60.544H74.7519V59.544H73.7519V60.544ZM73.7519 65.632V66.632H74.7519V65.632H73.7519ZM63.6399 59.656V57.472H61.6399V59.656H63.6399ZM62.6399 58.472H69.2159V56.472H62.6399V58.472ZM70.2159 57.472V46.432H68.2159V57.472H70.2159ZM69.2159 47.432H73.7759V45.432H69.2159V47.432ZM72.7759 46.432V60.184H74.7759V46.432H72.7759ZM73.7759 59.184H69.2159V61.184H73.7759V59.184ZM70.2159 60.184V59.656H68.2159V60.184H70.2159ZM69.2159 58.656H62.6399V60.656H69.2159V58.656ZM62.8799 52.128H56.7359V54.128H62.8799V52.128ZM56.7359 52.128C55.5986 52.128 54.8429 51.8814 54.3941 51.5384C53.986 51.2266 53.7279 50.7581 53.7279 50.008H51.7279C51.7279 51.2979 52.2138 52.3894 53.1797 53.1276C54.1049 53.8346 55.3533 54.128 56.7359 54.128V52.128ZM53.7279 50.008V49.936H51.7279V50.008H53.7279ZM53.7279 49.936C53.7279 49.1859 53.986 48.7174 54.3941 48.4056C54.8429 48.0626 55.5986 47.816 56.7359 47.816V45.816C55.3533 45.816 54.1049 46.1094 53.1797 46.8164C52.2138 47.5546 51.7279 48.6461 51.7279 49.936H53.7279ZM56.7359 47.816H62.8799V45.816H56.7359V47.816ZM62.8799 47.816C64.0173 47.816 64.7729 48.0626 65.2217 48.4056C65.6298 48.7174 65.8879 49.1859 65.8879 49.936H67.8879C67.8879 48.6461 67.4021 47.5546 66.4361 46.8164C65.5109 46.1094 64.2626 45.816 62.8799 45.816V47.816ZM65.8879 49.936V50.008H67.8879V49.936H65.8879ZM65.8879 50.008C65.8879 50.7581 65.6298 51.2266 65.2217 51.5384C64.7729 51.8814 64.0173 52.128 62.8799 52.128V54.128C64.2626 54.128 65.5109 53.8346 66.4361 53.1276C67.4021 52.3894 67.8879 51.2979 67.8879 50.008H65.8879ZM56.0959 49.96V49.984H58.0959V49.96H56.0959ZM56.0959 49.984C56.0959 50.51 56.2987 51.0248 56.741 51.3874C57.1581 51.7292 57.6801 51.848 58.1759 51.848V49.848C58.0807 49.848 58.0242 49.8363 57.9982 49.8286C57.9734 49.8212 57.9835 49.8198 58.0089 49.8406C58.0365 49.8633 58.0636 49.8973 58.081 49.9365C58.0975 49.9736 58.0959 49.9941 58.0959 49.984H56.0959ZM58.1759 51.848H61.4639V49.848H58.1759V51.848ZM61.4639 51.848C61.9595 51.848 62.4838 51.7292 62.8995 51.3769C63.338 51.0053 63.5199 50.4892 63.5199 49.984H61.5199C61.5199 50.0025 61.5169 49.9874 61.5315 49.953C61.5473 49.9155 61.5742 49.8784 61.6064 49.8511C61.6365 49.8256 61.6527 49.8241 61.6335 49.8299C61.6125 49.8363 61.5594 49.848 61.4639 49.848V51.848ZM63.5199 49.984V49.96H61.5199V49.984H63.5199ZM63.5199 49.96C63.5199 49.4534 63.3444 48.9276 62.8918 48.5517C62.4697 48.2011 61.9427 48.096 61.4639 48.096V50.096C61.5657 50.096 61.6228 50.1077 61.646 50.1144C61.6674 50.1205 61.6484 50.1189 61.614 50.0903C61.5972 50.0763 61.5799 50.0584 61.5643 50.0372C61.5486 50.016 61.5375 49.9953 61.53 49.9774C61.5151 49.9416 61.5199 49.9299 61.5199 49.96H63.5199ZM61.4639 48.096H58.1759V50.096H61.4639V48.096ZM58.1759 48.096C57.6966 48.096 57.1721 48.2013 56.7487 48.5414C56.2919 48.9083 56.0959 49.4325 56.0959 49.96H58.0959C58.0959 49.938 58.0996 49.9551 58.0826 49.9938C58.0642 50.0358 58.034 50.0743 58.0012 50.1006C57.9716 50.1244 57.9589 50.1232 57.9858 50.1156C58.014 50.1076 58.0744 50.096 58.1759 50.096V48.096ZM61.0559 59.064H56.7599V61.064H61.0559V59.064ZM57.7599 60.064V56.704H55.7599V60.064H57.7599ZM56.7599 55.704H52.1759V57.704H56.7599V55.704ZM53.1759 56.704V54.088H51.1759V56.704H53.1759ZM52.1759 55.088H62.9999V53.088H52.1759V55.088ZM62.9999 55.088C65.5008 55.088 66.8506 54.9908 68.1892 54.7888L67.8907 52.8112C66.6853 52.9931 65.443 53.088 62.9999 53.088V55.088ZM67.0399 53.8V56.416H69.0399V53.8H67.0399ZM67.8907 55.4272C66.6853 55.6091 65.443 55.704 62.9999 55.704V57.704C65.5008 57.704 66.8506 57.6068 68.1892 57.4048L67.8907 55.4272ZM62.9999 55.704H61.0559V57.704H62.9999V55.704ZM60.0559 56.704V60.064H62.0559V56.704H60.0559ZM57.3679 65.632V66.4H59.3679V65.632H57.3679ZM58.3679 67.4H74.1359V65.4H58.3679V67.4ZM73.1359 66.4V68.824H75.1359V66.4H73.1359ZM74.1359 67.824H53.6639V69.824H74.1359V67.824ZM54.6639 68.824V63.664H52.6639V68.824H54.6639ZM53.6639 64.664H69.2399V62.664H53.6639V64.664ZM70.2399 63.664V62.92H68.2399V63.664H70.2399ZM69.2399 61.92H53.6639V63.92H69.2399V61.92ZM54.6639 62.92V60.544H52.6639V62.92H54.6639ZM53.6639 61.544H73.7519V59.544H53.6639V61.544ZM72.7519 60.544V65.632H74.7519V60.544H72.7519ZM73.7519 64.632H58.3679V66.632H73.7519V64.632Z" fill="#FFD60D" mask="url(#path-5-outside-1_2631_12835)"/>
</svg>
