<svg width="100" height="120" viewBox="0 0 100 120" fill="none" xmlns="http://www.w3.org/2000/svg">
<rect width="100" height="120" rx="4" fill="#104C59"/>
<path d="M8 0.5V120" stroke="white"/>
<rect x="16.5" y="10.5" width="74" height="19" fill="white"/>
<rect x="16.5" y="10.5" width="74" height="19" stroke="#D9D9D9"/>
<path d="M32.6825 15.8043H26.4133V17.1394H32.6245V17.6851H26.4133V18.9157C26.4133 19.1015 26.5061 19.1711 26.6803 19.1711H32.8567V19.7052H25.7283C25.1478 19.7052 24.6834 19.4962 24.6834 18.9505V15.2702H32.6825V15.8043ZM30.9759 25.6378V23.0836H24.5905V22.538H32.7174V25.6378H30.9759ZM23.3715 20.8661H34.006V21.4002H23.3715V20.8661ZM40.9193 20.1115H36.4263C35.8574 20.1115 35.3582 19.8909 35.3582 19.3337V15.2935H37.0765V17.1278H39.2475V15.2935H40.9193V16.4893H42.6724V15.1077H44.4138V20.5875H42.6724V19.1247H40.9193V20.1115ZM44.588 25.6958H37.4015C36.8211 25.6958 36.3567 25.5217 36.3567 24.9412V23.0488H42.6724V21.702H36.3567V21.168H44.4138V23.5828H38.0981V24.9063C38.0981 25.1037 38.1794 25.1618 38.3651 25.1618H44.588V25.6958ZM37.0765 19.3104C37.0765 19.5078 37.1577 19.5775 37.3435 19.5775H39.2475V17.6735H37.0765V19.3104ZM40.9193 17.0349V18.579H42.6724V17.0349H40.9193ZM52.3371 19.7632C52.3371 21.1332 51.2226 21.9342 49.5043 21.9342C47.7861 21.9342 46.6716 21.1332 46.6716 19.7632C46.6716 18.3933 47.7861 17.5922 49.5043 17.5922C51.2226 17.5922 52.3371 18.3933 52.3371 19.7632ZM57.0855 18.5558V19.1015H55.4485V23.2578H53.7071V15.1077H55.4485V18.5558H57.0855ZM47.5655 22.6192H49.307V24.7554C49.307 24.9412 49.4231 25.0457 49.6088 25.0457H55.6227V25.5797H48.6684C48.088 25.5797 47.5655 25.3127 47.5655 24.767V22.6192ZM52.848 17.1278H46.1027V16.5938H48.6336V14.8407H50.3751V16.5938H52.848V17.1278ZM50.7234 19.7632C50.7234 18.6371 50.2125 18.1379 49.5043 18.1379C48.7962 18.1379 48.2853 18.6371 48.2853 19.7632C48.2853 20.8894 48.7962 21.3886 49.5043 21.3886C50.2125 21.3886 50.7234 20.8894 50.7234 19.7632ZM61.4307 23.5944L61.2798 23.0488C64.2519 21.9923 65.4593 19.8213 65.4593 17.6502V16.2571H61.721V15.6998H67.2008V17.6735C67.2008 20.3205 64.9137 22.805 61.4307 23.5944ZM68.9306 25.6378V15.1077H70.6721V25.6378H68.9306ZM72.3842 20.9706H76.8888V19.7052H74.741C74.1605 19.7052 73.6961 19.4962 73.6961 18.9505V17.1394H79.9654V15.8043H73.6961V15.2702H81.6952V17.6851H75.4259V18.9157C75.4259 19.1015 75.5188 19.1711 75.693 19.1711H81.8694V19.7052H78.6302V20.9706H83.0187V21.5047H72.3842V20.9706ZM81.73 25.6958H79.9886V23.1417H73.6032V22.596H81.73V25.6958Z" fill="black"/>
<g clip-path="url(#clip0_2631_12882)">
<path d="M82.0767 77.753C80.2736 84.953 75.7109 91.2349 69.5617 95.2548C66.0728 97.5363 62.0741 99.0895 57.7776 99.6704C56.6814 99.8194 55.5655 99.9052 54.4346 99.9218C38.4819 100.166 25.0662 86.9125 25.0752 70.9714C25.0767 67.7778 25.6181 64.6835 26.6136 61.7804C28.8348 55.2998 33.3237 49.7734 39.1481 46.2381C43.0055 43.8948 47.4508 42.4245 52.2089 42.1295C54.2797 42.0015 56.3159 42.1009 58.2935 42.4049C71.243 44.402 81.6857 55.2065 82.8226 68.5123C83.0932 71.6848 82.818 74.7972 82.0767 77.753Z" fill="#FEE97D"/>
<path d="M42.0201 53.3974C42.0201 59.0005 37.6078 63.5426 32.1654 63.5426C30.1067 63.5426 28.1938 62.8925 26.6133 61.7803C28.8344 55.2997 33.3234 49.7733 39.1478 46.238C40.9223 48.0726 42.0201 50.6041 42.0201 53.3974Z" fill="#FDBC53"/>
<path d="M82.0766 77.7529C80.2735 84.9529 75.7109 91.2348 69.5617 95.2546C66.0728 97.5362 62.0741 99.0894 57.7776 99.6703C49.2825 94.1319 43.5303 83.4599 43.5303 71.2016C43.5303 58.9433 49.517 47.8409 58.2934 42.4048C71.243 44.4019 81.6856 55.2064 82.8225 68.5122C83.0932 71.6847 82.818 74.7971 82.0766 77.7529Z" fill="#FEF0AE"/>
<path d="M35.7752 76.5822C37.7685 76.5822 39.3844 74.965 39.3844 72.9702C39.3844 70.9753 37.7685 69.3582 35.7752 69.3582C33.7819 69.3582 32.166 70.9753 32.166 72.9702C32.166 74.965 33.7819 76.5822 35.7752 76.5822Z" fill="#FDBC53"/>
<path d="M60.9678 62.5854C63.0907 62.5854 64.8116 60.8632 64.8116 58.7386C64.8116 56.6141 63.0907 54.8918 60.9678 54.8918C58.845 54.8918 57.124 56.6141 57.124 58.7386C57.124 60.8632 58.845 62.5854 60.9678 62.5854Z" fill="#FDBC53"/>
<path d="M51.537 80.4621C52.0138 80.4621 52.4002 80.0754 52.4002 79.5983C52.4002 79.1211 52.0138 78.7344 51.537 78.7344C51.0603 78.7344 50.6738 79.1211 50.6738 79.5983C50.6738 80.0754 51.0603 80.4621 51.537 80.4621Z" fill="#FDBC53"/>
<path d="M45.9874 95.4865C46.666 95.4865 47.2161 94.936 47.2161 94.2569C47.2161 93.5779 46.666 93.0273 45.9874 93.0273C45.3089 93.0273 44.7588 93.5779 44.7588 94.2569C44.7588 94.936 45.3089 95.4865 45.9874 95.4865Z" fill="#FDBC53"/>
<path d="M71.7135 68.5123C72.9435 68.5123 73.9407 67.5144 73.9407 66.2834C73.9407 65.0524 72.9435 64.0544 71.7135 64.0544C70.4835 64.0544 69.4863 65.0524 69.4863 66.2834C69.4863 67.5144 70.4835 68.5123 71.7135 68.5123Z" fill="#FDBC53"/>
</g>
<defs>
<clipPath id="clip0_2631_12882">
<rect width="58" height="58" fill="white" transform="translate(25 42)"/>
</clipPath>
</defs>
</svg>
