<svg width="342" height="402" viewBox="0 0 342 402" fill="none" xmlns="http://www.w3.org/2000/svg">
<path d="M38.1116 72.696C38.8023 72.5093 39.2036 72.1827 39.3156 71.716C39.3716 71.492 39.3996 71.2587 39.3996 71.016C39.3996 70.736 39.3623 70.4373 39.2876 70.12C38.709 70.064 38.1396 70.036 37.5796 70.036C36.3476 70.036 35.1343 70.176 33.9396 70.456C33.8463 70.4747 33.7623 70.484 33.6876 70.484C33.4076 70.484 33.1836 70.3813 33.0156 70.176C32.8476 69.9707 32.7636 69.728 32.7636 69.448C32.7636 69.4107 32.773 69.2987 32.7916 69.112C32.829 68.9067 33.0436 68.7387 33.4356 68.608C34.4996 68.328 35.5916 68.1693 36.7116 68.132H37.2716C38.2236 68.132 39.1476 68.1693 40.0436 68.244C40.5103 68.2813 40.8183 68.5147 40.9676 68.944C41.1916 69.6907 41.3036 70.4747 41.3036 71.296C41.3036 71.464 41.285 71.8467 41.2476 72.444C41.229 73.0413 40.753 73.6013 39.8196 74.124C39.0916 74.4413 38.3356 74.628 37.5516 74.684C36.917 74.74 36.2823 74.768 35.6476 74.768H34.7236V74.852C34.7236 76.1027 35.1436 76.924 35.9836 77.316C36.6183 77.596 37.3556 77.736 38.1956 77.736C38.4943 77.736 39.0263 77.6987 39.7916 77.624C40.5756 77.5307 41.0423 77.456 41.1916 77.4C41.4156 77.344 41.6396 77.2973 41.8636 77.26V77.232C41.901 77.2133 41.929 77.1947 41.9476 77.176C41.985 77.1387 42.0223 77.1107 42.0596 77.092C42.265 76.9427 42.4703 76.868 42.6756 76.868C42.7876 76.868 42.9463 76.9053 43.1516 76.98C43.3756 77.0547 43.553 77.2413 43.6836 77.54C43.721 77.6147 43.7396 77.6987 43.7396 77.792C43.7396 77.9787 43.6463 78.1747 43.4596 78.38C43.3663 78.6973 43.1516 78.9027 42.8156 78.996C42.3116 79.0893 41.789 79.192 41.2476 79.304C41.061 79.3973 40.3516 79.5093 39.1196 79.64C38.7463 79.6773 38.3823 79.696 38.0276 79.696C37.2063 79.696 36.4223 79.584 35.6756 79.36C34.3503 78.8933 33.501 78.1373 33.1276 77.092C32.9036 76.4573 32.7916 75.776 32.7916 75.048C32.7916 74.5813 32.8383 74.0867 32.9316 73.564C32.969 73.3587 33.081 73.2 33.2676 73.088C33.4543 72.9573 33.6503 72.8827 33.8556 72.864H35.1716C35.4516 72.8827 35.741 72.892 36.0396 72.892C36.749 72.892 37.4396 72.8267 38.1116 72.696ZM49.3116 79.416C49.2743 79.8267 49.1063 80.0973 48.8076 80.228C48.6583 80.284 48.509 80.312 48.3596 80.312C48.2103 80.312 48.0143 80.2653 47.7716 80.172C47.5476 80.0787 47.4263 79.8267 47.4076 79.416C47.4076 78.576 47.417 77.7453 47.4356 76.924C47.4543 76.0653 47.4636 75.216 47.4636 74.376C47.4636 73.5173 47.445 72.4627 47.4076 71.212C47.389 69.9427 47.2396 68.468 46.9596 66.788V66.592C46.9596 66.2747 47.0716 66.0227 47.2956 65.836C47.5196 65.668 47.7716 65.584 48.0516 65.584C48.089 65.584 48.201 65.6027 48.3876 65.64C48.5743 65.6587 48.7143 65.864 48.8076 66.256C49.1063 68.0667 49.2743 69.8867 49.3116 71.716C49.349 72.7987 49.3676 73.8907 49.3676 74.992C49.3676 75.72 49.3583 76.448 49.3396 77.176C49.321 77.9227 49.3116 78.6693 49.3116 79.416ZM45.7836 81.992C46.0636 81.992 46.2876 82.0947 46.4556 82.3C46.6423 82.4867 46.7356 82.7107 46.7356 82.972C46.7356 83.2333 46.745 83.4947 46.7636 83.756C46.7823 84.148 46.7916 84.5307 46.7916 84.904C46.7916 86.528 46.661 88.1427 46.3996 89.748C46.3436 89.9533 46.2223 90.112 46.0356 90.224C45.8676 90.3547 45.681 90.4293 45.4756 90.448C44.673 90.4853 43.8143 90.5787 42.8996 90.728C41.873 90.896 40.8556 90.9987 39.8476 91.036H39.6236C38.6903 91.036 37.8223 90.8307 37.0196 90.42C36.329 89.972 35.965 89.1973 35.9276 88.096V87.732C35.9276 86.7427 35.993 85.7813 36.1236 84.848C36.1983 84.288 36.2356 83.8213 36.2356 83.448C36.2543 83.3733 36.273 83.3173 36.2916 83.28V83.224C36.3103 83.1493 36.329 83.084 36.3476 83.028C36.385 82.8413 36.441 82.664 36.5156 82.496C36.609 82.328 36.7676 82.216 36.9916 82.16C37.197 82.1227 37.4023 82.104 37.6076 82.104C37.813 82.104 38.009 82.1227 38.1956 82.16C38.4383 82.1973 38.681 82.2253 38.9236 82.244L41.3876 82.188H42.2276C43.4223 82.1693 44.6076 82.104 45.7836 81.992ZM38.7836 88.992C39.0636 89.0107 39.3436 89.02 39.6236 89.02C40.669 89.02 41.705 88.936 42.7316 88.768C43.3663 88.6933 44.001 88.628 44.6356 88.572C44.8036 87.3773 44.8876 86.1733 44.8876 84.96C44.8876 84.6427 44.8783 84.316 44.8596 83.98C43.4596 84.0547 42.0596 84.1013 40.6596 84.12C40.3983 84.12 40.0996 84.1387 39.7636 84.176C39.2223 84.232 38.6716 84.26 38.1116 84.26C38.093 84.484 38.0836 84.6987 38.0836 84.904C38.0463 85.464 38.0183 86.024 37.9996 86.584V86.78C37.981 87.004 37.9716 87.2187 37.9716 87.424C37.9716 87.76 37.9903 88.0867 38.0276 88.404C38.0463 88.6653 38.093 88.824 38.1676 88.88C38.261 88.9547 38.429 88.992 38.6716 88.992H38.7836Z" fill="black"/>
<path d="M92.4636 78.688C91.8103 78.9307 91.1476 79.052 90.4756 79.052C89.7663 79.052 88.8703 78.8653 87.7876 78.492C86.705 78.1187 85.8183 77.3067 85.1276 76.056C84.7916 75.3467 84.6236 74.6373 84.6236 73.928C84.6236 73.3307 84.8103 72.5747 85.1836 71.66C85.5756 70.7267 86.4343 69.952 87.7596 69.336C88.6743 68.944 89.5796 68.748 90.4756 68.748C90.9236 68.748 91.5956 68.8507 92.4916 69.056C93.3876 69.2427 94.1996 70.0267 94.9276 71.408C95.3383 72.2667 95.5436 73.116 95.5436 73.956C95.5436 74.46 95.4036 75.1693 95.1236 76.084C94.8623 76.9987 94.0503 77.8293 92.6876 78.576C92.669 78.5947 92.641 78.604 92.6036 78.604C92.585 78.604 92.5663 78.6133 92.5476 78.632H92.5196L92.4636 78.688ZM88.1236 71.324C87.3023 71.884 86.7796 72.6027 86.5556 73.48C86.5183 73.6667 86.4996 73.844 86.4996 74.012C86.4996 74.6653 86.7983 75.2907 87.3956 75.888C88.3103 76.7093 89.309 77.12 90.3916 77.12C90.8396 77.12 91.3063 77.0453 91.7916 76.896C92.6876 76.3733 93.2756 75.664 93.5556 74.768C93.649 74.4693 93.6956 74.1707 93.6956 73.872C93.6956 73.256 93.4996 72.6493 93.1076 72.052C92.4916 71.212 91.7263 70.736 90.8116 70.624C90.6623 70.6053 90.513 70.596 90.3636 70.596C89.5983 70.596 88.8516 70.8387 88.1236 71.324ZM101.788 79.416C101.75 79.8267 101.582 80.0973 101.284 80.228C101.134 80.284 100.985 80.312 100.836 80.312C100.686 80.312 100.49 80.2653 100.248 80.172C100.024 80.0787 99.9023 79.8267 99.8836 79.416C99.8836 78.576 99.893 77.7453 99.9116 76.924C99.9303 76.0653 99.9396 75.216 99.9396 74.376C99.9396 73.5173 99.921 72.4627 99.8836 71.212C99.865 69.9427 99.7156 68.468 99.4356 66.788V66.592C99.4356 66.2747 99.5476 66.0227 99.7716 65.836C99.9956 65.668 100.248 65.584 100.528 65.584C100.565 65.584 100.677 65.6027 100.864 65.64C101.05 65.6587 101.19 65.864 101.284 66.256C101.582 68.0667 101.75 69.8867 101.788 71.716C101.825 72.7987 101.844 73.8907 101.844 74.992C101.844 75.72 101.834 76.448 101.816 77.176C101.797 77.9227 101.788 78.6693 101.788 79.416ZM99.8276 88.964C99.9396 88.9453 100.033 88.936 100.108 88.936C100.369 88.936 100.584 89.0293 100.752 89.216C100.92 89.4027 101.004 89.6267 101.004 89.888C101.004 89.944 100.985 90.0747 100.948 90.28C100.929 90.4853 100.724 90.6627 100.332 90.812C98.4836 91.3347 96.589 91.6053 94.6476 91.624C94.4236 91.624 94.181 91.6333 93.9196 91.652C93.6396 91.6707 93.369 91.68 93.1076 91.68C92.361 91.68 91.633 91.5867 90.9236 91.4C89.9343 91.008 89.3183 90.4013 89.0756 89.58C88.8703 88.9453 88.7676 88.2547 88.7676 87.508C88.7676 87.3027 88.777 87.088 88.7956 86.864C88.8516 86.2853 89.169 85.968 89.7476 85.912C90.4196 85.8373 91.101 85.8 91.7916 85.8C92.053 85.8 92.3236 85.8093 92.6036 85.828H93.2196C93.8543 85.828 94.4796 85.8093 95.0956 85.772H95.4036C95.833 85.7533 96.2903 85.7067 96.7756 85.632C97.2796 85.5387 97.6716 85.352 97.9516 85.072C98.1383 84.8667 98.2316 84.68 98.2316 84.512C98.2316 84.4373 98.1943 84.3347 98.1196 84.204C98.0636 84.0547 97.8583 83.9333 97.5036 83.84C96.6636 83.6347 95.805 83.532 94.9276 83.532C94.853 83.532 94.5636 83.5413 94.0596 83.56C93.5556 83.5787 92.8276 83.644 91.8756 83.756C90.9423 83.8867 90.0183 83.9613 89.1036 83.98C88.693 83.98 88.4223 83.8213 88.2916 83.504C88.217 83.3547 88.1796 83.2053 88.1796 83.056C88.1796 82.9067 88.2263 82.72 88.3196 82.496C88.4316 82.2533 88.693 82.1133 89.1036 82.076C89.5703 82.0573 90.205 81.992 91.0076 81.88C92.1463 81.7307 93.3876 81.6187 94.7316 81.544C94.993 81.5253 95.2356 81.516 95.4596 81.516C96.4863 81.516 97.4663 81.656 98.3996 81.936C99.333 82.216 99.893 82.8413 100.08 83.812C100.098 84.0173 100.108 84.2133 100.108 84.4C100.108 85.4267 99.7156 86.2013 98.9316 86.724C98.1663 87.2467 97.1396 87.564 95.8516 87.676C94.9743 87.7507 94.125 87.788 93.3036 87.788C92.893 87.788 92.4823 87.7787 92.0716 87.76H90.6996C90.6996 88.3947 90.8396 88.8707 91.1196 89.188C91.4183 89.524 91.9783 89.7013 92.7996 89.72C93.173 89.7387 93.537 89.748 93.8916 89.748C95.9076 89.748 97.8863 89.4867 99.8276 88.964Z" fill="black"/>
<path d="M137.828 83.812C137.529 83.812 137.268 83.672 137.044 83.392C136.932 83.224 136.876 83.0467 136.876 82.86C136.876 82.804 136.885 82.7387 136.904 82.664C136.941 82.4213 137.072 82.216 137.296 82.048C141.794 79.0427 144.529 75.636 145.5 71.828C144.212 71.828 142.914 71.8373 141.608 71.856C140.226 71.8933 138.845 71.912 137.464 71.912C137.184 71.912 136.95 71.8187 136.764 71.632C136.596 71.4453 136.512 71.2213 136.512 70.96C136.512 70.6987 136.605 70.4747 136.792 70.288C136.978 70.1013 137.202 70.008 137.464 70.008H137.52C138.845 70.008 140.17 69.9893 141.496 69.952H141.58C142.737 69.9333 143.876 69.924 144.996 69.924H146.676C146.974 69.924 147.217 70.036 147.404 70.26C147.553 70.4467 147.628 70.6613 147.628 70.904V71.044C146.788 75.8413 143.708 80.0413 138.388 83.644C138.201 83.756 138.014 83.812 137.828 83.812ZM151.436 87.368C151.249 86.416 151.156 85.4173 151.156 84.372C151.156 83.9427 151.165 83.5133 151.184 83.084C151.202 82.58 151.221 82.104 151.24 81.656V80.284C151.24 79.3693 151.249 78.4547 151.268 77.54C151.305 76.532 151.324 75.524 151.324 74.516C151.324 72.3133 151.249 70.1107 151.1 67.908V67.852C151.1 67.4973 151.24 67.2453 151.52 67.096C151.669 67.0213 151.828 66.984 151.996 66.984C152.145 66.984 152.332 67.04 152.556 67.152C152.798 67.264 152.948 67.516 153.004 67.908C153.134 69.7933 153.2 71.688 153.2 73.592C153.2 74.5253 153.181 75.468 153.144 76.42C153.125 77.2787 153.116 78.1467 153.116 79.024C153.116 79.9013 153.125 80.7787 153.144 81.656C153.144 82.1227 153.134 82.6267 153.116 83.168C153.097 83.5787 153.088 83.98 153.088 84.372C153.088 85.0813 153.125 85.7533 153.2 86.388C153.274 86.5187 153.312 86.6773 153.312 86.864V87.116C153.293 87.4707 153.153 87.732 152.892 87.9C152.724 87.9933 152.546 88.04 152.36 88.04C152.266 88.04 152.117 88.012 151.912 87.956C151.706 87.9187 151.548 87.7227 151.436 87.368Z" fill="black"/>
<path d="M254.68 74.236C255.053 74.3853 255.268 74.628 255.324 74.964V75.104C255.324 75.384 255.24 75.636 255.072 75.86C254.922 76.028 254.736 76.112 254.512 76.112C254.418 76.112 254.306 76.0933 254.176 76.056C251.936 75.1973 250.2 73.6293 248.968 71.352C248.072 73.312 246.728 74.8147 244.936 75.86C244.749 75.9533 244.581 76 244.432 76C244.264 76 244.077 75.9253 243.872 75.776C243.666 75.6267 243.545 75.384 243.508 75.048V74.936C243.508 74.656 243.657 74.4133 243.956 74.208C246.028 72.9387 247.325 71.1 247.848 68.692H247.008C246.149 68.692 245.3 68.6547 244.46 68.58C244.049 68.5053 243.778 68.3093 243.648 67.992C243.573 67.824 243.536 67.6653 243.536 67.516C243.536 67.3667 243.573 67.2173 243.648 67.068C243.778 66.8067 244.021 66.676 244.376 66.676H244.46C245.393 66.7693 246.317 66.816 247.232 66.816C247.941 66.816 248.641 66.788 249.332 66.732C250.041 66.676 250.741 66.648 251.432 66.648C252.365 66.648 253.298 66.6947 254.232 66.788C254.642 66.844 254.913 67.04 255.044 67.376C255.118 67.5253 255.156 67.684 255.156 67.852C255.156 68.0013 255.118 68.1507 255.044 68.3C254.913 68.5613 254.67 68.692 254.316 68.692H254.232C253.336 68.6173 252.43 68.58 251.516 68.58C251.012 68.58 250.498 68.5893 249.976 68.608C250.274 69.8213 250.844 70.96 251.684 72.024C252.524 73.0693 253.522 73.8067 254.68 74.236ZM256.556 77.596C256.966 77.6333 257.237 77.8013 257.368 78.1C257.442 78.2493 257.48 78.408 257.48 78.576C257.48 78.7253 257.424 78.912 257.312 79.136C257.218 79.36 256.966 79.4813 256.556 79.5H255.94C254.054 79.5 252.178 79.5747 250.312 79.724C250.349 79.9293 250.368 80.1533 250.368 80.396C250.368 81.0307 250.209 81.7773 249.892 82.636C249.724 83.0093 249.462 83.2147 249.108 83.252C249.033 83.2707 248.958 83.28 248.884 83.28C248.641 83.28 248.417 83.196 248.212 83.028C248.062 82.8973 247.988 82.72 247.988 82.496C247.988 82.384 248.006 82.2627 248.044 82.132C248.324 81.4227 248.464 80.8253 248.464 80.34C248.464 80.1533 248.445 79.9853 248.408 79.836C246.858 79.9667 245.309 80.032 243.76 80.032C242.994 80.032 242.22 80.0133 241.436 79.976C241.025 79.9387 240.754 79.7613 240.624 79.444C240.568 79.276 240.54 79.1173 240.54 78.968C240.54 78.8187 240.586 78.632 240.68 78.408C240.773 78.184 241.025 78.072 241.436 78.072C242.201 78.0907 242.957 78.1 243.704 78.1C245.664 78.1 247.624 78.016 249.584 77.848C251.693 77.68 253.802 77.596 255.912 77.596H256.556ZM254.512 88.964C254.624 88.9453 254.717 88.936 254.792 88.936C255.053 88.936 255.268 89.0293 255.436 89.216C255.604 89.4027 255.688 89.6267 255.688 89.888C255.688 89.944 255.669 90.0747 255.632 90.28C255.613 90.4853 255.408 90.6627 255.016 90.812C253.168 91.3347 251.273 91.6053 249.332 91.624C249.108 91.624 248.865 91.6333 248.604 91.652C248.324 91.6707 248.053 91.68 247.792 91.68C247.045 91.68 246.317 91.5867 245.608 91.4C244.618 91.008 244.002 90.4013 243.76 89.58C243.554 88.9453 243.452 88.2547 243.452 87.508C243.452 87.3027 243.461 87.088 243.48 86.864C243.536 86.2853 243.853 85.968 244.432 85.912C245.104 85.8373 245.785 85.8 246.476 85.8C246.737 85.8 247.008 85.8093 247.288 85.828H247.904C248.538 85.828 249.164 85.8093 249.78 85.772H250.088C250.517 85.7533 250.974 85.7067 251.46 85.632C251.964 85.5387 252.356 85.352 252.636 85.072C252.822 84.8667 252.916 84.68 252.916 84.512C252.916 84.4373 252.878 84.3347 252.804 84.204C252.748 84.0547 252.542 83.9333 252.188 83.84C251.348 83.6347 250.489 83.532 249.612 83.532C249.537 83.532 249.248 83.5413 248.744 83.56C248.24 83.5787 247.512 83.644 246.56 83.756C245.626 83.8867 244.702 83.9613 243.788 83.98C243.377 83.98 243.106 83.8213 242.976 83.504C242.901 83.3547 242.864 83.2053 242.864 83.056C242.864 82.9067 242.91 82.72 243.004 82.496C243.116 82.2533 243.377 82.1133 243.788 82.076C244.254 82.0573 244.889 81.992 245.692 81.88C246.83 81.7307 248.072 81.6187 249.416 81.544C249.677 81.5253 249.92 81.516 250.144 81.516C251.17 81.516 252.15 81.656 253.084 81.936C254.017 82.216 254.577 82.8413 254.764 83.812C254.782 84.0173 254.792 84.2133 254.792 84.4C254.792 85.4267 254.4 86.2013 253.616 86.724C252.85 87.2467 251.824 87.564 250.536 87.676C249.658 87.7507 248.809 87.788 247.988 87.788C247.577 87.788 247.166 87.7787 246.756 87.76H245.384C245.384 88.3947 245.524 88.8707 245.804 89.188C246.102 89.524 246.662 89.7013 247.484 89.72C247.857 89.7387 248.221 89.748 248.576 89.748C250.592 89.748 252.57 89.4867 254.512 88.964Z" fill="black"/>
<path d="M305.196 77.456C305.606 77.4933 305.886 77.6707 306.036 77.988C306.11 78.1373 306.148 78.2867 306.148 78.436C306.148 78.5853 306.092 78.7813 305.98 79.024C305.868 79.248 305.606 79.36 305.196 79.36H304.552C303.301 79.36 302.032 79.4067 300.744 79.5C300.128 79.5373 299.502 79.5653 298.868 79.584C298.7 79.584 298.532 79.5933 298.364 79.612C298.009 79.6307 297.636 79.64 297.244 79.64C297.057 79.64 296.768 79.6307 296.376 79.612C296.002 79.5933 295.582 79.472 295.116 79.248C294.574 78.9493 294.21 78.548 294.024 78.044C293.837 77.54 293.706 76.9987 293.632 76.42C293.613 76.2893 293.594 76.168 293.576 76.056C293.277 74.208 292.876 72.3787 292.372 70.568C292.353 70.456 292.344 70.3627 292.344 70.288C292.344 70.0267 292.437 69.812 292.624 69.644C292.848 69.476 293.1 69.392 293.38 69.392C293.417 69.392 293.529 69.4107 293.716 69.448C293.921 69.4667 294.089 69.672 294.22 70.064C294.668 71.632 295.032 73.228 295.312 74.852C295.349 75.076 295.377 75.3 295.396 75.524C295.433 76.1027 295.545 76.6067 295.732 77.036C295.937 77.4467 296.394 77.6707 297.104 77.708C298.392 77.708 299.67 77.6613 300.94 77.568C302.116 77.4933 303.301 77.456 304.496 77.456H305.196ZM309.06 86.276C309.153 86.2573 309.237 86.248 309.312 86.248C309.592 86.248 309.816 86.3507 309.984 86.556C310.152 86.78 310.236 87.032 310.236 87.312C310.236 87.3493 310.217 87.4613 310.18 87.648C310.161 87.8533 309.956 88.012 309.564 88.124C307.51 88.628 305.41 88.908 303.264 88.964C302.461 88.9827 301.649 88.992 300.828 88.992C299.484 88.992 298.14 88.964 296.796 88.908C295.433 88.852 294.089 88.8147 292.764 88.796C292.353 88.7773 292.082 88.6093 291.952 88.292C291.877 88.1427 291.84 87.9933 291.84 87.844C291.84 87.6947 291.886 87.4987 291.98 87.256C292.092 87.032 292.353 86.9107 292.764 86.892C294.089 86.9107 295.442 86.948 296.824 87.004C297.626 87.0227 298.438 87.0413 299.26 87.06V86.948C299.409 86.3507 299.484 85.744 299.484 85.128C299.484 85.016 299.474 84.7453 299.456 84.316C299.437 83.8867 299.372 83.2987 299.26 82.552C299.129 81.7493 299.054 80.9653 299.036 80.2C299.036 79.7893 299.194 79.5187 299.512 79.388C299.661 79.3133 299.81 79.276 299.96 79.276C300.109 79.276 300.296 79.332 300.52 79.444C300.762 79.5373 300.902 79.7893 300.94 80.2C300.958 81.0213 301.024 81.8333 301.136 82.636C301.285 83.4387 301.36 84.232 301.36 85.016C301.36 85.7067 301.304 86.3973 301.192 87.088H301.892C304.356 87.088 306.745 86.8173 309.06 86.276Z" fill="black"/>
<path d="M45.3076 130.212C45.4196 130.175 45.5316 130.156 45.6436 130.156C45.8863 130.156 46.0823 130.249 46.2316 130.436C46.3996 130.623 46.4836 130.847 46.4836 131.108C46.4836 131.164 46.465 131.304 46.4276 131.528C46.409 131.733 46.2036 131.911 45.8116 132.06C44.0383 132.657 42.209 132.993 40.3236 133.068H40.2676C39.9503 133.087 39.6236 133.096 39.2876 133.096C38.8583 133.096 38.3076 133.068 37.6356 133.012C36.9823 132.956 36.3756 132.685 35.8156 132.2C35.3303 131.696 35.0503 131.061 34.9756 130.296C34.901 129.755 34.8636 129.232 34.8636 128.728C34.8636 128.541 34.873 128.345 34.8916 128.14V127.776C34.929 126.899 34.9663 126.012 35.0036 125.116C35.041 124.631 35.069 124.136 35.0876 123.632C34.8076 123.52 34.6303 123.315 34.5556 123.016C34.537 122.923 34.5276 122.829 34.5276 122.736C34.5276 122.549 34.5836 122.353 34.6956 122.148C34.8263 121.924 35.069 121.812 35.4236 121.812H35.5356C35.7036 121.681 35.8903 121.616 36.0956 121.616C36.3196 121.616 36.5156 121.681 36.6836 121.812H44.4676C44.8783 121.812 45.149 121.971 45.2796 122.288C45.3543 122.437 45.3916 122.596 45.3916 122.764C45.3916 122.913 45.3356 123.109 45.2236 123.352C45.1303 123.595 44.8783 123.716 44.4676 123.716H36.9916L36.9356 124.668C36.8983 125.265 36.8703 125.853 36.8516 126.432H37.5796C39.7263 126.432 41.873 126.357 44.0196 126.208C44.4303 126.208 44.7103 126.357 44.8596 126.656C44.9156 126.787 44.9436 126.927 44.9436 127.076C44.9436 127.244 44.8876 127.449 44.7756 127.692C44.6823 127.916 44.4303 128.056 44.0196 128.112C41.8356 128.261 39.6516 128.336 37.4676 128.336H36.7396C36.721 128.485 36.7116 128.635 36.7116 128.784C36.7116 129.493 36.8236 130.147 37.0476 130.744C37.1783 131.005 37.5143 131.164 38.0556 131.22C38.317 131.239 38.5876 131.248 38.8676 131.248C39.1476 131.248 39.5023 131.239 39.9316 131.22C40.361 131.183 40.7436 131.145 41.0796 131.108C41.1356 131.089 41.1823 131.08 41.2196 131.08C42.6196 130.949 43.9823 130.66 45.3076 130.212ZM49.4516 137.492C49.8623 137.492 50.133 137.651 50.2636 137.968C50.3383 138.117 50.3756 138.276 50.3756 138.444C50.3756 138.593 50.3196 138.789 50.2076 139.032C50.1143 139.275 49.8623 139.396 49.4516 139.396C46.633 139.396 43.8143 139.415 40.9956 139.452C38.1956 139.489 35.3863 139.583 32.5676 139.732C32.157 139.732 31.8863 139.583 31.7556 139.284C31.6996 139.135 31.6716 138.985 31.6716 138.836C31.6716 138.668 31.7183 138.472 31.8116 138.248C31.9236 138.005 32.1756 137.856 32.5676 137.8C35.3863 137.669 38.1956 137.585 40.9956 137.548C43.8143 137.511 46.633 137.492 49.4516 137.492Z" fill="black"/>
<path d="M142.616 130.688C141.962 130.931 141.3 131.052 140.628 131.052C139.918 131.052 139.022 130.865 137.94 130.492C136.857 130.119 135.97 129.307 135.28 128.056C134.944 127.347 134.776 126.637 134.776 125.928C134.776 125.331 134.962 124.575 135.336 123.66C135.728 122.727 136.586 121.952 137.912 121.336C138.826 120.944 139.732 120.748 140.628 120.748C141.076 120.748 141.748 120.851 142.644 121.056C143.54 121.243 144.352 122.027 145.08 123.408C145.49 124.267 145.696 125.116 145.696 125.956C145.696 126.46 145.556 127.169 145.276 128.084C145.014 128.999 144.202 129.829 142.84 130.576C142.821 130.595 142.793 130.604 142.756 130.604C142.737 130.604 142.718 130.613 142.7 130.632H142.672L142.616 130.688ZM138.276 123.324C137.454 123.884 136.932 124.603 136.708 125.48C136.67 125.667 136.652 125.844 136.652 126.012C136.652 126.665 136.95 127.291 137.548 127.888C138.462 128.709 139.461 129.12 140.544 129.12C140.992 129.12 141.458 129.045 141.944 128.896C142.84 128.373 143.428 127.664 143.708 126.768C143.801 126.469 143.848 126.171 143.848 125.872C143.848 125.256 143.652 124.649 143.26 124.052C142.644 123.212 141.878 122.736 140.964 122.624C140.814 122.605 140.665 122.596 140.516 122.596C139.75 122.596 139.004 122.839 138.276 123.324ZM154.6 123.576C154.917 123.763 155.076 124.005 155.076 124.304C155.076 124.323 155.066 124.425 155.048 124.612C155.029 124.799 154.88 124.985 154.6 125.172C154.45 125.284 154.292 125.34 154.124 125.34C153.974 125.34 153.816 125.303 153.648 125.228C153.218 125.004 152.938 124.883 152.808 124.864H152.304C151.968 124.864 151.632 124.873 151.296 124.892H151.268V125.76C151.268 126.133 151.277 126.488 151.296 126.824C152.304 126.843 153.302 126.927 154.292 127.076C154.684 127.188 154.908 127.403 154.964 127.72C154.982 127.776 154.992 127.841 154.992 127.916C154.992 128.159 154.898 128.383 154.712 128.588C154.544 128.812 154.301 128.924 153.984 128.924H153.788C153.097 128.812 152.406 128.756 151.716 128.756H151.408C151.445 129.092 151.464 129.428 151.464 129.764C151.464 130.249 151.417 130.809 151.324 131.444C151.23 132.079 150.95 132.555 150.484 132.872C150.334 132.947 150.185 132.984 150.036 132.984C149.924 132.984 149.774 132.947 149.588 132.872C149.401 132.797 149.252 132.62 149.14 132.34C149.084 132.209 149.056 132.088 149.056 131.976C149.056 131.901 149.065 131.808 149.084 131.696C149.102 131.565 149.14 131.416 149.196 131.248L149.308 130.856C149.364 130.501 149.392 130.147 149.392 129.792V128.476C149.392 127.543 149.373 126.609 149.336 125.676C149.317 125.172 149.308 124.659 149.308 124.136V123.688C149.308 123.072 149.27 122.437 149.196 121.784C149.14 121.112 148.925 120.431 148.552 119.74C148.458 119.553 148.412 119.385 148.412 119.236C148.412 119.068 148.486 118.881 148.636 118.676C148.785 118.471 149.028 118.349 149.364 118.312H149.476C149.756 118.312 149.998 118.461 150.204 118.76C150.577 119.451 150.82 120.113 150.932 120.748C151.062 121.383 151.146 122.139 151.184 123.016H151.24C151.501 122.997 151.772 122.988 152.052 122.988C152.444 122.988 152.808 123.007 153.144 123.044C153.498 123.081 153.984 123.259 154.6 123.576ZM143.596 134.468C144.51 134.076 145.425 133.88 146.34 133.88C146.788 133.88 147.469 133.983 148.384 134.188C149.298 134.375 150.12 135.168 150.848 136.568C151.258 137.445 151.464 138.304 151.464 139.144C151.464 139.648 151.324 140.357 151.044 141.272C150.782 142.205 149.961 143.045 148.58 143.792C148.542 143.811 148.514 143.82 148.496 143.82C148.477 143.82 148.458 143.829 148.44 143.848C148.421 143.848 148.412 143.857 148.412 143.876C148.393 143.876 148.374 143.885 148.356 143.904C147.702 144.147 147.021 144.268 146.312 144.268C145.621 144.268 144.725 144.081 143.624 143.708C142.541 143.335 141.645 142.513 140.936 141.244C140.6 140.516 140.432 139.797 140.432 139.088C140.432 138.491 140.618 137.735 140.992 136.82C141.384 135.887 142.252 135.103 143.596 134.468ZM147.684 142.112C148.58 141.589 149.177 140.871 149.476 139.956C149.569 139.657 149.616 139.359 149.616 139.06C149.616 138.444 149.42 137.828 149.028 137.212C148.393 136.353 147.609 135.868 146.676 135.756C146.526 135.737 146.377 135.728 146.228 135.728C145.444 135.728 144.688 135.971 143.96 136.456C143.12 137.035 142.588 137.763 142.364 138.64C142.326 138.827 142.308 139.004 142.308 139.172C142.308 139.863 142.616 140.507 143.232 141.104C144.165 141.925 145.173 142.336 146.256 142.336C146.722 142.336 147.198 142.261 147.684 142.112Z" fill="black"/>
<path d="M194.868 120.748C195.092 121.177 195.306 121.607 195.512 122.036C196.128 123.361 196.8 124.659 197.528 125.928C198.274 127.179 199.18 128.28 200.244 129.232C200.449 129.437 200.552 129.643 200.552 129.848C200.552 129.941 200.514 130.091 200.44 130.296C200.365 130.501 200.169 130.66 199.852 130.772C199.74 130.809 199.628 130.828 199.516 130.828C199.31 130.828 199.105 130.753 198.9 130.604C197.854 129.671 196.958 128.607 196.212 127.412C195.484 126.217 194.821 124.985 194.224 123.716C193.346 126.553 191.769 128.915 189.492 130.8C189.249 130.968 189.016 131.052 188.792 131.052C188.512 131.052 188.25 130.903 188.008 130.604H187.98C187.905 130.492 187.868 130.361 187.868 130.212C187.868 130.193 187.868 130.128 187.868 130.016C187.868 129.904 187.905 129.783 187.98 129.652C188.054 129.54 188.129 129.437 188.204 129.344C188.222 129.307 188.25 129.269 188.288 129.232C188.418 129.083 188.558 128.989 188.708 128.952C191.06 126.768 192.45 124.117 192.88 121C192.936 120.683 193.076 120.449 193.3 120.3C193.524 120.169 193.748 120.104 193.972 120.104C193.99 120.104 194.074 120.113 194.224 120.132C194.373 120.151 194.522 120.272 194.672 120.496C194.746 120.552 194.812 120.636 194.868 120.748ZM206.068 131.416C206.03 131.827 205.862 132.097 205.564 132.228C205.414 132.284 205.265 132.312 205.116 132.312C204.966 132.312 204.77 132.265 204.528 132.172C204.304 132.079 204.182 131.827 204.164 131.416C204.164 130.576 204.173 129.745 204.192 128.924C204.21 128.065 204.22 127.216 204.22 126.376C204.22 125.517 204.201 124.463 204.164 123.212C204.145 121.943 203.996 120.468 203.716 118.788V118.592C203.716 118.275 203.828 118.023 204.052 117.836C204.276 117.668 204.528 117.584 204.808 117.584C204.845 117.584 204.957 117.603 205.144 117.64C205.33 117.659 205.47 117.864 205.564 118.256C205.862 120.067 206.03 121.887 206.068 123.716C206.105 124.799 206.124 125.891 206.124 126.992C206.124 127.72 206.114 128.448 206.096 129.176C206.077 129.923 206.068 130.669 206.068 131.416ZM193.132 136.316C192.721 136.297 192.45 136.139 192.32 135.84C192.245 135.672 192.208 135.513 192.208 135.364C192.208 135.215 192.254 135.028 192.348 134.804C192.46 134.561 192.721 134.431 193.132 134.412C194.252 134.393 195.372 134.365 196.492 134.328C197.574 134.253 198.657 134.216 199.74 134.216C201.196 134.216 202.642 134.281 204.08 134.412C204.658 134.487 204.976 134.804 205.032 135.364C205.088 136.111 205.116 136.848 205.116 137.576C205.116 139.461 204.929 141.328 204.556 143.176C204.462 143.587 204.248 143.82 203.912 143.876H203.772C203.51 143.876 203.268 143.792 203.044 143.624C202.82 143.437 202.708 143.185 202.708 142.868V142.672C203.044 140.936 203.212 139.191 203.212 137.436C203.212 137.025 203.202 136.624 203.184 136.232C202.064 136.157 200.944 136.12 199.824 136.12C198.704 136.12 197.584 136.157 196.464 136.232C195.344 136.269 194.233 136.297 193.132 136.316Z" fill="black"/>
<path d="M248.464 130.688C247.81 130.931 247.148 131.052 246.476 131.052C245.766 131.052 244.87 130.865 243.788 130.492C242.705 130.119 241.818 129.307 241.128 128.056C240.792 127.347 240.624 126.637 240.624 125.928C240.624 125.331 240.81 124.575 241.184 123.66C241.576 122.727 242.434 121.952 243.76 121.336C244.674 120.944 245.58 120.748 246.476 120.748C246.924 120.748 247.596 120.851 248.492 121.056C249.388 121.243 250.2 122.027 250.928 123.408C251.338 124.267 251.544 125.116 251.544 125.956C251.544 126.46 251.404 127.169 251.124 128.084C250.862 128.999 250.05 129.829 248.688 130.576C248.669 130.595 248.641 130.604 248.604 130.604C248.585 130.604 248.566 130.613 248.548 130.632H248.52L248.464 130.688ZM244.124 123.324C243.302 123.884 242.78 124.603 242.556 125.48C242.518 125.667 242.5 125.844 242.5 126.012C242.5 126.665 242.798 127.291 243.396 127.888C244.31 128.709 245.309 129.12 246.392 129.12C246.84 129.12 247.306 129.045 247.792 128.896C248.688 128.373 249.276 127.664 249.556 126.768C249.649 126.469 249.696 126.171 249.696 125.872C249.696 125.256 249.5 124.649 249.108 124.052C248.492 123.212 247.726 122.736 246.812 122.624C246.662 122.605 246.513 122.596 246.364 122.596C245.598 122.596 244.852 122.839 244.124 123.324ZM257.788 131.416C257.75 131.827 257.582 132.097 257.284 132.228C257.134 132.284 256.985 132.312 256.836 132.312C256.686 132.312 256.49 132.265 256.248 132.172C256.024 132.079 255.902 131.827 255.884 131.416C255.884 130.576 255.893 129.745 255.912 128.924C255.93 128.065 255.94 127.216 255.94 126.376C255.94 125.517 255.921 124.463 255.884 123.212C255.865 121.943 255.716 120.468 255.436 118.788V118.592C255.436 118.275 255.548 118.023 255.772 117.836C255.996 117.668 256.248 117.584 256.528 117.584C256.565 117.584 256.677 117.603 256.864 117.64C257.05 117.659 257.19 117.864 257.284 118.256C257.582 120.067 257.75 121.887 257.788 123.716C257.825 124.799 257.844 125.891 257.844 126.992C257.844 127.72 257.834 128.448 257.816 129.176C257.797 129.923 257.788 130.669 257.788 131.416ZM254.736 134.272C254.717 134.328 254.708 134.393 254.708 134.468C254.708 134.617 254.736 134.86 254.792 135.196C254.848 135.532 254.922 135.933 255.016 136.4C255.146 137.035 255.24 137.548 255.296 137.94V138.136C255.352 138.509 255.38 138.892 255.38 139.284C255.38 139.489 255.37 139.788 255.352 140.18C255.333 140.591 255.156 141.039 254.82 141.524C254.092 142.364 253.084 142.821 251.796 142.896C251.385 142.915 250.984 142.924 250.592 142.924C249.696 142.924 248.8 142.868 247.904 142.756C247.194 142.681 246.569 142.635 246.028 142.616C245.766 142.597 245.542 142.495 245.356 142.308C245.169 142.14 245.076 141.925 245.076 141.664C245.057 139.499 244.908 137.352 244.628 135.224V135.084C244.628 134.748 244.749 134.487 244.992 134.3C245.216 134.113 245.449 134.02 245.692 134.02C245.766 134.02 245.897 134.039 246.084 134.076C246.27 134.113 246.401 134.328 246.476 134.72C246.55 135.28 246.606 135.831 246.644 136.372C246.662 136.54 246.681 136.699 246.7 136.848C247.316 136.829 247.922 136.801 248.52 136.764C249.509 136.689 250.508 136.652 251.516 136.652C252.076 136.652 252.645 136.661 253.224 136.68C253.224 136.643 253.214 136.596 253.196 136.54C253.177 136.372 253.149 136.204 253.112 136.036C253.093 135.868 253.065 135.691 253.028 135.504C252.953 135.205 252.897 134.907 252.86 134.608C252.841 134.515 252.832 134.421 252.832 134.328C252.832 134.123 252.86 133.936 252.916 133.768C253.046 133.376 253.28 133.152 253.616 133.096H253.756C254.017 133.096 254.26 133.18 254.484 133.348C254.67 133.497 254.764 133.703 254.764 133.964C254.764 134.057 254.754 134.16 254.736 134.272ZM253.42 139.956C253.438 139.732 253.448 139.508 253.448 139.284C253.448 139.06 253.438 138.836 253.42 138.612C252.729 138.556 252.029 138.528 251.32 138.528C250.386 138.528 249.453 138.575 248.52 138.668C247.96 138.705 247.409 138.733 246.868 138.752C246.905 139.424 246.933 140.096 246.952 140.768C247.026 140.768 247.101 140.777 247.176 140.796C247.941 140.871 248.8 140.936 249.752 140.992H250.368C251.058 140.992 251.721 140.936 252.356 140.824C253.009 140.712 253.364 140.423 253.42 139.956Z" fill="black"/>
<path d="M294.164 135.224C293.697 135.187 293.389 134.953 293.24 134.524C292.792 132.937 292.521 131.323 292.428 129.68C292.372 128.579 292.344 127.487 292.344 126.404C292.344 125.844 292.353 125.293 292.372 124.752C292.39 124.061 292.4 123.371 292.4 122.68C292.4 122.269 292.558 121.999 292.876 121.868C293.044 121.793 293.202 121.756 293.352 121.756C293.52 121.756 293.716 121.812 293.94 121.924C294.182 122.017 294.304 122.269 294.304 122.68V124.724C294.285 125.303 294.276 125.881 294.276 126.46C294.276 127.337 294.294 128.364 294.332 129.54C294.388 130.697 294.584 131.976 294.92 133.376C295.498 133.432 296.077 133.46 296.656 133.46C298.914 133.46 301.108 132.965 303.236 131.976C303.404 131.901 303.572 131.864 303.74 131.864C303.926 131.864 304.122 131.948 304.328 132.116C304.552 132.265 304.673 132.508 304.692 132.844V132.928C304.692 133.208 304.533 133.441 304.216 133.628C301.77 134.804 299.232 135.392 296.6 135.392C295.797 135.392 294.985 135.336 294.164 135.224ZM307.044 139.368C306.857 138.416 306.764 137.417 306.764 136.372C306.764 135.943 306.773 135.513 306.792 135.084C306.81 134.58 306.829 134.104 306.848 133.656V132.284C306.848 131.369 306.857 130.455 306.876 129.54C306.913 128.532 306.932 127.524 306.932 126.516C306.932 124.313 306.857 122.111 306.708 119.908V119.852C306.708 119.497 306.848 119.245 307.128 119.096C307.277 119.021 307.436 118.984 307.604 118.984C307.753 118.984 307.94 119.04 308.164 119.152C308.406 119.264 308.556 119.516 308.612 119.908C308.742 121.793 308.808 123.688 308.808 125.592C308.808 126.525 308.789 127.468 308.752 128.42C308.733 129.279 308.724 130.147 308.724 131.024C308.724 131.901 308.733 132.779 308.752 133.656C308.752 134.123 308.742 134.627 308.724 135.168C308.705 135.579 308.696 135.98 308.696 136.372C308.696 137.081 308.733 137.753 308.808 138.388C308.882 138.519 308.92 138.677 308.92 138.864V139.116C308.901 139.471 308.761 139.732 308.5 139.9C308.332 139.993 308.154 140.04 307.968 140.04C307.874 140.04 307.725 140.012 307.52 139.956C307.314 139.919 307.156 139.723 307.044 139.368Z" fill="black"/>
<path d="M32.7356 186.888C31.541 186.253 30.813 185.292 30.5516 184.004C30.3276 182.94 30.2156 181.82 30.2156 180.644C30.2156 180.401 30.225 180.149 30.2436 179.888V179.216C30.2436 177.835 30.0943 176.621 29.7956 175.576C29.7583 175.445 29.7396 175.333 29.7396 175.24C29.7396 175.128 29.7676 175.007 29.8236 174.876C29.8796 174.745 30.0103 174.633 30.2156 174.54C30.3836 174.26 30.6356 174.12 30.9716 174.12C31.0463 174.12 31.1303 174.129 31.2236 174.148C32.1943 174.335 33.165 174.428 34.1356 174.428C34.8823 174.428 35.629 174.372 36.3756 174.26C37.2903 174.167 38.205 174.12 39.1196 174.12H39.5676C39.9783 174.157 40.249 174.335 40.3796 174.652C40.4543 174.801 40.4916 174.951 40.4916 175.1C40.4916 175.249 40.4356 175.445 40.3236 175.688C40.2303 175.912 39.9783 176.024 39.5676 176.024H39.0916C38.1396 176.024 37.1876 176.071 36.2356 176.164C35.4703 176.239 34.705 176.276 33.9396 176.276C33.2676 176.276 32.5956 176.248 31.9236 176.192C32.0356 176.957 32.0916 177.732 32.0916 178.516C32.0916 178.815 32.0823 179.113 32.0636 179.412C32.045 179.767 32.0356 180.121 32.0356 180.476C32.0356 180.999 32.0636 181.596 32.1196 182.268C32.1756 182.921 32.3996 183.612 32.7916 184.34C33.221 185.012 33.837 185.385 34.6396 185.46C34.9943 185.497 35.349 185.516 35.7036 185.516C36.133 185.516 36.553 185.488 36.9636 185.432C37.057 185.432 37.1503 185.423 37.2436 185.404C37.8223 185.385 38.485 185.301 39.2316 185.152C39.9783 184.984 40.4916 184.667 40.7716 184.2C40.9396 183.883 41.173 183.724 41.4716 183.724C41.4903 183.724 41.5836 183.733 41.7516 183.752C41.9383 183.771 42.1343 183.911 42.3396 184.172C42.4516 184.321 42.5076 184.489 42.5076 184.676C42.5076 184.844 42.4703 185.012 42.3956 185.18C41.929 186.039 41.0796 186.655 39.8476 187.028C38.765 187.345 37.645 187.504 36.4876 187.504C36.301 187.504 35.825 187.495 35.0596 187.476C34.313 187.457 33.5383 187.261 32.7356 186.888ZM51.6076 180.784H51.6636C51.9996 180.784 52.233 180.915 52.3636 181.176C52.4756 181.363 52.5316 181.568 52.5316 181.792C52.5316 181.885 52.5036 182.035 52.4476 182.24C52.3916 182.427 52.1956 182.567 51.8596 182.66C51.7663 182.679 51.673 182.688 51.5796 182.688C51.5423 182.707 51.4956 182.716 51.4396 182.716H51.3836C50.3383 182.809 49.097 182.856 47.6596 182.856H46.9316L46.7636 185.544C46.577 187.933 46.4743 189.567 46.4556 190.444C46.437 190.855 46.269 191.125 45.9516 191.256C45.8023 191.331 45.653 191.368 45.5036 191.368C45.3543 191.368 45.1583 191.312 44.9156 191.2C44.6916 191.107 44.5703 190.855 44.5516 190.444C44.5703 189.604 44.673 188.008 44.8596 185.656C45.065 183.229 45.1863 180.803 45.2236 178.376V177.256C45.2236 175.352 45.1023 173.803 44.8596 172.608V172.468C44.8596 172.113 44.9716 171.843 45.1956 171.656C45.4196 171.488 45.653 171.404 45.8956 171.404C45.9516 171.404 46.073 171.423 46.2596 171.46C46.465 171.479 46.6143 171.693 46.7076 172.104C46.9876 173.709 47.1276 175.529 47.1276 177.564C47.1276 178.647 47.0903 179.776 47.0156 180.952H47.6876C49.1996 180.952 50.5063 180.896 51.6076 180.784Z" fill="black"/>
<path d="M93.0639 193.216C92.7279 193.216 92.4479 193.039 92.2239 192.684C92.0372 192.292 91.9252 191.909 91.8879 191.536C91.8505 191.163 91.8319 190.817 91.8319 190.5C91.8319 190.239 91.9252 190.015 92.1119 189.828C92.2985 189.641 92.5225 189.548 92.7839 189.548C93.0452 189.548 93.2692 189.641 93.4559 189.828C93.6425 190.015 93.7359 190.239 93.7359 190.5C93.7359 191.023 93.8012 191.471 93.9319 191.844C94.0065 191.993 94.0439 192.143 94.0439 192.292C94.0439 192.385 94.0252 192.479 93.9879 192.572C93.8945 192.796 93.7359 192.973 93.5119 193.104C93.3625 193.179 93.2132 193.216 93.0639 193.216Z" fill="black"/>
<path d="M93.9756 24.476C94.1063 24.4387 94.2276 24.42 94.3396 24.42C94.5636 24.42 94.741 24.4947 94.8716 24.644C95.0396 24.8493 95.1236 25.092 95.1236 25.372C95.1236 25.428 95.105 25.5587 95.0676 25.764C95.049 25.9507 94.853 26.1373 94.4796 26.324C93.0423 26.9213 91.3063 27.3413 89.2716 27.584C88.749 27.6587 88.245 27.696 87.7596 27.696C86.3596 27.696 85.137 27.4067 84.0916 26.828C83.0463 26.0627 82.4116 24.8867 82.1876 23.3C82.0756 22.572 82.0196 21.872 82.0196 21.2C82.0196 20.4347 82.0943 19.716 82.2436 19.044C82.113 18.8387 82.0476 18.624 82.0476 18.4C82.0476 18.288 82.085 18.1107 82.1596 17.868C82.2343 17.6253 82.505 17.4853 82.9716 17.448C84.5023 17.4293 86.033 17.392 87.5636 17.336C89.0383 17.28 90.513 17.2427 91.9876 17.224C92.3983 17.2427 92.669 17.4107 92.7996 17.728C92.8743 17.8773 92.9116 18.0267 92.9116 18.176C92.9116 18.3253 92.8556 18.5213 92.7436 18.764C92.6503 18.988 92.3983 19.1093 91.9876 19.128C90.4756 19.1467 88.9823 19.184 87.5076 19.24C86.369 19.2773 85.2396 19.3147 84.1196 19.352C83.9703 19.9493 83.8956 20.584 83.8956 21.256C83.8956 21.4613 83.9143 21.8627 83.9516 22.46C83.989 23.0387 84.213 23.6827 84.6236 24.392C85.053 25.1013 85.7156 25.4933 86.6116 25.568C86.985 25.5867 87.349 25.596 87.7036 25.596C89.8503 25.596 91.941 25.2227 93.9756 24.476ZM103.16 20.388C103.57 20.4253 103.841 20.5933 103.972 20.892C104.046 21.0413 104.084 21.2 104.084 21.368C104.084 21.5173 104.028 21.7133 103.916 21.956C103.822 22.18 103.57 22.292 103.16 22.292H102.32C102.189 22.292 102.077 22.2733 101.984 22.236C101.256 22.18 100.518 22.1427 99.7716 22.124V22.236C99.7716 22.3293 99.7623 22.4133 99.7436 22.488C99.7436 22.88 99.7623 23.3467 99.7996 23.888C99.837 24.3733 99.8556 24.7653 99.8556 25.064C99.8556 25.2507 99.837 25.4373 99.7996 25.624C99.781 25.8107 99.6223 26.1747 99.3236 26.716C99.0996 27.0147 98.8476 27.164 98.5676 27.164C98.5303 27.164 98.4183 27.1547 98.2316 27.136C98.045 27.1173 97.8583 26.9773 97.6716 26.716C97.5783 26.5667 97.5316 26.4173 97.5316 26.268C97.5316 26.1 97.5783 25.932 97.6716 25.764C97.8583 25.3907 97.9516 25.0267 97.9516 24.672C97.9703 24.3173 97.9516 23.692 97.8956 22.796C97.877 22.18 97.8676 21.6853 97.8676 21.312C97.8676 20.8827 97.877 20.444 97.8956 19.996C97.933 19.4173 97.9516 18.8853 97.9516 18.4C97.9516 17.28 97.8583 16.3933 97.6716 15.74C97.653 15.6653 97.6436 15.6 97.6436 15.544C97.6436 15.2267 97.7556 14.984 97.9796 14.816C98.185 14.6293 98.4183 14.536 98.6796 14.536C98.7356 14.536 98.857 14.5547 99.0436 14.592C99.249 14.6293 99.4076 14.844 99.5196 15.236C99.7623 16.076 99.8836 17.168 99.8836 18.512C99.8836 19.0533 99.865 19.6227 99.8276 20.22C100.294 20.2387 100.752 20.2667 101.2 20.304C101.853 20.36 102.506 20.388 103.16 20.388ZM98.1196 36.964C98.2316 36.9453 98.325 36.936 98.3996 36.936C98.661 36.936 98.8756 37.0293 99.0436 37.216C99.2116 37.4027 99.2956 37.6267 99.2956 37.888C99.2956 37.944 99.277 38.0747 99.2396 38.28C99.221 38.4853 99.0156 38.6627 98.6236 38.812C96.7756 39.3347 94.881 39.6053 92.9396 39.624C92.7156 39.624 92.473 39.6333 92.2116 39.652C91.9316 39.6707 91.661 39.68 91.3996 39.68C90.653 39.68 89.925 39.5867 89.2156 39.4C88.2263 39.008 87.6103 38.4013 87.3676 37.58C87.1623 36.9453 87.0596 36.2547 87.0596 35.508C87.0596 35.3027 87.069 35.088 87.0876 34.864C87.1436 34.2853 87.461 33.968 88.0396 33.912C88.7116 33.8373 89.393 33.8 90.0836 33.8C90.345 33.8 90.6156 33.8093 90.8956 33.828H91.5116C92.1463 33.828 92.7716 33.8093 93.3876 33.772H93.6956C94.125 33.7533 94.5823 33.7067 95.0676 33.632C95.5716 33.5387 95.9636 33.352 96.2436 33.072C96.4303 32.8667 96.5236 32.68 96.5236 32.512C96.5236 32.4373 96.4863 32.3347 96.4116 32.204C96.3556 32.0547 96.1503 31.9333 95.7956 31.84C94.9556 31.6347 94.097 31.532 93.2196 31.532C93.145 31.532 92.8556 31.5413 92.3516 31.56C91.8476 31.5787 91.1196 31.644 90.1676 31.756C89.2343 31.8867 88.3103 31.9613 87.3956 31.98C86.985 31.98 86.7143 31.8213 86.5836 31.504C86.509 31.3547 86.4716 31.2053 86.4716 31.056C86.4716 30.9067 86.5183 30.72 86.6116 30.496C86.7236 30.2533 86.985 30.1133 87.3956 30.076C87.8623 30.0573 88.497 29.992 89.2996 29.88C90.4383 29.7307 91.6796 29.6187 93.0236 29.544C93.285 29.5253 93.5276 29.516 93.7516 29.516C94.7783 29.516 95.7583 29.656 96.6916 29.936C97.625 30.216 98.185 30.8413 98.3716 31.812C98.3903 32.0173 98.3996 32.2133 98.3996 32.4C98.3996 33.4267 98.0076 34.2013 97.2236 34.724C96.4583 35.2467 95.4316 35.564 94.1436 35.676C93.2663 35.7507 92.417 35.788 91.5956 35.788C91.185 35.788 90.7743 35.7787 90.3636 35.76H88.9916C88.9916 36.3947 89.1316 36.8707 89.4116 37.188C89.7103 37.524 90.2703 37.7013 91.0916 37.72C91.465 37.7387 91.829 37.748 92.1836 37.748C94.1996 37.748 96.1783 37.4867 98.1196 36.964Z" fill="black"/>
<path d="M146.34 17.476H146.76C147.301 17.476 147.861 17.532 148.44 17.644C149.037 17.756 149.513 18.0827 149.868 18.624C150.092 19.072 150.204 19.576 150.204 20.136C150.204 20.192 150.194 20.388 150.176 20.724C150.157 21.06 150.092 21.5267 149.98 22.124C149.924 22.4413 149.877 22.74 149.84 23.02C149.709 25.148 149.158 27.164 148.188 29.068C147.982 29.3853 147.73 29.544 147.432 29.544C147.413 29.544 147.31 29.5347 147.124 29.516C146.937 29.4973 146.75 29.348 146.564 29.068C146.452 28.9373 146.396 28.788 146.396 28.62C146.396 28.4707 146.442 28.3027 146.536 28.116C146.648 27.892 146.834 27.3507 147.096 26.492C147.376 25.6333 147.637 24.6813 147.88 23.636C148.122 22.572 148.272 21.6387 148.328 20.836V20.472C148.328 19.8933 148.206 19.5667 147.964 19.492C147.124 19.38 146.265 19.324 145.388 19.324C144.324 19.324 143.25 19.408 142.168 19.576C140.917 19.7253 139.666 19.8 138.416 19.8H137.996C137.604 19.7627 137.333 19.5853 137.184 19.268C137.128 19.1 137.1 18.9413 137.1 18.792C137.1 18.6427 137.146 18.456 137.24 18.232C137.333 18.008 137.585 17.896 137.996 17.896H138.5C139.825 17.896 141.141 17.8307 142.448 17.7C143.736 17.5693 145.033 17.4947 146.34 17.476ZM153.06 34.276C153.153 34.2573 153.237 34.248 153.312 34.248C153.592 34.248 153.816 34.3507 153.984 34.556C154.152 34.78 154.236 35.032 154.236 35.312C154.236 35.3493 154.217 35.4613 154.18 35.648C154.161 35.8533 153.956 36.012 153.564 36.124C151.51 36.628 149.41 36.908 147.264 36.964C146.461 36.9827 145.649 36.992 144.828 36.992C143.484 36.992 142.14 36.964 140.796 36.908C139.433 36.852 138.089 36.8147 136.764 36.796C136.353 36.7773 136.082 36.6093 135.952 36.292C135.877 36.1427 135.84 35.9933 135.84 35.844C135.84 35.6947 135.886 35.4987 135.98 35.256C136.092 35.032 136.353 34.9107 136.764 34.892C138.089 34.9107 139.442 34.948 140.824 35.004C141.626 35.0227 142.438 35.0413 143.26 35.06V34.948C143.409 34.3507 143.484 33.744 143.484 33.128C143.484 33.016 143.474 32.7453 143.456 32.316C143.437 31.8867 143.372 31.2987 143.26 30.552C143.129 29.7493 143.054 28.9653 143.036 28.2C143.036 27.7893 143.194 27.5187 143.512 27.388C143.661 27.3133 143.81 27.276 143.96 27.276C144.109 27.276 144.296 27.332 144.52 27.444C144.762 27.5373 144.902 27.7893 144.94 28.2C144.958 29.0213 145.024 29.8333 145.136 30.636C145.285 31.4387 145.36 32.232 145.36 33.016C145.36 33.7067 145.304 34.3973 145.192 35.088H145.892C148.356 35.088 150.745 34.8173 153.06 34.276Z" fill="black"/>
<path d="M187.728 31.224C187.261 31.1867 186.953 30.9533 186.804 30.524C186.356 28.9373 186.085 27.3227 185.992 25.68C185.936 24.5787 185.908 23.4867 185.908 22.404C185.908 21.844 185.917 21.2933 185.936 20.752C185.954 20.0613 185.964 19.3707 185.964 18.68C185.964 18.2693 186.122 17.9987 186.44 17.868C186.608 17.7933 186.766 17.756 186.916 17.756C187.084 17.756 187.28 17.812 187.504 17.924C187.746 18.0173 187.868 18.2693 187.868 18.68V20.724C187.849 21.3027 187.84 21.8813 187.84 22.46C187.84 23.3373 187.858 24.364 187.896 25.54C187.952 26.6973 188.148 27.976 188.484 29.376C189.062 29.432 189.641 29.46 190.22 29.46C192.478 29.46 194.672 28.9653 196.8 27.976C196.968 27.9013 197.136 27.864 197.304 27.864C197.49 27.864 197.686 27.948 197.892 28.116C198.116 28.2653 198.237 28.508 198.256 28.844V28.928C198.256 29.208 198.097 29.4413 197.78 29.628C195.334 30.804 192.796 31.392 190.164 31.392C189.361 31.392 188.549 31.336 187.728 31.224ZM207.384 24.784H207.44C207.776 24.784 208.009 24.9147 208.14 25.176C208.252 25.3627 208.308 25.568 208.308 25.792C208.308 25.8853 208.28 26.0347 208.224 26.24C208.168 26.4267 207.972 26.5667 207.636 26.66C207.542 26.6787 207.449 26.688 207.356 26.688C207.318 26.7067 207.272 26.716 207.216 26.716H207.16C206.114 26.8093 204.873 26.856 203.436 26.856H202.708L202.54 29.544C202.353 31.9333 202.25 33.5667 202.232 34.444C202.213 34.8547 202.045 35.1253 201.728 35.256C201.578 35.3307 201.429 35.368 201.28 35.368C201.13 35.368 200.934 35.312 200.692 35.2C200.468 35.1067 200.346 34.8547 200.328 34.444C200.346 33.604 200.449 32.008 200.636 29.656C200.841 27.2293 200.962 24.8027 201 22.376V21.256C201 19.352 200.878 17.8027 200.636 16.608V16.468C200.636 16.1133 200.748 15.8427 200.972 15.656C201.196 15.488 201.429 15.404 201.672 15.404C201.728 15.404 201.849 15.4227 202.036 15.46C202.241 15.4787 202.39 15.6933 202.484 16.104C202.764 17.7093 202.904 19.5293 202.904 21.564C202.904 22.6467 202.866 23.776 202.792 24.952H203.464C204.976 24.952 206.282 24.896 207.384 24.784Z" fill="black"/>
<path d="M302.872 17.476H303.292C303.833 17.476 304.393 17.532 304.972 17.644C305.569 17.756 306.045 18.0827 306.4 18.624C306.624 19.072 306.736 19.576 306.736 20.136C306.736 20.192 306.726 20.388 306.708 20.724C306.689 21.06 306.624 21.5267 306.512 22.124C306.456 22.4413 306.409 22.74 306.372 23.02C306.241 25.148 305.69 27.164 304.72 29.068C304.514 29.3853 304.262 29.544 303.964 29.544C303.945 29.544 303.842 29.5347 303.656 29.516C303.469 29.4973 303.282 29.348 303.096 29.068C302.984 28.9373 302.928 28.788 302.928 28.62C302.928 28.4707 302.974 28.3027 303.068 28.116C303.18 27.892 303.366 27.3507 303.628 26.492C303.908 25.6333 304.169 24.6813 304.412 23.636C304.654 22.572 304.804 21.6387 304.86 20.836V20.472C304.86 19.8933 304.738 19.5667 304.496 19.492C303.656 19.38 302.797 19.324 301.92 19.324C300.856 19.324 299.782 19.408 298.7 19.576C297.449 19.7253 296.198 19.8 294.948 19.8H294.528C294.136 19.7627 293.865 19.5853 293.716 19.268C293.66 19.1 293.632 18.9413 293.632 18.792C293.632 18.6427 293.678 18.456 293.772 18.232C293.865 18.008 294.117 17.896 294.528 17.896H295.032C296.357 17.896 297.673 17.8307 298.98 17.7C300.268 17.5693 301.565 17.4947 302.872 17.476ZM309.452 33.492C309.862 33.492 310.133 33.6507 310.264 33.968C310.338 34.1173 310.376 34.276 310.376 34.444C310.376 34.5933 310.32 34.7893 310.208 35.032C310.114 35.2747 309.862 35.396 309.452 35.396C306.633 35.396 303.814 35.4147 300.996 35.452C298.196 35.4893 295.386 35.5827 292.568 35.732C292.157 35.732 291.886 35.5827 291.756 35.284C291.7 35.1347 291.672 34.9853 291.672 34.836C291.672 34.668 291.718 34.472 291.812 34.248C291.924 34.0053 292.176 33.856 292.568 33.8C295.386 33.6693 298.196 33.5853 300.996 33.548C303.814 33.5107 306.633 33.492 309.452 33.492Z" fill="black"/>
<g clip-path="url(#clip0_3232_9274)">
<path d="M67 0L67 579" stroke="#D9D9D9" stroke-linecap="round"/>
<path d="M119 0L119 579" stroke="#D9D9D9" stroke-linecap="round"/>
<path d="M171 0L171 579" stroke="#D9D9D9" stroke-linecap="round"/>
<path d="M223 0L223 579" stroke="#D9D9D9" stroke-linecap="round"/>
<path d="M275 0L275 579" stroke="#D9D9D9" stroke-linecap="round"/>
<path d="M428 52L-8.99999 52" stroke="#D9D9D9" stroke-linecap="round"/>
<path d="M428 104L-8.99999 104" stroke="#D9D9D9" stroke-linecap="round"/>
<path d="M428 156L-8.99999 156" stroke="#D9D9D9" stroke-linecap="round"/>
<path d="M428 208L-8.99999 208" stroke="#D9D9D9" stroke-linecap="round"/>
<path d="M428 260L-8.99999 260" stroke="#D9D9D9" stroke-linecap="round"/>
<path d="M428 312L-8.99999 312" stroke="#D9D9D9" stroke-linecap="round"/>
<path d="M428 364L-8.99999 364" stroke="#D9D9D9" stroke-linecap="round"/>
</g>
<defs>
<clipPath id="clip0_3232_9274">
<rect width="312" height="402" fill="white" transform="translate(15)"/>
</clipPath>
</defs>
</svg>
