<svg width="310" height="396" viewBox="0 0 310 396" fill="none" xmlns="http://www.w3.org/2000/svg">
<g clip-path="url(#clip0_3490_90025)">
<path d="M0 0H358" stroke="#B8B3B3" stroke-opacity="0.4"/>
<path d="M0 44H358" stroke="#B8B3B3" stroke-opacity="0.4"/>
<path d="M0 88H179H358" stroke="#B8B3B3" stroke-opacity="0.4"/>
<path d="M0 132H179H358" stroke="#B8B3B3" stroke-opacity="0.4"/>
<path d="M0 176H358" stroke="#B8B3B3" stroke-opacity="0.4"/>
<path d="M0 220H358" stroke="#B8B3B3" stroke-opacity="0.4"/>
<path d="M0 264H358" stroke="#B8B3B3" stroke-opacity="0.4"/>
<path d="M0 308H358" stroke="#B8B3B3" stroke-opacity="0.4"/>
<path d="M0 352H358" stroke="#B8B3B3" stroke-opacity="0.4"/>
<path d="M0 396H358" stroke="#B8B3B3" stroke-opacity="0.4"/>
<path d="M22.01 20.556C22.094 20.532 22.172 20.52 22.244 20.52C22.388 20.52 22.502 20.568 22.586 20.664C22.694 20.796 22.748 20.952 22.748 21.132C22.748 21.168 22.736 21.252 22.712 21.384C22.7 21.504 22.574 21.624 22.334 21.744C21.41 22.128 20.294 22.398 18.986 22.554C18.65 22.602 18.326 22.626 18.014 22.626C17.114 22.626 16.328 22.44 15.656 22.068C14.984 21.576 14.576 20.82 14.432 19.8C14.36 19.332 14.324 18.882 14.324 18.45C14.324 17.958 14.372 17.496 14.468 17.064C14.384 16.932 14.342 16.794 14.342 16.65C14.342 16.578 14.366 16.464 14.414 16.308C14.462 16.152 14.636 16.062 14.936 16.038C15.92 16.026 16.904 16.002 17.888 15.966C18.836 15.93 19.784 15.906 20.732 15.894C20.996 15.906 21.17 16.014 21.254 16.218C21.302 16.314 21.326 16.41 21.326 16.506C21.326 16.602 21.29 16.728 21.218 16.884C21.158 17.028 20.996 17.106 20.732 17.118C19.76 17.13 18.8 17.154 17.852 17.19C17.12 17.214 16.394 17.238 15.674 17.262C15.578 17.646 15.53 18.054 15.53 18.486C15.53 18.618 15.542 18.876 15.566 19.26C15.59 19.632 15.734 20.046 15.998 20.502C16.274 20.958 16.7 21.21 17.276 21.258C17.516 21.27 17.75 21.276 17.978 21.276C19.358 21.276 20.702 21.036 22.01 20.556ZM27.914 17.928C28.178 17.952 28.352 18.06 28.436 18.252C28.484 18.348 28.508 18.45 28.508 18.558C28.508 18.654 28.472 18.78 28.4 18.936C28.34 19.08 28.178 19.152 27.914 19.152H27.374C27.29 19.152 27.218 19.14 27.158 19.116C26.69 19.08 26.216 19.056 25.736 19.044V19.116C25.736 19.176 25.73 19.23 25.718 19.278C25.718 19.53 25.73 19.83 25.754 20.178C25.778 20.49 25.79 20.742 25.79 20.934C25.79 21.054 25.778 21.174 25.754 21.294C25.742 21.414 25.64 21.648 25.448 21.996C25.304 22.188 25.142 22.284 24.962 22.284C24.938 22.284 24.866 22.278 24.746 22.266C24.626 22.254 24.506 22.164 24.386 21.996C24.326 21.9 24.296 21.804 24.296 21.708C24.296 21.6 24.326 21.492 24.386 21.384C24.506 21.144 24.566 20.91 24.566 20.682C24.578 20.454 24.566 20.052 24.53 19.476C24.518 19.08 24.512 18.762 24.512 18.522C24.512 18.246 24.518 17.964 24.53 17.676C24.554 17.304 24.566 16.962 24.566 16.65C24.566 15.93 24.506 15.36 24.386 14.94C24.374 14.892 24.368 14.85 24.368 14.814C24.368 14.61 24.44 14.454 24.584 14.346C24.716 14.226 24.866 14.166 25.034 14.166C25.07 14.166 25.148 14.178 25.268 14.202C25.4 14.226 25.502 14.364 25.574 14.616C25.73 15.156 25.808 15.858 25.808 16.722C25.808 17.07 25.796 17.436 25.772 17.82C26.072 17.832 26.366 17.85 26.654 17.874C27.074 17.91 27.494 17.928 27.914 17.928ZM24.674 28.584C24.746 28.572 24.806 28.566 24.854 28.566C25.022 28.566 25.16 28.626 25.268 28.746C25.376 28.866 25.43 29.01 25.43 29.178C25.43 29.214 25.418 29.298 25.394 29.43C25.382 29.562 25.25 29.676 24.998 29.772C23.81 30.108 22.592 30.282 21.344 30.294C21.2 30.294 21.044 30.3 20.876 30.312C20.696 30.324 20.522 30.33 20.354 30.33C19.874 30.33 19.406 30.27 18.95 30.15C18.314 29.898 17.918 29.508 17.762 28.98C17.63 28.572 17.564 28.128 17.564 27.648C17.564 27.516 17.57 27.378 17.582 27.234C17.618 26.862 17.822 26.658 18.194 26.622C18.626 26.574 19.064 26.55 19.508 26.55C19.676 26.55 19.85 26.556 20.03 26.568H20.426C20.834 26.568 21.236 26.556 21.632 26.532H21.83C22.106 26.52 22.4 26.49 22.712 26.442C23.036 26.382 23.288 26.262 23.468 26.082C23.588 25.95 23.648 25.83 23.648 25.722C23.648 25.674 23.624 25.608 23.576 25.524C23.54 25.428 23.408 25.35 23.18 25.29C22.64 25.158 22.088 25.092 21.524 25.092C21.476 25.092 21.29 25.098 20.966 25.11C20.642 25.122 20.174 25.164 19.562 25.236C18.962 25.32 18.368 25.368 17.78 25.38C17.516 25.38 17.342 25.278 17.258 25.074C17.21 24.978 17.186 24.882 17.186 24.786C17.186 24.69 17.216 24.57 17.276 24.426C17.348 24.27 17.516 24.18 17.78 24.156C18.08 24.144 18.488 24.102 19.004 24.03C19.736 23.934 20.534 23.862 21.398 23.814C21.566 23.802 21.722 23.796 21.866 23.796C22.526 23.796 23.156 23.886 23.756 24.066C24.356 24.246 24.716 24.648 24.836 25.272C24.848 25.404 24.854 25.53 24.854 25.65C24.854 26.31 24.602 26.808 24.098 27.144C23.606 27.48 22.946 27.684 22.118 27.756C21.554 27.804 21.008 27.828 20.48 27.828C20.216 27.828 19.952 27.822 19.688 27.81H18.806C18.806 28.218 18.896 28.524 19.076 28.728C19.268 28.944 19.628 29.058 20.156 29.07C20.396 29.082 20.63 29.088 20.858 29.088C22.154 29.088 23.426 28.92 24.674 28.584ZM38.4496 16.056H38.7196C39.0676 16.056 39.4276 16.092 39.7996 16.164C40.1836 16.236 40.4896 16.446 40.7176 16.794C40.8616 17.082 40.9336 17.406 40.9336 17.766C40.9336 17.802 40.9276 17.928 40.9156 18.144C40.9036 18.36 40.8616 18.66 40.7896 19.044C40.7536 19.248 40.7236 19.44 40.6996 19.62C40.6156 20.988 40.2616 22.284 39.6376 23.508C39.5056 23.712 39.3436 23.814 39.1516 23.814C39.1396 23.814 39.0736 23.808 38.9536 23.796C38.8336 23.784 38.7136 23.688 38.5936 23.508C38.5216 23.424 38.4856 23.328 38.4856 23.22C38.4856 23.124 38.5156 23.016 38.5756 22.896C38.6476 22.752 38.7676 22.404 38.9356 21.852C39.1156 21.3 39.2836 20.688 39.4396 20.016C39.5956 19.332 39.6916 18.732 39.7276 18.216V17.982C39.7276 17.61 39.6496 17.4 39.4936 17.352C38.9536 17.28 38.4016 17.244 37.8376 17.244C37.1536 17.244 36.4636 17.298 35.7676 17.406C34.9636 17.502 34.1596 17.55 33.3556 17.55H33.0856C32.8336 17.526 32.6596 17.412 32.5636 17.208C32.5276 17.1 32.5096 16.998 32.5096 16.902C32.5096 16.806 32.5396 16.686 32.5996 16.542C32.6596 16.398 32.8216 16.326 33.0856 16.326H33.4096C34.2616 16.326 35.1076 16.284 35.9476 16.2C36.7756 16.116 37.6096 16.068 38.4496 16.056ZM42.7696 26.856C42.8296 26.844 42.8836 26.838 42.9316 26.838C43.1116 26.838 43.2556 26.904 43.3636 27.036C43.4716 27.18 43.5256 27.342 43.5256 27.522C43.5256 27.546 43.5136 27.618 43.4896 27.738C43.4776 27.87 43.3456 27.972 43.0936 28.044C41.7736 28.368 40.4236 28.548 39.0436 28.584C38.5276 28.596 38.0056 28.602 37.4776 28.602C36.6136 28.602 35.7496 28.584 34.8856 28.548C34.0096 28.512 33.1456 28.488 32.2936 28.476C32.0296 28.464 31.8556 28.356 31.7716 28.152C31.7236 28.056 31.6996 27.96 31.6996 27.864C31.6996 27.768 31.7296 27.642 31.7896 27.486C31.8616 27.342 32.0296 27.264 32.2936 27.252C33.1456 27.264 34.0156 27.288 34.9036 27.324C35.4196 27.336 35.9416 27.348 36.4696 27.36V27.288C36.5656 26.904 36.6136 26.514 36.6136 26.118C36.6136 26.046 36.6076 25.872 36.5956 25.596C36.5836 25.32 36.5416 24.942 36.4696 24.462C36.3856 23.946 36.3376 23.442 36.3256 22.95C36.3256 22.686 36.4276 22.512 36.6316 22.428C36.7276 22.38 36.8236 22.356 36.9196 22.356C37.0156 22.356 37.1356 22.392 37.2796 22.464C37.4356 22.524 37.5256 22.686 37.5496 22.95C37.5616 23.478 37.6036 24 37.6756 24.516C37.7716 25.032 37.8196 25.542 37.8196 26.046C37.8196 26.49 37.7836 26.934 37.7116 27.378H38.1616C39.7456 27.378 41.2816 27.204 42.7696 26.856ZM47.8333 24.894C47.5333 24.87 47.3353 24.72 47.2393 24.444C46.9513 23.424 46.7773 22.386 46.7173 21.33C46.6813 20.622 46.6633 19.92 46.6633 19.224C46.6633 18.864 46.6693 18.51 46.6813 18.162C46.6933 17.718 46.6993 17.274 46.6993 16.83C46.6993 16.566 46.8013 16.392 47.0053 16.308C47.1133 16.26 47.2153 16.236 47.3113 16.236C47.4193 16.236 47.5453 16.272 47.6893 16.344C47.8453 16.404 47.9233 16.566 47.9233 16.83V18.144C47.9113 18.516 47.9053 18.888 47.9053 19.26C47.9053 19.824 47.9173 20.484 47.9413 21.24C47.9773 21.984 48.1033 22.806 48.3193 23.706C48.6913 23.742 49.0633 23.76 49.4353 23.76C50.8873 23.76 52.2973 23.442 53.6653 22.806C53.7733 22.758 53.8813 22.734 53.9893 22.734C54.1093 22.734 54.2353 22.788 54.3673 22.896C54.5113 22.992 54.5893 23.148 54.6013 23.364V23.418C54.6013 23.598 54.4993 23.748 54.2953 23.868C52.7233 24.624 51.0913 25.002 49.3993 25.002C48.8833 25.002 48.3613 24.966 47.8333 24.894ZM60.4693 20.754H60.5053C60.7213 20.754 60.8713 20.838 60.9553 21.006C61.0273 21.126 61.0633 21.258 61.0633 21.402C61.0633 21.462 61.0453 21.558 61.0093 21.69C60.9733 21.81 60.8473 21.9 60.6313 21.96C60.5713 21.972 60.5113 21.978 60.4513 21.978C60.4273 21.99 60.3973 21.996 60.3613 21.996H60.3253C59.6533 22.056 58.8553 22.086 57.9313 22.086H57.4633L57.3553 23.814C57.2353 25.35 57.1693 26.4 57.1573 26.964C57.1453 27.228 57.0373 27.402 56.8333 27.486C56.7373 27.534 56.6413 27.558 56.5453 27.558C56.4493 27.558 56.3233 27.522 56.1673 27.45C56.0233 27.39 55.9453 27.228 55.9333 26.964C55.9453 26.424 56.0113 25.398 56.1313 23.886C56.2633 22.326 56.3413 20.766 56.3653 19.206V18.486C56.3653 17.262 56.2873 16.266 56.1313 15.498V15.408C56.1313 15.18 56.2033 15.006 56.3473 14.886C56.4913 14.778 56.6413 14.724 56.7973 14.724C56.8333 14.724 56.9113 14.736 57.0313 14.76C57.1633 14.772 57.2593 14.91 57.3193 15.174C57.4993 16.206 57.5893 17.376 57.5893 18.684C57.5893 19.38 57.5653 20.106 57.5173 20.862H57.9493C58.9213 20.862 59.7613 20.826 60.4693 20.754ZM78.0394 16.056H78.3094C78.6574 16.056 79.0174 16.092 79.3894 16.164C79.7734 16.236 80.0794 16.446 80.3074 16.794C80.4514 17.082 80.5234 17.406 80.5234 17.766C80.5234 17.802 80.5174 17.928 80.5054 18.144C80.4934 18.36 80.4514 18.66 80.3794 19.044C80.3434 19.248 80.3134 19.44 80.2894 19.62C80.2054 20.988 79.8514 22.284 79.2274 23.508C79.0954 23.712 78.9334 23.814 78.7414 23.814C78.7294 23.814 78.6634 23.808 78.5434 23.796C78.4234 23.784 78.3034 23.688 78.1834 23.508C78.1114 23.424 78.0754 23.328 78.0754 23.22C78.0754 23.124 78.1054 23.016 78.1654 22.896C78.2374 22.752 78.3574 22.404 78.5254 21.852C78.7054 21.3 78.8734 20.688 79.0294 20.016C79.1854 19.332 79.2814 18.732 79.3174 18.216V17.982C79.3174 17.61 79.2394 17.4 79.0834 17.352C78.5434 17.28 77.9914 17.244 77.4274 17.244C76.7434 17.244 76.0534 17.298 75.3574 17.406C74.5534 17.502 73.7494 17.55 72.9454 17.55H72.6754C72.4234 17.526 72.2494 17.412 72.1534 17.208C72.1174 17.1 72.0994 16.998 72.0994 16.902C72.0994 16.806 72.1294 16.686 72.1894 16.542C72.2494 16.398 72.4114 16.326 72.6754 16.326H72.9994C73.8514 16.326 74.6974 16.284 75.5374 16.2C76.3654 16.116 77.1994 16.068 78.0394 16.056ZM82.2694 26.352C82.5334 26.352 82.7074 26.454 82.7914 26.658C82.8394 26.754 82.8634 26.856 82.8634 26.964C82.8634 27.06 82.8274 27.186 82.7554 27.342C82.6954 27.498 82.5334 27.576 82.2694 27.576C80.4574 27.576 78.6454 27.588 76.8334 27.612C75.0334 27.636 73.2274 27.696 71.4154 27.792C71.1514 27.792 70.9774 27.696 70.8934 27.504C70.8574 27.408 70.8394 27.312 70.8394 27.216C70.8394 27.108 70.8694 26.982 70.9294 26.838C71.0014 26.682 71.1634 26.586 71.4154 26.55C73.2274 26.466 75.0334 26.412 76.8334 26.388C78.6454 26.364 80.4574 26.352 82.2694 26.352ZM91.185 18.126C91.629 18.006 91.887 17.796 91.959 17.496C91.995 17.352 92.013 17.202 92.013 17.046C92.013 16.866 91.989 16.674 91.941 16.47C91.569 16.434 91.203 16.416 90.843 16.416C90.051 16.416 89.271 16.506 88.503 16.686C88.443 16.698 88.389 16.704 88.341 16.704C88.161 16.704 88.017 16.638 87.909 16.506C87.801 16.374 87.747 16.218 87.747 16.038C87.747 16.014 87.753 15.942 87.765 15.822C87.789 15.69 87.927 15.582 88.179 15.498C88.863 15.318 89.565 15.216 90.285 15.192H90.645C91.257 15.192 91.851 15.216 92.427 15.264C92.727 15.288 92.925 15.438 93.021 15.714C93.165 16.194 93.237 16.698 93.237 17.226C93.237 17.334 93.225 17.58 93.201 17.964C93.189 18.348 92.883 18.708 92.283 19.044C91.815 19.248 91.329 19.368 90.825 19.404C90.417 19.44 90.009 19.458 89.601 19.458H89.007V19.512C89.007 20.316 89.277 20.844 89.817 21.096C90.225 21.276 90.699 21.366 91.239 21.366C91.431 21.366 91.773 21.342 92.265 21.294C92.769 21.234 93.069 21.186 93.165 21.15C93.309 21.114 93.453 21.084 93.597 21.06V21.042C93.621 21.03 93.639 21.018 93.651 21.006C93.675 20.982 93.699 20.964 93.723 20.952C93.855 20.856 93.987 20.808 94.119 20.808C94.191 20.808 94.293 20.832 94.425 20.88C94.569 20.928 94.683 21.048 94.767 21.24C94.791 21.288 94.803 21.342 94.803 21.402C94.803 21.522 94.743 21.648 94.623 21.78C94.563 21.984 94.425 22.116 94.209 22.176C93.885 22.236 93.549 22.302 93.201 22.374C93.081 22.434 92.625 22.506 91.833 22.59C91.593 22.614 91.359 22.626 91.131 22.626C90.603 22.626 90.099 22.554 89.619 22.41C88.767 22.11 88.221 21.624 87.981 20.952C87.837 20.544 87.765 20.106 87.765 19.638C87.765 19.338 87.795 19.02 87.855 18.684C87.879 18.552 87.951 18.45 88.071 18.378C88.191 18.294 88.317 18.246 88.449 18.234H89.295C89.475 18.246 89.661 18.252 89.853 18.252C90.309 18.252 90.753 18.21 91.185 18.126ZM98.385 22.446C98.361 22.71 98.253 22.884 98.061 22.968C97.965 23.004 97.869 23.022 97.773 23.022C97.677 23.022 97.551 22.992 97.395 22.932C97.251 22.872 97.173 22.71 97.161 22.446C97.161 21.906 97.167 21.372 97.179 20.844C97.191 20.292 97.197 19.746 97.197 19.206C97.197 18.654 97.185 17.976 97.161 17.172C97.149 16.356 97.053 15.408 96.873 14.328V14.202C96.873 13.998 96.945 13.836 97.089 13.716C97.233 13.608 97.395 13.554 97.575 13.554C97.599 13.554 97.671 13.566 97.791 13.59C97.911 13.602 98.001 13.734 98.061 13.986C98.253 15.15 98.361 16.32 98.385 17.496C98.409 18.192 98.421 18.894 98.421 19.602C98.421 20.07 98.415 20.538 98.403 21.006C98.391 21.486 98.385 21.966 98.385 22.446ZM96.117 24.102C96.297 24.102 96.441 24.168 96.549 24.3C96.669 24.42 96.729 24.564 96.729 24.732C96.729 24.9 96.735 25.068 96.747 25.236C96.759 25.488 96.765 25.734 96.765 25.974C96.765 27.018 96.681 28.056 96.513 29.088C96.477 29.22 96.399 29.322 96.279 29.394C96.171 29.478 96.051 29.526 95.919 29.538C95.403 29.562 94.851 29.622 94.263 29.718C93.603 29.826 92.949 29.892 92.301 29.916H92.157C91.557 29.916 90.999 29.784 90.483 29.52C90.039 29.232 89.805 28.734 89.781 28.026V27.792C89.781 27.156 89.823 26.538 89.907 25.938C89.955 25.578 89.979 25.278 89.979 25.038C89.991 24.99 90.003 24.954 90.015 24.93V24.894C90.027 24.846 90.039 24.804 90.051 24.768C90.075 24.648 90.111 24.534 90.159 24.426C90.219 24.318 90.321 24.246 90.465 24.21C90.597 24.186 90.729 24.174 90.861 24.174C90.993 24.174 91.119 24.186 91.239 24.21C91.395 24.234 91.551 24.252 91.707 24.264L93.291 24.228H93.831C94.599 24.216 95.361 24.174 96.117 24.102ZM91.617 28.602C91.797 28.614 91.977 28.62 92.157 28.62C92.829 28.62 93.495 28.566 94.155 28.458C94.563 28.41 94.971 28.368 95.379 28.332C95.487 27.564 95.541 26.79 95.541 26.01C95.541 25.806 95.535 25.596 95.523 25.38C94.623 25.428 93.723 25.458 92.823 25.47C92.655 25.47 92.463 25.482 92.247 25.506C91.899 25.542 91.545 25.56 91.185 25.56C91.173 25.704 91.167 25.842 91.167 25.974C91.143 26.334 91.125 26.694 91.113 27.054V27.18C91.101 27.324 91.095 27.462 91.095 27.594C91.095 27.81 91.107 28.02 91.131 28.224C91.143 28.392 91.173 28.494 91.221 28.53C91.281 28.578 91.389 28.602 91.545 28.602H91.617ZM108.903 21.978C108.483 22.134 108.057 22.212 107.625 22.212C107.169 22.212 106.593 22.092 105.897 21.852C105.201 21.612 104.631 21.09 104.187 20.286C103.971 19.83 103.863 19.374 103.863 18.918C103.863 18.534 103.983 18.048 104.223 17.46C104.475 16.86 105.027 16.362 105.879 15.966C106.467 15.714 107.049 15.588 107.625 15.588C107.913 15.588 108.345 15.654 108.921 15.786C109.497 15.906 110.019 16.41 110.487 17.298C110.751 17.85 110.883 18.396 110.883 18.936C110.883 19.26 110.793 19.716 110.613 20.304C110.445 20.892 109.923 21.426 109.047 21.906C109.035 21.918 109.017 21.924 108.993 21.924C108.981 21.924 108.969 21.93 108.957 21.942H108.939L108.903 21.978ZM106.113 17.244C105.585 17.604 105.249 18.066 105.105 18.63C105.081 18.75 105.069 18.864 105.069 18.972C105.069 19.392 105.261 19.794 105.645 20.178C106.233 20.706 106.875 20.97 107.571 20.97C107.859 20.97 108.159 20.922 108.471 20.826C109.047 20.49 109.425 20.034 109.605 19.458C109.665 19.266 109.695 19.074 109.695 18.882C109.695 18.486 109.569 18.096 109.317 17.712C108.921 17.172 108.429 16.866 107.841 16.794C107.745 16.782 107.649 16.776 107.553 16.776C107.061 16.776 106.581 16.932 106.113 17.244ZM114.897 22.446C114.873 22.71 114.765 22.884 114.573 22.968C114.477 23.004 114.381 23.022 114.285 23.022C114.189 23.022 114.063 22.992 113.907 22.932C113.763 22.872 113.685 22.71 113.673 22.446C113.673 21.906 113.679 21.372 113.691 20.844C113.703 20.292 113.709 19.746 113.709 19.206C113.709 18.654 113.697 17.976 113.673 17.172C113.661 16.356 113.565 15.408 113.385 14.328V14.202C113.385 13.998 113.457 13.836 113.601 13.716C113.745 13.608 113.907 13.554 114.087 13.554C114.111 13.554 114.183 13.566 114.303 13.59C114.423 13.602 114.513 13.734 114.573 13.986C114.765 15.15 114.873 16.32 114.897 17.496C114.921 18.192 114.933 18.894 114.933 19.602C114.933 20.07 114.927 20.538 114.915 21.006C114.903 21.486 114.897 21.966 114.897 22.446ZM113.637 28.584C113.709 28.572 113.769 28.566 113.817 28.566C113.985 28.566 114.123 28.626 114.231 28.746C114.339 28.866 114.393 29.01 114.393 29.178C114.393 29.214 114.381 29.298 114.357 29.43C114.345 29.562 114.213 29.676 113.961 29.772C112.773 30.108 111.555 30.282 110.307 30.294C110.163 30.294 110.007 30.3 109.839 30.312C109.659 30.324 109.485 30.33 109.317 30.33C108.837 30.33 108.369 30.27 107.913 30.15C107.277 29.898 106.881 29.508 106.725 28.98C106.593 28.572 106.527 28.128 106.527 27.648C106.527 27.516 106.533 27.378 106.545 27.234C106.581 26.862 106.785 26.658 107.157 26.622C107.589 26.574 108.027 26.55 108.471 26.55C108.639 26.55 108.813 26.556 108.993 26.568H109.389C109.797 26.568 110.199 26.556 110.595 26.532H110.793C111.069 26.52 111.363 26.49 111.675 26.442C111.999 26.382 112.251 26.262 112.431 26.082C112.551 25.95 112.611 25.83 112.611 25.722C112.611 25.674 112.587 25.608 112.539 25.524C112.503 25.428 112.371 25.35 112.143 25.29C111.603 25.158 111.051 25.092 110.487 25.092C110.439 25.092 110.253 25.098 109.929 25.11C109.605 25.122 109.137 25.164 108.525 25.236C107.925 25.32 107.331 25.368 106.743 25.38C106.479 25.38 106.305 25.278 106.221 25.074C106.173 24.978 106.149 24.882 106.149 24.786C106.149 24.69 106.179 24.57 106.239 24.426C106.311 24.27 106.479 24.18 106.743 24.156C107.043 24.144 107.451 24.102 107.967 24.03C108.699 23.934 109.497 23.862 110.361 23.814C110.529 23.802 110.685 23.796 110.829 23.796C111.489 23.796 112.119 23.886 112.719 24.066C113.319 24.246 113.679 24.648 113.799 25.272C113.811 25.404 113.817 25.53 113.817 25.65C113.817 26.31 113.565 26.808 113.061 27.144C112.569 27.48 111.909 27.684 111.081 27.756C110.517 27.804 109.971 27.828 109.443 27.828C109.179 27.828 108.915 27.822 108.651 27.81H107.769C107.769 28.218 107.859 28.524 108.039 28.728C108.231 28.944 108.591 29.058 109.119 29.07C109.359 29.082 109.593 29.088 109.821 29.088C111.117 29.088 112.389 28.92 113.637 28.584ZM120.842 25.272C120.65 25.272 120.482 25.182 120.338 25.002C120.266 24.894 120.23 24.78 120.23 24.66C120.23 24.624 120.236 24.582 120.248 24.534C120.272 24.378 120.356 24.246 120.5 24.138C123.392 22.206 125.15 20.016 125.774 17.568C124.946 17.568 124.112 17.574 123.272 17.586C122.384 17.61 121.496 17.622 120.608 17.622C120.428 17.622 120.278 17.562 120.158 17.442C120.05 17.322 119.996 17.178 119.996 17.01C119.996 16.842 120.056 16.698 120.176 16.578C120.296 16.458 120.44 16.398 120.608 16.398H120.644C121.496 16.398 122.348 16.386 123.2 16.362H123.254C123.998 16.35 124.73 16.344 125.45 16.344H126.53C126.722 16.344 126.878 16.416 126.998 16.56C127.094 16.68 127.142 16.818 127.142 16.974V17.064C126.602 20.148 124.622 22.848 121.202 25.164C121.082 25.236 120.962 25.272 120.842 25.272ZM129.59 27.558C129.47 26.946 129.41 26.304 129.41 25.632C129.41 25.356 129.416 25.08 129.428 24.804C129.44 24.48 129.452 24.174 129.464 23.886V23.004C129.464 22.416 129.47 21.828 129.482 21.24C129.506 20.592 129.518 19.944 129.518 19.296C129.518 17.88 129.47 16.464 129.374 15.048V15.012C129.374 14.784 129.464 14.622 129.644 14.526C129.74 14.478 129.842 14.454 129.95 14.454C130.046 14.454 130.166 14.49 130.31 14.562C130.466 14.634 130.562 14.796 130.598 15.048C130.682 16.26 130.724 17.478 130.724 18.702C130.724 19.302 130.712 19.908 130.688 20.52C130.676 21.072 130.67 21.63 130.67 22.194C130.67 22.758 130.676 23.322 130.688 23.886C130.688 24.186 130.682 24.51 130.67 24.858C130.658 25.122 130.652 25.38 130.652 25.632C130.652 26.088 130.676 26.52 130.724 26.928C130.772 27.012 130.796 27.114 130.796 27.234V27.396C130.784 27.624 130.694 27.792 130.526 27.9C130.418 27.96 130.304 27.99 130.184 27.99C130.124 27.99 130.028 27.972 129.896 27.936C129.764 27.912 129.662 27.786 129.59 27.558ZM152.146 19.116C152.386 19.212 152.524 19.368 152.56 19.584V19.674C152.56 19.854 152.506 20.016 152.398 20.16C152.302 20.268 152.182 20.322 152.038 20.322C151.978 20.322 151.906 20.31 151.822 20.286C150.382 19.734 149.266 18.726 148.474 17.262C147.898 18.522 147.034 19.488 145.882 20.16C145.762 20.22 145.654 20.25 145.558 20.25C145.45 20.25 145.33 20.202 145.198 20.106C145.066 20.01 144.988 19.854 144.964 19.638V19.566C144.964 19.386 145.06 19.23 145.252 19.098C146.584 18.282 147.418 17.1 147.754 15.552H147.214C146.662 15.552 146.116 15.528 145.576 15.48C145.312 15.432 145.138 15.306 145.054 15.102C145.006 14.994 144.982 14.892 144.982 14.796C144.982 14.7 145.006 14.604 145.054 14.508C145.138 14.34 145.294 14.256 145.522 14.256H145.576C146.176 14.316 146.77 14.346 147.358 14.346C147.814 14.346 148.264 14.328 148.708 14.292C149.164 14.256 149.614 14.238 150.058 14.238C150.658 14.238 151.258 14.268 151.858 14.328C152.122 14.364 152.296 14.49 152.38 14.706C152.428 14.802 152.452 14.904 152.452 15.012C152.452 15.108 152.428 15.204 152.38 15.3C152.296 15.468 152.14 15.552 151.912 15.552H151.858C151.282 15.504 150.7 15.48 150.112 15.48C149.788 15.48 149.458 15.486 149.122 15.498C149.314 16.278 149.68 17.01 150.22 17.694C150.76 18.366 151.402 18.84 152.146 19.116ZM153.352 21.276C153.616 21.3 153.79 21.408 153.874 21.6C153.922 21.696 153.946 21.798 153.946 21.906C153.946 22.002 153.91 22.122 153.838 22.266C153.778 22.41 153.616 22.488 153.352 22.5H152.956C151.744 22.5 150.538 22.548 149.338 22.644C149.362 22.776 149.374 22.92 149.374 23.076C149.374 23.484 149.272 23.964 149.068 24.516C148.96 24.756 148.792 24.888 148.564 24.912C148.516 24.924 148.468 24.93 148.42 24.93C148.264 24.93 148.12 24.876 147.988 24.768C147.892 24.684 147.844 24.57 147.844 24.426C147.844 24.354 147.856 24.276 147.88 24.192C148.06 23.736 148.15 23.352 148.15 23.04C148.15 22.92 148.138 22.812 148.114 22.716C147.118 22.8 146.122 22.842 145.126 22.842C144.634 22.842 144.136 22.83 143.632 22.806C143.368 22.782 143.194 22.668 143.11 22.464C143.074 22.356 143.056 22.254 143.056 22.158C143.056 22.062 143.086 21.942 143.146 21.798C143.206 21.654 143.368 21.582 143.632 21.582C144.124 21.594 144.61 21.6 145.09 21.6C146.35 21.6 147.61 21.546 148.87 21.438C150.226 21.33 151.582 21.276 152.938 21.276H153.352ZM152.038 28.584C152.11 28.572 152.17 28.566 152.218 28.566C152.386 28.566 152.524 28.626 152.632 28.746C152.74 28.866 152.794 29.01 152.794 29.178C152.794 29.214 152.782 29.298 152.758 29.43C152.746 29.562 152.614 29.676 152.362 29.772C151.174 30.108 149.956 30.282 148.708 30.294C148.564 30.294 148.408 30.3 148.24 30.312C148.06 30.324 147.886 30.33 147.718 30.33C147.238 30.33 146.77 30.27 146.314 30.15C145.678 29.898 145.282 29.508 145.126 28.98C144.994 28.572 144.928 28.128 144.928 27.648C144.928 27.516 144.934 27.378 144.946 27.234C144.982 26.862 145.186 26.658 145.558 26.622C145.99 26.574 146.428 26.55 146.872 26.55C147.04 26.55 147.214 26.556 147.394 26.568H147.79C148.198 26.568 148.6 26.556 148.996 26.532H149.194C149.47 26.52 149.764 26.49 150.076 26.442C150.4 26.382 150.652 26.262 150.832 26.082C150.952 25.95 151.012 25.83 151.012 25.722C151.012 25.674 150.988 25.608 150.94 25.524C150.904 25.428 150.772 25.35 150.544 25.29C150.004 25.158 149.452 25.092 148.888 25.092C148.84 25.092 148.654 25.098 148.33 25.11C148.006 25.122 147.538 25.164 146.926 25.236C146.326 25.32 145.732 25.368 145.144 25.38C144.88 25.38 144.706 25.278 144.622 25.074C144.574 24.978 144.55 24.882 144.55 24.786C144.55 24.69 144.58 24.57 144.64 24.426C144.712 24.27 144.88 24.18 145.144 24.156C145.444 24.144 145.852 24.102 146.368 24.03C147.1 23.934 147.898 23.862 148.762 23.814C148.93 23.802 149.086 23.796 149.23 23.796C149.89 23.796 150.52 23.886 151.12 24.066C151.72 24.246 152.08 24.648 152.2 25.272C152.212 25.404 152.218 25.53 152.218 25.65C152.218 26.31 151.966 26.808 151.462 27.144C150.97 27.48 150.31 27.684 149.482 27.756C148.918 27.804 148.372 27.828 147.844 27.828C147.58 27.828 147.316 27.822 147.052 27.81H146.17C146.17 28.218 146.26 28.524 146.44 28.728C146.632 28.944 146.992 29.058 147.52 29.07C147.76 29.082 147.994 29.088 148.222 29.088C149.518 29.088 150.79 28.92 152.038 28.584ZM167.398 21.186C167.662 21.21 167.842 21.324 167.938 21.528C167.986 21.624 168.01 21.72 168.01 21.816C168.01 21.912 167.974 22.038 167.902 22.194C167.83 22.338 167.662 22.41 167.398 22.41H166.984C166.18 22.41 165.364 22.44 164.536 22.5C164.14 22.524 163.738 22.542 163.33 22.554C163.222 22.554 163.114 22.56 163.006 22.572C162.778 22.584 162.538 22.59 162.286 22.59C162.166 22.59 161.98 22.584 161.728 22.572C161.488 22.56 161.218 22.482 160.918 22.338C160.57 22.146 160.336 21.888 160.216 21.564C160.096 21.24 160.012 20.892 159.964 20.52C159.952 20.436 159.94 20.358 159.928 20.286C159.736 19.098 159.478 17.922 159.154 16.758C159.142 16.686 159.136 16.626 159.136 16.578C159.136 16.41 159.196 16.272 159.316 16.164C159.46 16.056 159.622 16.002 159.802 16.002C159.826 16.002 159.898 16.014 160.018 16.038C160.15 16.05 160.258 16.182 160.342 16.434C160.63 17.442 160.864 18.468 161.044 19.512C161.068 19.656 161.086 19.8 161.098 19.944C161.122 20.316 161.194 20.64 161.314 20.916C161.446 21.18 161.74 21.324 162.196 21.348C163.024 21.348 163.846 21.318 164.662 21.258C165.418 21.21 166.18 21.186 166.948 21.186H167.398ZM169.882 26.856C169.942 26.844 169.996 26.838 170.044 26.838C170.224 26.838 170.368 26.904 170.476 27.036C170.584 27.18 170.638 27.342 170.638 27.522C170.638 27.546 170.626 27.618 170.602 27.738C170.59 27.87 170.458 27.972 170.206 28.044C168.886 28.368 167.536 28.548 166.156 28.584C165.64 28.596 165.118 28.602 164.59 28.602C163.726 28.602 162.862 28.584 161.998 28.548C161.122 28.512 160.258 28.488 159.406 28.476C159.142 28.464 158.968 28.356 158.884 28.152C158.836 28.056 158.812 27.96 158.812 27.864C158.812 27.768 158.842 27.642 158.902 27.486C158.974 27.342 159.142 27.264 159.406 27.252C160.258 27.264 161.128 27.288 162.016 27.324C162.532 27.336 163.054 27.348 163.582 27.36V27.288C163.678 26.904 163.726 26.514 163.726 26.118C163.726 26.046 163.72 25.872 163.708 25.596C163.696 25.32 163.654 24.942 163.582 24.462C163.498 23.946 163.45 23.442 163.438 22.95C163.438 22.686 163.54 22.512 163.744 22.428C163.84 22.38 163.936 22.356 164.032 22.356C164.128 22.356 164.248 22.392 164.392 22.464C164.548 22.524 164.638 22.686 164.662 22.95C164.674 23.478 164.716 24 164.788 24.516C164.884 25.032 164.932 25.542 164.932 26.046C164.932 26.49 164.896 26.934 164.824 27.378H165.274C166.858 27.378 168.394 27.204 169.882 26.856ZM183.676 21.672C183.748 21.648 183.82 21.636 183.892 21.636C184.048 21.636 184.174 21.696 184.27 21.816C184.378 21.936 184.432 22.08 184.432 22.248C184.432 22.284 184.42 22.374 184.396 22.518C184.384 22.65 184.252 22.764 184 22.86C182.86 23.244 181.684 23.46 180.472 23.508H180.436C180.232 23.52 180.022 23.526 179.806 23.526C179.53 23.526 179.176 23.508 178.744 23.472C178.324 23.436 177.934 23.262 177.574 22.95C177.262 22.626 177.082 22.218 177.034 21.726C176.986 21.378 176.962 21.042 176.962 20.718C176.962 20.598 176.968 20.472 176.98 20.34V20.106C177.004 19.542 177.028 18.972 177.052 18.396C177.076 18.084 177.094 17.766 177.106 17.442C176.926 17.37 176.812 17.238 176.764 17.046C176.752 16.986 176.746 16.926 176.746 16.866C176.746 16.746 176.782 16.62 176.854 16.488C176.938 16.344 177.094 16.272 177.322 16.272H177.394C177.502 16.188 177.622 16.146 177.754 16.146C177.898 16.146 178.024 16.188 178.132 16.272H183.136C183.4 16.272 183.574 16.374 183.658 16.578C183.706 16.674 183.73 16.776 183.73 16.884C183.73 16.98 183.694 17.106 183.622 17.262C183.562 17.418 183.4 17.496 183.136 17.496H178.33L178.294 18.108C178.27 18.492 178.252 18.87 178.24 19.242H178.708C180.088 19.242 181.468 19.194 182.848 19.098C183.112 19.098 183.292 19.194 183.388 19.386C183.424 19.47 183.442 19.56 183.442 19.656C183.442 19.764 183.406 19.896 183.334 20.052C183.274 20.196 183.112 20.286 182.848 20.322C181.444 20.418 180.04 20.466 178.636 20.466H178.168C178.156 20.562 178.15 20.658 178.15 20.754C178.15 21.21 178.222 21.63 178.366 22.014C178.45 22.182 178.666 22.284 179.014 22.32C179.182 22.332 179.356 22.338 179.536 22.338C179.716 22.338 179.944 22.332 180.22 22.32C180.496 22.296 180.742 22.272 180.958 22.248C180.994 22.236 181.024 22.23 181.048 22.23C181.948 22.146 182.824 21.96 183.676 21.672ZM186.34 26.352C186.604 26.352 186.778 26.454 186.862 26.658C186.91 26.754 186.934 26.856 186.934 26.964C186.934 27.06 186.898 27.186 186.826 27.342C186.766 27.498 186.604 27.576 186.34 27.576C184.528 27.576 182.716 27.588 180.904 27.612C179.104 27.636 177.298 27.696 175.486 27.792C175.222 27.792 175.048 27.696 174.964 27.504C174.928 27.408 174.91 27.312 174.91 27.216C174.91 27.108 174.94 26.982 175 26.838C175.072 26.682 175.234 26.586 175.486 26.55C177.298 26.466 179.104 26.412 180.904 26.388C182.716 26.364 184.528 26.352 186.34 26.352ZM202.416 21.978C201.996 22.134 201.57 22.212 201.138 22.212C200.682 22.212 200.106 22.092 199.41 21.852C198.714 21.612 198.144 21.09 197.7 20.286C197.484 19.83 197.376 19.374 197.376 18.918C197.376 18.534 197.496 18.048 197.736 17.46C197.988 16.86 198.54 16.362 199.392 15.966C199.98 15.714 200.562 15.588 201.138 15.588C201.426 15.588 201.858 15.654 202.434 15.786C203.01 15.906 203.532 16.41 204 17.298C204.264 17.85 204.396 18.396 204.396 18.936C204.396 19.26 204.306 19.716 204.126 20.304C203.958 20.892 203.436 21.426 202.56 21.906C202.548 21.918 202.53 21.924 202.506 21.924C202.494 21.924 202.482 21.93 202.47 21.942H202.452L202.416 21.978ZM199.626 17.244C199.098 17.604 198.762 18.066 198.618 18.63C198.594 18.75 198.582 18.864 198.582 18.972C198.582 19.392 198.774 19.794 199.158 20.178C199.746 20.706 200.388 20.97 201.084 20.97C201.372 20.97 201.672 20.922 201.984 20.826C202.56 20.49 202.938 20.034 203.118 19.458C203.178 19.266 203.208 19.074 203.208 18.882C203.208 18.486 203.082 18.096 202.83 17.712C202.434 17.172 201.942 16.866 201.354 16.794C201.258 16.782 201.162 16.776 201.066 16.776C200.574 16.776 200.094 16.932 199.626 17.244ZM210.12 17.406C210.324 17.526 210.426 17.682 210.426 17.874C210.426 17.886 210.42 17.952 210.408 18.072C210.396 18.192 210.3 18.312 210.12 18.432C210.024 18.504 209.922 18.54 209.814 18.54C209.718 18.54 209.616 18.516 209.508 18.468C209.232 18.324 209.052 18.246 208.968 18.234H208.644C208.428 18.234 208.212 18.24 207.996 18.252H207.978V18.81C207.978 19.05 207.984 19.278 207.996 19.494C208.644 19.506 209.286 19.56 209.922 19.656C210.174 19.728 210.318 19.866 210.354 20.07C210.366 20.106 210.372 20.148 210.372 20.196C210.372 20.352 210.312 20.496 210.192 20.628C210.084 20.772 209.928 20.844 209.724 20.844H209.598C209.154 20.772 208.71 20.736 208.266 20.736H208.068C208.092 20.952 208.104 21.168 208.104 21.384C208.104 21.696 208.074 22.056 208.014 22.464C207.954 22.872 207.774 23.178 207.474 23.382C207.378 23.43 207.282 23.454 207.186 23.454C207.114 23.454 207.018 23.43 206.898 23.382C206.778 23.334 206.682 23.22 206.61 23.04C206.574 22.956 206.556 22.878 206.556 22.806C206.556 22.758 206.562 22.698 206.574 22.626C206.586 22.542 206.61 22.446 206.646 22.338L206.718 22.086C206.754 21.858 206.772 21.63 206.772 21.402V20.556C206.772 19.956 206.76 19.356 206.736 18.756C206.724 18.432 206.718 18.102 206.718 17.766V17.478C206.718 17.082 206.694 16.674 206.646 16.254C206.61 15.822 206.472 15.384 206.232 14.94C206.172 14.82 206.142 14.712 206.142 14.616C206.142 14.508 206.19 14.388 206.286 14.256C206.382 14.124 206.538 14.046 206.754 14.022H206.826C207.006 14.022 207.162 14.118 207.294 14.31C207.534 14.754 207.69 15.18 207.762 15.588C207.846 15.996 207.9 16.482 207.924 17.046H207.96C208.128 17.034 208.302 17.028 208.482 17.028C208.734 17.028 208.968 17.04 209.184 17.064C209.412 17.088 209.724 17.202 210.12 17.406ZM203.046 24.408C203.634 24.156 204.222 24.03 204.81 24.03C205.098 24.03 205.536 24.096 206.124 24.228C206.712 24.348 207.24 24.858 207.708 25.758C207.972 26.322 208.104 26.874 208.104 27.414C208.104 27.738 208.014 28.194 207.834 28.782C207.666 29.382 207.138 29.922 206.25 30.402C206.226 30.414 206.208 30.42 206.196 30.42C206.184 30.42 206.172 30.426 206.16 30.438C206.148 30.438 206.142 30.444 206.142 30.456C206.13 30.456 206.118 30.462 206.106 30.474C205.686 30.63 205.248 30.708 204.792 30.708C204.348 30.708 203.772 30.588 203.064 30.348C202.368 30.108 201.792 29.58 201.336 28.764C201.12 28.296 201.012 27.834 201.012 27.378C201.012 26.994 201.132 26.508 201.372 25.92C201.624 25.32 202.182 24.816 203.046 24.408ZM205.674 29.322C206.25 28.986 206.634 28.524 206.826 27.936C206.886 27.744 206.916 27.552 206.916 27.36C206.916 26.964 206.79 26.568 206.538 26.172C206.13 25.62 205.626 25.308 205.026 25.236C204.93 25.224 204.834 25.218 204.738 25.218C204.234 25.218 203.748 25.374 203.28 25.686C202.74 26.058 202.398 26.526 202.254 27.09C202.23 27.21 202.218 27.324 202.218 27.432C202.218 27.876 202.416 28.29 202.812 28.674C203.412 29.202 204.06 29.466 204.756 29.466C205.056 29.466 205.362 29.418 205.674 29.322ZM218.783 15.588C218.927 15.864 219.065 16.14 219.197 16.416C219.593 17.268 220.025 18.102 220.493 18.918C220.973 19.722 221.555 20.43 222.239 21.042C222.371 21.174 222.437 21.306 222.437 21.438C222.437 21.498 222.413 21.594 222.365 21.726C222.317 21.858 222.191 21.96 221.987 22.032C221.915 22.056 221.843 22.068 221.771 22.068C221.639 22.068 221.507 22.02 221.375 21.924C220.703 21.324 220.127 20.64 219.647 19.872C219.179 19.104 218.753 18.312 218.369 17.496C217.805 19.32 216.791 20.838 215.327 22.05C215.171 22.158 215.021 22.212 214.877 22.212C214.697 22.212 214.529 22.116 214.373 21.924H214.355C214.307 21.852 214.283 21.768 214.283 21.672C214.283 21.66 214.283 21.618 214.283 21.546C214.283 21.474 214.307 21.396 214.355 21.312C214.403 21.24 214.451 21.174 214.499 21.114C214.511 21.09 214.529 21.066 214.553 21.042C214.637 20.946 214.727 20.886 214.823 20.862C216.335 19.458 217.229 17.754 217.505 15.75C217.541 15.546 217.631 15.396 217.775 15.3C217.919 15.216 218.063 15.174 218.207 15.174C218.219 15.174 218.273 15.18 218.369 15.192C218.465 15.204 218.561 15.282 218.657 15.426C218.705 15.462 218.747 15.516 218.783 15.588ZM225.983 22.446C225.959 22.71 225.851 22.884 225.659 22.968C225.563 23.004 225.467 23.022 225.371 23.022C225.275 23.022 225.149 22.992 224.993 22.932C224.849 22.872 224.771 22.71 224.759 22.446C224.759 21.906 224.765 21.372 224.777 20.844C224.789 20.292 224.795 19.746 224.795 19.206C224.795 18.654 224.783 17.976 224.759 17.172C224.747 16.356 224.651 15.408 224.471 14.328V14.202C224.471 13.998 224.543 13.836 224.687 13.716C224.831 13.608 224.993 13.554 225.173 13.554C225.197 13.554 225.269 13.566 225.389 13.59C225.509 13.602 225.599 13.734 225.659 13.986C225.851 15.15 225.959 16.32 225.983 17.496C226.007 18.192 226.019 18.894 226.019 19.602C226.019 20.07 226.013 20.538 226.001 21.006C225.989 21.486 225.983 21.966 225.983 22.446ZM217.667 25.596C217.403 25.584 217.229 25.482 217.145 25.29C217.097 25.182 217.073 25.08 217.073 24.984C217.073 24.888 217.103 24.768 217.163 24.624C217.235 24.468 217.403 24.384 217.667 24.372C218.387 24.36 219.107 24.342 219.827 24.318C220.523 24.27 221.219 24.246 221.915 24.246C222.851 24.246 223.781 24.288 224.705 24.372C225.077 24.42 225.281 24.624 225.317 24.984C225.353 25.464 225.371 25.938 225.371 26.406C225.371 27.618 225.251 28.818 225.011 30.006C224.951 30.27 224.813 30.42 224.597 30.456H224.507C224.339 30.456 224.183 30.402 224.039 30.294C223.895 30.174 223.823 30.012 223.823 29.808V29.682C224.039 28.566 224.147 27.444 224.147 26.316C224.147 26.052 224.141 25.794 224.129 25.542C223.409 25.494 222.689 25.47 221.969 25.47C221.249 25.47 220.529 25.494 219.809 25.542C219.089 25.566 218.375 25.584 217.667 25.596ZM236.015 21.978C235.595 22.134 235.169 22.212 234.737 22.212C234.281 22.212 233.705 22.092 233.009 21.852C232.313 21.612 231.743 21.09 231.299 20.286C231.083 19.83 230.975 19.374 230.975 18.918C230.975 18.534 231.095 18.048 231.335 17.46C231.587 16.86 232.139 16.362 232.991 15.966C233.579 15.714 234.161 15.588 234.737 15.588C235.025 15.588 235.457 15.654 236.033 15.786C236.609 15.906 237.131 16.41 237.599 17.298C237.863 17.85 237.995 18.396 237.995 18.936C237.995 19.26 237.905 19.716 237.725 20.304C237.557 20.892 237.035 21.426 236.159 21.906C236.147 21.918 236.129 21.924 236.105 21.924C236.093 21.924 236.081 21.93 236.069 21.942H236.051L236.015 21.978ZM233.225 17.244C232.697 17.604 232.361 18.066 232.217 18.63C232.193 18.75 232.181 18.864 232.181 18.972C232.181 19.392 232.373 19.794 232.757 20.178C233.345 20.706 233.987 20.97 234.683 20.97C234.971 20.97 235.271 20.922 235.583 20.826C236.159 20.49 236.537 20.034 236.717 19.458C236.777 19.266 236.807 19.074 236.807 18.882C236.807 18.486 236.681 18.096 236.429 17.712C236.033 17.172 235.541 16.866 234.953 16.794C234.857 16.782 234.761 16.776 234.665 16.776C234.173 16.776 233.693 16.932 233.225 17.244ZM242.009 22.446C241.985 22.71 241.877 22.884 241.685 22.968C241.589 23.004 241.493 23.022 241.397 23.022C241.301 23.022 241.175 22.992 241.019 22.932C240.875 22.872 240.797 22.71 240.785 22.446C240.785 21.906 240.791 21.372 240.803 20.844C240.815 20.292 240.821 19.746 240.821 19.206C240.821 18.654 240.809 17.976 240.785 17.172C240.773 16.356 240.677 15.408 240.497 14.328V14.202C240.497 13.998 240.569 13.836 240.713 13.716C240.857 13.608 241.019 13.554 241.199 13.554C241.223 13.554 241.295 13.566 241.415 13.59C241.535 13.602 241.625 13.734 241.685 13.986C241.877 15.15 241.985 16.32 242.009 17.496C242.033 18.192 242.045 18.894 242.045 19.602C242.045 20.07 242.039 20.538 242.027 21.006C242.015 21.486 242.009 21.966 242.009 22.446ZM240.047 24.282C240.035 24.318 240.029 24.36 240.029 24.408C240.029 24.504 240.047 24.66 240.083 24.876C240.119 25.092 240.167 25.35 240.227 25.65C240.311 26.058 240.371 26.388 240.407 26.64V26.766C240.443 27.006 240.461 27.252 240.461 27.504C240.461 27.636 240.455 27.828 240.443 28.08C240.431 28.344 240.317 28.632 240.101 28.944C239.633 29.484 238.985 29.778 238.157 29.826C237.893 29.838 237.635 29.844 237.383 29.844C236.807 29.844 236.231 29.808 235.655 29.736C235.199 29.688 234.797 29.658 234.449 29.646C234.281 29.634 234.137 29.568 234.017 29.448C233.897 29.34 233.837 29.202 233.837 29.034C233.825 27.642 233.729 26.262 233.549 24.894V24.804C233.549 24.588 233.627 24.42 233.783 24.3C233.927 24.18 234.077 24.12 234.233 24.12C234.281 24.12 234.365 24.132 234.485 24.156C234.605 24.18 234.689 24.318 234.737 24.57C234.785 24.93 234.821 25.284 234.845 25.632C234.857 25.74 234.869 25.842 234.881 25.938C235.277 25.926 235.667 25.908 236.051 25.884C236.687 25.836 237.329 25.812 237.977 25.812C238.337 25.812 238.703 25.818 239.075 25.83C239.075 25.806 239.069 25.776 239.057 25.74C239.045 25.632 239.027 25.524 239.003 25.416C238.991 25.308 238.973 25.194 238.949 25.074C238.901 24.882 238.865 24.69 238.841 24.498C238.829 24.438 238.823 24.378 238.823 24.318C238.823 24.186 238.841 24.066 238.877 23.958C238.961 23.706 239.111 23.562 239.327 23.526H239.417C239.585 23.526 239.741 23.58 239.885 23.688C240.005 23.784 240.065 23.916 240.065 24.084C240.065 24.144 240.059 24.21 240.047 24.282ZM239.201 27.936C239.213 27.792 239.219 27.648 239.219 27.504C239.219 27.36 239.213 27.216 239.201 27.072C238.757 27.036 238.307 27.018 237.851 27.018C237.251 27.018 236.651 27.048 236.051 27.108C235.691 27.132 235.337 27.15 234.989 27.162C235.013 27.594 235.031 28.026 235.043 28.458C235.091 28.458 235.139 28.464 235.187 28.476C235.679 28.524 236.231 28.566 236.843 28.602H237.239C237.683 28.602 238.109 28.566 238.517 28.494C238.937 28.422 239.165 28.236 239.201 27.936ZM248.171 24.894C247.871 24.87 247.673 24.72 247.577 24.444C247.289 23.424 247.115 22.386 247.055 21.33C247.019 20.622 247.001 19.92 247.001 19.224C247.001 18.864 247.007 18.51 247.019 18.162C247.031 17.718 247.037 17.274 247.037 16.83C247.037 16.566 247.139 16.392 247.343 16.308C247.451 16.26 247.553 16.236 247.649 16.236C247.757 16.236 247.883 16.272 248.027 16.344C248.183 16.404 248.261 16.566 248.261 16.83V18.144C248.249 18.516 248.243 18.888 248.243 19.26C248.243 19.824 248.255 20.484 248.279 21.24C248.315 21.984 248.441 22.806 248.657 23.706C249.029 23.742 249.401 23.76 249.773 23.76C251.225 23.76 252.635 23.442 254.003 22.806C254.111 22.758 254.219 22.734 254.327 22.734C254.447 22.734 254.573 22.788 254.705 22.896C254.849 22.992 254.927 23.148 254.939 23.364V23.418C254.939 23.598 254.837 23.748 254.633 23.868C253.061 24.624 251.429 25.002 249.737 25.002C249.221 25.002 248.699 24.966 248.171 24.894ZM256.451 27.558C256.331 26.946 256.271 26.304 256.271 25.632C256.271 25.356 256.277 25.08 256.289 24.804C256.301 24.48 256.313 24.174 256.325 23.886V23.004C256.325 22.416 256.331 21.828 256.343 21.24C256.367 20.592 256.379 19.944 256.379 19.296C256.379 17.88 256.331 16.464 256.235 15.048V15.012C256.235 14.784 256.325 14.622 256.505 14.526C256.601 14.478 256.703 14.454 256.811 14.454C256.907 14.454 257.027 14.49 257.171 14.562C257.327 14.634 257.423 14.796 257.459 15.048C257.543 16.26 257.585 17.478 257.585 18.702C257.585 19.302 257.573 19.908 257.549 20.52C257.537 21.072 257.531 21.63 257.531 22.194C257.531 22.758 257.537 23.322 257.549 23.886C257.549 24.186 257.543 24.51 257.531 24.858C257.519 25.122 257.513 25.38 257.513 25.632C257.513 26.088 257.537 26.52 257.585 26.928C257.633 27.012 257.657 27.114 257.657 27.234V27.396C257.645 27.624 257.555 27.792 257.387 27.9C257.279 27.96 257.165 27.99 257.045 27.99C256.985 27.99 256.889 27.972 256.757 27.936C256.625 27.912 256.523 27.786 256.451 27.558ZM263.458 24.678C262.69 24.27 262.222 23.652 262.054 22.824C261.91 22.14 261.838 21.42 261.838 20.664C261.838 20.508 261.844 20.346 261.856 20.178V19.746C261.856 18.858 261.76 18.078 261.568 17.406C261.544 17.322 261.532 17.25 261.532 17.19C261.532 17.118 261.55 17.04 261.586 16.956C261.622 16.872 261.706 16.8 261.838 16.74C261.946 16.56 262.108 16.47 262.324 16.47C262.372 16.47 262.426 16.476 262.486 16.488C263.11 16.608 263.734 16.668 264.358 16.668C264.838 16.668 265.318 16.632 265.798 16.56C266.386 16.5 266.974 16.47 267.562 16.47H267.85C268.114 16.494 268.288 16.608 268.372 16.812C268.42 16.908 268.444 17.004 268.444 17.1C268.444 17.196 268.408 17.322 268.336 17.478C268.276 17.622 268.114 17.694 267.85 17.694H267.544C266.932 17.694 266.32 17.724 265.708 17.784C265.216 17.832 264.724 17.856 264.232 17.856C263.8 17.856 263.368 17.838 262.936 17.802C263.008 18.294 263.044 18.792 263.044 19.296C263.044 19.488 263.038 19.68 263.026 19.872C263.014 20.1 263.008 20.328 263.008 20.556C263.008 20.892 263.026 21.276 263.062 21.708C263.098 22.128 263.242 22.572 263.494 23.04C263.77 23.472 264.166 23.712 264.682 23.76C264.91 23.784 265.138 23.796 265.366 23.796C265.642 23.796 265.912 23.778 266.176 23.742C266.236 23.742 266.296 23.736 266.356 23.724C266.728 23.712 267.154 23.658 267.634 23.562C268.114 23.454 268.444 23.25 268.624 22.95C268.732 22.746 268.882 22.644 269.074 22.644C269.086 22.644 269.146 22.65 269.254 22.662C269.374 22.674 269.5 22.764 269.632 22.932C269.704 23.028 269.74 23.136 269.74 23.256C269.74 23.364 269.716 23.472 269.668 23.58C269.368 24.132 268.822 24.528 268.03 24.768C267.334 24.972 266.614 25.074 265.87 25.074C265.75 25.074 265.444 25.068 264.952 25.056C264.472 25.044 263.974 24.918 263.458 24.678ZM275.59 20.754H275.626C275.842 20.754 275.992 20.838 276.076 21.006C276.148 21.126 276.184 21.258 276.184 21.402C276.184 21.462 276.166 21.558 276.13 21.69C276.094 21.81 275.968 21.9 275.752 21.96C275.692 21.972 275.632 21.978 275.572 21.978C275.548 21.99 275.518 21.996 275.482 21.996H275.446C274.774 22.056 273.976 22.086 273.052 22.086H272.584L272.476 23.814C272.356 25.35 272.29 26.4 272.278 26.964C272.266 27.228 272.158 27.402 271.954 27.486C271.858 27.534 271.762 27.558 271.666 27.558C271.57 27.558 271.444 27.522 271.288 27.45C271.144 27.39 271.066 27.228 271.054 26.964C271.066 26.424 271.132 25.398 271.252 23.886C271.384 22.326 271.462 20.766 271.486 19.206V18.486C271.486 17.262 271.408 16.266 271.252 15.498V15.408C271.252 15.18 271.324 15.006 271.468 14.886C271.612 14.778 271.762 14.724 271.918 14.724C271.954 14.724 272.032 14.736 272.152 14.76C272.284 14.772 272.38 14.91 272.44 15.174C272.62 16.206 272.71 17.376 272.71 18.684C272.71 19.38 272.686 20.106 272.638 20.862H273.07C274.042 20.862 274.882 20.826 275.59 20.754ZM280.096 28.746C279.88 28.746 279.7 28.632 279.556 28.404C279.436 28.152 279.364 27.906 279.34 27.666C279.316 27.426 279.304 27.204 279.304 27C279.304 26.832 279.364 26.688 279.484 26.568C279.604 26.448 279.748 26.388 279.916 26.388C280.084 26.388 280.228 26.448 280.348 26.568C280.468 26.688 280.528 26.832 280.528 27C280.528 27.336 280.57 27.624 280.654 27.864C280.702 27.96 280.726 28.056 280.726 28.152C280.726 28.212 280.714 28.272 280.69 28.332C280.63 28.476 280.528 28.59 280.384 28.674C280.288 28.722 280.192 28.746 280.096 28.746Z" fill="black"/>
</g>
<defs>
<clipPath id="clip0_3490_90025">
<rect width="310" height="396" fill="white"/>
</clipPath>
</defs>
</svg>
