<svg width="342" height="396" viewBox="0 0 342 396" fill="none" xmlns="http://www.w3.org/2000/svg">
<g clip-path="url(#clip0_2135_7112)">
<path d="M0 0H358" stroke="#B8B3B3" stroke-opacity="0.4"/>
<path d="M0 44H358" stroke="#B8B3B3" stroke-opacity="0.4"/>
<path d="M0 88H179H358" stroke="#B8B3B3" stroke-opacity="0.4"/>
<path d="M0 132H179H358" stroke="#B8B3B3" stroke-opacity="0.4"/>
<path d="M0 176H358" stroke="#B8B3B3" stroke-opacity="0.4"/>
<path d="M0 220H358" stroke="#B8B3B3" stroke-opacity="0.4"/>
<path d="M0 264H358" stroke="#B8B3B3" stroke-opacity="0.4"/>
<path d="M0 308H358" stroke="#B8B3B3" stroke-opacity="0.4"/>
<path d="M0 352H358" stroke="#B8B3B3" stroke-opacity="0.4"/>
<path d="M0 396H358" stroke="#B8B3B3" stroke-opacity="0.4"/>
<path d="M74.5139 593.166L74.5139 0.000415444" stroke="#B8B3B3" stroke-opacity="0.4"/>
<path d="M62.095 593.166L62.095 0.000415444" stroke="#B8B3B3" stroke-opacity="0.4"/>
</g>
<path d="M91.2121 19.556C91.2961 19.532 91.3741 19.52 91.4461 19.52C91.5901 19.52 91.7041 19.568 91.7881 19.664C91.8961 19.796 91.9501 19.952 91.9501 20.132C91.9501 20.168 91.9381 20.252 91.9141 20.384C91.9021 20.504 91.7761 20.624 91.5361 20.744C90.6121 21.128 89.4961 21.398 88.1881 21.554C87.8521 21.602 87.5281 21.626 87.2161 21.626C86.3161 21.626 85.5301 21.44 84.8581 21.068C84.1861 20.576 83.7781 19.82 83.6341 18.8C83.5621 18.332 83.5261 17.882 83.5261 17.45C83.5261 16.958 83.5741 16.496 83.6701 16.064C83.5861 15.932 83.5441 15.794 83.5441 15.65C83.5441 15.578 83.5681 15.464 83.6161 15.308C83.6641 15.152 83.8381 15.062 84.1381 15.038C85.1221 15.026 86.1061 15.002 87.0901 14.966C88.0381 14.93 88.9861 14.906 89.9341 14.894C90.1981 14.906 90.3721 15.014 90.4561 15.218C90.5041 15.314 90.5281 15.41 90.5281 15.506C90.5281 15.602 90.4921 15.728 90.4201 15.884C90.3601 16.028 90.1981 16.106 89.9341 16.118C88.9621 16.13 88.0021 16.154 87.0541 16.19C86.3221 16.214 85.5961 16.238 84.8761 16.262C84.7801 16.646 84.7321 17.054 84.7321 17.486C84.7321 17.618 84.7441 17.876 84.7681 18.26C84.7921 18.632 84.9361 19.046 85.2001 19.502C85.4761 19.958 85.9021 20.21 86.4781 20.258C86.7181 20.27 86.9521 20.276 87.1801 20.276C88.5601 20.276 89.9041 20.036 91.2121 19.556ZM97.1161 16.928C97.3801 16.952 97.5541 17.06 97.6381 17.252C97.6861 17.348 97.7101 17.45 97.7101 17.558C97.7101 17.654 97.6741 17.78 97.6021 17.936C97.5421 18.08 97.3801 18.152 97.1161 18.152H96.5761C96.4921 18.152 96.4201 18.14 96.3601 18.116C95.8921 18.08 95.4181 18.056 94.9381 18.044V18.116C94.9381 18.176 94.9321 18.23 94.9201 18.278C94.9201 18.53 94.9321 18.83 94.9561 19.178C94.9801 19.49 94.9921 19.742 94.9921 19.934C94.9921 20.054 94.9801 20.174 94.9561 20.294C94.9441 20.414 94.8421 20.648 94.6501 20.996C94.5061 21.188 94.3441 21.284 94.1641 21.284C94.1401 21.284 94.0681 21.278 93.9481 21.266C93.8281 21.254 93.7081 21.164 93.5881 20.996C93.5281 20.9 93.4981 20.804 93.4981 20.708C93.4981 20.6 93.5281 20.492 93.5881 20.384C93.7081 20.144 93.7681 19.91 93.7681 19.682C93.7801 19.454 93.7681 19.052 93.7321 18.476C93.7201 18.08 93.7141 17.762 93.7141 17.522C93.7141 17.246 93.7201 16.964 93.7321 16.676C93.7561 16.304 93.7681 15.962 93.7681 15.65C93.7681 14.93 93.7081 14.36 93.5881 13.94C93.5761 13.892 93.5701 13.85 93.5701 13.814C93.5701 13.61 93.6421 13.454 93.7861 13.346C93.9181 13.226 94.0681 13.166 94.2361 13.166C94.2721 13.166 94.3501 13.178 94.4701 13.202C94.6021 13.226 94.7041 13.364 94.7761 13.616C94.9321 14.156 95.0101 14.858 95.0101 15.722C95.0101 16.07 94.9981 16.436 94.9741 16.82C95.2741 16.832 95.5681 16.85 95.8561 16.874C96.2761 16.91 96.6961 16.928 97.1161 16.928ZM93.8761 27.584C93.9481 27.572 94.0081 27.566 94.0561 27.566C94.2241 27.566 94.3621 27.626 94.4701 27.746C94.5781 27.866 94.6321 28.01 94.6321 28.178C94.6321 28.214 94.6201 28.298 94.5961 28.43C94.5841 28.562 94.4521 28.676 94.2001 28.772C93.0121 29.108 91.7941 29.282 90.5461 29.294C90.4021 29.294 90.2461 29.3 90.0781 29.312C89.8981 29.324 89.7241 29.33 89.5561 29.33C89.0761 29.33 88.6081 29.27 88.1521 29.15C87.5161 28.898 87.1201 28.508 86.9641 27.98C86.8321 27.572 86.7661 27.128 86.7661 26.648C86.7661 26.516 86.7721 26.378 86.7841 26.234C86.8201 25.862 87.0241 25.658 87.3961 25.622C87.8281 25.574 88.2661 25.55 88.7101 25.55C88.8781 25.55 89.0521 25.556 89.2321 25.568H89.6281C90.0361 25.568 90.4381 25.556 90.8341 25.532H91.0321C91.3081 25.52 91.6021 25.49 91.9141 25.442C92.2381 25.382 92.4901 25.262 92.6701 25.082C92.7901 24.95 92.8501 24.83 92.8501 24.722C92.8501 24.674 92.8261 24.608 92.7781 24.524C92.7421 24.428 92.6101 24.35 92.3821 24.29C91.8421 24.158 91.2901 24.092 90.7261 24.092C90.6781 24.092 90.4921 24.098 90.1681 24.11C89.8441 24.122 89.3761 24.164 88.7641 24.236C88.1641 24.32 87.5701 24.368 86.9821 24.38C86.7181 24.38 86.5441 24.278 86.4601 24.074C86.4121 23.978 86.3881 23.882 86.3881 23.786C86.3881 23.69 86.4181 23.57 86.4781 23.426C86.5501 23.27 86.7181 23.18 86.9821 23.156C87.2821 23.144 87.6901 23.102 88.2061 23.03C88.9381 22.934 89.7361 22.862 90.6001 22.814C90.7681 22.802 90.9241 22.796 91.0681 22.796C91.7281 22.796 92.3581 22.886 92.9581 23.066C93.5581 23.246 93.9181 23.648 94.0381 24.272C94.0501 24.404 94.0561 24.53 94.0561 24.65C94.0561 25.31 93.8041 25.808 93.3001 26.144C92.8081 26.48 92.1481 26.684 91.3201 26.756C90.7561 26.804 90.2101 26.828 89.6821 26.828C89.4181 26.828 89.1541 26.822 88.8901 26.81H88.0081C88.0081 27.218 88.0981 27.524 88.2781 27.728C88.4701 27.944 88.8301 28.058 89.3581 28.07C89.5981 28.082 89.8321 28.088 90.0601 28.088C91.3561 28.088 92.6281 27.92 93.8761 27.584ZM106.212 15.056H106.482C106.83 15.056 107.19 15.092 107.562 15.164C107.946 15.236 108.252 15.446 108.48 15.794C108.624 16.082 108.696 16.406 108.696 16.766C108.696 16.802 108.69 16.928 108.678 17.144C108.666 17.36 108.624 17.66 108.552 18.044C108.516 18.248 108.486 18.44 108.462 18.62C108.378 19.988 108.024 21.284 107.4 22.508C107.268 22.712 107.106 22.814 106.914 22.814C106.902 22.814 106.836 22.808 106.716 22.796C106.596 22.784 106.476 22.688 106.356 22.508C106.284 22.424 106.248 22.328 106.248 22.22C106.248 22.124 106.278 22.016 106.338 21.896C106.41 21.752 106.53 21.404 106.698 20.852C106.878 20.3 107.046 19.688 107.202 19.016C107.358 18.332 107.454 17.732 107.49 17.216V16.982C107.49 16.61 107.412 16.4 107.256 16.352C106.716 16.28 106.164 16.244 105.6 16.244C104.916 16.244 104.226 16.298 103.53 16.406C102.726 16.502 101.922 16.55 101.118 16.55H100.848C100.596 16.526 100.422 16.412 100.326 16.208C100.29 16.1 100.272 15.998 100.272 15.902C100.272 15.806 100.302 15.686 100.362 15.542C100.422 15.398 100.584 15.326 100.848 15.326H101.172C102.024 15.326 102.87 15.284 103.71 15.2C104.538 15.116 105.372 15.068 106.212 15.056ZM110.532 25.856C110.592 25.844 110.646 25.838 110.694 25.838C110.874 25.838 111.018 25.904 111.126 26.036C111.234 26.18 111.288 26.342 111.288 26.522C111.288 26.546 111.276 26.618 111.252 26.738C111.24 26.87 111.108 26.972 110.856 27.044C109.536 27.368 108.186 27.548 106.806 27.584C106.29 27.596 105.768 27.602 105.24 27.602C104.376 27.602 103.512 27.584 102.648 27.548C101.772 27.512 100.908 27.488 100.056 27.476C99.7918 27.464 99.6178 27.356 99.5338 27.152C99.4858 27.056 99.4618 26.96 99.4618 26.864C99.4618 26.768 99.4918 26.642 99.5518 26.486C99.6238 26.342 99.7918 26.264 100.056 26.252C100.908 26.264 101.778 26.288 102.666 26.324C103.182 26.336 103.704 26.348 104.232 26.36V26.288C104.328 25.904 104.376 25.514 104.376 25.118C104.376 25.046 104.37 24.872 104.358 24.596C104.346 24.32 104.304 23.942 104.232 23.462C104.148 22.946 104.1 22.442 104.088 21.95C104.088 21.686 104.19 21.512 104.394 21.428C104.49 21.38 104.586 21.356 104.682 21.356C104.778 21.356 104.898 21.392 105.042 21.464C105.198 21.524 105.288 21.686 105.312 21.95C105.324 22.478 105.366 23 105.438 23.516C105.534 24.032 105.582 24.542 105.582 25.046C105.582 25.49 105.546 25.934 105.474 26.378H105.924C107.508 26.378 109.044 26.204 110.532 25.856ZM114.155 23.894C113.855 23.87 113.657 23.72 113.561 23.444C113.273 22.424 113.099 21.386 113.039 20.33C113.003 19.622 112.985 18.92 112.985 18.224C112.985 17.864 112.991 17.51 113.003 17.162C113.015 16.718 113.021 16.274 113.021 15.83C113.021 15.566 113.123 15.392 113.327 15.308C113.435 15.26 113.537 15.236 113.633 15.236C113.741 15.236 113.867 15.272 114.011 15.344C114.167 15.404 114.245 15.566 114.245 15.83V17.144C114.233 17.516 114.227 17.888 114.227 18.26C114.227 18.824 114.239 19.484 114.263 20.24C114.299 20.984 114.425 21.806 114.641 22.706C115.013 22.742 115.385 22.76 115.757 22.76C117.209 22.76 118.619 22.442 119.987 21.806C120.095 21.758 120.203 21.734 120.311 21.734C120.431 21.734 120.557 21.788 120.689 21.896C120.833 21.992 120.911 22.148 120.923 22.364V22.418C120.923 22.598 120.821 22.748 120.617 22.868C119.045 23.624 117.413 24.002 115.721 24.002C115.205 24.002 114.683 23.966 114.155 23.894ZM126.791 19.754H126.827C127.043 19.754 127.193 19.838 127.277 20.006C127.349 20.126 127.385 20.258 127.385 20.402C127.385 20.462 127.367 20.558 127.331 20.69C127.295 20.81 127.169 20.9 126.953 20.96C126.893 20.972 126.833 20.978 126.773 20.978C126.749 20.99 126.719 20.996 126.683 20.996H126.647C125.975 21.056 125.177 21.086 124.253 21.086H123.785L123.677 22.814C123.557 24.35 123.491 25.4 123.479 25.964C123.467 26.228 123.359 26.402 123.155 26.486C123.059 26.534 122.963 26.558 122.867 26.558C122.771 26.558 122.645 26.522 122.489 26.45C122.345 26.39 122.267 26.228 122.255 25.964C122.267 25.424 122.333 24.398 122.453 22.886C122.585 21.326 122.663 19.766 122.687 18.206V17.486C122.687 16.262 122.609 15.266 122.453 14.498V14.408C122.453 14.18 122.525 14.006 122.669 13.886C122.813 13.778 122.963 13.724 123.119 13.724C123.155 13.724 123.233 13.736 123.353 13.76C123.485 13.772 123.581 13.91 123.641 14.174C123.821 15.206 123.911 16.376 123.911 17.684C123.911 18.38 123.887 19.106 123.839 19.862H124.271C125.243 19.862 126.083 19.826 126.791 19.754ZM141.482 15.056H141.752C142.1 15.056 142.46 15.092 142.832 15.164C143.216 15.236 143.522 15.446 143.75 15.794C143.894 16.082 143.966 16.406 143.966 16.766C143.966 16.802 143.96 16.928 143.948 17.144C143.936 17.36 143.894 17.66 143.822 18.044C143.786 18.248 143.756 18.44 143.732 18.62C143.648 19.988 143.294 21.284 142.67 22.508C142.538 22.712 142.376 22.814 142.184 22.814C142.172 22.814 142.106 22.808 141.986 22.796C141.866 22.784 141.746 22.688 141.626 22.508C141.554 22.424 141.518 22.328 141.518 22.22C141.518 22.124 141.548 22.016 141.608 21.896C141.68 21.752 141.8 21.404 141.968 20.852C142.148 20.3 142.316 19.688 142.472 19.016C142.628 18.332 142.724 17.732 142.76 17.216V16.982C142.76 16.61 142.682 16.4 142.526 16.352C141.986 16.28 141.434 16.244 140.87 16.244C140.186 16.244 139.496 16.298 138.8 16.406C137.996 16.502 137.192 16.55 136.388 16.55H136.118C135.866 16.526 135.692 16.412 135.596 16.208C135.56 16.1 135.542 15.998 135.542 15.902C135.542 15.806 135.572 15.686 135.632 15.542C135.692 15.398 135.854 15.326 136.118 15.326H136.442C137.294 15.326 138.14 15.284 138.98 15.2C139.808 15.116 140.642 15.068 141.482 15.056ZM145.712 25.352C145.976 25.352 146.15 25.454 146.234 25.658C146.282 25.754 146.306 25.856 146.306 25.964C146.306 26.06 146.27 26.186 146.198 26.342C146.138 26.498 145.976 26.576 145.712 26.576C143.9 26.576 142.088 26.588 140.276 26.612C138.476 26.636 136.67 26.696 134.858 26.792C134.594 26.792 134.42 26.696 134.336 26.504C134.3 26.408 134.282 26.312 134.282 26.216C134.282 26.108 134.312 25.982 134.372 25.838C134.444 25.682 134.606 25.586 134.858 25.55C136.67 25.466 138.476 25.412 140.276 25.388C142.088 25.364 143.9 25.352 145.712 25.352ZM153.187 17.126C153.631 17.006 153.889 16.796 153.961 16.496C153.997 16.352 154.015 16.202 154.015 16.046C154.015 15.866 153.991 15.674 153.943 15.47C153.571 15.434 153.205 15.416 152.845 15.416C152.053 15.416 151.273 15.506 150.505 15.686C150.445 15.698 150.391 15.704 150.343 15.704C150.163 15.704 150.019 15.638 149.911 15.506C149.803 15.374 149.749 15.218 149.749 15.038C149.749 15.014 149.755 14.942 149.767 14.822C149.791 14.69 149.929 14.582 150.181 14.498C150.865 14.318 151.567 14.216 152.287 14.192H152.647C153.259 14.192 153.853 14.216 154.429 14.264C154.729 14.288 154.927 14.438 155.023 14.714C155.167 15.194 155.239 15.698 155.239 16.226C155.239 16.334 155.227 16.58 155.203 16.964C155.191 17.348 154.885 17.708 154.285 18.044C153.817 18.248 153.331 18.368 152.827 18.404C152.419 18.44 152.011 18.458 151.603 18.458H151.009V18.512C151.009 19.316 151.279 19.844 151.819 20.096C152.227 20.276 152.701 20.366 153.241 20.366C153.433 20.366 153.775 20.342 154.267 20.294C154.771 20.234 155.071 20.186 155.167 20.15C155.311 20.114 155.455 20.084 155.599 20.06V20.042C155.623 20.03 155.641 20.018 155.653 20.006C155.677 19.982 155.701 19.964 155.725 19.952C155.857 19.856 155.989 19.808 156.121 19.808C156.193 19.808 156.295 19.832 156.427 19.88C156.571 19.928 156.685 20.048 156.769 20.24C156.793 20.288 156.805 20.342 156.805 20.402C156.805 20.522 156.745 20.648 156.625 20.78C156.565 20.984 156.427 21.116 156.211 21.176C155.887 21.236 155.551 21.302 155.203 21.374C155.083 21.434 154.627 21.506 153.835 21.59C153.595 21.614 153.361 21.626 153.133 21.626C152.605 21.626 152.101 21.554 151.621 21.41C150.769 21.11 150.223 20.624 149.983 19.952C149.839 19.544 149.767 19.106 149.767 18.638C149.767 18.338 149.797 18.02 149.857 17.684C149.881 17.552 149.953 17.45 150.073 17.378C150.193 17.294 150.319 17.246 150.451 17.234H151.297C151.477 17.246 151.663 17.252 151.855 17.252C152.311 17.252 152.755 17.21 153.187 17.126ZM160.387 21.446C160.363 21.71 160.255 21.884 160.063 21.968C159.967 22.004 159.871 22.022 159.775 22.022C159.679 22.022 159.553 21.992 159.397 21.932C159.253 21.872 159.175 21.71 159.163 21.446C159.163 20.906 159.169 20.372 159.181 19.844C159.193 19.292 159.199 18.746 159.199 18.206C159.199 17.654 159.187 16.976 159.163 16.172C159.151 15.356 159.055 14.408 158.875 13.328V13.202C158.875 12.998 158.947 12.836 159.091 12.716C159.235 12.608 159.397 12.554 159.577 12.554C159.601 12.554 159.673 12.566 159.793 12.59C159.913 12.602 160.003 12.734 160.063 12.986C160.255 14.15 160.363 15.32 160.387 16.496C160.411 17.192 160.423 17.894 160.423 18.602C160.423 19.07 160.417 19.538 160.405 20.006C160.393 20.486 160.387 20.966 160.387 21.446ZM158.119 23.102C158.299 23.102 158.443 23.168 158.551 23.3C158.671 23.42 158.731 23.564 158.731 23.732C158.731 23.9 158.737 24.068 158.749 24.236C158.761 24.488 158.767 24.734 158.767 24.974C158.767 26.018 158.683 27.056 158.515 28.088C158.479 28.22 158.401 28.322 158.281 28.394C158.173 28.478 158.053 28.526 157.921 28.538C157.405 28.562 156.853 28.622 156.265 28.718C155.605 28.826 154.951 28.892 154.303 28.916H154.159C153.559 28.916 153.001 28.784 152.485 28.52C152.041 28.232 151.807 27.734 151.783 27.026V26.792C151.783 26.156 151.825 25.538 151.909 24.938C151.957 24.578 151.981 24.278 151.981 24.038C151.993 23.99 152.005 23.954 152.017 23.93V23.894C152.029 23.846 152.041 23.804 152.053 23.768C152.077 23.648 152.113 23.534 152.161 23.426C152.221 23.318 152.323 23.246 152.467 23.21C152.599 23.186 152.731 23.174 152.863 23.174C152.995 23.174 153.121 23.186 153.241 23.21C153.397 23.234 153.553 23.252 153.709 23.264L155.293 23.228H155.833C156.601 23.216 157.363 23.174 158.119 23.102ZM153.619 27.602C153.799 27.614 153.979 27.62 154.159 27.62C154.831 27.62 155.497 27.566 156.157 27.458C156.565 27.41 156.973 27.368 157.381 27.332C157.489 26.564 157.543 25.79 157.543 25.01C157.543 24.806 157.537 24.596 157.525 24.38C156.625 24.428 155.725 24.458 154.825 24.47C154.657 24.47 154.465 24.482 154.249 24.506C153.901 24.542 153.547 24.56 153.187 24.56C153.175 24.704 153.169 24.842 153.169 24.974C153.145 25.334 153.127 25.694 153.115 26.054V26.18C153.103 26.324 153.097 26.462 153.097 26.594C153.097 26.81 153.109 27.02 153.133 27.224C153.145 27.392 153.175 27.494 153.223 27.53C153.283 27.578 153.391 27.602 153.547 27.602H153.619ZM169.465 20.978C169.045 21.134 168.619 21.212 168.187 21.212C167.731 21.212 167.155 21.092 166.459 20.852C165.763 20.612 165.193 20.09 164.749 19.286C164.533 18.83 164.425 18.374 164.425 17.918C164.425 17.534 164.545 17.048 164.785 16.46C165.037 15.86 165.589 15.362 166.441 14.966C167.029 14.714 167.611 14.588 168.187 14.588C168.475 14.588 168.907 14.654 169.483 14.786C170.059 14.906 170.581 15.41 171.049 16.298C171.313 16.85 171.445 17.396 171.445 17.936C171.445 18.26 171.355 18.716 171.175 19.304C171.007 19.892 170.485 20.426 169.609 20.906C169.597 20.918 169.579 20.924 169.555 20.924C169.543 20.924 169.531 20.93 169.519 20.942H169.501L169.465 20.978ZM166.675 16.244C166.147 16.604 165.811 17.066 165.667 17.63C165.643 17.75 165.631 17.864 165.631 17.972C165.631 18.392 165.823 18.794 166.207 19.178C166.795 19.706 167.437 19.97 168.133 19.97C168.421 19.97 168.721 19.922 169.033 19.826C169.609 19.49 169.987 19.034 170.167 18.458C170.227 18.266 170.257 18.074 170.257 17.882C170.257 17.486 170.131 17.096 169.879 16.712C169.483 16.172 168.991 15.866 168.403 15.794C168.307 15.782 168.211 15.776 168.115 15.776C167.623 15.776 167.143 15.932 166.675 16.244ZM175.459 21.446C175.435 21.71 175.327 21.884 175.135 21.968C175.039 22.004 174.943 22.022 174.847 22.022C174.751 22.022 174.625 21.992 174.469 21.932C174.325 21.872 174.247 21.71 174.235 21.446C174.235 20.906 174.241 20.372 174.253 19.844C174.265 19.292 174.271 18.746 174.271 18.206C174.271 17.654 174.259 16.976 174.235 16.172C174.223 15.356 174.127 14.408 173.947 13.328V13.202C173.947 12.998 174.019 12.836 174.163 12.716C174.307 12.608 174.469 12.554 174.649 12.554C174.673 12.554 174.745 12.566 174.865 12.59C174.985 12.602 175.075 12.734 175.135 12.986C175.327 14.15 175.435 15.32 175.459 16.496C175.483 17.192 175.495 17.894 175.495 18.602C175.495 19.07 175.489 19.538 175.477 20.006C175.465 20.486 175.459 20.966 175.459 21.446ZM174.199 27.584C174.271 27.572 174.331 27.566 174.379 27.566C174.547 27.566 174.685 27.626 174.793 27.746C174.901 27.866 174.955 28.01 174.955 28.178C174.955 28.214 174.943 28.298 174.919 28.43C174.907 28.562 174.775 28.676 174.523 28.772C173.335 29.108 172.117 29.282 170.869 29.294C170.725 29.294 170.569 29.3 170.401 29.312C170.221 29.324 170.047 29.33 169.879 29.33C169.399 29.33 168.931 29.27 168.475 29.15C167.839 28.898 167.443 28.508 167.287 27.98C167.155 27.572 167.089 27.128 167.089 26.648C167.089 26.516 167.095 26.378 167.107 26.234C167.143 25.862 167.347 25.658 167.719 25.622C168.151 25.574 168.589 25.55 169.033 25.55C169.201 25.55 169.375 25.556 169.555 25.568H169.951C170.359 25.568 170.761 25.556 171.157 25.532H171.355C171.631 25.52 171.925 25.49 172.237 25.442C172.561 25.382 172.813 25.262 172.993 25.082C173.113 24.95 173.173 24.83 173.173 24.722C173.173 24.674 173.149 24.608 173.101 24.524C173.065 24.428 172.933 24.35 172.705 24.29C172.165 24.158 171.613 24.092 171.049 24.092C171.001 24.092 170.815 24.098 170.491 24.11C170.167 24.122 169.699 24.164 169.087 24.236C168.487 24.32 167.893 24.368 167.305 24.38C167.041 24.38 166.867 24.278 166.783 24.074C166.735 23.978 166.711 23.882 166.711 23.786C166.711 23.69 166.741 23.57 166.801 23.426C166.873 23.27 167.041 23.18 167.305 23.156C167.605 23.144 168.013 23.102 168.529 23.03C169.261 22.934 170.059 22.862 170.923 22.814C171.091 22.802 171.247 22.796 171.391 22.796C172.051 22.796 172.681 22.886 173.281 23.066C173.881 23.246 174.241 23.648 174.361 24.272C174.373 24.404 174.379 24.53 174.379 24.65C174.379 25.31 174.127 25.808 173.623 26.144C173.131 26.48 172.471 26.684 171.643 26.756C171.079 26.804 170.533 26.828 170.005 26.828C169.741 26.828 169.477 26.822 169.213 26.81H168.331C168.331 27.218 168.421 27.524 168.601 27.728C168.793 27.944 169.153 28.058 169.681 28.07C169.921 28.082 170.155 28.088 170.383 28.088C171.679 28.088 172.951 27.92 174.199 27.584ZM179.964 24.272C179.772 24.272 179.604 24.182 179.46 24.002C179.388 23.894 179.352 23.78 179.352 23.66C179.352 23.624 179.358 23.582 179.37 23.534C179.394 23.378 179.478 23.246 179.622 23.138C182.514 21.206 184.272 19.016 184.896 16.568C184.068 16.568 183.234 16.574 182.394 16.586C181.506 16.61 180.618 16.622 179.73 16.622C179.55 16.622 179.4 16.562 179.28 16.442C179.172 16.322 179.118 16.178 179.118 16.01C179.118 15.842 179.178 15.698 179.298 15.578C179.418 15.458 179.562 15.398 179.73 15.398H179.766C180.618 15.398 181.47 15.386 182.322 15.362H182.376C183.12 15.35 183.852 15.344 184.572 15.344H185.652C185.844 15.344 186 15.416 186.12 15.56C186.216 15.68 186.264 15.818 186.264 15.974V16.064C185.724 19.148 183.744 21.848 180.324 24.164C180.204 24.236 180.084 24.272 179.964 24.272ZM188.712 26.558C188.592 25.946 188.532 25.304 188.532 24.632C188.532 24.356 188.538 24.08 188.55 23.804C188.562 23.48 188.574 23.174 188.586 22.886V22.004C188.586 21.416 188.592 20.828 188.604 20.24C188.628 19.592 188.64 18.944 188.64 18.296C188.64 16.88 188.592 15.464 188.496 14.048V14.012C188.496 13.784 188.586 13.622 188.766 13.526C188.862 13.478 188.964 13.454 189.072 13.454C189.168 13.454 189.288 13.49 189.432 13.562C189.588 13.634 189.684 13.796 189.72 14.048C189.804 15.26 189.846 16.478 189.846 17.702C189.846 18.302 189.834 18.908 189.81 19.52C189.798 20.072 189.792 20.63 189.792 21.194C189.792 21.758 189.798 22.322 189.81 22.886C189.81 23.186 189.804 23.51 189.792 23.858C189.78 24.122 189.774 24.38 189.774 24.632C189.774 25.088 189.798 25.52 189.846 25.928C189.894 26.012 189.918 26.114 189.918 26.234V26.396C189.906 26.624 189.816 26.792 189.648 26.9C189.54 26.96 189.426 26.99 189.306 26.99C189.246 26.99 189.15 26.972 189.018 26.936C188.886 26.912 188.784 26.786 188.712 26.558ZM208.388 18.116C208.628 18.212 208.766 18.368 208.802 18.584V18.674C208.802 18.854 208.748 19.016 208.64 19.16C208.544 19.268 208.424 19.322 208.28 19.322C208.22 19.322 208.148 19.31 208.064 19.286C206.624 18.734 205.508 17.726 204.716 16.262C204.14 17.522 203.276 18.488 202.124 19.16C202.004 19.22 201.896 19.25 201.8 19.25C201.692 19.25 201.572 19.202 201.44 19.106C201.308 19.01 201.23 18.854 201.206 18.638V18.566C201.206 18.386 201.302 18.23 201.494 18.098C202.826 17.282 203.66 16.1 203.996 14.552H203.456C202.904 14.552 202.358 14.528 201.818 14.48C201.554 14.432 201.38 14.306 201.296 14.102C201.248 13.994 201.224 13.892 201.224 13.796C201.224 13.7 201.248 13.604 201.296 13.508C201.38 13.34 201.536 13.256 201.764 13.256H201.818C202.418 13.316 203.012 13.346 203.6 13.346C204.056 13.346 204.506 13.328 204.95 13.292C205.406 13.256 205.856 13.238 206.3 13.238C206.9 13.238 207.5 13.268 208.1 13.328C208.364 13.364 208.538 13.49 208.622 13.706C208.67 13.802 208.694 13.904 208.694 14.012C208.694 14.108 208.67 14.204 208.622 14.3C208.538 14.468 208.382 14.552 208.154 14.552H208.1C207.524 14.504 206.942 14.48 206.354 14.48C206.03 14.48 205.7 14.486 205.364 14.498C205.556 15.278 205.922 16.01 206.462 16.694C207.002 17.366 207.644 17.84 208.388 18.116ZM209.594 20.276C209.858 20.3 210.032 20.408 210.116 20.6C210.164 20.696 210.188 20.798 210.188 20.906C210.188 21.002 210.152 21.122 210.08 21.266C210.02 21.41 209.858 21.488 209.594 21.5H209.198C207.986 21.5 206.78 21.548 205.58 21.644C205.604 21.776 205.616 21.92 205.616 22.076C205.616 22.484 205.514 22.964 205.31 23.516C205.202 23.756 205.034 23.888 204.806 23.912C204.758 23.924 204.71 23.93 204.662 23.93C204.506 23.93 204.362 23.876 204.23 23.768C204.134 23.684 204.086 23.57 204.086 23.426C204.086 23.354 204.098 23.276 204.122 23.192C204.302 22.736 204.392 22.352 204.392 22.04C204.392 21.92 204.38 21.812 204.356 21.716C203.36 21.8 202.364 21.842 201.368 21.842C200.876 21.842 200.378 21.83 199.874 21.806C199.61 21.782 199.436 21.668 199.352 21.464C199.316 21.356 199.298 21.254 199.298 21.158C199.298 21.062 199.328 20.942 199.388 20.798C199.448 20.654 199.61 20.582 199.874 20.582C200.366 20.594 200.852 20.6 201.332 20.6C202.592 20.6 203.852 20.546 205.112 20.438C206.468 20.33 207.824 20.276 209.18 20.276H209.594ZM208.28 27.584C208.352 27.572 208.412 27.566 208.46 27.566C208.628 27.566 208.766 27.626 208.874 27.746C208.982 27.866 209.036 28.01 209.036 28.178C209.036 28.214 209.024 28.298 209 28.43C208.988 28.562 208.856 28.676 208.604 28.772C207.416 29.108 206.198 29.282 204.95 29.294C204.806 29.294 204.65 29.3 204.482 29.312C204.302 29.324 204.128 29.33 203.96 29.33C203.48 29.33 203.012 29.27 202.556 29.15C201.92 28.898 201.524 28.508 201.368 27.98C201.236 27.572 201.17 27.128 201.17 26.648C201.17 26.516 201.176 26.378 201.188 26.234C201.224 25.862 201.428 25.658 201.8 25.622C202.232 25.574 202.67 25.55 203.114 25.55C203.282 25.55 203.456 25.556 203.636 25.568H204.032C204.44 25.568 204.842 25.556 205.238 25.532H205.436C205.712 25.52 206.006 25.49 206.318 25.442C206.642 25.382 206.894 25.262 207.074 25.082C207.194 24.95 207.254 24.83 207.254 24.722C207.254 24.674 207.23 24.608 207.182 24.524C207.146 24.428 207.014 24.35 206.786 24.29C206.246 24.158 205.694 24.092 205.13 24.092C205.082 24.092 204.896 24.098 204.572 24.11C204.248 24.122 203.78 24.164 203.168 24.236C202.568 24.32 201.974 24.368 201.386 24.38C201.122 24.38 200.948 24.278 200.864 24.074C200.816 23.978 200.792 23.882 200.792 23.786C200.792 23.69 200.822 23.57 200.882 23.426C200.954 23.27 201.122 23.18 201.386 23.156C201.686 23.144 202.094 23.102 202.61 23.03C203.342 22.934 204.14 22.862 205.004 22.814C205.172 22.802 205.328 22.796 205.472 22.796C206.132 22.796 206.762 22.886 207.362 23.066C207.962 23.246 208.322 23.648 208.442 24.272C208.454 24.404 208.46 24.53 208.46 24.65C208.46 25.31 208.208 25.808 207.704 26.144C207.212 26.48 206.552 26.684 205.724 26.756C205.16 26.804 204.614 26.828 204.086 26.828C203.822 26.828 203.558 26.822 203.294 26.81H202.412C202.412 27.218 202.502 27.524 202.682 27.728C202.874 27.944 203.234 28.058 203.762 28.07C204.002 28.082 204.236 28.088 204.464 28.088C205.76 28.088 207.032 27.92 208.28 27.584ZM222.2 20.186C222.464 20.21 222.644 20.324 222.74 20.528C222.788 20.624 222.812 20.72 222.812 20.816C222.812 20.912 222.776 21.038 222.704 21.194C222.632 21.338 222.464 21.41 222.2 21.41H221.786C220.982 21.41 220.166 21.44 219.338 21.5C218.942 21.524 218.54 21.542 218.132 21.554C218.024 21.554 217.916 21.56 217.808 21.572C217.58 21.584 217.34 21.59 217.088 21.59C216.968 21.59 216.782 21.584 216.53 21.572C216.29 21.56 216.02 21.482 215.72 21.338C215.372 21.146 215.138 20.888 215.018 20.564C214.898 20.24 214.814 19.892 214.766 19.52C214.754 19.436 214.742 19.358 214.73 19.286C214.538 18.098 214.28 16.922 213.956 15.758C213.944 15.686 213.938 15.626 213.938 15.578C213.938 15.41 213.998 15.272 214.118 15.164C214.262 15.056 214.424 15.002 214.604 15.002C214.628 15.002 214.7 15.014 214.82 15.038C214.952 15.05 215.06 15.182 215.144 15.434C215.432 16.442 215.666 17.468 215.846 18.512C215.87 18.656 215.888 18.8 215.9 18.944C215.924 19.316 215.996 19.64 216.116 19.916C216.248 20.18 216.542 20.324 216.998 20.348C217.826 20.348 218.648 20.318 219.464 20.258C220.22 20.21 220.982 20.186 221.75 20.186H222.2ZM224.684 25.856C224.744 25.844 224.798 25.838 224.846 25.838C225.026 25.838 225.17 25.904 225.278 26.036C225.386 26.18 225.44 26.342 225.44 26.522C225.44 26.546 225.428 26.618 225.404 26.738C225.392 26.87 225.26 26.972 225.008 27.044C223.688 27.368 222.338 27.548 220.958 27.584C220.442 27.596 219.92 27.602 219.392 27.602C218.528 27.602 217.664 27.584 216.8 27.548C215.924 27.512 215.06 27.488 214.208 27.476C213.944 27.464 213.77 27.356 213.686 27.152C213.638 27.056 213.614 26.96 213.614 26.864C213.614 26.768 213.644 26.642 213.704 26.486C213.776 26.342 213.944 26.264 214.208 26.252C215.06 26.264 215.93 26.288 216.818 26.324C217.334 26.336 217.856 26.348 218.384 26.36V26.288C218.48 25.904 218.528 25.514 218.528 25.118C218.528 25.046 218.522 24.872 218.51 24.596C218.498 24.32 218.456 23.942 218.384 23.462C218.3 22.946 218.252 22.442 218.24 21.95C218.24 21.686 218.342 21.512 218.546 21.428C218.642 21.38 218.738 21.356 218.834 21.356C218.93 21.356 219.05 21.392 219.194 21.464C219.35 21.524 219.44 21.686 219.464 21.95C219.476 22.478 219.518 23 219.59 23.516C219.686 24.032 219.734 24.542 219.734 25.046C219.734 25.49 219.698 25.934 219.626 26.378H220.076C221.66 26.378 223.196 26.204 224.684 25.856ZM237.038 20.672C237.11 20.648 237.182 20.636 237.254 20.636C237.41 20.636 237.536 20.696 237.632 20.816C237.74 20.936 237.794 21.08 237.794 21.248C237.794 21.284 237.782 21.374 237.758 21.518C237.746 21.65 237.614 21.764 237.362 21.86C236.222 22.244 235.046 22.46 233.834 22.508H233.798C233.594 22.52 233.384 22.526 233.168 22.526C232.892 22.526 232.538 22.508 232.106 22.472C231.686 22.436 231.296 22.262 230.936 21.95C230.624 21.626 230.444 21.218 230.396 20.726C230.348 20.378 230.324 20.042 230.324 19.718C230.324 19.598 230.33 19.472 230.342 19.34V19.106C230.366 18.542 230.39 17.972 230.414 17.396C230.438 17.084 230.456 16.766 230.468 16.442C230.288 16.37 230.174 16.238 230.126 16.046C230.114 15.986 230.108 15.926 230.108 15.866C230.108 15.746 230.144 15.62 230.216 15.488C230.3 15.344 230.456 15.272 230.684 15.272H230.756C230.864 15.188 230.984 15.146 231.116 15.146C231.26 15.146 231.386 15.188 231.494 15.272H236.498C236.762 15.272 236.936 15.374 237.02 15.578C237.068 15.674 237.092 15.776 237.092 15.884C237.092 15.98 237.056 16.106 236.984 16.262C236.924 16.418 236.762 16.496 236.498 16.496H231.692L231.656 17.108C231.632 17.492 231.614 17.87 231.602 18.242H232.07C233.45 18.242 234.83 18.194 236.21 18.098C236.474 18.098 236.654 18.194 236.75 18.386C236.786 18.47 236.804 18.56 236.804 18.656C236.804 18.764 236.768 18.896 236.696 19.052C236.636 19.196 236.474 19.286 236.21 19.322C234.806 19.418 233.402 19.466 231.998 19.466H231.53C231.518 19.562 231.512 19.658 231.512 19.754C231.512 20.21 231.584 20.63 231.728 21.014C231.812 21.182 232.028 21.284 232.376 21.32C232.544 21.332 232.718 21.338 232.898 21.338C233.078 21.338 233.306 21.332 233.582 21.32C233.858 21.296 234.104 21.272 234.32 21.248C234.356 21.236 234.386 21.23 234.41 21.23C235.31 21.146 236.186 20.96 237.038 20.672ZM239.702 25.352C239.966 25.352 240.14 25.454 240.224 25.658C240.272 25.754 240.296 25.856 240.296 25.964C240.296 26.06 240.26 26.186 240.188 26.342C240.128 26.498 239.966 26.576 239.702 26.576C237.89 26.576 236.078 26.588 234.266 26.612C232.466 26.636 230.66 26.696 228.848 26.792C228.584 26.792 228.41 26.696 228.326 26.504C228.29 26.408 228.272 26.312 228.272 26.216C228.272 26.108 228.302 25.982 228.362 25.838C228.434 25.682 228.596 25.586 228.848 25.55C230.66 25.466 232.466 25.412 234.266 25.388C236.078 25.364 237.89 25.352 239.702 25.352ZM252.898 20.978C252.478 21.134 252.052 21.212 251.62 21.212C251.164 21.212 250.588 21.092 249.892 20.852C249.196 20.612 248.626 20.09 248.182 19.286C247.966 18.83 247.858 18.374 247.858 17.918C247.858 17.534 247.978 17.048 248.218 16.46C248.47 15.86 249.022 15.362 249.874 14.966C250.462 14.714 251.044 14.588 251.62 14.588C251.908 14.588 252.34 14.654 252.916 14.786C253.492 14.906 254.014 15.41 254.482 16.298C254.746 16.85 254.878 17.396 254.878 17.936C254.878 18.26 254.788 18.716 254.608 19.304C254.44 19.892 253.918 20.426 253.042 20.906C253.03 20.918 253.012 20.924 252.988 20.924C252.976 20.924 252.964 20.93 252.952 20.942H252.934L252.898 20.978ZM250.108 16.244C249.58 16.604 249.244 17.066 249.1 17.63C249.076 17.75 249.064 17.864 249.064 17.972C249.064 18.392 249.256 18.794 249.64 19.178C250.228 19.706 250.87 19.97 251.566 19.97C251.854 19.97 252.154 19.922 252.466 19.826C253.042 19.49 253.42 19.034 253.6 18.458C253.66 18.266 253.69 18.074 253.69 17.882C253.69 17.486 253.564 17.096 253.312 16.712C252.916 16.172 252.424 15.866 251.836 15.794C251.74 15.782 251.644 15.776 251.548 15.776C251.056 15.776 250.576 15.932 250.108 16.244ZM260.962 16.406C261.166 16.526 261.268 16.682 261.268 16.874C261.268 16.886 261.262 16.952 261.25 17.072C261.238 17.192 261.142 17.312 260.962 17.432C260.866 17.504 260.764 17.54 260.656 17.54C260.56 17.54 260.458 17.516 260.35 17.468C260.074 17.324 259.774 17.246 259.45 17.234H259.126C258.91 17.234 258.694 17.24 258.478 17.252H258.46V17.81C258.46 18.05 258.466 18.278 258.478 18.494C259.126 18.506 259.768 18.56 260.404 18.656C260.656 18.728 260.8 18.866 260.836 19.07C260.848 19.106 260.854 19.148 260.854 19.196C260.854 19.352 260.794 19.496 260.674 19.628C260.566 19.772 260.41 19.844 260.206 19.844H260.08C259.636 19.772 259.192 19.736 258.748 19.736H258.55C258.574 19.952 258.586 20.168 258.586 20.384C258.586 20.696 258.556 21.056 258.496 21.464C258.436 21.872 258.256 22.178 257.956 22.382C257.86 22.43 257.764 22.454 257.668 22.454C257.596 22.454 257.5 22.43 257.38 22.382C257.26 22.334 257.164 22.22 257.092 22.04C257.056 21.956 257.038 21.878 257.038 21.806C257.038 21.758 257.044 21.698 257.056 21.626C257.068 21.542 257.092 21.446 257.128 21.338L257.2 21.086C257.236 20.858 257.254 20.63 257.254 20.402V19.556C257.254 18.956 257.242 18.356 257.218 17.756C257.206 17.432 257.2 17.102 257.2 16.766V16.478C257.2 16.082 257.176 15.674 257.128 15.254C257.092 14.822 256.954 14.384 256.714 13.94C256.654 13.82 256.624 13.712 256.624 13.616C256.624 13.508 256.672 13.388 256.768 13.256C256.864 13.124 257.02 13.046 257.236 13.022H257.308C257.488 13.022 257.644 13.118 257.776 13.31C258.016 13.754 258.172 14.18 258.244 14.588C258.328 14.996 258.382 15.482 258.406 16.046H258.442C258.61 16.034 258.784 16.028 258.964 16.028C259.216 16.028 259.51 16.04 259.846 16.064C260.194 16.088 260.566 16.202 260.962 16.406ZM253.528 23.408C254.116 23.156 254.704 23.03 255.292 23.03C255.58 23.03 256.018 23.096 256.606 23.228C257.194 23.348 257.722 23.858 258.19 24.758C258.454 25.322 258.586 25.874 258.586 26.414C258.586 26.738 258.496 27.194 258.316 27.782C258.148 28.382 257.62 28.922 256.732 29.402C256.708 29.414 256.69 29.42 256.678 29.42C256.666 29.42 256.654 29.426 256.642 29.438C256.63 29.438 256.624 29.444 256.624 29.456C256.612 29.456 256.6 29.462 256.588 29.474C256.168 29.63 255.73 29.708 255.274 29.708C254.83 29.708 254.254 29.588 253.546 29.348C252.85 29.108 252.274 28.58 251.818 27.764C251.602 27.296 251.494 26.834 251.494 26.378C251.494 25.994 251.614 25.508 251.854 24.92C252.106 24.32 252.664 23.816 253.528 23.408ZM256.156 28.322C256.732 27.986 257.116 27.524 257.308 26.936C257.368 26.744 257.398 26.552 257.398 26.36C257.398 25.964 257.272 25.568 257.02 25.172C256.612 24.62 256.108 24.308 255.508 24.236C255.412 24.224 255.316 24.218 255.22 24.218C254.716 24.218 254.23 24.374 253.762 24.686C253.222 25.058 252.88 25.526 252.736 26.09C252.712 26.21 252.7 26.324 252.7 26.432C252.7 26.876 252.898 27.29 253.294 27.674C253.894 28.202 254.542 28.466 255.238 28.466C255.538 28.466 255.844 28.418 256.156 28.322ZM267.825 14.588C267.969 14.864 268.107 15.14 268.239 15.416C268.635 16.268 269.067 17.102 269.535 17.918C270.015 18.722 270.597 19.43 271.281 20.042C271.413 20.174 271.479 20.306 271.479 20.438C271.479 20.498 271.455 20.594 271.407 20.726C271.359 20.858 271.233 20.96 271.029 21.032C270.957 21.056 270.885 21.068 270.813 21.068C270.681 21.068 270.549 21.02 270.417 20.924C269.745 20.324 269.169 19.64 268.689 18.872C268.221 18.104 267.795 17.312 267.411 16.496C266.847 18.32 265.833 19.838 264.369 21.05C264.213 21.158 264.063 21.212 263.919 21.212C263.739 21.212 263.571 21.116 263.415 20.924H263.397C263.349 20.852 263.325 20.768 263.325 20.672C263.325 20.66 263.325 20.618 263.325 20.546C263.325 20.474 263.349 20.396 263.397 20.312C263.445 20.24 263.493 20.174 263.541 20.114C263.553 20.09 263.571 20.066 263.595 20.042C263.679 19.946 263.769 19.886 263.865 19.862C265.377 18.458 266.271 16.754 266.547 14.75C266.583 14.546 266.673 14.396 266.817 14.3C266.961 14.216 267.105 14.174 267.249 14.174C267.261 14.174 267.315 14.18 267.411 14.192C267.507 14.204 267.603 14.282 267.699 14.426C267.747 14.462 267.789 14.516 267.825 14.588ZM275.025 21.446C275.001 21.71 274.893 21.884 274.701 21.968C274.605 22.004 274.509 22.022 274.413 22.022C274.317 22.022 274.191 21.992 274.035 21.932C273.891 21.872 273.813 21.71 273.801 21.446C273.801 20.906 273.807 20.372 273.819 19.844C273.831 19.292 273.837 18.746 273.837 18.206C273.837 17.654 273.825 16.976 273.801 16.172C273.789 15.356 273.693 14.408 273.513 13.328V13.202C273.513 12.998 273.585 12.836 273.729 12.716C273.873 12.608 274.035 12.554 274.215 12.554C274.239 12.554 274.311 12.566 274.431 12.59C274.551 12.602 274.641 12.734 274.701 12.986C274.893 14.15 275.001 15.32 275.025 16.496C275.049 17.192 275.061 17.894 275.061 18.602C275.061 19.07 275.055 19.538 275.043 20.006C275.031 20.486 275.025 20.966 275.025 21.446ZM266.709 24.596C266.445 24.584 266.271 24.482 266.187 24.29C266.139 24.182 266.115 24.08 266.115 23.984C266.115 23.888 266.145 23.768 266.205 23.624C266.277 23.468 266.445 23.384 266.709 23.372C267.429 23.36 268.149 23.342 268.869 23.318C269.565 23.27 270.261 23.246 270.957 23.246C271.893 23.246 272.823 23.288 273.747 23.372C274.119 23.42 274.323 23.624 274.359 23.984C274.395 24.464 274.413 24.938 274.413 25.406C274.413 26.618 274.293 27.818 274.053 29.006C273.993 29.27 273.855 29.42 273.639 29.456H273.549C273.381 29.456 273.225 29.402 273.081 29.294C272.937 29.174 272.865 29.012 272.865 28.808V28.682C273.081 27.566 273.189 26.444 273.189 25.316C273.189 25.052 273.183 24.794 273.171 24.542C272.451 24.494 271.731 24.47 271.011 24.47C270.291 24.47 269.571 24.494 268.851 24.542C268.131 24.566 267.417 24.584 266.709 24.596ZM283.617 20.978C283.197 21.134 282.771 21.212 282.339 21.212C281.883 21.212 281.307 21.092 280.611 20.852C279.915 20.612 279.345 20.09 278.901 19.286C278.685 18.83 278.577 18.374 278.577 17.918C278.577 17.534 278.697 17.048 278.937 16.46C279.189 15.86 279.741 15.362 280.593 14.966C281.181 14.714 281.763 14.588 282.339 14.588C282.627 14.588 283.059 14.654 283.635 14.786C284.211 14.906 284.733 15.41 285.201 16.298C285.465 16.85 285.597 17.396 285.597 17.936C285.597 18.26 285.507 18.716 285.327 19.304C285.159 19.892 284.637 20.426 283.761 20.906C283.749 20.918 283.731 20.924 283.707 20.924C283.695 20.924 283.683 20.93 283.671 20.942H283.653L283.617 20.978ZM280.827 16.244C280.299 16.604 279.963 17.066 279.819 17.63C279.795 17.75 279.783 17.864 279.783 17.972C279.783 18.392 279.975 18.794 280.359 19.178C280.947 19.706 281.589 19.97 282.285 19.97C282.573 19.97 282.873 19.922 283.185 19.826C283.761 19.49 284.139 19.034 284.319 18.458C284.379 18.266 284.409 18.074 284.409 17.882C284.409 17.486 284.283 17.096 284.031 16.712C283.635 16.172 283.143 15.866 282.555 15.794C282.459 15.782 282.363 15.776 282.267 15.776C281.775 15.776 281.295 15.932 280.827 16.244ZM289.611 21.446C289.587 21.71 289.479 21.884 289.287 21.968C289.191 22.004 289.095 22.022 288.999 22.022C288.903 22.022 288.777 21.992 288.621 21.932C288.477 21.872 288.399 21.71 288.387 21.446C288.387 20.906 288.393 20.372 288.405 19.844C288.417 19.292 288.423 18.746 288.423 18.206C288.423 17.654 288.411 16.976 288.387 16.172C288.375 15.356 288.279 14.408 288.099 13.328V13.202C288.099 12.998 288.171 12.836 288.315 12.716C288.459 12.608 288.621 12.554 288.801 12.554C288.825 12.554 288.897 12.566 289.017 12.59C289.137 12.602 289.227 12.734 289.287 12.986C289.479 14.15 289.587 15.32 289.611 16.496C289.635 17.192 289.647 17.894 289.647 18.602C289.647 19.07 289.641 19.538 289.629 20.006C289.617 20.486 289.611 20.966 289.611 21.446ZM287.649 23.282C287.637 23.318 287.631 23.36 287.631 23.408C287.631 23.504 287.649 23.66 287.685 23.876C287.721 24.092 287.769 24.35 287.829 24.65C287.913 25.058 287.973 25.388 288.009 25.64V25.766C288.045 26.006 288.063 26.252 288.063 26.504C288.063 26.636 288.057 26.828 288.045 27.08C288.033 27.344 287.919 27.632 287.703 27.944C287.235 28.484 286.587 28.778 285.759 28.826C285.495 28.838 285.237 28.844 284.985 28.844C284.409 28.844 283.833 28.808 283.257 28.736C282.801 28.688 282.399 28.658 282.051 28.646C281.883 28.634 281.739 28.568 281.619 28.448C281.499 28.34 281.439 28.202 281.439 28.034C281.427 26.642 281.331 25.262 281.151 23.894V23.804C281.151 23.588 281.229 23.42 281.385 23.3C281.529 23.18 281.679 23.12 281.835 23.12C281.883 23.12 281.967 23.132 282.087 23.156C282.207 23.18 282.291 23.318 282.339 23.57C282.387 23.93 282.423 24.284 282.447 24.632C282.459 24.74 282.471 24.842 282.483 24.938C282.879 24.926 283.269 24.908 283.653 24.884C284.289 24.836 284.931 24.812 285.579 24.812C285.939 24.812 286.305 24.818 286.677 24.83C286.677 24.806 286.671 24.776 286.659 24.74C286.647 24.632 286.629 24.524 286.605 24.416C286.593 24.308 286.575 24.194 286.551 24.074C286.503 23.882 286.467 23.69 286.443 23.498C286.431 23.438 286.425 23.378 286.425 23.318C286.425 23.186 286.443 23.066 286.479 22.958C286.563 22.706 286.713 22.562 286.929 22.526H287.019C287.187 22.526 287.343 22.58 287.487 22.688C287.607 22.784 287.667 22.916 287.667 23.084C287.667 23.144 287.661 23.21 287.649 23.282ZM286.803 26.936C286.815 26.792 286.821 26.648 286.821 26.504C286.821 26.36 286.815 26.216 286.803 26.072C286.359 26.036 285.909 26.018 285.453 26.018C284.853 26.018 284.253 26.048 283.653 26.108C283.293 26.132 282.939 26.15 282.591 26.162C282.615 26.594 282.633 27.026 282.645 27.458C282.693 27.458 282.741 27.464 282.789 27.476C283.281 27.524 283.833 27.566 284.445 27.602H284.841C285.285 27.602 285.711 27.566 286.119 27.494C286.539 27.422 286.767 27.236 286.803 26.936ZM294.333 23.894C294.033 23.87 293.835 23.72 293.739 23.444C293.451 22.424 293.277 21.386 293.217 20.33C293.181 19.622 293.163 18.92 293.163 18.224C293.163 17.864 293.169 17.51 293.181 17.162C293.193 16.718 293.199 16.274 293.199 15.83C293.199 15.566 293.301 15.392 293.505 15.308C293.613 15.26 293.715 15.236 293.811 15.236C293.919 15.236 294.045 15.272 294.189 15.344C294.345 15.404 294.423 15.566 294.423 15.83V17.144C294.411 17.516 294.405 17.888 294.405 18.26C294.405 18.824 294.417 19.484 294.441 20.24C294.477 20.984 294.603 21.806 294.819 22.706C295.191 22.742 295.563 22.76 295.935 22.76C297.387 22.76 298.797 22.442 300.165 21.806C300.273 21.758 300.381 21.734 300.489 21.734C300.609 21.734 300.735 21.788 300.867 21.896C301.011 21.992 301.089 22.148 301.101 22.364V22.418C301.101 22.598 300.999 22.748 300.795 22.868C299.223 23.624 297.591 24.002 295.899 24.002C295.383 24.002 294.861 23.966 294.333 23.894ZM302.613 26.558C302.493 25.946 302.433 25.304 302.433 24.632C302.433 24.356 302.439 24.08 302.451 23.804C302.463 23.48 302.475 23.174 302.487 22.886V22.004C302.487 21.416 302.493 20.828 302.505 20.24C302.529 19.592 302.541 18.944 302.541 18.296C302.541 16.88 302.493 15.464 302.397 14.048V14.012C302.397 13.784 302.487 13.622 302.667 13.526C302.763 13.478 302.865 13.454 302.973 13.454C303.069 13.454 303.189 13.49 303.333 13.562C303.489 13.634 303.585 13.796 303.621 14.048C303.705 15.26 303.747 16.478 303.747 17.702C303.747 18.302 303.735 18.908 303.711 19.52C303.699 20.072 303.693 20.63 303.693 21.194C303.693 21.758 303.699 22.322 303.711 22.886C303.711 23.186 303.705 23.51 303.693 23.858C303.681 24.122 303.675 24.38 303.675 24.632C303.675 25.088 303.699 25.52 303.747 25.928C303.795 26.012 303.819 26.114 303.819 26.234V26.396C303.807 26.624 303.717 26.792 303.549 26.9C303.441 26.96 303.327 26.99 303.207 26.99C303.147 26.99 303.051 26.972 302.919 26.936C302.787 26.912 302.685 26.786 302.613 26.558ZM308.18 23.678C307.412 23.27 306.944 22.652 306.776 21.824C306.632 21.14 306.56 20.42 306.56 19.664C306.56 19.508 306.566 19.346 306.578 19.178V18.746C306.578 17.858 306.482 17.078 306.29 16.406C306.266 16.322 306.254 16.25 306.254 16.19C306.254 16.118 306.272 16.04 306.308 15.956C306.344 15.872 306.428 15.8 306.56 15.74C306.668 15.56 306.83 15.47 307.046 15.47C307.094 15.47 307.148 15.476 307.208 15.488C307.832 15.608 308.456 15.668 309.08 15.668C309.56 15.668 310.04 15.632 310.52 15.56C311.108 15.5 311.696 15.47 312.284 15.47H312.572C312.836 15.494 313.01 15.608 313.094 15.812C313.142 15.908 313.166 16.004 313.166 16.1C313.166 16.196 313.13 16.322 313.058 16.478C312.998 16.622 312.836 16.694 312.572 16.694H312.266C311.654 16.694 311.042 16.724 310.43 16.784C309.938 16.832 309.446 16.856 308.954 16.856C308.522 16.856 308.09 16.838 307.658 16.802C307.73 17.294 307.766 17.792 307.766 18.296C307.766 18.488 307.76 18.68 307.748 18.872C307.736 19.1 307.73 19.328 307.73 19.556C307.73 19.892 307.748 20.276 307.784 20.708C307.82 21.128 307.964 21.572 308.216 22.04C308.492 22.472 308.888 22.712 309.404 22.76C309.632 22.784 309.86 22.796 310.088 22.796C310.364 22.796 310.634 22.778 310.898 22.742C310.958 22.742 311.018 22.736 311.078 22.724C311.45 22.712 311.876 22.658 312.356 22.562C312.836 22.454 313.166 22.25 313.346 21.95C313.454 21.746 313.604 21.644 313.796 21.644C313.808 21.644 313.868 21.65 313.976 21.662C314.096 21.674 314.222 21.764 314.354 21.932C314.426 22.028 314.462 22.136 314.462 22.256C314.462 22.364 314.438 22.472 314.39 22.58C314.09 23.132 313.544 23.528 312.752 23.768C312.056 23.972 311.336 24.074 310.592 24.074C310.472 24.074 310.166 24.068 309.674 24.056C309.194 24.044 308.696 23.918 308.18 23.678ZM320.312 19.754H320.348C320.564 19.754 320.714 19.838 320.798 20.006C320.87 20.126 320.906 20.258 320.906 20.402C320.906 20.462 320.888 20.558 320.852 20.69C320.816 20.81 320.69 20.9 320.474 20.96C320.414 20.972 320.354 20.978 320.294 20.978C320.27 20.99 320.24 20.996 320.204 20.996H320.168C319.496 21.056 318.698 21.086 317.774 21.086H317.306L317.198 22.814C317.078 24.35 317.012 25.4 317 25.964C316.988 26.228 316.88 26.402 316.676 26.486C316.58 26.534 316.484 26.558 316.388 26.558C316.292 26.558 316.166 26.522 316.01 26.45C315.866 26.39 315.788 26.228 315.776 25.964C315.788 25.424 315.854 24.398 315.974 22.886C316.106 21.326 316.184 19.766 316.208 18.206V17.486C316.208 16.262 316.13 15.266 315.974 14.498V14.408C315.974 14.18 316.046 14.006 316.19 13.886C316.334 13.778 316.484 13.724 316.64 13.724C316.676 13.724 316.754 13.736 316.874 13.76C317.006 13.772 317.102 13.91 317.162 14.174C317.342 15.206 317.432 16.376 317.432 17.684C317.432 18.38 317.408 19.106 317.36 19.862H317.792C318.764 19.862 319.604 19.826 320.312 19.754ZM323.378 27.746C323.162 27.746 322.982 27.632 322.838 27.404C322.718 27.152 322.646 26.906 322.622 26.666C322.598 26.426 322.586 26.204 322.586 26C322.586 25.832 322.646 25.688 322.766 25.568C322.886 25.448 323.03 25.388 323.198 25.388C323.366 25.388 323.51 25.448 323.63 25.568C323.75 25.688 323.81 25.832 323.81 26C323.81 26.336 323.852 26.624 323.936 26.864C323.984 26.96 324.008 27.056 324.008 27.152C324.008 27.212 323.996 27.272 323.972 27.332C323.912 27.476 323.81 27.59 323.666 27.674C323.57 27.722 323.474 27.746 323.378 27.746Z" fill="black"/>
<defs>
<clipPath id="clip0_2135_7112">
<rect width="342" height="396" fill="white"/>
</clipPath>
</defs>
</svg>
