<svg width="312" height="402" viewBox="0 0 312 402" fill="none" xmlns="http://www.w3.org/2000/svg">
<g clip-path="url(#clip0_2135_7083)">
<path d="M52 0L52 579" stroke="#D9D9D9" stroke-linecap="round"/>
<path d="M104 0L104 579" stroke="#D9D9D9" stroke-linecap="round"/>
<path d="M156 0L156 579" stroke="#D9D9D9" stroke-linecap="round"/>
<path d="M208 0L208 579" stroke="#D9D9D9" stroke-linecap="round"/>
<path d="M260 0L260 579" stroke="#D9D9D9" stroke-linecap="round"/>
<path d="M413 52L-24 52" stroke="#D9D9D9" stroke-linecap="round"/>
<path d="M413 104L-24 104" stroke="#D9D9D9" stroke-linecap="round"/>
<path d="M413 156L-24 156" stroke="#D9D9D9" stroke-linecap="round"/>
<path d="M413 208L-24 208" stroke="#D9D9D9" stroke-linecap="round"/>
<path d="M413 260L-24 260" stroke="#D9D9D9" stroke-linecap="round"/>
<path d="M413 312L-24 312" stroke="#D9D9D9" stroke-linecap="round"/>
<path d="M413 364L-24 364" stroke="#D9D9D9" stroke-linecap="round"/>
</g>
<path d="M23.1116 71.696C23.8023 71.5093 24.2036 71.1827 24.3156 70.716C24.3716 70.492 24.3996 70.2587 24.3996 70.016C24.3996 69.736 24.3623 69.4373 24.2876 69.12C23.709 69.064 23.1396 69.036 22.5796 69.036C21.3476 69.036 20.1343 69.176 18.9396 69.456C18.8463 69.4747 18.7623 69.484 18.6876 69.484C18.4076 69.484 18.1836 69.3813 18.0156 69.176C17.8476 68.9707 17.7636 68.728 17.7636 68.448C17.7636 68.4107 17.773 68.2987 17.7916 68.112C17.829 67.9067 18.0436 67.7387 18.4356 67.608C19.4996 67.328 20.5916 67.1693 21.7116 67.132H22.2716C23.2236 67.132 24.1476 67.1693 25.0436 67.244C25.5103 67.2813 25.8183 67.5147 25.9676 67.944C26.1916 68.6907 26.3036 69.4747 26.3036 70.296C26.3036 70.464 26.285 70.8467 26.2476 71.444C26.229 72.0413 25.753 72.6013 24.8196 73.124C24.0916 73.4413 23.3356 73.628 22.5516 73.684C21.917 73.74 21.2823 73.768 20.6476 73.768H19.7236V73.852C19.7236 75.1027 20.1436 75.924 20.9836 76.316C21.6183 76.596 22.3556 76.736 23.1956 76.736C23.4943 76.736 24.0263 76.6987 24.7916 76.624C25.5756 76.5307 26.0423 76.456 26.1916 76.4C26.4156 76.344 26.6396 76.2973 26.8636 76.26V76.232C26.901 76.2133 26.929 76.1947 26.9476 76.176C26.985 76.1387 27.0223 76.1107 27.0596 76.092C27.265 75.9427 27.4703 75.868 27.6756 75.868C27.7876 75.868 27.9463 75.9053 28.1516 75.98C28.3756 76.0547 28.553 76.2413 28.6836 76.54C28.721 76.6147 28.7396 76.6987 28.7396 76.792C28.7396 76.9787 28.6463 77.1747 28.4596 77.38C28.3663 77.6973 28.1516 77.9027 27.8156 77.996C27.3116 78.0893 26.789 78.192 26.2476 78.304C26.061 78.3973 25.3516 78.5093 24.1196 78.64C23.7463 78.6773 23.3823 78.696 23.0276 78.696C22.2063 78.696 21.4223 78.584 20.6756 78.36C19.3503 77.8933 18.501 77.1373 18.1276 76.092C17.9036 75.4573 17.7916 74.776 17.7916 74.048C17.7916 73.5813 17.8383 73.0867 17.9316 72.564C17.969 72.3587 18.081 72.2 18.2676 72.088C18.4543 71.9573 18.6503 71.8827 18.8556 71.864H20.1716C20.4516 71.8827 20.741 71.892 21.0396 71.892C21.749 71.892 22.4396 71.8267 23.1116 71.696ZM34.3116 78.416C34.2743 78.8267 34.1063 79.0973 33.8076 79.228C33.6583 79.284 33.509 79.312 33.3596 79.312C33.2103 79.312 33.0143 79.2653 32.7716 79.172C32.5476 79.0787 32.4263 78.8267 32.4076 78.416C32.4076 77.576 32.417 76.7453 32.4356 75.924C32.4543 75.0653 32.4636 74.216 32.4636 73.376C32.4636 72.5173 32.445 71.4627 32.4076 70.212C32.389 68.9427 32.2396 67.468 31.9596 65.788V65.592C31.9596 65.2747 32.0716 65.0227 32.2956 64.836C32.5196 64.668 32.7716 64.584 33.0516 64.584C33.089 64.584 33.201 64.6027 33.3876 64.64C33.5743 64.6587 33.7143 64.864 33.8076 65.256C34.1063 67.0667 34.2743 68.8867 34.3116 70.716C34.349 71.7987 34.3676 72.8907 34.3676 73.992C34.3676 74.72 34.3583 75.448 34.3396 76.176C34.321 76.9227 34.3116 77.6693 34.3116 78.416ZM30.7836 80.992C31.0636 80.992 31.2876 81.0947 31.4556 81.3C31.6423 81.4867 31.7356 81.7107 31.7356 81.972C31.7356 82.2333 31.745 82.4947 31.7636 82.756C31.7823 83.148 31.7916 83.5307 31.7916 83.904C31.7916 85.528 31.661 87.1427 31.3996 88.748C31.3436 88.9533 31.2223 89.112 31.0356 89.224C30.8676 89.3547 30.681 89.4293 30.4756 89.448C29.673 89.4853 28.8143 89.5787 27.8996 89.728C26.873 89.896 25.8556 89.9987 24.8476 90.036H24.6236C23.6903 90.036 22.8223 89.8307 22.0196 89.42C21.329 88.972 20.965 88.1973 20.9276 87.096V86.732C20.9276 85.7427 20.993 84.7813 21.1236 83.848C21.1983 83.288 21.2356 82.8213 21.2356 82.448C21.2543 82.3733 21.273 82.3173 21.2916 82.28V82.224C21.3103 82.1493 21.329 82.084 21.3476 82.028C21.385 81.8413 21.441 81.664 21.5156 81.496C21.609 81.328 21.7676 81.216 21.9916 81.16C22.197 81.1227 22.4023 81.104 22.6076 81.104C22.813 81.104 23.009 81.1227 23.1956 81.16C23.4383 81.1973 23.681 81.2253 23.9236 81.244L26.3876 81.188H27.2276C28.4223 81.1693 29.6076 81.104 30.7836 80.992ZM23.7836 87.992C24.0636 88.0107 24.3436 88.02 24.6236 88.02C25.669 88.02 26.705 87.936 27.7316 87.768C28.3663 87.6933 29.001 87.628 29.6356 87.572C29.8036 86.3773 29.8876 85.1733 29.8876 83.96C29.8876 83.6427 29.8783 83.316 29.8596 82.98C28.4596 83.0547 27.0596 83.1013 25.6596 83.12C25.3983 83.12 25.0996 83.1387 24.7636 83.176C24.2223 83.232 23.6716 83.26 23.1116 83.26C23.093 83.484 23.0836 83.6987 23.0836 83.904C23.0463 84.464 23.0183 85.024 22.9996 85.584V85.78C22.981 86.004 22.9716 86.2187 22.9716 86.424C22.9716 86.76 22.9903 87.0867 23.0276 87.404C23.0463 87.6653 23.093 87.824 23.1676 87.88C23.261 87.9547 23.429 87.992 23.6716 87.992H23.7836Z" fill="black"/>
<path d="M77.4636 77.688C76.8103 77.9307 76.1476 78.052 75.4756 78.052C74.7663 78.052 73.8703 77.8653 72.7876 77.492C71.705 77.1187 70.8183 76.3067 70.1276 75.056C69.7916 74.3467 69.6236 73.6373 69.6236 72.928C69.6236 72.3307 69.8103 71.5747 70.1836 70.66C70.5756 69.7267 71.4343 68.952 72.7596 68.336C73.6743 67.944 74.5796 67.748 75.4756 67.748C75.9236 67.748 76.5956 67.8507 77.4916 68.056C78.3876 68.2427 79.1996 69.0267 79.9276 70.408C80.3383 71.2667 80.5436 72.116 80.5436 72.956C80.5436 73.46 80.4036 74.1693 80.1236 75.084C79.8623 75.9987 79.0503 76.8293 77.6876 77.576C77.669 77.5947 77.641 77.604 77.6036 77.604C77.585 77.604 77.5663 77.6133 77.5476 77.632H77.5196L77.4636 77.688ZM73.1236 70.324C72.3023 70.884 71.7796 71.6027 71.5556 72.48C71.5183 72.6667 71.4996 72.844 71.4996 73.012C71.4996 73.6653 71.7983 74.2907 72.3956 74.888C73.3103 75.7093 74.309 76.12 75.3916 76.12C75.8396 76.12 76.3063 76.0453 76.7916 75.896C77.6876 75.3733 78.2756 74.664 78.5556 73.768C78.649 73.4693 78.6956 73.1707 78.6956 72.872C78.6956 72.256 78.4996 71.6493 78.1076 71.052C77.4916 70.212 76.7263 69.736 75.8116 69.624C75.6623 69.6053 75.513 69.596 75.3636 69.596C74.5983 69.596 73.8516 69.8387 73.1236 70.324ZM86.7876 78.416C86.7503 78.8267 86.5823 79.0973 86.2836 79.228C86.1343 79.284 85.985 79.312 85.8356 79.312C85.6863 79.312 85.4903 79.2653 85.2476 79.172C85.0236 79.0787 84.9023 78.8267 84.8836 78.416C84.8836 77.576 84.893 76.7453 84.9116 75.924C84.9303 75.0653 84.9396 74.216 84.9396 73.376C84.9396 72.5173 84.921 71.4627 84.8836 70.212C84.865 68.9427 84.7156 67.468 84.4356 65.788V65.592C84.4356 65.2747 84.5476 65.0227 84.7716 64.836C84.9956 64.668 85.2476 64.584 85.5276 64.584C85.565 64.584 85.677 64.6027 85.8636 64.64C86.0503 64.6587 86.1903 64.864 86.2836 65.256C86.5823 67.0667 86.7503 68.8867 86.7876 70.716C86.825 71.7987 86.8436 72.8907 86.8436 73.992C86.8436 74.72 86.8343 75.448 86.8156 76.176C86.797 76.9227 86.7876 77.6693 86.7876 78.416ZM84.8276 87.964C84.9396 87.9453 85.033 87.936 85.1076 87.936C85.369 87.936 85.5836 88.0293 85.7516 88.216C85.9196 88.4027 86.0036 88.6267 86.0036 88.888C86.0036 88.944 85.985 89.0747 85.9476 89.28C85.929 89.4853 85.7236 89.6627 85.3316 89.812C83.4836 90.3347 81.589 90.6053 79.6476 90.624C79.4236 90.624 79.181 90.6333 78.9196 90.652C78.6396 90.6707 78.369 90.68 78.1076 90.68C77.361 90.68 76.633 90.5867 75.9236 90.4C74.9343 90.008 74.3183 89.4013 74.0756 88.58C73.8703 87.9453 73.7676 87.2547 73.7676 86.508C73.7676 86.3027 73.777 86.088 73.7956 85.864C73.8516 85.2853 74.169 84.968 74.7476 84.912C75.4196 84.8373 76.101 84.8 76.7916 84.8C77.053 84.8 77.3236 84.8093 77.6036 84.828H78.2196C78.8543 84.828 79.4796 84.8093 80.0956 84.772H80.4036C80.833 84.7533 81.2903 84.7067 81.7756 84.632C82.2796 84.5387 82.6716 84.352 82.9516 84.072C83.1383 83.8667 83.2316 83.68 83.2316 83.512C83.2316 83.4373 83.1943 83.3347 83.1196 83.204C83.0636 83.0547 82.8583 82.9333 82.5036 82.84C81.6636 82.6347 80.805 82.532 79.9276 82.532C79.853 82.532 79.5636 82.5413 79.0596 82.56C78.5556 82.5787 77.8276 82.644 76.8756 82.756C75.9423 82.8867 75.0183 82.9613 74.1036 82.98C73.693 82.98 73.4223 82.8213 73.2916 82.504C73.217 82.3547 73.1796 82.2053 73.1796 82.056C73.1796 81.9067 73.2263 81.72 73.3196 81.496C73.4316 81.2533 73.693 81.1133 74.1036 81.076C74.5703 81.0573 75.205 80.992 76.0076 80.88C77.1463 80.7307 78.3876 80.6187 79.7316 80.544C79.993 80.5253 80.2356 80.516 80.4596 80.516C81.4863 80.516 82.4663 80.656 83.3996 80.936C84.333 81.216 84.893 81.8413 85.0796 82.812C85.0983 83.0173 85.1076 83.2133 85.1076 83.4C85.1076 84.4267 84.7156 85.2013 83.9316 85.724C83.1663 86.2467 82.1396 86.564 80.8516 86.676C79.9743 86.7507 79.125 86.788 78.3036 86.788C77.893 86.788 77.4823 86.7787 77.0716 86.76H75.6996C75.6996 87.3947 75.8396 87.8707 76.1196 88.188C76.4183 88.524 76.9783 88.7013 77.7996 88.72C78.173 88.7387 78.537 88.748 78.8916 88.748C80.9076 88.748 82.8863 88.4867 84.8276 87.964Z" fill="black"/>
<path d="M122.828 82.812C122.529 82.812 122.268 82.672 122.044 82.392C121.932 82.224 121.876 82.0467 121.876 81.86C121.876 81.804 121.885 81.7387 121.904 81.664C121.941 81.4213 122.072 81.216 122.296 81.048C126.794 78.0427 129.529 74.636 130.5 70.828C129.212 70.828 127.914 70.8373 126.608 70.856C125.226 70.8933 123.845 70.912 122.464 70.912C122.184 70.912 121.95 70.8187 121.764 70.632C121.596 70.4453 121.512 70.2213 121.512 69.96C121.512 69.6987 121.605 69.4747 121.792 69.288C121.978 69.1013 122.202 69.008 122.464 69.008H122.52C123.845 69.008 125.17 68.9893 126.496 68.952H126.58C127.737 68.9333 128.876 68.924 129.996 68.924H131.676C131.974 68.924 132.217 69.036 132.404 69.26C132.553 69.4467 132.628 69.6613 132.628 69.904V70.044C131.788 74.8413 128.708 79.0413 123.388 82.644C123.201 82.756 123.014 82.812 122.828 82.812ZM136.436 86.368C136.249 85.416 136.156 84.4173 136.156 83.372C136.156 82.9427 136.165 82.5133 136.184 82.084C136.202 81.58 136.221 81.104 136.24 80.656V79.284C136.24 78.3693 136.249 77.4547 136.268 76.54C136.305 75.532 136.324 74.524 136.324 73.516C136.324 71.3133 136.249 69.1107 136.1 66.908V66.852C136.1 66.4973 136.24 66.2453 136.52 66.096C136.669 66.0213 136.828 65.984 136.996 65.984C137.145 65.984 137.332 66.04 137.556 66.152C137.798 66.264 137.948 66.516 138.004 66.908C138.134 68.7933 138.2 70.688 138.2 72.592C138.2 73.5253 138.181 74.468 138.144 75.42C138.125 76.2787 138.116 77.1467 138.116 78.024C138.116 78.9013 138.125 79.7787 138.144 80.656C138.144 81.1227 138.134 81.6267 138.116 82.168C138.097 82.5787 138.088 82.98 138.088 83.372C138.088 84.0813 138.125 84.7533 138.2 85.388C138.274 85.5187 138.312 85.6773 138.312 85.864V86.116C138.293 86.4707 138.153 86.732 137.892 86.9C137.724 86.9933 137.546 87.04 137.36 87.04C137.266 87.04 137.117 87.012 136.912 86.956C136.706 86.9187 136.548 86.7227 136.436 86.368Z" fill="black"/>
<path d="M239.68 73.236C240.053 73.3853 240.268 73.628 240.324 73.964V74.104C240.324 74.384 240.24 74.636 240.072 74.86C239.922 75.028 239.736 75.112 239.512 75.112C239.418 75.112 239.306 75.0933 239.176 75.056C236.936 74.1973 235.2 72.6293 233.968 70.352C233.072 72.312 231.728 73.8147 229.936 74.86C229.749 74.9533 229.581 75 229.432 75C229.264 75 229.077 74.9253 228.872 74.776C228.666 74.6267 228.545 74.384 228.508 74.048V73.936C228.508 73.656 228.657 73.4133 228.956 73.208C231.028 71.9387 232.325 70.1 232.848 67.692H232.008C231.149 67.692 230.3 67.6547 229.46 67.58C229.049 67.5053 228.778 67.3093 228.648 66.992C228.573 66.824 228.536 66.6653 228.536 66.516C228.536 66.3667 228.573 66.2173 228.648 66.068C228.778 65.8067 229.021 65.676 229.376 65.676H229.46C230.393 65.7693 231.317 65.816 232.232 65.816C232.941 65.816 233.641 65.788 234.332 65.732C235.041 65.676 235.741 65.648 236.432 65.648C237.365 65.648 238.298 65.6947 239.232 65.788C239.642 65.844 239.913 66.04 240.044 66.376C240.118 66.5253 240.156 66.684 240.156 66.852C240.156 67.0013 240.118 67.1507 240.044 67.3C239.913 67.5613 239.67 67.692 239.316 67.692H239.232C238.336 67.6173 237.43 67.58 236.516 67.58C236.012 67.58 235.498 67.5893 234.976 67.608C235.274 68.8213 235.844 69.96 236.684 71.024C237.524 72.0693 238.522 72.8067 239.68 73.236ZM241.556 76.596C241.966 76.6333 242.237 76.8013 242.368 77.1C242.442 77.2493 242.48 77.408 242.48 77.576C242.48 77.7253 242.424 77.912 242.312 78.136C242.218 78.36 241.966 78.4813 241.556 78.5H240.94C239.054 78.5 237.178 78.5747 235.312 78.724C235.349 78.9293 235.368 79.1533 235.368 79.396C235.368 80.0307 235.209 80.7773 234.892 81.636C234.724 82.0093 234.462 82.2147 234.108 82.252C234.033 82.2707 233.958 82.28 233.884 82.28C233.641 82.28 233.417 82.196 233.212 82.028C233.062 81.8973 232.988 81.72 232.988 81.496C232.988 81.384 233.006 81.2627 233.044 81.132C233.324 80.4227 233.464 79.8253 233.464 79.34C233.464 79.1533 233.445 78.9853 233.408 78.836C231.858 78.9667 230.309 79.032 228.76 79.032C227.994 79.032 227.22 79.0133 226.436 78.976C226.025 78.9387 225.754 78.7613 225.624 78.444C225.568 78.276 225.54 78.1173 225.54 77.968C225.54 77.8187 225.586 77.632 225.68 77.408C225.773 77.184 226.025 77.072 226.436 77.072C227.201 77.0907 227.957 77.1 228.704 77.1C230.664 77.1 232.624 77.016 234.584 76.848C236.693 76.68 238.802 76.596 240.912 76.596H241.556ZM239.512 87.964C239.624 87.9453 239.717 87.936 239.792 87.936C240.053 87.936 240.268 88.0293 240.436 88.216C240.604 88.4027 240.688 88.6267 240.688 88.888C240.688 88.944 240.669 89.0747 240.632 89.28C240.613 89.4853 240.408 89.6627 240.016 89.812C238.168 90.3347 236.273 90.6053 234.332 90.624C234.108 90.624 233.865 90.6333 233.604 90.652C233.324 90.6707 233.053 90.68 232.792 90.68C232.045 90.68 231.317 90.5867 230.608 90.4C229.618 90.008 229.002 89.4013 228.76 88.58C228.554 87.9453 228.452 87.2547 228.452 86.508C228.452 86.3027 228.461 86.088 228.48 85.864C228.536 85.2853 228.853 84.968 229.432 84.912C230.104 84.8373 230.785 84.8 231.476 84.8C231.737 84.8 232.008 84.8093 232.288 84.828H232.904C233.538 84.828 234.164 84.8093 234.78 84.772H235.088C235.517 84.7533 235.974 84.7067 236.46 84.632C236.964 84.5387 237.356 84.352 237.636 84.072C237.822 83.8667 237.916 83.68 237.916 83.512C237.916 83.4373 237.878 83.3347 237.804 83.204C237.748 83.0547 237.542 82.9333 237.188 82.84C236.348 82.6347 235.489 82.532 234.612 82.532C234.537 82.532 234.248 82.5413 233.744 82.56C233.24 82.5787 232.512 82.644 231.56 82.756C230.626 82.8867 229.702 82.9613 228.788 82.98C228.377 82.98 228.106 82.8213 227.976 82.504C227.901 82.3547 227.864 82.2053 227.864 82.056C227.864 81.9067 227.91 81.72 228.004 81.496C228.116 81.2533 228.377 81.1133 228.788 81.076C229.254 81.0573 229.889 80.992 230.692 80.88C231.83 80.7307 233.072 80.6187 234.416 80.544C234.677 80.5253 234.92 80.516 235.144 80.516C236.17 80.516 237.15 80.656 238.084 80.936C239.017 81.216 239.577 81.8413 239.764 82.812C239.782 83.0173 239.792 83.2133 239.792 83.4C239.792 84.4267 239.4 85.2013 238.616 85.724C237.85 86.2467 236.824 86.564 235.536 86.676C234.658 86.7507 233.809 86.788 232.988 86.788C232.577 86.788 232.166 86.7787 231.756 86.76H230.384C230.384 87.3947 230.524 87.8707 230.804 88.188C231.102 88.524 231.662 88.7013 232.484 88.72C232.857 88.7387 233.221 88.748 233.576 88.748C235.592 88.748 237.57 88.4867 239.512 87.964Z" fill="black"/>
<path d="M290.196 76.456C290.606 76.4933 290.886 76.6707 291.036 76.988C291.11 77.1373 291.148 77.2867 291.148 77.436C291.148 77.5853 291.092 77.7813 290.98 78.024C290.868 78.248 290.606 78.36 290.196 78.36H289.552C288.301 78.36 287.032 78.4067 285.744 78.5C285.128 78.5373 284.502 78.5653 283.868 78.584C283.7 78.584 283.532 78.5933 283.364 78.612C283.009 78.6307 282.636 78.64 282.244 78.64C282.057 78.64 281.768 78.6307 281.376 78.612C281.002 78.5933 280.582 78.472 280.116 78.248C279.574 77.9493 279.21 77.548 279.024 77.044C278.837 76.54 278.706 75.9987 278.632 75.42C278.613 75.2893 278.594 75.168 278.576 75.056C278.277 73.208 277.876 71.3787 277.372 69.568C277.353 69.456 277.344 69.3627 277.344 69.288C277.344 69.0267 277.437 68.812 277.624 68.644C277.848 68.476 278.1 68.392 278.38 68.392C278.417 68.392 278.529 68.4107 278.716 68.448C278.921 68.4667 279.089 68.672 279.22 69.064C279.668 70.632 280.032 72.228 280.312 73.852C280.349 74.076 280.377 74.3 280.396 74.524C280.433 75.1027 280.545 75.6067 280.732 76.036C280.937 76.4467 281.394 76.6707 282.104 76.708C283.392 76.708 284.67 76.6613 285.94 76.568C287.116 76.4933 288.301 76.456 289.496 76.456H290.196ZM294.06 85.276C294.153 85.2573 294.237 85.248 294.312 85.248C294.592 85.248 294.816 85.3507 294.984 85.556C295.152 85.78 295.236 86.032 295.236 86.312C295.236 86.3493 295.217 86.4613 295.18 86.648C295.161 86.8533 294.956 87.012 294.564 87.124C292.51 87.628 290.41 87.908 288.264 87.964C287.461 87.9827 286.649 87.992 285.828 87.992C284.484 87.992 283.14 87.964 281.796 87.908C280.433 87.852 279.089 87.8147 277.764 87.796C277.353 87.7773 277.082 87.6093 276.952 87.292C276.877 87.1427 276.84 86.9933 276.84 86.844C276.84 86.6947 276.886 86.4987 276.98 86.256C277.092 86.032 277.353 85.9107 277.764 85.892C279.089 85.9107 280.442 85.948 281.824 86.004C282.626 86.0227 283.438 86.0413 284.26 86.06V85.948C284.409 85.3507 284.484 84.744 284.484 84.128C284.484 84.016 284.474 83.7453 284.456 83.316C284.437 82.8867 284.372 82.2987 284.26 81.552C284.129 80.7493 284.054 79.9653 284.036 79.2C284.036 78.7893 284.194 78.5187 284.512 78.388C284.661 78.3133 284.81 78.276 284.96 78.276C285.109 78.276 285.296 78.332 285.52 78.444C285.762 78.5373 285.902 78.7893 285.94 79.2C285.958 80.0213 286.024 80.8333 286.136 81.636C286.285 82.4387 286.36 83.232 286.36 84.016C286.36 84.7067 286.304 85.3973 286.192 86.088H286.892C289.356 86.088 291.745 85.8173 294.06 85.276Z" fill="black"/>
<path d="M30.3076 129.212C30.4196 129.175 30.5316 129.156 30.6436 129.156C30.8863 129.156 31.0823 129.249 31.2316 129.436C31.3996 129.623 31.4836 129.847 31.4836 130.108C31.4836 130.164 31.465 130.304 31.4276 130.528C31.409 130.733 31.2036 130.911 30.8116 131.06C29.0383 131.657 27.209 131.993 25.3236 132.068H25.2676C24.9503 132.087 24.6236 132.096 24.2876 132.096C23.8583 132.096 23.3076 132.068 22.6356 132.012C21.9823 131.956 21.3756 131.685 20.8156 131.2C20.3303 130.696 20.0503 130.061 19.9756 129.296C19.901 128.755 19.8636 128.232 19.8636 127.728C19.8636 127.541 19.873 127.345 19.8916 127.14V126.776C19.929 125.899 19.9663 125.012 20.0036 124.116C20.041 123.631 20.069 123.136 20.0876 122.632C19.8076 122.52 19.6303 122.315 19.5556 122.016C19.537 121.923 19.5276 121.829 19.5276 121.736C19.5276 121.549 19.5836 121.353 19.6956 121.148C19.8263 120.924 20.069 120.812 20.4236 120.812H20.5356C20.7036 120.681 20.8903 120.616 21.0956 120.616C21.3196 120.616 21.5156 120.681 21.6836 120.812H29.4676C29.8783 120.812 30.149 120.971 30.2796 121.288C30.3543 121.437 30.3916 121.596 30.3916 121.764C30.3916 121.913 30.3356 122.109 30.2236 122.352C30.1303 122.595 29.8783 122.716 29.4676 122.716H21.9916L21.9356 123.668C21.8983 124.265 21.8703 124.853 21.8516 125.432H22.5796C24.7263 125.432 26.873 125.357 29.0196 125.208C29.4303 125.208 29.7103 125.357 29.8596 125.656C29.9156 125.787 29.9436 125.927 29.9436 126.076C29.9436 126.244 29.8876 126.449 29.7756 126.692C29.6823 126.916 29.4303 127.056 29.0196 127.112C26.8356 127.261 24.6516 127.336 22.4676 127.336H21.7396C21.721 127.485 21.7116 127.635 21.7116 127.784C21.7116 128.493 21.8236 129.147 22.0476 129.744C22.1783 130.005 22.5143 130.164 23.0556 130.22C23.317 130.239 23.5876 130.248 23.8676 130.248C24.1476 130.248 24.5023 130.239 24.9316 130.22C25.361 130.183 25.7436 130.145 26.0796 130.108C26.1356 130.089 26.1823 130.08 26.2196 130.08C27.6196 129.949 28.9823 129.66 30.3076 129.212ZM34.4516 136.492C34.8623 136.492 35.133 136.651 35.2636 136.968C35.3383 137.117 35.3756 137.276 35.3756 137.444C35.3756 137.593 35.3196 137.789 35.2076 138.032C35.1143 138.275 34.8623 138.396 34.4516 138.396C31.633 138.396 28.8143 138.415 25.9956 138.452C23.1956 138.489 20.3863 138.583 17.5676 138.732C17.157 138.732 16.8863 138.583 16.7556 138.284C16.6996 138.135 16.6716 137.985 16.6716 137.836C16.6716 137.668 16.7183 137.472 16.8116 137.248C16.9236 137.005 17.1756 136.856 17.5676 136.8C20.3863 136.669 23.1956 136.585 25.9956 136.548C28.8143 136.511 31.633 136.492 34.4516 136.492Z" fill="black"/>
<path d="M127.616 129.688C126.962 129.931 126.3 130.052 125.628 130.052C124.918 130.052 124.022 129.865 122.94 129.492C121.857 129.119 120.97 128.307 120.28 127.056C119.944 126.347 119.776 125.637 119.776 124.928C119.776 124.331 119.962 123.575 120.336 122.66C120.728 121.727 121.586 120.952 122.912 120.336C123.826 119.944 124.732 119.748 125.628 119.748C126.076 119.748 126.748 119.851 127.644 120.056C128.54 120.243 129.352 121.027 130.08 122.408C130.49 123.267 130.696 124.116 130.696 124.956C130.696 125.46 130.556 126.169 130.276 127.084C130.014 127.999 129.202 128.829 127.84 129.576C127.821 129.595 127.793 129.604 127.756 129.604C127.737 129.604 127.718 129.613 127.7 129.632H127.672L127.616 129.688ZM123.276 122.324C122.454 122.884 121.932 123.603 121.708 124.48C121.67 124.667 121.652 124.844 121.652 125.012C121.652 125.665 121.95 126.291 122.548 126.888C123.462 127.709 124.461 128.12 125.544 128.12C125.992 128.12 126.458 128.045 126.944 127.896C127.84 127.373 128.428 126.664 128.708 125.768C128.801 125.469 128.848 125.171 128.848 124.872C128.848 124.256 128.652 123.649 128.26 123.052C127.644 122.212 126.878 121.736 125.964 121.624C125.814 121.605 125.665 121.596 125.516 121.596C124.75 121.596 124.004 121.839 123.276 122.324ZM140.16 122.576C140.477 122.763 140.636 123.005 140.636 123.304C140.636 123.323 140.626 123.425 140.608 123.612C140.589 123.799 140.44 123.985 140.16 124.172C140.01 124.284 139.852 124.34 139.684 124.34C139.534 124.34 139.376 124.303 139.208 124.228C138.778 124.004 138.312 123.883 137.808 123.864H137.304C136.968 123.864 136.632 123.873 136.296 123.892H136.268V124.76C136.268 125.133 136.277 125.488 136.296 125.824C137.304 125.843 138.302 125.927 139.292 126.076C139.684 126.188 139.908 126.403 139.964 126.72C139.982 126.776 139.992 126.841 139.992 126.916C139.992 127.159 139.898 127.383 139.712 127.588C139.544 127.812 139.301 127.924 138.984 127.924H138.788C138.097 127.812 137.406 127.756 136.716 127.756H136.408C136.445 128.092 136.464 128.428 136.464 128.764C136.464 129.249 136.417 129.809 136.324 130.444C136.23 131.079 135.95 131.555 135.484 131.872C135.334 131.947 135.185 131.984 135.036 131.984C134.924 131.984 134.774 131.947 134.588 131.872C134.401 131.797 134.252 131.62 134.14 131.34C134.084 131.209 134.056 131.088 134.056 130.976C134.056 130.901 134.065 130.808 134.084 130.696C134.102 130.565 134.14 130.416 134.196 130.248L134.308 129.856C134.364 129.501 134.392 129.147 134.392 128.792V127.476C134.392 126.543 134.373 125.609 134.336 124.676C134.317 124.172 134.308 123.659 134.308 123.136V122.688C134.308 122.072 134.27 121.437 134.196 120.784C134.14 120.112 133.925 119.431 133.552 118.74C133.458 118.553 133.412 118.385 133.412 118.236C133.412 118.068 133.486 117.881 133.636 117.676C133.785 117.471 134.028 117.349 134.364 117.312H134.476C134.756 117.312 134.998 117.461 135.204 117.76C135.577 118.451 135.82 119.113 135.932 119.748C136.062 120.383 136.146 121.139 136.184 122.016H136.24C136.501 121.997 136.772 121.988 137.052 121.988C137.444 121.988 137.901 122.007 138.424 122.044C138.965 122.081 139.544 122.259 140.16 122.576ZM128.596 133.468C129.51 133.076 130.425 132.88 131.34 132.88C131.788 132.88 132.469 132.983 133.384 133.188C134.298 133.375 135.12 134.168 135.848 135.568C136.258 136.445 136.464 137.304 136.464 138.144C136.464 138.648 136.324 139.357 136.044 140.272C135.782 141.205 134.961 142.045 133.58 142.792C133.542 142.811 133.514 142.82 133.496 142.82C133.477 142.82 133.458 142.829 133.44 142.848C133.421 142.848 133.412 142.857 133.412 142.876C133.393 142.876 133.374 142.885 133.356 142.904C132.702 143.147 132.021 143.268 131.312 143.268C130.621 143.268 129.725 143.081 128.624 142.708C127.541 142.335 126.645 141.513 125.936 140.244C125.6 139.516 125.432 138.797 125.432 138.088C125.432 137.491 125.618 136.735 125.992 135.82C126.384 134.887 127.252 134.103 128.596 133.468ZM132.684 141.112C133.58 140.589 134.177 139.871 134.476 138.956C134.569 138.657 134.616 138.359 134.616 138.06C134.616 137.444 134.42 136.828 134.028 136.212C133.393 135.353 132.609 134.868 131.676 134.756C131.526 134.737 131.377 134.728 131.228 134.728C130.444 134.728 129.688 134.971 128.96 135.456C128.12 136.035 127.588 136.763 127.364 137.64C127.326 137.827 127.308 138.004 127.308 138.172C127.308 138.863 127.616 139.507 128.232 140.104C129.165 140.925 130.173 141.336 131.256 141.336C131.722 141.336 132.198 141.261 132.684 141.112Z" fill="black"/>
<path d="M179.868 119.748C180.092 120.177 180.306 120.607 180.512 121.036C181.128 122.361 181.8 123.659 182.528 124.928C183.274 126.179 184.18 127.28 185.244 128.232C185.449 128.437 185.552 128.643 185.552 128.848C185.552 128.941 185.514 129.091 185.44 129.296C185.365 129.501 185.169 129.66 184.852 129.772C184.74 129.809 184.628 129.828 184.516 129.828C184.31 129.828 184.105 129.753 183.9 129.604C182.854 128.671 181.958 127.607 181.212 126.412C180.484 125.217 179.821 123.985 179.224 122.716C178.346 125.553 176.769 127.915 174.492 129.8C174.249 129.968 174.016 130.052 173.792 130.052C173.512 130.052 173.25 129.903 173.008 129.604H172.98C172.905 129.492 172.868 129.361 172.868 129.212C172.868 129.193 172.868 129.128 172.868 129.016C172.868 128.904 172.905 128.783 172.98 128.652C173.054 128.54 173.129 128.437 173.204 128.344C173.222 128.307 173.25 128.269 173.288 128.232C173.418 128.083 173.558 127.989 173.708 127.952C176.06 125.768 177.45 123.117 177.88 120C177.936 119.683 178.076 119.449 178.3 119.3C178.524 119.169 178.748 119.104 178.972 119.104C178.99 119.104 179.074 119.113 179.224 119.132C179.373 119.151 179.522 119.272 179.672 119.496C179.746 119.552 179.812 119.636 179.868 119.748ZM191.068 130.416C191.03 130.827 190.862 131.097 190.564 131.228C190.414 131.284 190.265 131.312 190.116 131.312C189.966 131.312 189.77 131.265 189.528 131.172C189.304 131.079 189.182 130.827 189.164 130.416C189.164 129.576 189.173 128.745 189.192 127.924C189.21 127.065 189.22 126.216 189.22 125.376C189.22 124.517 189.201 123.463 189.164 122.212C189.145 120.943 188.996 119.468 188.716 117.788V117.592C188.716 117.275 188.828 117.023 189.052 116.836C189.276 116.668 189.528 116.584 189.808 116.584C189.845 116.584 189.957 116.603 190.144 116.64C190.33 116.659 190.47 116.864 190.564 117.256C190.862 119.067 191.03 120.887 191.068 122.716C191.105 123.799 191.124 124.891 191.124 125.992C191.124 126.72 191.114 127.448 191.096 128.176C191.077 128.923 191.068 129.669 191.068 130.416ZM178.132 135.316C177.721 135.297 177.45 135.139 177.32 134.84C177.245 134.672 177.208 134.513 177.208 134.364C177.208 134.215 177.254 134.028 177.348 133.804C177.46 133.561 177.721 133.431 178.132 133.412C179.252 133.393 180.372 133.365 181.492 133.328C182.574 133.253 183.657 133.216 184.74 133.216C186.196 133.216 187.642 133.281 189.08 133.412C189.658 133.487 189.976 133.804 190.032 134.364C190.088 135.111 190.116 135.848 190.116 136.576C190.116 138.461 189.929 140.328 189.556 142.176C189.462 142.587 189.248 142.82 188.912 142.876H188.772C188.51 142.876 188.268 142.792 188.044 142.624C187.82 142.437 187.708 142.185 187.708 141.868V141.672C188.044 139.936 188.212 138.191 188.212 136.436C188.212 136.025 188.202 135.624 188.184 135.232C187.064 135.157 185.944 135.12 184.824 135.12C183.704 135.12 182.584 135.157 181.464 135.232C180.344 135.269 179.233 135.297 178.132 135.316Z" fill="black"/>
<path d="M233.464 129.688C232.81 129.931 232.148 130.052 231.476 130.052C230.766 130.052 229.87 129.865 228.788 129.492C227.705 129.119 226.818 128.307 226.128 127.056C225.792 126.347 225.624 125.637 225.624 124.928C225.624 124.331 225.81 123.575 226.184 122.66C226.576 121.727 227.434 120.952 228.76 120.336C229.674 119.944 230.58 119.748 231.476 119.748C231.924 119.748 232.596 119.851 233.492 120.056C234.388 120.243 235.2 121.027 235.928 122.408C236.338 123.267 236.544 124.116 236.544 124.956C236.544 125.46 236.404 126.169 236.124 127.084C235.862 127.999 235.05 128.829 233.688 129.576C233.669 129.595 233.641 129.604 233.604 129.604C233.585 129.604 233.566 129.613 233.548 129.632H233.52L233.464 129.688ZM229.124 122.324C228.302 122.884 227.78 123.603 227.556 124.48C227.518 124.667 227.5 124.844 227.5 125.012C227.5 125.665 227.798 126.291 228.396 126.888C229.31 127.709 230.309 128.12 231.392 128.12C231.84 128.12 232.306 128.045 232.792 127.896C233.688 127.373 234.276 126.664 234.556 125.768C234.649 125.469 234.696 125.171 234.696 124.872C234.696 124.256 234.5 123.649 234.108 123.052C233.492 122.212 232.726 121.736 231.812 121.624C231.662 121.605 231.513 121.596 231.364 121.596C230.598 121.596 229.852 121.839 229.124 122.324ZM242.788 130.416C242.75 130.827 242.582 131.097 242.284 131.228C242.134 131.284 241.985 131.312 241.836 131.312C241.686 131.312 241.49 131.265 241.248 131.172C241.024 131.079 240.902 130.827 240.884 130.416C240.884 129.576 240.893 128.745 240.912 127.924C240.93 127.065 240.94 126.216 240.94 125.376C240.94 124.517 240.921 123.463 240.884 122.212C240.865 120.943 240.716 119.468 240.436 117.788V117.592C240.436 117.275 240.548 117.023 240.772 116.836C240.996 116.668 241.248 116.584 241.528 116.584C241.565 116.584 241.677 116.603 241.864 116.64C242.05 116.659 242.19 116.864 242.284 117.256C242.582 119.067 242.75 120.887 242.788 122.716C242.825 123.799 242.844 124.891 242.844 125.992C242.844 126.72 242.834 127.448 242.816 128.176C242.797 128.923 242.788 129.669 242.788 130.416ZM239.736 133.272C239.717 133.328 239.708 133.393 239.708 133.468C239.708 133.617 239.736 133.86 239.792 134.196C239.848 134.532 239.922 134.933 240.016 135.4C240.146 136.035 240.24 136.548 240.296 136.94V137.136C240.352 137.509 240.38 137.892 240.38 138.284C240.38 138.489 240.37 138.788 240.352 139.18C240.333 139.591 240.156 140.039 239.82 140.524C239.092 141.364 238.084 141.821 236.796 141.896C236.385 141.915 235.984 141.924 235.592 141.924C234.696 141.924 233.8 141.868 232.904 141.756C232.194 141.681 231.569 141.635 231.028 141.616C230.766 141.597 230.542 141.495 230.356 141.308C230.169 141.14 230.076 140.925 230.076 140.664C230.057 138.499 229.908 136.352 229.628 134.224V134.084C229.628 133.748 229.749 133.487 229.992 133.3C230.216 133.113 230.449 133.02 230.692 133.02C230.766 133.02 230.897 133.039 231.084 133.076C231.27 133.113 231.401 133.328 231.476 133.72C231.55 134.28 231.606 134.831 231.644 135.372C231.662 135.54 231.681 135.699 231.7 135.848C232.316 135.829 232.922 135.801 233.52 135.764C234.509 135.689 235.508 135.652 236.516 135.652C237.076 135.652 237.645 135.661 238.224 135.68C238.224 135.643 238.214 135.596 238.196 135.54C238.177 135.372 238.149 135.204 238.112 135.036C238.093 134.868 238.065 134.691 238.028 134.504C237.953 134.205 237.897 133.907 237.86 133.608C237.841 133.515 237.832 133.421 237.832 133.328C237.832 133.123 237.86 132.936 237.916 132.768C238.046 132.376 238.28 132.152 238.616 132.096H238.756C239.017 132.096 239.26 132.18 239.484 132.348C239.67 132.497 239.764 132.703 239.764 132.964C239.764 133.057 239.754 133.16 239.736 133.272ZM238.42 138.956C238.438 138.732 238.448 138.508 238.448 138.284C238.448 138.06 238.438 137.836 238.42 137.612C237.729 137.556 237.029 137.528 236.32 137.528C235.386 137.528 234.453 137.575 233.52 137.668C232.96 137.705 232.409 137.733 231.868 137.752C231.905 138.424 231.933 139.096 231.952 139.768C232.026 139.768 232.101 139.777 232.176 139.796C232.941 139.871 233.8 139.936 234.752 139.992H235.368C236.058 139.992 236.721 139.936 237.356 139.824C238.009 139.712 238.364 139.423 238.42 138.956Z" fill="black"/>
<path d="M279.164 134.224C278.697 134.187 278.389 133.953 278.24 133.524C277.792 131.937 277.521 130.323 277.428 128.68C277.372 127.579 277.344 126.487 277.344 125.404C277.344 124.844 277.353 124.293 277.372 123.752C277.39 123.061 277.4 122.371 277.4 121.68C277.4 121.269 277.558 120.999 277.876 120.868C278.044 120.793 278.202 120.756 278.352 120.756C278.52 120.756 278.716 120.812 278.94 120.924C279.182 121.017 279.304 121.269 279.304 121.68V123.724C279.285 124.303 279.276 124.881 279.276 125.46C279.276 126.337 279.294 127.364 279.332 128.54C279.388 129.697 279.584 130.976 279.92 132.376C280.498 132.432 281.077 132.46 281.656 132.46C283.914 132.46 286.108 131.965 288.236 130.976C288.404 130.901 288.572 130.864 288.74 130.864C288.926 130.864 289.122 130.948 289.328 131.116C289.552 131.265 289.673 131.508 289.692 131.844V131.928C289.692 132.208 289.533 132.441 289.216 132.628C286.77 133.804 284.232 134.392 281.6 134.392C280.797 134.392 279.985 134.336 279.164 134.224ZM292.044 138.368C291.857 137.416 291.764 136.417 291.764 135.372C291.764 134.943 291.773 134.513 291.792 134.084C291.81 133.58 291.829 133.104 291.848 132.656V131.284C291.848 130.369 291.857 129.455 291.876 128.54C291.913 127.532 291.932 126.524 291.932 125.516C291.932 123.313 291.857 121.111 291.708 118.908V118.852C291.708 118.497 291.848 118.245 292.128 118.096C292.277 118.021 292.436 117.984 292.604 117.984C292.753 117.984 292.94 118.04 293.164 118.152C293.406 118.264 293.556 118.516 293.612 118.908C293.742 120.793 293.808 122.688 293.808 124.592C293.808 125.525 293.789 126.468 293.752 127.42C293.733 128.279 293.724 129.147 293.724 130.024C293.724 130.901 293.733 131.779 293.752 132.656C293.752 133.123 293.742 133.627 293.724 134.168C293.705 134.579 293.696 134.98 293.696 135.372C293.696 136.081 293.733 136.753 293.808 137.388C293.882 137.519 293.92 137.677 293.92 137.864V138.116C293.901 138.471 293.761 138.732 293.5 138.9C293.332 138.993 293.154 139.04 292.968 139.04C292.874 139.04 292.725 139.012 292.52 138.956C292.314 138.919 292.156 138.723 292.044 138.368Z" fill="black"/>
<path d="M17.7356 185.888C16.541 185.253 15.813 184.292 15.5516 183.004C15.3276 181.94 15.2156 180.82 15.2156 179.644C15.2156 179.401 15.225 179.149 15.2436 178.888V178.216C15.2436 176.835 15.0943 175.621 14.7956 174.576C14.7583 174.445 14.7396 174.333 14.7396 174.24C14.7396 174.128 14.7676 174.007 14.8236 173.876C14.8796 173.745 15.0103 173.633 15.2156 173.54C15.3836 173.26 15.6356 173.12 15.9716 173.12C16.0463 173.12 16.1303 173.129 16.2236 173.148C17.1943 173.335 18.165 173.428 19.1356 173.428C19.8823 173.428 20.629 173.372 21.3756 173.26C22.2903 173.167 23.205 173.12 24.1196 173.12H24.5676C24.9783 173.157 25.249 173.335 25.3796 173.652C25.4543 173.801 25.4916 173.951 25.4916 174.1C25.4916 174.249 25.4356 174.445 25.3236 174.688C25.2303 174.912 24.9783 175.024 24.5676 175.024H24.0916C23.1396 175.024 22.1876 175.071 21.2356 175.164C20.4703 175.239 19.705 175.276 18.9396 175.276C18.2676 175.276 17.5956 175.248 16.9236 175.192C17.0356 175.957 17.0916 176.732 17.0916 177.516C17.0916 177.815 17.0823 178.113 17.0636 178.412C17.045 178.767 17.0356 179.121 17.0356 179.476C17.0356 179.999 17.0636 180.596 17.1196 181.268C17.1756 181.921 17.3996 182.612 17.7916 183.34C18.221 184.012 18.837 184.385 19.6396 184.46C19.9943 184.497 20.349 184.516 20.7036 184.516C21.133 184.516 21.553 184.488 21.9636 184.432C22.057 184.432 22.1503 184.423 22.2436 184.404C22.8223 184.385 23.485 184.301 24.2316 184.152C24.9783 183.984 25.4916 183.667 25.7716 183.2C25.9396 182.883 26.173 182.724 26.4716 182.724C26.4903 182.724 26.5836 182.733 26.7516 182.752C26.9383 182.771 27.1343 182.911 27.3396 183.172C27.4516 183.321 27.5076 183.489 27.5076 183.676C27.5076 183.844 27.4703 184.012 27.3956 184.18C26.929 185.039 26.0796 185.655 24.8476 186.028C23.765 186.345 22.645 186.504 21.4876 186.504C21.301 186.504 20.825 186.495 20.0596 186.476C19.313 186.457 18.5383 186.261 17.7356 185.888ZM36.6076 179.784H36.6636C36.9996 179.784 37.233 179.915 37.3636 180.176C37.4756 180.363 37.5316 180.568 37.5316 180.792C37.5316 180.885 37.5036 181.035 37.4476 181.24C37.3916 181.427 37.1956 181.567 36.8596 181.66C36.7663 181.679 36.673 181.688 36.5796 181.688C36.5423 181.707 36.4956 181.716 36.4396 181.716H36.3836C35.3383 181.809 34.097 181.856 32.6596 181.856H31.9316L31.7636 184.544C31.577 186.933 31.4743 188.567 31.4556 189.444C31.437 189.855 31.269 190.125 30.9516 190.256C30.8023 190.331 30.653 190.368 30.5036 190.368C30.3543 190.368 30.1583 190.312 29.9156 190.2C29.6916 190.107 29.5703 189.855 29.5516 189.444C29.5703 188.604 29.673 187.008 29.8596 184.656C30.065 182.229 30.1863 179.803 30.2236 177.376V176.256C30.2236 174.352 30.1023 172.803 29.8596 171.608V171.468C29.8596 171.113 29.9716 170.843 30.1956 170.656C30.4196 170.488 30.653 170.404 30.8956 170.404C30.9516 170.404 31.073 170.423 31.2596 170.46C31.465 170.479 31.6143 170.693 31.7076 171.104C31.9876 172.709 32.1276 174.529 32.1276 176.564C32.1276 177.647 32.0903 178.776 32.0156 179.952H32.6876C34.1996 179.952 35.5063 179.896 36.6076 179.784Z" fill="black"/>
<path d="M78.0639 192.216C77.7279 192.216 77.4479 192.039 77.2239 191.684C77.0372 191.292 76.9252 190.909 76.8879 190.536C76.8505 190.163 76.8319 189.817 76.8319 189.5C76.8319 189.239 76.9252 189.015 77.1119 188.828C77.2985 188.641 77.5225 188.548 77.7839 188.548C78.0452 188.548 78.2692 188.641 78.4559 188.828C78.6425 189.015 78.7359 189.239 78.7359 189.5C78.7359 190.023 78.8012 190.471 78.9319 190.844C79.0065 190.993 79.0439 191.143 79.0439 191.292C79.0439 191.385 79.0252 191.479 78.9879 191.572C78.8945 191.796 78.7359 191.973 78.5119 192.104C78.3625 192.179 78.2132 192.216 78.0639 192.216Z" fill="black"/>
<path d="M78.9756 23.476C79.1063 23.4387 79.2276 23.42 79.3396 23.42C79.5636 23.42 79.741 23.4947 79.8716 23.644C80.0396 23.8493 80.1236 24.092 80.1236 24.372C80.1236 24.428 80.105 24.5587 80.0676 24.764C80.049 24.9507 79.853 25.1373 79.4796 25.324C78.0423 25.9213 76.3063 26.3413 74.2716 26.584C73.749 26.6587 73.245 26.696 72.7596 26.696C71.3596 26.696 70.137 26.4067 69.0916 25.828C68.0463 25.0627 67.4116 23.8867 67.1876 22.3C67.0756 21.572 67.0196 20.872 67.0196 20.2C67.0196 19.4347 67.0943 18.716 67.2436 18.044C67.113 17.8387 67.0476 17.624 67.0476 17.4C67.0476 17.288 67.085 17.1107 67.1596 16.868C67.2343 16.6253 67.505 16.4853 67.9716 16.448C69.5023 16.4293 71.033 16.392 72.5636 16.336C74.0383 16.28 75.513 16.2427 76.9876 16.224C77.3983 16.2427 77.669 16.4107 77.7996 16.728C77.8743 16.8773 77.9116 17.0267 77.9116 17.176C77.9116 17.3253 77.8556 17.5213 77.7436 17.764C77.6503 17.988 77.3983 18.1093 76.9876 18.128C75.4756 18.1467 73.9823 18.184 72.5076 18.24C71.369 18.2773 70.2396 18.3147 69.1196 18.352C68.9703 18.9493 68.8956 19.584 68.8956 20.256C68.8956 20.4613 68.9143 20.8627 68.9516 21.46C68.989 22.0387 69.213 22.6827 69.6236 23.392C70.053 24.1013 70.7156 24.4933 71.6116 24.568C71.985 24.5867 72.349 24.596 72.7036 24.596C74.8503 24.596 76.941 24.2227 78.9756 23.476ZM88.1596 19.388C88.5703 19.4253 88.841 19.5933 88.9716 19.892C89.0463 20.0413 89.0836 20.2 89.0836 20.368C89.0836 20.5173 89.0276 20.7133 88.9156 20.956C88.8223 21.18 88.5703 21.292 88.1596 21.292H87.3196C87.189 21.292 87.077 21.2733 86.9836 21.236C86.2556 21.18 85.5183 21.1427 84.7716 21.124V21.236C84.7716 21.3293 84.7623 21.4133 84.7436 21.488C84.7436 21.88 84.7623 22.3467 84.7996 22.888C84.837 23.3733 84.8556 23.7653 84.8556 24.064C84.8556 24.2507 84.837 24.4373 84.7996 24.624C84.781 24.8107 84.6223 25.1747 84.3236 25.716C84.0996 26.0147 83.8476 26.164 83.5676 26.164C83.5303 26.164 83.4183 26.1547 83.2316 26.136C83.045 26.1173 82.8583 25.9773 82.6716 25.716C82.5783 25.5667 82.5316 25.4173 82.5316 25.268C82.5316 25.1 82.5783 24.932 82.6716 24.764C82.8583 24.3907 82.9516 24.0267 82.9516 23.672C82.9703 23.3173 82.9516 22.692 82.8956 21.796C82.877 21.18 82.8676 20.6853 82.8676 20.312C82.8676 19.8827 82.877 19.444 82.8956 18.996C82.933 18.4173 82.9516 17.8853 82.9516 17.4C82.9516 16.28 82.8583 15.3933 82.6716 14.74C82.653 14.6653 82.6436 14.6 82.6436 14.544C82.6436 14.2267 82.7556 13.984 82.9796 13.816C83.185 13.6293 83.4183 13.536 83.6796 13.536C83.7356 13.536 83.857 13.5547 84.0436 13.592C84.249 13.6293 84.4076 13.844 84.5196 14.236C84.7623 15.076 84.8836 16.168 84.8836 17.512C84.8836 18.0533 84.865 18.6227 84.8276 19.22C85.2943 19.2387 85.7516 19.2667 86.1996 19.304C86.853 19.36 87.5063 19.388 88.1596 19.388ZM83.1196 35.964C83.2316 35.9453 83.325 35.936 83.3996 35.936C83.661 35.936 83.8756 36.0293 84.0436 36.216C84.2116 36.4027 84.2956 36.6267 84.2956 36.888C84.2956 36.944 84.277 37.0747 84.2396 37.28C84.221 37.4853 84.0156 37.6627 83.6236 37.812C81.7756 38.3347 79.881 38.6053 77.9396 38.624C77.7156 38.624 77.473 38.6333 77.2116 38.652C76.9316 38.6707 76.661 38.68 76.3996 38.68C75.653 38.68 74.925 38.5867 74.2156 38.4C73.2263 38.008 72.6103 37.4013 72.3676 36.58C72.1623 35.9453 72.0596 35.2547 72.0596 34.508C72.0596 34.3027 72.069 34.088 72.0876 33.864C72.1436 33.2853 72.461 32.968 73.0396 32.912C73.7116 32.8373 74.393 32.8 75.0836 32.8C75.345 32.8 75.6156 32.8093 75.8956 32.828H76.5116C77.1463 32.828 77.7716 32.8093 78.3876 32.772H78.6956C79.125 32.7533 79.5823 32.7067 80.0676 32.632C80.5716 32.5387 80.9636 32.352 81.2436 32.072C81.4303 31.8667 81.5236 31.68 81.5236 31.512C81.5236 31.4373 81.4863 31.3347 81.4116 31.204C81.3556 31.0547 81.1503 30.9333 80.7956 30.84C79.9556 30.6347 79.097 30.532 78.2196 30.532C78.145 30.532 77.8556 30.5413 77.3516 30.56C76.8476 30.5787 76.1196 30.644 75.1676 30.756C74.2343 30.8867 73.3103 30.9613 72.3956 30.98C71.985 30.98 71.7143 30.8213 71.5836 30.504C71.509 30.3547 71.4716 30.2053 71.4716 30.056C71.4716 29.9067 71.5183 29.72 71.6116 29.496C71.7236 29.2533 71.985 29.1133 72.3956 29.076C72.8623 29.0573 73.497 28.992 74.2996 28.88C75.4383 28.7307 76.6796 28.6187 78.0236 28.544C78.285 28.5253 78.5276 28.516 78.7516 28.516C79.7783 28.516 80.7583 28.656 81.6916 28.936C82.625 29.216 83.185 29.8413 83.3716 30.812C83.3903 31.0173 83.3996 31.2133 83.3996 31.4C83.3996 32.4267 83.0076 33.2013 82.2236 33.724C81.4583 34.2467 80.4316 34.564 79.1436 34.676C78.2663 34.7507 77.417 34.788 76.5956 34.788C76.185 34.788 75.7743 34.7787 75.3636 34.76H73.9916C73.9916 35.3947 74.1316 35.8707 74.4116 36.188C74.7103 36.524 75.2703 36.7013 76.0916 36.72C76.465 36.7387 76.829 36.748 77.1836 36.748C79.1996 36.748 81.1783 36.4867 83.1196 35.964Z" fill="black"/>
<path d="M131.34 16.476H131.76C132.301 16.476 132.861 16.532 133.44 16.644C134.037 16.756 134.513 17.0827 134.868 17.624C135.092 18.072 135.204 18.576 135.204 19.136C135.204 19.192 135.194 19.388 135.176 19.724C135.157 20.06 135.092 20.5267 134.98 21.124C134.924 21.4413 134.877 21.74 134.84 22.02C134.709 24.148 134.158 26.164 133.188 28.068C132.982 28.3853 132.73 28.544 132.432 28.544C132.413 28.544 132.31 28.5347 132.124 28.516C131.937 28.4973 131.75 28.348 131.564 28.068C131.452 27.9373 131.396 27.788 131.396 27.62C131.396 27.4707 131.442 27.3027 131.536 27.116C131.648 26.892 131.834 26.3507 132.096 25.492C132.376 24.6333 132.637 23.6813 132.88 22.636C133.122 21.572 133.272 20.6387 133.328 19.836V19.472C133.328 18.8933 133.206 18.5667 132.964 18.492C132.124 18.38 131.265 18.324 130.388 18.324C129.324 18.324 128.25 18.408 127.168 18.576C125.917 18.7253 124.666 18.8 123.416 18.8H122.996C122.604 18.7627 122.333 18.5853 122.184 18.268C122.128 18.1 122.1 17.9413 122.1 17.792C122.1 17.6427 122.146 17.456 122.24 17.232C122.333 17.008 122.585 16.896 122.996 16.896H123.5C124.825 16.896 126.141 16.8307 127.448 16.7C128.736 16.5693 130.033 16.4947 131.34 16.476ZM138.06 33.276C138.153 33.2573 138.237 33.248 138.312 33.248C138.592 33.248 138.816 33.3507 138.984 33.556C139.152 33.78 139.236 34.032 139.236 34.312C139.236 34.3493 139.217 34.4613 139.18 34.648C139.161 34.8533 138.956 35.012 138.564 35.124C136.51 35.628 134.41 35.908 132.264 35.964C131.461 35.9827 130.649 35.992 129.828 35.992C128.484 35.992 127.14 35.964 125.796 35.908C124.433 35.852 123.089 35.8147 121.764 35.796C121.353 35.7773 121.082 35.6093 120.952 35.292C120.877 35.1427 120.84 34.9933 120.84 34.844C120.84 34.6947 120.886 34.4987 120.98 34.256C121.092 34.032 121.353 33.9107 121.764 33.892C123.089 33.9107 124.442 33.948 125.824 34.004C126.626 34.0227 127.438 34.0413 128.26 34.06V33.948C128.409 33.3507 128.484 32.744 128.484 32.128C128.484 32.016 128.474 31.7453 128.456 31.316C128.437 30.8867 128.372 30.2987 128.26 29.552C128.129 28.7493 128.054 27.9653 128.036 27.2C128.036 26.7893 128.194 26.5187 128.512 26.388C128.661 26.3133 128.81 26.276 128.96 26.276C129.109 26.276 129.296 26.332 129.52 26.444C129.762 26.5373 129.902 26.7893 129.94 27.2C129.958 28.0213 130.024 28.8333 130.136 29.636C130.285 30.4387 130.36 31.232 130.36 32.016C130.36 32.7067 130.304 33.3973 130.192 34.088H130.892C133.356 34.088 135.745 33.8173 138.06 33.276Z" fill="black"/>
<path d="M172.728 30.224C172.261 30.1867 171.953 29.9533 171.804 29.524C171.356 27.9373 171.085 26.3227 170.992 24.68C170.936 23.5787 170.908 22.4867 170.908 21.404C170.908 20.844 170.917 20.2933 170.936 19.752C170.954 19.0613 170.964 18.3707 170.964 17.68C170.964 17.2693 171.122 16.9987 171.44 16.868C171.608 16.7933 171.766 16.756 171.916 16.756C172.084 16.756 172.28 16.812 172.504 16.924C172.746 17.0173 172.868 17.2693 172.868 17.68V19.724C172.849 20.3027 172.84 20.8813 172.84 21.46C172.84 22.3373 172.858 23.364 172.896 24.54C172.952 25.6973 173.148 26.976 173.484 28.376C174.062 28.432 174.641 28.46 175.22 28.46C177.478 28.46 179.672 27.9653 181.8 26.976C181.968 26.9013 182.136 26.864 182.304 26.864C182.49 26.864 182.686 26.948 182.892 27.116C183.116 27.2653 183.237 27.508 183.256 27.844V27.928C183.256 28.208 183.097 28.4413 182.78 28.628C180.334 29.804 177.796 30.392 175.164 30.392C174.361 30.392 173.549 30.336 172.728 30.224ZM192.384 23.784H192.44C192.776 23.784 193.009 23.9147 193.14 24.176C193.252 24.3627 193.308 24.568 193.308 24.792C193.308 24.8853 193.28 25.0347 193.224 25.24C193.168 25.4267 192.972 25.5667 192.636 25.66C192.542 25.6787 192.449 25.688 192.356 25.688C192.318 25.7067 192.272 25.716 192.216 25.716H192.16C191.114 25.8093 189.873 25.856 188.436 25.856H187.708L187.54 28.544C187.353 30.9333 187.25 32.5667 187.232 33.444C187.213 33.8547 187.045 34.1253 186.728 34.256C186.578 34.3307 186.429 34.368 186.28 34.368C186.13 34.368 185.934 34.312 185.692 34.2C185.468 34.1067 185.346 33.8547 185.328 33.444C185.346 32.604 185.449 31.008 185.636 28.656C185.841 26.2293 185.962 23.8027 186 21.376V20.256C186 18.352 185.878 16.8027 185.636 15.608V15.468C185.636 15.1133 185.748 14.8427 185.972 14.656C186.196 14.488 186.429 14.404 186.672 14.404C186.728 14.404 186.849 14.4227 187.036 14.46C187.241 14.4787 187.39 14.6933 187.484 15.104C187.764 16.7093 187.904 18.5293 187.904 20.564C187.904 21.6467 187.866 22.776 187.792 23.952H188.464C189.976 23.952 191.282 23.896 192.384 23.784Z" fill="black"/>
<path d="M287.872 16.476H288.292C288.833 16.476 289.393 16.532 289.972 16.644C290.569 16.756 291.045 17.0827 291.4 17.624C291.624 18.072 291.736 18.576 291.736 19.136C291.736 19.192 291.726 19.388 291.708 19.724C291.689 20.06 291.624 20.5267 291.512 21.124C291.456 21.4413 291.409 21.74 291.372 22.02C291.241 24.148 290.69 26.164 289.72 28.068C289.514 28.3853 289.262 28.544 288.964 28.544C288.945 28.544 288.842 28.5347 288.656 28.516C288.469 28.4973 288.282 28.348 288.096 28.068C287.984 27.9373 287.928 27.788 287.928 27.62C287.928 27.4707 287.974 27.3027 288.068 27.116C288.18 26.892 288.366 26.3507 288.628 25.492C288.908 24.6333 289.169 23.6813 289.412 22.636C289.654 21.572 289.804 20.6387 289.86 19.836V19.472C289.86 18.8933 289.738 18.5667 289.496 18.492C288.656 18.38 287.797 18.324 286.92 18.324C285.856 18.324 284.782 18.408 283.7 18.576C282.449 18.7253 281.198 18.8 279.948 18.8H279.528C279.136 18.7627 278.865 18.5853 278.716 18.268C278.66 18.1 278.632 17.9413 278.632 17.792C278.632 17.6427 278.678 17.456 278.772 17.232C278.865 17.008 279.117 16.896 279.528 16.896H280.032C281.357 16.896 282.673 16.8307 283.98 16.7C285.268 16.5693 286.565 16.4947 287.872 16.476ZM294.452 32.492C294.862 32.492 295.133 32.6507 295.264 32.968C295.338 33.1173 295.376 33.276 295.376 33.444C295.376 33.5933 295.32 33.7893 295.208 34.032C295.114 34.2747 294.862 34.396 294.452 34.396C291.633 34.396 288.814 34.4147 285.996 34.452C283.196 34.4893 280.386 34.5827 277.568 34.732C277.157 34.732 276.886 34.5827 276.756 34.284C276.7 34.1347 276.672 33.9853 276.672 33.836C276.672 33.668 276.718 33.472 276.812 33.248C276.924 33.0053 277.176 32.856 277.568 32.8C280.386 32.6693 283.196 32.5853 285.996 32.548C288.814 32.5107 291.633 32.492 294.452 32.492Z" fill="black"/>
<defs>
<clipPath id="clip0_2135_7083">
<rect width="312" height="402" fill="white"/>
</clipPath>
</defs>
</svg>
