<svg width="358" height="110" viewBox="0 0 358 110" fill="none" xmlns="http://www.w3.org/2000/svg">
<rect width="358" height="110" fill="#FED377"/>
<path d="M132.076 60.178H135.226C135.235 60.7007 135.24 61.4847 135.24 62.53C135.24 66.3473 135.1 69.9967 134.82 73.478H132.076V60.178ZM123.326 70.188L123.522 70.174C123.709 70.0713 123.849 69.936 123.942 69.768C124.035 69.6 124.101 69.306 124.138 68.886C124.185 68.4567 124.208 67.8033 124.208 66.926L122.976 66.982C122.976 69.0353 122.929 70.9207 122.836 72.638H120.26C119.793 70.1927 119.56 67.5233 119.56 64.63C119.56 63.4167 119.602 62.1893 119.686 60.948H122.836C122.873 61.6293 122.911 62.6793 122.948 64.098L124.18 64.042L124.11 60.752H127.428C127.437 61.4427 127.442 62.362 127.442 63.51C127.442 65.302 127.4 66.6087 127.316 67.43C127.232 68.242 127.087 68.8113 126.882 69.138C126.677 69.4647 126.341 69.7447 125.874 69.978L127.33 69.866V72.652H123.186L123.326 70.188ZM127.708 64.756H128.604C128.576 63.7853 128.562 62.3527 128.562 60.458H131.46V73.198H128.968C128.837 71.35 128.744 69.5627 128.688 67.836H127.708V64.756ZM140.535 72.554C139.648 72.3767 138.892 72.0593 138.267 71.602C137.651 71.154 137.184 70.608 136.867 69.964C136.559 69.3107 136.405 68.6013 136.405 67.836C136.405 67.192 136.512 66.534 136.727 65.862C136.951 65.19 137.282 64.532 137.721 63.888L136.643 63.93L136.503 60.85C137.931 60.7193 139.503 60.654 141.221 60.654C142.929 60.654 144.497 60.7193 145.925 60.85L145.785 63.958C144.795 63.874 143.787 63.832 142.761 63.832C142.238 63.832 141.865 63.8413 141.641 63.86C141.211 64.1773 140.861 64.602 140.591 65.134C141.16 65.1153 142.009 65.106 143.139 65.106C144.268 65.106 145.113 65.1153 145.673 65.134L145.743 68.004C144.408 68.0507 143.199 68.074 142.117 68.074C141.361 68.074 140.791 68.0693 140.409 68.06C140.679 68.6573 141.132 69.068 141.767 69.292C142.233 69.46 142.784 69.544 143.419 69.544C144.249 69.544 145.061 69.4087 145.855 69.138L146.485 72.05C145.934 72.2647 145.304 72.428 144.595 72.54C143.885 72.6613 143.171 72.722 142.453 72.722C141.753 72.722 141.113 72.666 140.535 72.554ZM147.213 73.478C147.007 71.0513 146.905 68.5733 146.905 66.044C146.905 64.0187 146.965 62.0633 147.087 60.178H150.993C151.067 61.6433 151.105 63.0153 151.105 64.294V64.896H152.603V67.976H151.021C150.955 69.74 150.82 71.574 150.615 73.478H147.213ZM152.549 70.888C153.716 69.9267 154.565 68.606 155.097 66.926C155.629 65.2367 155.886 63.1087 155.867 60.542L160.263 60.528C160.263 61.788 160.212 62.9127 160.109 63.902C160.016 64.8913 159.862 65.792 159.647 66.604C159.927 66.4733 160.212 66.408 160.501 66.408C160.959 66.408 161.407 66.5433 161.845 66.814C162.293 67.0847 162.657 67.4673 162.937 67.962C163.227 68.4567 163.371 69.026 163.371 69.67C163.371 70.622 163.059 71.6113 162.433 72.638H159.381C159.465 71.9847 159.507 71.4293 159.507 70.972C159.507 70.3093 159.442 69.8193 159.311 69.502C159.181 69.1847 159.022 69.026 158.835 69.026C158.779 69.026 158.723 69.04 158.667 69.068C158.219 69.8427 157.655 70.5473 156.973 71.182C156.292 71.826 155.461 72.428 154.481 72.988L152.549 70.888ZM161.747 63.216H164.127C164.155 62.0773 164.202 61.0647 164.267 60.178H168.593C168.668 61.6713 168.705 63.0667 168.705 64.364C168.705 67.36 168.542 70.398 168.215 73.478H164.393C164.207 71.2287 164.104 68.928 164.085 66.576H161.747V63.216ZM181.448 73.478C181.243 71.0513 181.14 68.5733 181.14 66.044C181.14 64.0187 181.201 62.0633 181.322 60.178H185.368C185.443 61.6713 185.48 63.0667 185.48 64.364C185.48 67.36 185.317 70.398 184.99 73.478H181.448ZM170.808 72.638C170.342 70.1927 170.108 67.5233 170.108 64.63C170.108 63.4167 170.15 62.1893 170.234 60.948H174.014C174.052 61.6293 174.089 62.6793 174.126 64.098L176.366 63.972L176.31 60.682H180.146C180.156 61.1953 180.16 61.8907 180.16 62.768C180.16 64.728 180.109 66.17 180.006 67.094C179.904 68.018 179.736 68.662 179.502 69.026C179.278 69.3807 178.91 69.684 178.396 69.936L179.978 69.838V72.652H174.434L174.574 70.188L175.12 70.146C175.419 70.0247 175.648 69.8707 175.806 69.684C175.965 69.4973 176.086 69.1893 176.17 68.76C176.264 68.3213 176.324 67.6867 176.352 66.856L174.154 66.982C174.154 69.0353 174.108 70.9207 174.014 72.638H170.808ZM187.471 66.52C188.871 65.9787 189.93 65.1993 190.649 64.182C191.368 63.1553 191.727 61.8673 191.727 60.318H196.403C196.403 61.41 196.282 62.418 196.039 63.342C196.562 63.1087 197.117 62.992 197.705 62.992C198.321 62.992 198.89 63.1273 199.413 63.398C199.936 63.6687 200.356 64.0653 200.673 64.588C200.99 65.1107 201.149 65.736 201.149 66.464C201.149 67.2853 200.944 68.1673 200.533 69.11H197.131C197.15 68.9607 197.159 68.7413 197.159 68.452C197.159 67.5933 196.991 66.9447 196.655 66.506C196.328 66.058 195.908 65.834 195.395 65.834C195.227 65.834 195.05 65.862 194.863 65.918C193.65 67.6353 191.699 68.8207 189.011 69.474L187.471 66.52ZM186.911 70.412H202.311V73.352H186.911V70.412ZM207.911 70.468H213.301V69.278C211.929 69.0073 210.874 68.4987 210.137 67.752C209.4 67.0053 209.031 66.0673 209.031 64.938C209.031 63.9953 209.292 63.1833 209.815 62.502C210.338 61.8113 211.089 61.2887 212.069 60.934C213.058 60.57 214.239 60.388 215.611 60.388C216.983 60.388 218.159 60.57 219.139 60.934C220.128 61.298 220.884 61.8207 221.407 62.502C221.93 63.1833 222.191 63.9953 222.191 64.938C222.191 66.0673 221.822 67.0053 221.085 67.752C220.348 68.4987 219.293 69.0073 217.921 69.278V70.468H223.311V73.352H207.911V70.468ZM215.611 66.436C216.246 66.436 216.745 66.3053 217.109 66.044C217.473 65.7733 217.655 65.4047 217.655 64.938C217.655 64.4713 217.473 64.1073 217.109 63.846C216.745 63.5753 216.246 63.44 215.611 63.44C214.976 63.44 214.477 63.5753 214.113 63.846C213.749 64.1073 213.567 64.4713 213.567 64.938C213.567 65.4047 213.749 65.7733 214.113 66.044C214.477 66.3053 214.976 66.436 215.611 66.436ZM229.502 73.52C228.531 73.4733 227.77 73.3473 227.22 73.142C226.678 72.9367 226.296 72.666 226.072 72.33C225.857 72.0033 225.75 71.5973 225.75 71.112C225.75 70.8973 225.787 70.6733 225.862 70.44C225.946 70.2067 226.048 70.006 226.17 69.838L230.426 69.95C230.407 70.0247 230.398 70.132 230.398 70.272C230.398 70.496 230.463 70.6687 230.594 70.79C230.734 70.902 230.976 70.9627 231.322 70.972C231.844 71 232.372 71.014 232.904 71.014C234.668 71.014 236.684 70.8647 238.952 70.566L239.428 73.086C237.038 73.4313 234.71 73.604 232.442 73.604C231.508 73.604 230.528 73.576 229.502 73.52ZM224.714 67.332H240.114V69.544H224.714V67.332ZM226.268 64.868L228.312 64.812C228.088 64.7373 227.924 64.6533 227.822 64.56C227.719 64.4573 227.649 64.308 227.612 64.112C227.584 63.9067 227.57 63.594 227.57 63.174C228.764 63.0807 229.982 63.034 231.224 63.034L231.168 64.742L233.086 64.7C233.44 64.5693 233.674 64.42 233.786 64.252C233.907 64.084 233.968 63.79 233.968 63.37L233.94 62.74C233.594 62.7307 233.076 62.726 232.386 62.726C229.922 62.726 227.822 62.8007 226.086 62.95L225.946 60.64C227.822 60.472 229.959 60.388 232.358 60.388C234.766 60.388 236.94 60.472 238.882 60.64L238.742 62.95L237.524 62.866C237.514 63.2953 237.477 63.6173 237.412 63.832C237.356 64.0373 237.244 64.196 237.076 64.308C236.908 64.4107 236.642 64.5133 236.278 64.616L238.56 64.56V66.954H226.268V64.868Z" fill="black"/>
<g clip-path="url(#clip0_2518_17078)">
<path d="M126.459 38.0332C124.898 37.5884 123.906 36.733 123.477 35.4738C123.156 34.5225 123.156 33.3934 123.491 32.0999L122.258 32.6748L120 27.0358C123.196 25.4892 126.492 24.1068 129.896 22.9023C133.3 21.6979 136.717 20.6987 140.141 19.8981L141.762 25.6876C139.558 26.2146 137.26 26.8989 134.868 27.7475C133.715 28.1581 132.73 28.5413 131.92 28.8972C131.544 29.5884 131.424 30.1427 131.564 30.5533C131.685 30.9023 131.973 31.1419 132.429 31.2514C132.891 31.3677 133.494 31.3403 134.251 31.1624C135.055 30.9913 135.812 30.786 136.523 30.5328C138.425 29.8553 140.422 28.8288 142.519 27.4327L145.648 32.1342C143.437 33.845 140.63 35.3027 137.226 36.5071C135.605 37.082 134.131 37.5131 132.797 37.8005C130.117 38.4028 128 38.478 126.446 38.0332H126.459ZM135.122 52.9725C133.802 52.863 132.978 52.3155 132.65 51.3437C132.462 50.7826 132.422 50.0709 132.536 49.1949L130.834 49.7971L129.621 46.2248L149.95 39.0255C149.923 38.6149 149.374 38.5259 148.288 38.7449C146.66 39.094 144.549 39.7236 141.956 40.6406C138.653 41.8108 134.874 43.3095 130.62 45.1436L128.958 40.7569C132.905 39.0118 137.24 37.301 141.956 35.6312C144.871 34.5978 147.457 33.7492 149.709 33.0922C152.027 32.4353 153.829 32.2026 155.122 32.3942C156.415 32.5858 157.213 33.147 157.534 34.0777C157.755 34.721 157.755 35.4738 157.548 36.3292L158.338 36.0486L159.551 39.6209L141.286 46.088C141.387 46.5875 142.097 46.7039 143.417 46.4438C144.583 46.1906 146.164 45.7116 148.167 45.0067C150.03 44.3497 151.966 43.5833 153.977 42.721C155.987 41.8587 157.735 41.0375 159.216 40.2573L161.682 44.1102C160.194 45.0067 158.365 45.9374 156.194 46.9023C154.023 47.8673 151.719 48.7843 149.266 49.6534C146.492 50.6389 143.752 51.4669 141.059 52.1444C138.419 52.8014 136.442 53.0683 135.122 52.9588V52.9725ZM143.464 25.058C142.781 23.0529 142.211 20.9383 141.749 18.7141L151.229 15.354C151.759 16.6474 152.268 17.9408 152.75 19.2342L155.792 18.1598L157.903 24.3668L154.593 25.5371C154.901 26.9126 155.142 28.4045 155.33 30.0058L146.915 32.9896C145.407 30.0264 144.261 27.3848 143.477 25.0649L143.464 25.058Z" fill="black"/>
<path d="M163.27 37.2603L170.955 37.1029C170.419 35.9532 169.997 34.5777 169.682 32.9695C169.374 31.3681 169.2 29.6367 169.16 27.7753C169.153 27.3578 169.16 26.694 169.186 25.7701L179.86 25.5512L179.887 26.9335C179.927 28.8634 180.041 30.6906 180.235 32.4288C180.429 34.1671 180.677 35.6589 180.979 36.8976L198.634 36.5349L198.768 43.3031L163.397 44.0216L163.263 37.2535L163.27 37.2603ZM185.247 27.7137C185.207 25.7633 184.684 24.3056 183.665 23.327C182.647 22.3484 181.079 21.7667 178.949 21.5683C177.917 21.4793 177.026 21.4451 176.275 21.4588C174.754 21.493 173.274 21.6709 171.846 22.0062C170.419 22.3416 168.939 22.8343 167.404 23.4776L165.964 15.4913C169.769 13.9447 174.225 13.1166 179.33 13.0139C180.208 12.9934 180.885 12.9934 181.354 13.0071C185.856 13.0687 189.294 14.0747 191.659 16.0182C194.024 17.9618 195.243 20.6855 195.31 24.1893C195.364 27.0567 194.66 30.3689 193.186 34.1192L184.215 34.3039C184.939 31.6624 185.28 29.4656 185.247 27.7137Z" fill="black"/>
<path d="M204.174 40.3872C203.256 39.1623 202.74 37.5267 202.626 35.4805C202.512 33.4343 202.861 30.8132 203.678 27.6173C204.127 25.8586 204.737 23.8671 205.514 21.6362C206.291 19.412 207.142 17.2084 208.074 15.0322L216.791 17.3385C215.35 21.2803 214.204 24.9005 213.367 28.2059C213.186 28.9039 213.012 29.6841 212.837 30.5463C212.516 32.1546 212.482 33.4343 212.73 34.3718C212.978 35.3094 213.467 36.0759 214.204 36.6781C214.801 37.1982 215.692 37.6156 216.878 37.9304C218.352 38.3205 220.107 38.4779 222.137 38.4095L221.775 45.7114C218.626 46.2384 215.544 46.0947 212.509 45.294C211.015 44.8971 209.574 44.3359 208.188 43.6037C206.425 42.6866 205.085 41.6122 204.167 40.3872H204.174ZM225.608 32.7089C226.774 28.1101 228.04 23.7029 229.394 19.4942L239.015 22.0399C238.338 25.4137 237.628 28.5481 236.891 31.4565L236.543 32.8252L240 33.7422L238.224 40.7362L234.579 39.7713C233.414 43.7405 232.06 47.8261 230.506 52.0279L222.01 49.7765C222.955 44.1443 224.154 38.4574 225.615 32.7089H225.608Z" fill="black"/>
</g>
<path d="M98.7031 26.9914C99.1113 25.7351 100.889 25.7351 101.297 26.9914L103.062 32.4225C103.244 32.9843 103.768 33.3647 104.358 33.3647H110.069C111.39 33.3647 111.939 35.0551 110.871 35.8316L106.251 39.1882C105.773 39.5354 105.573 40.1509 105.755 40.7128L107.52 46.1438C107.928 47.4002 106.49 48.4449 105.421 47.6684L100.802 44.3118C100.324 43.9646 99.6764 43.9646 99.1985 44.3118L94.5785 47.6684C93.5098 48.4449 92.0719 47.4002 92.4801 46.1438L94.2448 40.7128C94.4273 40.1509 94.2273 39.5354 93.7494 39.1882L89.1295 35.8316C88.0608 35.0551 88.61 33.3647 89.931 33.3647H95.6416C96.2323 33.3647 96.7559 32.9843 96.9384 32.4225L98.7031 26.9914Z" fill="#F09E3C"/>
<path d="M262.297 26.9914C261.889 25.7351 260.111 25.7351 259.703 26.9914L257.938 32.4225C257.756 32.9843 257.232 33.3647 256.642 33.3647H250.931C249.61 33.3647 249.061 35.0551 250.129 35.8316L254.749 39.1882C255.227 39.5354 255.427 40.1509 255.245 40.7128L253.48 46.1438C253.072 47.4002 254.51 48.4449 255.579 47.6684L260.198 44.3118C260.676 43.9646 261.324 43.9646 261.802 44.3118L266.421 47.6684C267.49 48.4449 268.928 47.4002 268.52 46.1438L266.755 40.7128C266.573 40.1509 266.773 39.5354 267.251 39.1882L271.871 35.8316C272.939 35.0551 272.39 33.3647 271.069 33.3647H265.358C264.768 33.3647 264.244 32.9843 264.062 32.4225L262.297 26.9914Z" fill="#F09E3C"/>
<path d="M104.135 60.661C104.408 59.8234 105.592 59.8234 105.865 60.661L107.041 64.2817C107.163 64.6562 107.512 64.9098 107.906 64.9098H111.713C112.593 64.9098 112.959 66.0368 112.247 66.5544L109.167 68.7921C108.848 69.0236 108.715 69.4339 108.837 69.8085L110.013 73.4292C110.285 74.2668 109.327 74.9632 108.614 74.4456L105.534 72.2079C105.216 71.9764 104.784 71.9764 104.466 72.2079L101.386 74.4456C100.673 74.9632 99.7146 74.2668 99.9867 73.4292L101.163 69.8085C101.285 69.4339 101.152 69.0236 100.833 68.7921L97.753 66.5544C97.0405 66.0368 97.4067 64.9098 98.2873 64.9098H102.094C102.488 64.9098 102.837 64.6562 102.959 64.2817L104.135 60.661Z" fill="#F09E3C"/>
<path d="M79.1354 50.661C79.4075 49.8234 80.5925 49.8234 80.8646 50.661L81.8165 53.5907C81.9382 53.9652 82.2873 54.2188 82.6811 54.2188H85.7616C86.6423 54.2188 87.0084 55.3458 86.296 55.8634L83.8038 57.6741C83.4852 57.9056 83.3518 58.3159 83.4735 58.6905L84.4255 61.6202C84.6976 62.4578 83.739 63.1542 83.0265 62.6366L80.5344 60.8259C80.2157 60.5944 79.7843 60.5944 79.4656 60.8259L76.9735 62.6366C76.261 63.1542 75.3024 62.4578 75.5745 61.6202L76.5265 58.6905C76.6482 58.3159 76.5148 57.9056 76.1962 57.6741L73.704 55.8634C72.9916 55.3458 73.3577 54.2188 74.2384 54.2188H77.3189C77.7127 54.2188 78.0618 53.9652 78.1835 53.5907L79.1354 50.661Z" fill="#F09E3C"/>
<path d="M278.135 50.661C278.408 49.8234 279.592 49.8234 279.865 50.661L280.817 53.5907C280.938 53.9652 281.287 54.2188 281.681 54.2188H284.762C285.642 54.2188 286.008 55.3458 285.296 55.8634L282.804 57.6741C282.485 57.9056 282.352 58.3159 282.474 58.6905L283.425 61.6202C283.698 62.4578 282.739 63.1542 282.027 62.6366L279.534 60.8259C279.216 60.5944 278.784 60.5944 278.466 60.8259L275.973 62.6366C275.261 63.1542 274.302 62.4578 274.575 61.6202L275.526 58.6905C275.648 58.3159 275.515 57.9056 275.196 57.6741L272.704 55.8634C271.992 55.3458 272.358 54.2188 273.238 54.2188H276.319C276.713 54.2188 277.062 53.9652 277.183 53.5907L278.135 50.661Z" fill="#F09E3C"/>
<path d="M256.865 60.661C256.592 59.8234 255.408 59.8234 255.135 60.661L253.959 64.2817C253.837 64.6562 253.488 64.9098 253.094 64.9098H249.287C248.407 64.9098 248.041 66.0368 248.753 66.5544L251.833 68.7921C252.152 69.0236 252.285 69.4339 252.163 69.8085L250.987 73.4292C250.715 74.2668 251.673 74.9632 252.386 74.4456L255.466 72.2079C255.784 71.9764 256.216 71.9764 256.534 72.2079L259.614 74.4456C260.327 74.9632 261.285 74.2668 261.013 73.4292L259.837 69.8085C259.715 69.4339 259.848 69.0236 260.167 68.7921L263.247 66.5544C263.959 66.0368 263.593 64.9098 262.713 64.9098H258.906C258.512 64.9098 258.163 64.6562 258.041 64.2817L256.865 60.661Z" fill="#F09E3C"/>
<rect x="3" y="4" width="351" height="102" stroke="#F09E3C" stroke-width="2"/>
<defs>
<clipPath id="clip0_2518_17078">
<rect width="120" height="40" fill="white" transform="translate(120 13)"/>
</clipPath>
</defs>
</svg>
