<svg width="23" height="23" viewBox="0 0 23 23" fill="none" xmlns="http://www.w3.org/2000/svg">
<path d="M6.75 5.7376V6.51141C7.02522 6.51141 7.27972 6.36523 7.4184 6.1275L6.75 5.7376ZM8.325 3.0376V2.26379C8.04978 2.26379 7.79527 2.40997 7.6566 2.6477L8.325 3.0376ZM14.175 3.0376L14.8434 2.6477C14.7047 2.40997 14.4502 2.26379 14.175 2.26379V3.0376ZM15.75 5.7376L15.0816 6.1275C15.2203 6.36523 15.4748 6.51141 15.75 6.51141V5.7376ZM3.02381 17.2126V7.9876H1.47619V17.2126H3.02381ZM4.5 6.51141H6.75V4.96379H4.5V6.51141ZM7.4184 6.1275L8.9934 3.4275L7.6566 2.6477L6.0816 5.3477L7.4184 6.1275ZM8.325 3.81141H14.175V2.26379H8.325V3.81141ZM13.5066 3.4275L15.0816 6.1275L16.4184 5.3477L14.8434 2.6477L13.5066 3.4275ZM15.75 6.51141H18V4.96379H15.75V6.51141ZM19.4762 7.9876V17.2126H21.0238V7.9876H19.4762ZM19.4762 17.2126C19.4762 18.0279 18.8153 18.6888 18 18.6888V20.2364C19.67 20.2364 21.0238 18.8826 21.0238 17.2126H19.4762ZM18 6.51141C18.8153 6.51141 19.4762 7.17232 19.4762 7.9876H21.0238C21.0238 6.31759 19.67 4.96379 18 4.96379V6.51141ZM3.02381 7.9876C3.02381 7.17232 3.68472 6.51141 4.5 6.51141V4.96379C2.83 4.96379 1.47619 6.31759 1.47619 7.9876H3.02381ZM4.5 18.6888C3.68472 18.6888 3.02381 18.0279 3.02381 17.2126H1.47619C1.47619 18.8826 2.83 20.2364 4.5 20.2364V18.6888ZM13.8512 12.0376C13.8512 13.4742 12.6866 14.6388 11.25 14.6388V16.1864C13.5413 16.1864 15.3988 14.3289 15.3988 12.0376H13.8512ZM11.25 14.6388C9.8134 14.6388 8.64881 13.4742 8.64881 12.0376H7.10119C7.10119 14.3289 8.95867 16.1864 11.25 16.1864V14.6388ZM8.64881 12.0376C8.64881 10.601 9.8134 9.43641 11.25 9.43641V7.88879C8.95867 7.88879 7.10119 9.74627 7.10119 12.0376H8.64881ZM11.25 9.43641C12.6866 9.43641 13.8512 10.601 13.8512 12.0376H15.3988C15.3988 9.74627 13.5413 7.88879 11.25 7.88879V9.43641ZM18 18.6888H4.5V20.2364H18V18.6888Z" fill="#111111"/>
</svg>
