<svg width="13" height="14" viewBox="0 0 13 14" fill="none" xmlns="http://www.w3.org/2000/svg">
<path d="M6.02948 8.39747L1.70115 12.7255C1.50804 12.9188 1.27393 13.0133 0.998816 13.0088C0.723483 13.0046 0.489261 12.9059 0.29615 12.7128C0.103039 12.5197 0.00648323 12.2834 0.00648323 12.0038C0.00648323 11.7243 0.103039 11.4879 0.29615 11.2948L4.61148 6.97947L0.283483 2.68447C0.0901498 2.49136 -0.00429463 2.25503 0.000149813 1.97547C0.00437204 1.69614 0.103039 1.45992 0.29615 1.26681C0.489261 1.07347 0.725594 0.976807 1.00515 0.976807C1.28471 0.976807 1.52104 1.07347 1.71415 1.26681L6.02948 5.59481L10.3245 1.26681C10.5176 1.07347 10.7517 0.976807 11.0268 0.976807C11.3021 0.976807 11.5364 1.07347 11.7295 1.26681C11.9364 1.47347 12.0398 1.71314 12.0398 1.98581C12.0398 2.25847 11.9364 2.49136 11.7295 2.68447L7.41415 6.97947L11.7422 11.3078C11.9355 11.5009 12.0322 11.735 12.0322 12.0101C12.0322 12.2855 11.9355 12.5197 11.7422 12.7128C11.5355 12.9197 11.2958 13.0231 11.0232 13.0231C10.7505 13.0231 10.5176 12.9197 10.3245 12.7128L6.02948 8.39747Z" fill="#020B0D"/>
</svg>
