<svg width="250" height="170" viewBox="0 0 250 170" fill="none" xmlns="http://www.w3.org/2000/svg">
<g clip-path="url(#clip0_2352_20769)">
<path d="M247.922 25.2485C243.515 17.1949 230.225 13.7424 212.244 14.2108C212.221 21.811 205.988 27.9607 198.297 27.9607C191.69 27.9607 186.152 23.4126 184.724 17.3083C155.904 22.6042 122.09 34.4276 93.4694 51.0937C41.2237 81.5248 -9.9984 137.605 2.19989 159.113C14.8336 181.385 95.2338 166.132 153.147 133.268C206.263 103.124 259.907 47.1425 247.922 25.2485ZM89.7648 107.665C89.7648 111.979 86.2283 115.476 81.8669 115.476C79.0942 115.476 76.6499 114.064 75.2521 111.918C74.4349 110.694 73.9689 109.229 73.9689 107.665C73.9689 103.351 77.5054 99.8529 81.8669 99.8529C83.4251 99.8529 84.884 100.299 86.1061 101.077C88.3059 102.459 89.7648 104.892 89.7648 107.665ZM112.359 118.612C102.108 114.827 94.6075 105.587 93.5763 94.5192C93.4923 93.6579 93.4541 92.7816 93.4541 91.8976C93.4541 76.1306 106.554 63.3477 122.709 63.3477C128.239 63.3477 133.402 64.8436 137.809 67.4425C146.288 72.4438 151.963 81.5248 151.963 91.8976C151.963 92.8118 151.917 93.7108 151.833 94.6023C150.435 109.1 137.932 120.448 122.709 120.448C119.065 120.448 115.574 119.798 112.359 118.612ZM55.2934 157.444C48.8543 157.444 43.6374 152.276 43.6374 145.908C43.6374 145.636 43.6451 145.356 43.668 145.092C44.0881 139.101 49.1293 134.379 55.2934 134.379C61.4575 134.379 66.4911 139.093 66.9188 145.069C66.9494 145.341 66.957 145.628 66.957 145.908C66.957 152.276 61.7324 157.444 55.2934 157.444Z" stroke="#A6A6A6" stroke-miterlimit="10"/>
<path d="M217.11 39.9048C208.341 24.6515 147.052 39.2324 102.834 64.6017C65.9182 85.7781 24.58 123.84 32.2335 138.67C33.914 141.934 37.9469 144.026 43.668 145.091C44.0881 139.1 49.1294 134.379 55.2934 134.379C61.4575 134.379 66.4911 139.093 66.9188 145.069C88.2525 142.523 115.636 134.341 138.718 122.465C184.097 99.12 225.718 54.8786 217.11 39.9048ZM81.8669 99.8528C83.4251 99.8528 84.884 100.299 86.1061 101.077C88.306 102.459 89.7649 104.892 89.7649 107.665C89.7649 111.978 86.2283 115.476 81.8669 115.476C79.0942 115.476 76.65 114.064 75.2522 111.918C74.4349 110.694 73.9689 109.228 73.9689 107.665C73.9689 103.351 77.5055 99.8528 81.8669 99.8528ZM122.709 120.447C119.065 120.447 115.575 119.798 112.359 118.612C102.108 114.827 94.6075 105.587 93.5763 94.5191C93.4923 93.6578 93.4541 92.7815 93.4541 91.8975C93.4541 76.1305 106.554 63.3476 122.709 63.3476C128.239 63.3476 133.402 64.8435 137.809 67.4424C146.288 72.4437 151.963 81.5247 151.963 91.8975C151.963 92.8117 151.917 93.7107 151.833 94.6022C150.436 109.1 137.932 120.447 122.709 120.447Z" stroke="#A6A6A6" stroke-miterlimit="10"/>
<path d="M112.359 118.612C89.8261 129.438 69.1493 135.013 65.7808 129.793C63.6956 126.574 68.3778 119.488 75.2523 111.918C76.6501 114.064 79.0943 115.476 81.867 115.476C86.2284 115.476 89.765 111.978 89.765 107.665C89.765 104.892 88.3061 102.459 86.1062 101.077C88.6498 98.7347 91.1857 96.5211 93.5764 94.519C94.6076 105.587 102.108 114.827 112.359 118.612Z" stroke="#A6A6A6" stroke-miterlimit="10"/>
<path d="M151.833 94.6024C151.917 93.7109 151.963 92.8119 151.963 91.8978C151.963 81.5249 146.288 72.4439 137.81 67.4426C161.045 57.2586 181.012 54.0327 183.96 59.2002C187.305 65.0477 168.874 81.8271 151.833 94.6024Z" stroke="#A6A6A6" stroke-miterlimit="10"/>
<path d="M151.963 91.8976C151.963 92.8117 151.917 93.7107 151.833 94.6022C150.435 109.1 137.932 120.447 122.709 120.447C119.065 120.447 115.574 119.798 112.359 118.612C102.108 114.827 94.6075 105.587 93.5763 94.5191C93.4923 93.6579 93.4541 92.7815 93.4541 91.8976C93.4541 76.1305 106.554 63.3477 122.709 63.3477C128.239 63.3477 133.402 64.8435 137.809 67.4424C146.288 72.4437 151.963 81.5247 151.963 91.8976Z" fill="url(#paint0_linear_2352_20769)" stroke="black" stroke-miterlimit="10"/>
<path d="M18.0799 61.6705L15.5516 68.9837C15.4981 69.1423 15.3759 69.2708 15.2231 69.3463C13.2066 70.3058 11.1825 71.2728 9.16601 72.2323C8.72299 72.4438 8.67717 73.0406 9.08199 73.3202C11.404 74.9143 13.7337 76.5083 16.0557 78.11C16.1779 78.1931 16.262 78.3139 16.3078 78.4499L18.225 84.8943C18.4083 85.4986 19.2714 85.4986 19.4471 84.8943C20.1727 82.3785 20.8984 79.8627 21.624 77.3469C21.6698 77.1807 21.792 77.0372 21.9448 76.9616C23.9002 75.9795 25.8556 74.9974 27.8034 74.0077C28.254 73.781 28.2693 73.154 27.8339 72.8971C25.8556 71.7639 23.8849 70.6231 21.9066 69.4898C21.7691 69.4067 21.6622 69.2859 21.6164 69.1348C20.8373 66.6568 20.0582 64.1788 19.2791 61.7008C19.0957 61.119 18.2632 61.1039 18.0646 61.6857L18.0799 61.6705Z" fill="#EDF126"/>
<path d="M58.3411 58.3464L57.2488 61.4967C57.2259 61.5647 57.1724 61.6252 57.1113 61.6554C56.2405 62.0709 55.3698 62.4864 54.5067 62.902C54.3157 62.9926 54.2928 63.2495 54.4685 63.3704C55.4691 64.0579 56.4697 64.7453 57.4703 65.4328C57.5238 65.4706 57.562 65.5235 57.5772 65.5764L58.4022 68.349C58.4785 68.6134 58.8528 68.6059 58.9292 68.349C59.2424 67.2687 59.5555 66.1808 59.8687 65.1004C59.8916 65.0249 59.9375 64.9644 60.0062 64.9342C60.8464 64.5111 61.6866 64.0881 62.5268 63.665C62.7178 63.5668 62.7254 63.2948 62.5421 63.189C61.6943 62.698 60.8388 62.2069 59.9909 61.7234C59.9298 61.6856 59.884 61.6327 59.8687 61.5723C59.5326 60.5071 59.1965 59.4343 58.8605 58.369C58.7841 58.1197 58.4251 58.1122 58.3411 58.369V58.3464Z" fill="#EDF126"/>
<path d="M224.167 91.1647L223.075 94.3151C223.052 94.3831 222.999 94.4435 222.937 94.4738C222.067 94.8893 221.196 95.3048 220.333 95.7203C220.142 95.811 220.119 96.0678 220.295 96.1887C221.295 96.8762 222.296 97.5637 223.296 98.2512C223.35 98.289 223.388 98.3419 223.403 98.3948L224.228 101.167C224.305 101.432 224.679 101.424 224.755 101.167C225.069 100.087 225.382 98.9991 225.695 97.9188C225.718 97.8432 225.764 97.7828 225.832 97.7526C226.673 97.3295 227.513 96.9064 228.353 96.4834C228.544 96.3851 228.552 96.1132 228.368 96.0074C227.52 95.5163 226.665 95.0253 225.817 94.5418C225.756 94.504 225.71 94.4511 225.695 94.3907C225.359 93.3254 225.023 92.2526 224.687 91.1874C224.61 90.9381 224.251 90.9305 224.167 91.1874V91.1647Z" fill="#EDF126"/>
<path d="M50.8094 141.662C50.8094 141.662 53.9029 148.544 46.2646 146.572" stroke="black" stroke-miterlimit="10"/>
<path d="M59.3723 138.609C59.3723 138.609 58.3258 146.066 52.895 140.4" stroke="black" stroke-miterlimit="10"/>
<path d="M52.5054 154.482C52.5054 154.482 50.802 148.892 54.9572 147.056C59.1125 145.22 63.7642 147.381 63.7642 147.381" stroke="black" stroke-miterlimit="10"/>
<path d="M207.286 26.4712C213.561 21.4758 214.598 12.3393 209.603 6.06424C204.608 -0.210854 195.471 -1.24828 189.196 3.74708C182.921 8.74245 181.884 17.879 186.879 24.1541C191.874 30.4292 201.011 31.4666 207.286 26.4712Z" fill="#E9B97C"/>
<path d="M196.428 20.4062C197.552 20.5391 199.259 20.9959 201.522 19.2313C203.752 17.4937 203.671 15.6125 203.81 14.5298" stroke="black" stroke-width="0.726132" stroke-linecap="round" stroke-linejoin="round"/>
<path d="M193.327 13.5558L191.401 15.663" stroke="black" stroke-width="0.726132" stroke-linecap="round" stroke-linejoin="round"/>
<path d="M197.829 9.97168L200.314 8.56748" stroke="black" stroke-width="0.726132" stroke-linecap="round" stroke-linejoin="round"/>
<path d="M68.4689 156.139C74.5089 150.469 74.8089 140.977 69.139 134.937C63.4691 128.897 53.9763 128.597 47.9364 134.266C41.8964 139.936 41.5964 149.429 47.2663 155.469C52.9362 161.509 62.4289 161.809 68.4689 156.139Z" fill="#74C76C"/>
<path d="M60.3968 147.321C61.068 146.691 61.4808 145.862 61.5983 144.992C61.6734 144.46 61.9389 143.933 62.3755 143.523C63.5433 142.427 65.3325 142.616 65.9535 143.912C67.071 146.251 66.0951 149.148 63.9286 151.182C61.762 153.216 58.611 153.895 56.5451 152.744C55.2857 152.047 55.2101 150.25 56.3834 149.148C56.82 148.738 57.3621 148.507 57.8983 148.465C58.7689 148.398 59.6273 148.043 60.2985 147.413L60.4077 147.311L60.3968 147.321Z" fill="#F9F0ED" stroke="black" stroke-miterlimit="10"/>
<path d="M51.2003 147.105C51.2003 147.105 50.3938 145.984 51.2568 144.65C51.7187 143.939 52.4987 143.556 53.4772 143.592" stroke="black" stroke-linecap="round" stroke-linejoin="round"/>
<path d="M60.7291 138.161C60.7291 138.161 59.6606 137.285 58.2751 138.062C57.5365 138.478 57.105 139.232 57.0793 140.211" stroke="black" stroke-linecap="round" stroke-linejoin="round"/>
<path d="M88.2737 114.453C91.8376 110.988 91.918 105.29 88.4531 101.727C84.9883 98.1627 79.2904 98.0823 75.7265 101.547C72.1626 105.012 72.0822 110.71 75.5471 114.274C79.0119 117.838 84.7098 117.918 88.2737 114.453Z" fill="#D78C89"/>
<path d="M79.3875 109.507C79.761 109.144 79.7694 108.547 79.4063 108.173C79.0433 107.8 78.4462 107.792 78.0727 108.155C77.6992 108.518 77.6908 109.115 78.0539 109.488C78.417 109.862 79.0141 109.87 79.3875 109.507Z" fill="black"/>
<path d="M83.5501 105.523C83.9236 105.16 83.932 104.562 83.5689 104.189C83.2059 103.816 82.6088 103.807 82.2353 104.17C81.8618 104.533 81.8534 105.13 82.2165 105.504C82.5796 105.877 83.1767 105.886 83.5501 105.523Z" fill="black"/>
<path d="M85.4762 108.786C84.7969 108.087 84.3664 108.888 83.5968 109.636C82.8272 110.384 82.0116 110.789 82.6941 111.491C83.3765 112.193 84.4519 112.056 85.2215 111.307C85.9911 110.559 86.1555 109.485 85.4762 108.786Z" fill="#F9F0ED" stroke="black" stroke-width="0.45" stroke-miterlimit="10"/>
<path d="M77.8994 108.498C78.113 108.666 78.4178 108.671 78.6361 108.509C78.4679 108.722 78.4636 109.027 78.6257 109.245C78.4121 109.077 78.1073 109.073 77.889 109.235C78.0572 109.021 78.0615 108.716 77.8994 108.498Z" fill="#F9F0ED"/>
<path d="M82.0918 104.422C82.3054 104.59 82.6102 104.594 82.8285 104.432C82.6603 104.646 82.656 104.951 82.8181 105.169C82.6045 105.001 82.2997 104.997 82.0814 105.159C82.2496 104.945 82.2539 104.64 82.0918 104.422Z" fill="#F9F0ED"/>
</g>
<defs>
<linearGradient id="paint0_linear_2352_20769" x1="111.518" y1="70.6384" x2="148.825" y2="117.501" gradientUnits="userSpaceOnUse">
<stop stop-color="#FF82AE"/>
<stop offset="0.164" stop-color="#FFC186"/>
<stop offset="0.309" stop-color="#FFDD79"/>
<stop offset="0.484" stop-color="#B7F084"/>
<stop offset="0.674" stop-color="#46F3B4"/>
<stop offset="0.844" stop-color="#33C7F7"/>
<stop offset="1" stop-color="#C29EF1"/>
</linearGradient>
<clipPath id="clip0_2352_20769">
<rect width="250" height="170" fill="white"/>
</clipPath>
</defs>
</svg>
