<svg width="20" height="20" viewBox="0 0 20 20" fill="none" xmlns="http://www.w3.org/2000/svg">
<path d="M20 10C20 15.5228 15.5228 20 10 20C4.47715 20 0 15.5228 0 10C0 4.47715 4.47715 0 10 0C15.5228 0 20 4.47715 20 10Z" fill="#353963"/>
<path d="M5.53255 5.56476C4.81464 6.30995 4.82372 7.50927 5.55283 8.2435L7.36263 10.066L5.67505 11.7548C4.94358 12.4868 4.93074 13.6862 5.64637 14.4337C6.36199 15.1812 7.53509 15.1937 8.26656 14.4617L10.0026 12.7245L11.7107 14.4446C12.4399 15.1789 13.6129 15.17 14.3308 14.4248C15.0487 13.6796 15.0397 12.4803 14.3105 11.7461L12.6506 10.0745L14.4431 8.28072C15.1746 7.54872 15.1874 6.34936 14.4718 5.60187C13.7561 4.85437 12.583 4.84181 11.8516 5.57381L10.0107 7.41603L8.15263 5.54492C7.42352 4.81068 6.25047 4.81956 5.53255 5.56476Z" fill="white"/>
</svg>
