<svg width="108" height="108" viewBox="0 0 108 108" fill="none" xmlns="http://www.w3.org/2000/svg">
<rect x="0.5" y="0.5" width="107" height="107" rx="15.5" fill="white"/>
<rect x="0.5" y="0.5" width="107" height="107" rx="15.5" stroke="#D84E35"/>
<line x1="36.5" y1="23.5" x2="36.5" y2="56.5" stroke="#D84E35"/>
<line x1="40.5" y1="23.5" x2="40.5" y2="56.5" stroke="#D84E35"/>
<line x1="33" y1="26.9961" x2="75" y2="26.9961" stroke="#D84E35"/>
<line x1="33" y1="39.9961" x2="75" y2="39.9961" stroke="#D84E35"/>
<line x1="33" y1="52.9961" x2="75" y2="52.9961" stroke="#D84E35"/>
<path d="M51.5664 32.1787H53.1953V33.1045H51.5664V38.4834H50.4531V27.9951H51.5664V32.1787ZM48.8242 29.0967C48.8164 30.6982 48.4277 32.1357 47.6582 33.4092C46.8887 34.6826 45.6758 35.7295 44.0195 36.5498L43.3984 35.6826C44.7109 35.0264 45.7246 34.2256 46.4395 33.2803C47.1582 32.335 47.5742 31.249 47.6875 30.0225H43.9258V29.0967H48.8242Z" fill="#D84E35"/>
<path d="M53.1953 46.022H51.5664V51.4712H50.4531V40.9829H51.5664V45.1079H53.1953V46.022ZM44.8867 47.9087C46.4883 47.9087 48.043 47.7524 49.5508 47.4399L49.6797 48.3774C48.8438 48.5454 48.0137 48.6646 47.1895 48.7349C46.3691 48.8013 45.5234 48.8345 44.6523 48.8345H43.7852V42.0024H44.8867V47.9087ZM61.9375 45.0493H63.625V45.9634H61.9375V51.5063H60.8242V40.9829H61.9375V45.0493ZM59.1133 42.8931H55.3164V47.9673C56.2461 47.9634 57.0625 47.936 57.7656 47.8853C58.4727 47.8345 59.1836 47.7446 59.8984 47.6157L60.0391 48.5532C59.3164 48.6821 58.6055 48.772 57.9062 48.8228C57.2109 48.8696 56.4062 48.8931 55.4922 48.8931H55.0469H54.2031V41.9907H59.1133V42.8931Z" fill="#D84E35"/>
<path d="M35.528 68.188H36.424C38.024 68.188 40.3493 68.2093 43.4 68.252C43.784 68.4013 43.976 68.6147 43.976 68.892V69.02C43.976 69.404 43.72 69.6173 43.208 69.66H42.312C41.8213 69.66 41.0747 69.6387 40.072 69.596V69.66C40.3813 70.3427 41.2133 70.9187 42.568 71.388C43.6773 71.388 44.232 71.6653 44.232 72.22V72.284C44.232 72.636 43.9973 72.8493 43.528 72.924C42.28 72.924 40.936 72.3693 39.496 71.26C39.2933 70.9613 39.1653 70.812 39.112 70.812H39.048C38.4827 71.7293 37.544 72.3907 36.232 72.796L34.952 73.052C34.5253 72.956 34.312 72.7427 34.312 72.412V72.284C34.312 71.868 34.7813 71.5907 35.72 71.452C36.5413 71.452 37.3733 70.8333 38.216 69.596H35.592C35.0373 69.5427 34.76 69.3293 34.76 68.956V68.828C34.76 68.444 35.016 68.2307 35.528 68.188ZM34.504 73.644C35.4853 73.644 37.256 73.6653 39.816 73.708C41.3627 73.6653 42.472 73.644 43.144 73.644V73.708L43.272 73.644C44.4667 73.644 45.064 73.8573 45.064 74.284V74.476C44.968 74.9027 44.7547 75.116 44.424 75.116C43.848 75.0733 43.4213 75.052 43.144 75.052H41.736C41.3733 75.052 40.7973 75.0733 40.008 75.116V76.204C39.9653 76.716 39.7307 76.972 39.304 76.972C38.8347 76.972 38.6 76.5453 38.6 75.692V75.116C38.0987 75.0733 37.736 75.052 37.512 75.052H34.824C34.1413 75.052 33.8 74.8387 33.8 74.412V74.284C33.8 73.932 34.0347 73.7187 34.504 73.644ZM35.624 76.06H39.912C42.1307 76.06 43.24 76.1667 43.24 76.38C43.368 76.7107 43.432 77.244 43.432 77.98C43.432 79.004 42.984 79.516 42.088 79.516C41.0427 79.5587 39.1227 79.6013 36.328 79.644V80.38H39.208C39.9547 80.38 40.7227 80.4013 41.512 80.444C41.704 80.4013 42.1733 80.38 42.92 80.38C43.3253 80.38 43.5387 80.6573 43.56 81.212C43.432 81.596 43.1547 81.788 42.728 81.788H35.752C35.1973 81.692 34.92 81.4787 34.92 81.148L34.984 80.7V80.572C34.984 80.3693 34.9627 80.1027 34.92 79.772C34.92 78.748 35.2827 78.236 36.008 78.236C36.1787 78.236 36.264 78.2573 36.264 78.3C36.3067 78.3 36.4773 78.2787 36.776 78.236C39.4853 78.1933 41.0853 78.172 41.576 78.172L42.024 78.108V77.468C40.0507 77.4253 38.5147 77.404 37.416 77.404H35.816C35.72 77.404 35.6347 77.4253 35.56 77.468C35.272 77.468 35.0373 77.2973 34.856 76.956V76.7C34.856 76.316 35.112 76.1027 35.624 76.06ZM48.4674 69.708H48.7234C49.1927 69.708 49.4274 70.22 49.4274 71.244V74.444C51.8594 74.4867 53.5447 74.508 54.4834 74.508C54.782 74.508 55.3367 74.4867 56.1474 74.444C56.6167 74.5933 56.8514 74.828 56.8514 75.148V75.212C56.8514 75.6387 56.446 75.852 55.6354 75.852C55.1874 75.8947 54.6967 75.916 54.1634 75.916C52.6274 75.916 50.9847 75.8733 49.2354 75.788C49.1607 75.8307 49.054 75.852 48.9154 75.852C48.3607 75.852 48.0834 75.404 48.0834 74.508C48.0407 74.4547 48.0194 74.0067 48.0194 73.164V70.348C48.0194 70.0707 48.1687 69.8573 48.4674 69.708ZM52.4674 75.82C52.894 75.9267 53.1074 76.1613 53.1074 76.524L53.1234 78.844H56.0034C56.2487 78.844 56.59 78.8653 57.0274 78.908C57.102 78.8653 57.2087 78.844 57.3474 78.844C57.774 78.9613 57.9874 79.1747 57.9874 79.484V79.612C57.8914 80.0387 57.678 80.252 57.3474 80.252C52.334 80.2093 49.07 80.188 47.5554 80.188C46.958 80.188 46.6594 79.9747 46.6594 79.548V79.42C46.6594 79.0787 46.894 78.8653 47.3634 78.78H51.7154C51.7154 78.6947 51.7207 78.2893 51.7314 77.564C51.71 76.9987 51.6994 76.652 51.6994 76.524C51.6994 76.172 51.9554 75.9373 52.4674 75.82ZM61.8533 69.532C65.4053 69.5747 67.7733 69.596 68.9573 69.596C69.5973 69.6493 69.9173 69.884 69.9173 70.3V70.364C69.9173 70.748 69.6613 70.9613 69.1493 71.004C68.1893 71.004 65.9706 70.9827 62.4933 70.94V72.22C62.4933 72.3053 62.5573 72.348 62.6853 72.348C63.6666 72.348 65.7359 72.3267 68.8933 72.284C69.2773 72.444 69.4693 72.6573 69.4693 72.924C69.4693 73.436 68.9786 73.692 67.9973 73.692H62.5573C62.5146 74.1187 62.4933 74.4387 62.4933 74.652L62.5573 75.292H69.2133C69.6399 75.3773 69.8533 75.5907 69.8533 75.932V75.996C69.8533 76.4227 69.4479 76.636 68.6373 76.636C68.0719 76.6787 67.4533 76.7 66.7812 76.7C66.4933 76.7 64.8293 76.6787 61.7893 76.636C61.3626 76.4867 61.1493 76.1453 61.1493 75.612C61.1493 74.972 61.1279 74.652 61.0853 74.652L61.1493 74.204C61.1066 72.1453 61.0853 70.8653 61.0853 70.364C61.1493 69.8093 61.4053 69.532 61.8533 69.532ZM60.8613 78.86H62.1413C64.0826 78.86 66.5573 78.8813 69.5653 78.924C69.8639 78.8813 70.1199 78.86 70.3333 78.86C70.7599 78.988 70.9733 79.2227 70.9733 79.564C70.8986 80.0333 70.6639 80.268 70.2693 80.268H60.3493C59.8373 80.2253 59.5813 79.9907 59.5813 79.564C59.5813 79.0947 60.0079 78.86 60.8613 78.86Z" fill="#D84E35"/>
</svg>
