<svg width="108" height="108" viewBox="0 0 108 108" fill="none" xmlns="http://www.w3.org/2000/svg">
<rect x="0.5" y="0.5" width="107" height="107" rx="15.5" fill="white"/>
<rect x="0.5" y="0.5" width="107" height="107" rx="15.5" stroke="#D84E35"/>
<path d="M38.769 54C38.0007 54 37.347 53.7307 36.808 53.192C36.2693 52.653 36 51.9993 36 51.231V28.769C36 28.0007 36.2693 27.347 36.808 26.808C37.347 26.2693 38.0007 26 38.769 26H69.231C69.9993 26 70.653 26.2693 71.192 26.808C71.7307 27.347 72 28.0007 72 28.769V51.231C72 51.9993 71.7307 52.653 71.192 53.192C70.653 53.7307 69.9993 54 69.231 54H38.769ZM54 39.7075L37.5385 28.7115V51.231C37.5385 51.5897 37.6538 51.8845 37.8845 52.1155C38.1155 52.3462 38.4103 52.4615 38.769 52.4615H69.231C69.5897 52.4615 69.8845 52.3462 70.1155 52.1155C70.3462 51.8845 70.4615 51.5897 70.4615 51.231V28.7115L54 39.7075ZM54 37.9385L69.7615 27.5385H38.2885L54 37.9385ZM37.5385 28.7115V27.5385V51.231C37.5385 51.5897 37.6538 51.8845 37.8845 52.1155C38.1155 52.3462 38.4103 52.4615 38.769 52.4615H37.5385V28.7115Z" fill="#D84E35"/>
<path d="M34.568 66.552H34.952C36.3813 66.552 38.28 66.5733 40.648 66.616C41.032 66.7653 41.224 66.9787 41.224 67.256V67.576C41 67.8747 40.808 68.024 40.648 68.024C40.36 67.9813 40.1253 67.96 39.944 67.96H39.624L39.688 68.088C39.7733 69.88 39.816 70.9787 39.816 71.384H39.88C40.168 71.3413 40.4027 71.32 40.584 71.32H40.968C41.3947 71.3733 41.608 71.5653 41.608 71.896V72.216C41.608 72.6427 40.328 72.856 37.768 72.856C36.232 72.8987 35.1227 72.92 34.44 72.92C34.0133 72.824 33.8 72.6107 33.8 72.28V72.216C33.8 71.7467 34.2053 71.512 35.016 71.512H35.464C35.4427 69.144 35.4 67.96 35.336 67.96C34.3973 67.96 33.928 67.7467 33.928 67.32V67.128C33.928 66.7973 34.1413 66.6053 34.568 66.552ZM36.808 67.96V69.848C36.808 70.2107 36.8293 70.744 36.872 71.448H38.472C38.4293 71.2027 38.3653 70.04 38.28 67.96H36.808ZM43.992 65.736C44.4187 65.9067 44.632 66.1413 44.632 66.44C44.632 66.568 44.6107 66.632 44.568 66.632C44.6107 67.336 44.632 67.8693 44.632 68.232V70.536C44.632 71.1547 44.6533 71.9867 44.696 73.032C44.5467 73.4587 44.2907 73.672 43.928 73.672C43.5973 73.672 43.384 73.3947 43.288 72.84V71.88H41.048L40.664 71.944C40.2373 71.8267 40.024 71.592 40.024 71.24C40.024 70.728 40.408 70.472 41.176 70.472H43.288V69.128H40.856C40.344 69.0853 40.088 68.872 40.088 68.488V68.36C40.088 68.0187 40.3227 67.8053 40.792 67.72H43.224V66.568C43.224 66.0133 43.48 65.736 43.992 65.736ZM36.808 74.088C37.32 74.088 37.576 75.048 37.576 76.968V77.672H40.968C41.736 77.672 42.7813 77.6507 44.104 77.608C44.5307 77.7253 44.744 77.9387 44.744 78.248V78.376C44.744 78.664 44.552 78.8773 44.168 79.016C42.3333 79.0587 40.9253 79.08 39.944 79.08H37C36.4453 79.08 36.168 78.632 36.168 77.736C36.168 76.456 36.1467 75.432 36.104 74.664C36.2427 74.28 36.4773 74.088 36.808 74.088ZM48.8429 67.08C49.1949 67.08 49.9842 67.1013 51.2109 67.144C51.7869 67.1013 52.2775 67.08 52.6829 67.08C53.2375 67.1867 53.5149 67.4213 53.5149 67.784C53.4295 68.2533 53.1949 68.488 52.8109 68.488H50.6349L50.5709 69.064C50.5709 71.1973 51.6162 73.16 53.7069 74.952C53.7069 75.0907 53.7282 75.1973 53.7709 75.272C53.6535 75.6987 53.4402 75.912 53.1309 75.912H53.0029C51.9469 75.496 50.9442 74.344 49.9949 72.456L49.0349 74.248C48.2455 75.4427 47.6055 76.04 47.1149 76.04H46.9229C46.5389 75.9867 46.3469 75.7947 46.3469 75.464V75.336C46.3469 75.1013 46.7309 74.696 47.4989 74.12C48.5655 72.6907 49.0989 70.8133 49.0989 68.488H47.9469C47.7122 68.488 47.4135 68.5093 47.0509 68.552C46.6242 68.4347 46.4109 68.2 46.4109 67.848C46.4109 67.336 46.9869 67.08 48.1389 67.08H48.8429ZM56.1389 65.448C56.5655 65.448 56.7789 65.9173 56.7789 66.856C56.8215 67.3893 56.8429 67.6667 56.8429 67.688C56.7575 70.3547 56.7149 72.1467 56.7149 73.064C56.7575 74.9307 56.8002 75.9547 56.8429 76.136C56.8002 76.296 56.7789 76.488 56.7789 76.712V76.84C56.7789 77.0213 56.8002 77.256 56.8429 77.544C56.8429 77.9067 56.5869 78.1413 56.0749 78.248C55.7229 78.248 55.5095 77.992 55.4349 77.48C55.4349 76.4667 55.3922 74.8453 55.3069 72.616C55.3922 70.408 55.4349 68.6587 55.4349 67.368C55.4349 67.2507 55.4135 66.824 55.3709 66.088C55.3709 65.736 55.6269 65.5227 56.1389 65.448ZM60.9366 67.08C61.2886 67.08 62.078 67.1013 63.3046 67.144C63.8806 67.1013 64.3713 67.08 64.7766 67.08C65.3313 67.1867 65.6086 67.4213 65.6086 67.784C65.5233 68.2533 65.2886 68.488 64.9046 68.488H62.7286L62.6646 69.064C62.6646 71.1973 63.71 73.16 65.8006 74.952C65.8006 75.0907 65.822 75.1973 65.8646 75.272C65.7473 75.6987 65.534 75.912 65.2246 75.912H65.0966C64.0406 75.496 63.038 74.344 62.0886 72.456L61.1286 74.248C60.3393 75.4427 59.6993 76.04 59.2086 76.04H59.0166C58.6326 75.9867 58.4406 75.7947 58.4406 75.464V75.336C58.4406 75.1013 58.8246 74.696 59.5926 74.12C60.6593 72.6907 61.1926 70.8133 61.1926 68.488H60.0406C59.806 68.488 59.5073 68.5093 59.1446 68.552C58.718 68.4347 58.5046 68.2 58.5046 67.848C58.5046 67.336 59.0806 67.08 60.2326 67.08H60.9366ZM68.2326 65.448C68.6593 65.448 68.8726 65.9173 68.8726 66.856C68.9153 67.3893 68.9366 67.6667 68.9366 67.688C68.8513 70.3547 68.8086 72.1467 68.8086 73.064C68.8513 74.9307 68.894 75.9547 68.9366 76.136C68.894 76.296 68.8726 76.488 68.8726 76.712V76.84C68.8726 77.0213 68.894 77.256 68.9366 77.544C68.9366 77.9067 68.6806 78.1413 68.1686 78.248C67.8166 78.248 67.6033 77.992 67.5286 77.48C67.5286 76.4667 67.486 74.8453 67.4006 72.616C67.486 70.408 67.5286 68.6587 67.5286 67.368C67.5286 67.2507 67.5073 66.824 67.4646 66.088C67.4646 65.736 67.7206 65.5227 68.2326 65.448Z" fill="#D84E35"/>
</svg>
