<svg width="80" height="79" viewBox="0 0 80 79" fill="none" xmlns="http://www.w3.org/2000/svg">
<path d="M39.9996 78.9132C61.6107 78.9132 79.13 61.3939 79.13 39.7828C79.13 18.1716 61.6107 0.652344 39.9996 0.652344C18.3884 0.652344 0.869141 18.1716 0.869141 39.7828C0.869141 61.3939 18.3884 78.9132 39.9996 78.9132Z" fill="#22A3BF"/>
<path d="M39.8438 52.435C37.7935 52.435 35.8604 53.1574 34.3569 54.368C33.4196 55.1296 32.1895 55.5787 30.8617 55.5787C27.2884 55.5787 24.6915 52.5521 25.6482 49.506C27.3861 44.0192 33.4001 40.7974 40.0195 40.7974C46.6389 40.7974 52.7701 44.4878 54.3907 49.506C55.367 52.5521 52.7505 55.5787 49.1773 55.5787C47.8495 55.5787 46.6193 55.1296 45.6821 54.368C44.1786 53.1379 42.2259 52.435 40.1952 52.435H39.8633H39.8438Z" fill="#F9F0ED" stroke="black" stroke-width="1.95652" stroke-miterlimit="10"/>
<path d="M48.6113 24.2598L56.8318 28.5555" stroke="black" stroke-width="1.95652" stroke-linecap="round" stroke-linejoin="round"/>
<path d="M31.409 24.2598L23.1689 28.5555" stroke="black" stroke-width="1.95652" stroke-linecap="round" stroke-linejoin="round"/>
<path d="M60.1113 34.5889C60.9314 35.2918 61.0095 36.522 60.99 37.5959C60.951 38.787 60.9119 40.1148 61.8296 40.9349C62.5716 41.6183 63.7432 41.6378 64.5438 41.0325C65.5006 40.2905 65.5591 39.0213 65.1491 37.9864C65.1491 37.9864 65.1491 37.9864 65.1491 37.9669C64.6609 36.6977 63.5479 35.7604 62.2592 35.3309L60.1113 34.5889Z" stroke="black" stroke-width="1.95652" stroke-linecap="round" stroke-linejoin="round"/>
<path d="M20.766 34.5889C19.9459 35.2918 19.8678 36.522 19.8873 37.5959C19.9264 38.787 19.9654 40.1148 19.0477 40.9349C18.3057 41.6183 17.1341 41.6378 16.3336 41.0325C15.3768 40.2905 15.3182 39.0213 15.7283 37.9864C15.7283 37.9864 15.7283 37.9864 15.7283 37.9669C16.2164 36.6977 17.3294 35.7604 18.6181 35.3309L20.766 34.5889Z" stroke="black" stroke-width="1.95652" stroke-linecap="round" stroke-linejoin="round"/>
</svg>
