<svg width="79" height="79" viewBox="0 0 79 79" fill="none" xmlns="http://www.w3.org/2000/svg">
<path d="M39.6959 78.9132C61.307 78.9132 78.8263 61.3939 78.8263 39.7828C78.8263 18.1716 61.307 0.652344 39.6959 0.652344C18.0847 0.652344 0.56543 18.1716 0.56543 39.7828C0.56543 61.3939 18.0847 78.9132 39.6959 78.9132Z" fill="#DB8A24"/>
<path d="M55.2195 28.8091C55.2195 30.8203 53.5597 32.8315 51.0018 32.8315C48.4439 32.8315 46.7842 30.8203 46.7842 28.8091" stroke="black" stroke-width="1.95652" stroke-miterlimit="10" stroke-linecap="round"/>
<path d="M32.6091 28.8091C32.6091 30.8203 30.9494 32.8315 28.3915 32.8315C25.8336 32.8315 24.1738 30.8203 24.1738 28.8091" stroke="black" stroke-width="1.95652" stroke-miterlimit="10" stroke-linecap="round"/>
<path d="M21.4971 42.3213C21.4971 50.9323 28.6241 57.9032 39.6955 57.9032C50.7668 57.9032 57.1519 51.44 57.8939 42.3213" stroke="black" stroke-width="1.95652" stroke-linecap="round" stroke-linejoin="round"/>
</svg>
