<svg width="40" height="40" viewBox="0 0 40 40" fill="none" xmlns="http://www.w3.org/2000/svg">
<path d="M20 40C31.0457 40 40 31.0457 40 20C40 8.9543 31.0457 0 20 0C8.95431 0 0 8.9543 0 20C0 31.0457 8.95431 40 20 40Z" fill="#D9D9D9"/>
<path d="M19.9202 26.4667C18.8723 26.4667 17.8843 26.8359 17.1158 27.4547C16.6368 27.8439 16.008 28.0734 15.3294 28.0734C13.503 28.0734 12.1757 26.5265 12.6647 24.9697C13.5529 22.1653 16.6268 20.5186 20.01 20.5186C23.3933 20.5186 26.527 22.4048 27.3553 24.9697C27.8543 26.5265 26.517 28.0734 24.6907 28.0734C24.012 28.0734 23.3833 27.8439 22.9042 27.4547C22.1358 26.8259 21.1378 26.4667 20.0998 26.4667H19.9302H19.9202Z" fill="#A6A6A6"/>
<path d="M24.4014 12.0657L28.603 14.2613" stroke="#A6A6A6" stroke-linecap="round" stroke-linejoin="round"/>
<path d="M15.609 12.0657L11.3975 14.2613" stroke="#A6A6A6" stroke-linecap="round" stroke-linejoin="round"/>
<path d="M30.2793 17.3452C30.6985 17.7045 30.7384 18.3332 30.7284 18.8821C30.7084 19.4909 30.6885 20.1696 31.1575 20.5887C31.5368 20.938 32.1356 20.948 32.5448 20.6386C33.0338 20.2594 33.0637 19.6107 32.8541 19.0817C32.8541 19.0817 32.8541 19.0817 32.8541 19.0718C32.6046 18.4231 32.0358 17.944 31.3771 17.7245L30.2793 17.3452Z" fill="#A6A6A6"/>
<path d="M10.1697 17.3452C9.75052 17.7045 9.7106 18.3332 9.72058 18.8821C9.74054 19.4909 9.7605 20.1696 9.29144 20.5887C8.9122 20.938 8.3134 20.948 7.90421 20.6386C7.41519 20.2594 7.38525 19.6107 7.59483 19.0817C7.59483 19.0817 7.59483 19.0817 7.59483 19.0718C7.84434 18.4231 8.41319 17.944 9.07188 17.7245L10.1697 17.3452Z" fill="#A6A6A6"/>
</svg>
