<svg width="79" height="79" viewBox="0 0 79 79" fill="none" xmlns="http://www.w3.org/2000/svg">
<path d="M39.1305 78.9132C60.7416 78.9132 78.2609 61.3939 78.2609 39.7828C78.2609 18.1716 60.7416 0.652344 39.1305 0.652344C17.5193 0.652344 0 18.1716 0 39.7828C0 61.3939 17.5193 78.9132 39.1305 78.9132Z" fill="#F5AD16"/>
<path d="M28.3522 55.0321C25.599 55.0321 23.373 52.8061 23.373 50.0529C23.373 47.2997 25.599 45.0151 28.3522 45.0151H49.9286C52.6818 45.0151 54.9078 47.2411 54.9078 49.9943C54.9078 52.7475 52.6818 55.0321 49.9286 55.0321H28.3522Z" fill="white"/>
<path d="M49.9098 45.9912C52.1163 45.9912 53.9127 47.7876 53.9127 50.0526C53.9127 52.3177 52.1163 54.0555 49.9098 54.0555H28.3334C26.127 54.0555 24.3305 52.2591 24.3305 49.9941C24.3305 47.729 26.127 45.9912 28.3334 45.9912H49.9098ZM49.9098 44.0386H28.3334C25.053 44.0386 22.3779 46.7137 22.3779 49.9941V50.0526C22.3779 53.333 25.053 56.0081 28.3334 56.0081H49.9098C53.1902 56.0081 55.8653 53.333 55.8653 50.0526V49.9941C55.8653 46.6941 53.1902 44.0386 49.9098 44.0386Z" fill="black"/>
<path d="M42.3916 44.5669V56.0092" stroke="black" stroke-width="1.95652" stroke-miterlimit="10"/>
<path d="M48.8936 44.5669V56.0092" stroke="black" stroke-width="1.95652" stroke-miterlimit="10"/>
<path d="M35.8896 44.5669V56.0092" stroke="black" stroke-width="1.95652" stroke-miterlimit="10"/>
<path d="M29.3672 44.5669V56.0092" stroke="black" stroke-width="1.95652" stroke-miterlimit="10"/>
<path opacity="0.22" d="M26.3593 36.1902C28.6239 36.1902 30.4598 34.3544 30.4598 32.0897C30.4598 29.8251 28.6239 27.9893 26.3593 27.9893C24.0946 27.9893 22.2588 29.8251 22.2588 32.0897C22.2588 34.3544 24.0946 36.1902 26.3593 36.1902Z" fill="black"/>
<path opacity="0.22" d="M51.8026 36.3861C54.0673 36.3861 55.9031 34.5502 55.9031 32.2856C55.9031 30.0209 54.0673 28.1851 51.8026 28.1851C49.538 28.1851 47.7021 30.0209 47.7021 32.2856C47.7021 34.5502 49.538 36.3861 51.8026 36.3861Z" fill="black"/>
<path d="M26.3593 33.0452C28.6239 33.0452 30.4598 31.2094 30.4598 28.9447C30.4598 26.6801 28.6239 24.8442 26.3593 24.8442C24.0946 24.8442 22.2588 26.6801 22.2588 28.9447C22.2588 31.2094 24.0946 33.0452 26.3593 33.0452Z" fill="black"/>
<path d="M51.8026 33.242C54.0673 33.242 55.9031 31.4062 55.9031 29.1415C55.9031 26.8769 54.0673 25.041 51.8026 25.041C49.538 25.041 47.7021 26.8769 47.7021 29.1415C47.7021 31.4062 49.538 33.242 51.8026 33.242Z" fill="black"/>
</svg>
