<svg width="40" height="40" viewBox="0 0 40 40" fill="none" xmlns="http://www.w3.org/2000/svg">
<path d="M20 40C31.0457 40 40 31.0457 40 20C40 8.9543 31.0457 0 20 0C8.95431 0 0 8.9543 0 20C0 31.0457 8.95431 40 20 40Z" fill="#D9D9D9"/>
<path d="M14.4912 27.7941C13.084 27.7941 11.9463 26.6564 11.9463 25.2492C11.9463 23.842 13.084 22.6743 14.4912 22.6743H25.5191C26.9263 22.6743 28.0641 23.812 28.0641 25.2192C28.0641 26.6264 26.9263 27.7941 25.5191 27.7941H14.4912Z" fill="white"/>
<path d="M25.5089 23.1733C26.6366 23.1733 27.5548 24.0915 27.5548 25.2491C27.5548 26.4068 26.6366 27.2951 25.5089 27.2951H14.4809C13.3532 27.2951 12.435 26.3769 12.435 25.2192C12.435 24.0615 13.3532 23.1733 14.4809 23.1733H25.5089ZM25.5089 22.1753H14.4809C12.8043 22.1753 11.437 23.5426 11.437 25.2192V25.2491C11.437 26.9258 12.8043 28.2931 14.4809 28.2931H25.5089C27.1855 28.2931 28.5528 26.9258 28.5528 25.2491V25.2192C28.5528 23.5326 27.1855 22.1753 25.5089 22.1753Z" fill="#A6A6A6"/>
<path d="M21.6665 22.4453V28.2936" stroke="#A6A6A6" stroke-miterlimit="10"/>
<path d="M24.9902 22.4453V28.2936" stroke="#A6A6A6" stroke-miterlimit="10"/>
<path d="M18.3433 22.4453V28.2936" stroke="#A6A6A6" stroke-miterlimit="10"/>
<path d="M15.0103 22.4453V28.2936" stroke="#A6A6A6" stroke-miterlimit="10"/>
<path opacity="0.22" d="M13.4732 18.1638C14.6307 18.1638 15.5691 17.2255 15.5691 16.068C15.5691 14.9105 14.6307 13.9722 13.4732 13.9722C12.3158 13.9722 11.3774 14.9105 11.3774 16.068C11.3774 17.2255 12.3158 18.1638 13.4732 18.1638Z" fill="#A6A6A6"/>
<path opacity="0.22" d="M26.4771 18.2641C27.6346 18.2641 28.573 17.3258 28.573 16.1683C28.573 15.0108 27.6346 14.0725 26.4771 14.0725C25.3197 14.0725 24.3813 15.0108 24.3813 16.1683C24.3813 17.3258 25.3197 18.2641 26.4771 18.2641Z" fill="#A6A6A6"/>
<path d="M13.4732 16.5566C14.6307 16.5566 15.5691 15.6183 15.5691 14.4608C15.5691 13.3033 14.6307 12.365 13.4732 12.365C12.3158 12.365 11.3774 13.3033 11.3774 14.4608C11.3774 15.6183 12.3158 16.5566 13.4732 16.5566Z" fill="#A6A6A6"/>
<path d="M26.4771 16.6569C27.6346 16.6569 28.573 15.7186 28.573 14.5611C28.573 13.4037 27.6346 12.4653 26.4771 12.4653C25.3197 12.4653 24.3813 13.4037 24.3813 14.5611C24.3813 15.7186 25.3197 16.6569 26.4771 16.6569Z" fill="#A6A6A6"/>
</svg>
