<svg width="79" height="79" viewBox="0 0 79 79" fill="none" xmlns="http://www.w3.org/2000/svg">
<path d="M39.565 78.9132C61.1761 78.9132 78.6954 61.3939 78.6954 39.7828C78.6954 18.1716 61.1761 0.652344 39.565 0.652344C17.9538 0.652344 0.43457 18.1716 0.43457 39.7828C0.43457 61.3939 17.9538 78.9132 39.565 78.9132Z" fill="#B482D3"/>
<path d="M26.8534 38.5335C29.1181 38.5335 30.9539 36.6977 30.9539 34.433C30.9539 32.1684 29.1181 30.3325 26.8534 30.3325C24.5888 30.3325 22.7529 32.1684 22.7529 34.433C22.7529 36.6977 24.5888 38.5335 26.8534 38.5335Z" fill="black"/>
<path d="M28.9427 25.4507L22.499 28.7897" stroke="black" stroke-width="1.95652" stroke-linecap="round" stroke-linejoin="round"/>
<path d="M51.9062 38.7274C54.1708 38.7274 56.0066 36.8915 56.0066 34.6269C56.0066 32.3622 54.1708 30.5264 51.9062 30.5264C49.6415 30.5264 47.8057 32.3622 47.8057 34.6269C47.8057 36.8915 49.6415 38.7274 51.9062 38.7274Z" fill="black"/>
<path d="M49.8154 25.646L56.2396 28.985" stroke="black" stroke-width="1.95652" stroke-linecap="round" stroke-linejoin="round"/>
<path d="M26.6777 54.1741C28.8256 51.8505 31.6569 49.8393 39.3893 49.7612C47.0045 49.6831 49.992 51.9872 52.1008 54.1741" stroke="black" stroke-width="1.95652" stroke-linecap="round" stroke-linejoin="round"/>
</svg>
