<svg width="79" height="79" viewBox="0 0 79 79" fill="none" xmlns="http://www.w3.org/2000/svg">
<path d="M39.3912 78.9132C61.0023 78.9132 78.5216 61.3939 78.5216 39.7828C78.5216 18.1716 61.0023 0.652344 39.3912 0.652344C17.78 0.652344 0.260742 18.1716 0.260742 39.7828C0.260742 61.3939 17.78 78.9132 39.3912 78.9132Z" fill="#74C76C"/>
<path d="M39.7811 47.729C42.1828 47.729 44.4479 46.8894 46.2247 45.4445C47.3182 44.5658 48.7631 44.0386 50.3252 44.0386C54.5038 44.0386 57.5694 47.5923 56.4369 51.1656C54.3867 57.6093 47.3573 61.3778 39.6054 61.3778C31.8535 61.3778 24.6483 57.043 22.7738 51.1656C21.6218 47.5923 24.6874 44.0386 28.8855 44.0386C30.4476 44.0386 31.8925 44.5658 32.986 45.4445C34.7629 46.8699 37.0279 47.729 39.4296 47.729H39.8202H39.7811Z" fill="#F9F0ED" stroke="black" stroke-width="1.95652" stroke-miterlimit="10"/>
<path d="M22.6768 30.8993C22.6768 30.8993 23.1454 27.3261 27.1678 26.3302C29.3157 25.803 31.4831 26.4669 33.2795 28.2828" stroke="black" stroke-width="1.95652" stroke-linecap="round" stroke-linejoin="round"/>
<path d="M56.7687 30.8993C56.7687 30.8993 56.3001 27.3261 52.2777 26.3302C50.1298 25.803 47.9624 26.4669 46.166 28.2828" stroke="black" stroke-width="1.95652" stroke-linecap="round" stroke-linejoin="round"/>
</svg>
