<svg width="79" height="79" viewBox="0 0 79 79" fill="none" xmlns="http://www.w3.org/2000/svg">
<path d="M39.4351 78.9132C61.0463 78.9132 78.5656 61.3939 78.5656 39.7828C78.5656 18.1716 61.0463 0.652344 39.4351 0.652344C17.824 0.652344 0.304688 18.1716 0.304688 39.7828C0.304688 61.3939 17.824 78.9132 39.4351 78.9132Z" fill="#F48276"/>
<path d="M23.7158 52.3187C24.0478 49.8779 26.1566 48.0034 28.6755 48.0034H50.1933C52.7122 48.0034 54.821 49.8779 55.1529 52.3187H23.7158Z" fill="white"/>
<path d="M50.194 48.9795C51.8147 48.9795 53.2206 49.9558 53.8649 51.3421H25.0053C25.6496 49.9558 27.0555 48.9795 28.6762 48.9795H50.194ZM50.194 47.0269H28.6762C25.3763 47.0269 22.7012 49.7019 22.7012 53.0019C22.7012 53.0995 22.7012 53.1971 22.7012 53.2948H56.169C56.169 53.2948 56.169 53.0995 56.169 53.0019C56.169 49.7019 53.4939 47.0269 50.194 47.0269Z" fill="black"/>
<path d="M42.6758 47.5552V53.2959" stroke="black" stroke-width="1.95652" stroke-miterlimit="10"/>
<path d="M49.1982 47.5552V53.2959" stroke="black" stroke-width="1.95652" stroke-miterlimit="10"/>
<path d="M36.1738 47.5552V53.2959" stroke="black" stroke-width="1.95652" stroke-miterlimit="10"/>
<path d="M29.6719 47.5552V53.2959" stroke="black" stroke-width="1.95652" stroke-miterlimit="10"/>
<path d="M27.8944 36.1902C30.1591 36.1902 31.9949 34.3544 31.9949 32.0897C31.9949 29.8251 30.1591 27.9893 27.8944 27.9893C25.6298 27.9893 23.7939 29.8251 23.7939 32.0897C23.7939 34.3544 25.6298 36.1902 27.8944 36.1902Z" fill="black"/>
<path d="M51.7558 35.6048C54.0204 35.6048 55.8563 33.7689 55.8563 31.5043C55.8563 29.2397 54.0204 27.4038 51.7558 27.4038C49.4911 27.4038 47.6553 29.2397 47.6553 31.5043C47.6553 33.7689 49.4911 35.6048 51.7558 35.6048Z" fill="black"/>
<path d="M24.5566 22.6978L30.5121 26.8373" stroke="black" stroke-width="1.95652" stroke-linecap="round" stroke-linejoin="round"/>
<path d="M55.1537 22.3066L49.2178 26.4462" stroke="black" stroke-width="1.95652" stroke-linecap="round" stroke-linejoin="round"/>
<path d="M34.0068 55.9507H44.8634" stroke="black" stroke-width="1.95652" stroke-linecap="round" stroke-linejoin="round"/>
</svg>
