<svg width="40" height="40" viewBox="0 0 40 40" fill="none" xmlns="http://www.w3.org/2000/svg">
<path d="M20 40C31.0457 40 40 31.0457 40 20C40 8.95431 31.0457 0 20 0C8.9543 0 0 8.95431 0 20C0 31.0457 8.9543 40 20 40Z" fill="#D9D9D9"/>
<path d="M20.1994 24.0615C21.427 24.0615 22.5847 23.6324 23.4928 22.8939C24.0517 22.4448 24.7902 22.1753 25.5887 22.1753C27.7244 22.1753 29.2912 23.9917 28.7124 25.818C27.6645 29.1114 24.0717 31.0376 20.1096 31.0376C16.1475 31.0376 12.4649 28.822 11.5068 25.818C10.918 23.9917 12.4849 22.1753 14.6306 22.1753C15.429 22.1753 16.1675 22.4448 16.7264 22.8939C17.6346 23.6224 18.7922 24.0615 20.0198 24.0615H20.2194H20.1994Z" fill="#A6A6A6"/>
<path d="M11.457 15.4594C11.457 15.4594 11.6966 13.6331 13.7524 13.1241C14.8502 12.8546 15.958 13.194 16.8762 14.1221" stroke="#A6A6A6" stroke-linecap="round" stroke-linejoin="round"/>
<path d="M28.8821 15.4594C28.8821 15.4594 28.6425 13.6331 26.5866 13.1241C25.4888 12.8546 24.3811 13.194 23.4629 14.1221" stroke="#A6A6A6" stroke-linecap="round" stroke-linejoin="round"/>
</svg>
