<svg width="40" height="40" viewBox="0 0 40 40" fill="none" xmlns="http://www.w3.org/2000/svg">
<path d="M20 40C31.0457 40 40 31.0457 40 20C40 8.95431 31.0457 0 20 0C8.95431 0 0 8.95431 0 20C0 31.0457 8.95431 40 20 40Z" fill="#D9D9D9"/>
<path d="M13.503 18.3537C14.6605 18.3537 15.5988 17.4154 15.5988 16.2579C15.5988 15.1004 14.6605 14.1621 13.503 14.1621C12.3455 14.1621 11.4072 15.1004 11.4072 16.2579C11.4072 17.4154 12.3455 18.3537 13.503 18.3537Z" fill="#A6A6A6"/>
<path d="M26.3072 18.4531C27.4647 18.4531 28.4031 17.5148 28.4031 16.3573C28.4031 15.1998 27.4647 14.2615 26.3072 14.2615C25.1498 14.2615 24.2114 15.1998 24.2114 16.3573C24.2114 17.5148 25.1498 18.4531 26.3072 18.4531Z" fill="#A6A6A6"/>
<path d="M24.3215 26.637C24.3215 24.4713 22.3953 25.0801 20.0101 25.0801C17.6249 25.0801 15.6987 24.4614 15.6987 26.637C15.6987 28.8127 17.6249 30.2598 20.0101 30.2598C22.3953 30.2598 24.3215 28.8027 24.3215 26.637Z" fill="#A6A6A6"/>
<path d="M12.6948 14.4409C12.7746 15.0397 13.2537 15.5188 13.8525 15.5986C13.2537 15.6784 12.7746 16.1575 12.6948 16.7563C12.615 16.1575 12.1359 15.6784 11.5371 15.5986C12.1359 15.5188 12.615 15.0397 12.6948 14.4409Z" fill="#D9D9D9"/>
<path d="M25.6889 14.4409C25.7688 15.0397 26.2478 15.5188 26.8466 15.5986C26.2478 15.6784 25.7688 16.1575 25.6889 16.7563C25.6091 16.1575 25.1301 15.6784 24.5312 15.5986C25.1301 15.5188 25.6091 15.0397 25.6889 14.4409Z" fill="#D9D9D9"/>
</svg>
