<svg width="40" height="40" viewBox="0 0 40 40" fill="none" xmlns="http://www.w3.org/2000/svg">
<path d="M20 40C31.0457 40 40 31.0457 40 20C40 8.95431 31.0457 0 20 0C8.95431 0 0 8.95431 0 20C0 31.0457 8.95431 40 20 40Z" fill="#D9D9D9"/>
<path d="M11.9658 26.4072C12.1355 25.1597 13.2133 24.2017 14.5008 24.2017H25.4988C26.7862 24.2017 27.864 25.1597 28.0337 26.4072H11.9658Z" fill="white"/>
<path d="M25.4992 24.7006C26.3275 24.7006 27.0461 25.1996 27.3754 25.9082H12.6249C12.9543 25.1996 13.6728 24.7006 14.5012 24.7006H25.4992ZM25.4992 23.7026H14.5012C12.8145 23.7026 11.4473 25.0699 11.4473 26.7565C11.4473 26.8064 11.4473 26.8563 11.4473 26.9062H28.5531C28.5531 26.9062 28.5531 26.8064 28.5531 26.7565C28.5531 25.0699 27.1858 23.7026 25.4992 23.7026Z" fill="#A6A6A6"/>
<path d="M21.6567 23.9727V26.9068" stroke="#A6A6A6" stroke-miterlimit="10"/>
<path d="M24.9902 23.9727V26.9068" stroke="#A6A6A6" stroke-miterlimit="10"/>
<path d="M18.3335 23.9727V26.9068" stroke="#A6A6A6" stroke-miterlimit="10"/>
<path d="M15.0103 23.9727V26.9068" stroke="#A6A6A6" stroke-miterlimit="10"/>
<path d="M14.1017 18.1638C15.2592 18.1638 16.1975 17.2255 16.1975 16.068C16.1975 14.9105 15.2592 13.9722 14.1017 13.9722C12.9442 13.9722 12.0059 14.9105 12.0059 16.068C12.0059 17.2255 12.9442 18.1638 14.1017 18.1638Z" fill="#A6A6A6"/>
<path d="M26.2975 17.8645C27.455 17.8645 28.3933 16.9261 28.3933 15.7687C28.3933 14.6112 27.455 13.6729 26.2975 13.6729C25.14 13.6729 24.2017 14.6112 24.2017 15.7687C24.2017 16.9261 25.14 17.8645 26.2975 17.8645Z" fill="#A6A6A6"/>
<path d="M12.395 11.2676L15.4389 13.3833" stroke="#A6A6A6" stroke-linecap="round" stroke-linejoin="round"/>
<path d="M28.0339 11.0676L25 13.1834" stroke="#A6A6A6" stroke-linecap="round" stroke-linejoin="round"/>
<path d="M17.2256 28.2637H22.7745" stroke="#A6A6A6" stroke-linecap="round" stroke-linejoin="round"/>
</svg>
