<svg width="79" height="79" viewBox="0 0 79 79" fill="none" xmlns="http://www.w3.org/2000/svg">
<path d="M39.2603 78.9132C60.8715 78.9132 78.3908 61.3939 78.3908 39.7828C78.3908 18.1716 60.8715 0.652344 39.2603 0.652344C17.6492 0.652344 0.129883 18.1716 0.129883 39.7828C0.129883 61.3939 17.6492 78.9132 39.2603 78.9132Z" fill="#D78C89"/>
<path d="M26.5487 36.5618C28.8134 36.5618 30.6492 34.726 30.6492 32.4613C30.6492 30.1967 28.8134 28.3608 26.5487 28.3608C24.2841 28.3608 22.4482 30.1967 22.4482 32.4613C22.4482 34.726 24.2841 36.5618 26.5487 36.5618Z" fill="black"/>
<path d="M51.6015 36.7567C53.8661 36.7567 55.702 34.9208 55.702 32.6562C55.702 30.3915 53.8661 28.5557 51.6015 28.5557C49.3368 28.5557 47.501 30.3915 47.501 32.6562C47.501 34.9208 49.3368 36.7567 51.6015 36.7567Z" fill="black"/>
<path d="M47.7144 52.7687C47.7144 48.5315 43.9458 49.7226 39.2791 49.7226C34.6123 49.7226 30.8438 48.512 30.8438 52.7687C30.8438 57.0254 34.6123 59.8567 39.2791 59.8567C43.9458 59.8567 47.7144 57.0059 47.7144 52.7687Z" fill="#F9F0ED" stroke="black" stroke-width="1.95652" stroke-miterlimit="10"/>
<path d="M24.9672 28.9062C25.1234 30.0778 26.0607 31.0151 27.2322 31.1713C26.0607 31.3275 25.1234 32.2648 24.9672 33.4363C24.811 32.2648 23.8737 31.3275 22.7021 31.1713C23.8737 31.0151 24.811 30.0778 24.9672 28.9062Z" fill="#F9F0ED"/>
<path d="M50.391 28.9062C50.5472 30.0778 51.4845 31.0151 52.6561 31.1713C51.4845 31.3275 50.5472 32.2648 50.391 33.4363C50.2348 32.2648 49.2975 31.3275 48.126 31.1713C49.2975 31.0151 50.2348 30.0778 50.391 28.9062Z" fill="#F9F0ED"/>
</svg>
