<svg width="40" height="40" viewBox="0 0 40 40" fill="none" xmlns="http://www.w3.org/2000/svg">
<path d="M20 40C31.0457 40 40 31.0457 40 20C40 8.95431 31.0457 0 20 0C8.9543 0 0 8.95431 0 20C0 31.0457 8.9543 40 20 40Z" fill="#D9D9D9"/>
<path d="M27.9339 14.3911C27.9339 15.4191 27.0856 16.447 25.7782 16.447C24.4709 16.447 23.6226 15.4191 23.6226 14.3911" stroke="#A6A6A6" stroke-miterlimit="10" stroke-linecap="round"/>
<path d="M16.3773 14.3911C16.3773 15.4191 15.529 16.447 14.2216 16.447C12.9142 16.447 12.0659 15.4191 12.0659 14.3911" stroke="#A6A6A6" stroke-miterlimit="10" stroke-linecap="round"/>
<path d="M10.6987 21.2974C10.6987 25.6986 14.3415 29.2614 20.0001 29.2614C25.6588 29.2614 28.9223 25.958 29.3015 21.2974" stroke="#A6A6A6" stroke-linecap="round" stroke-linejoin="round"/>
</svg>
