<svg width="40" height="40" viewBox="0 0 40 40" fill="none" xmlns="http://www.w3.org/2000/svg">
<path d="M20 40C31.0457 40 40 31.0457 40 20C40 8.9543 31.0457 0 20 0C8.9543 0 0 8.9543 0 20C0 31.0457 8.9543 40 20 40Z" fill="#D9D9D9"/>
<path d="M13.503 19.3615C14.6605 19.3615 15.5988 18.4232 15.5988 17.2657C15.5988 16.1082 14.6605 15.1699 13.503 15.1699C12.3456 15.1699 11.4072 16.1082 11.4072 17.2657C11.4072 18.4232 12.3456 19.3615 13.503 19.3615Z" fill="#A6A6A6"/>
<path d="M14.5708 12.6748L11.2773 14.3814" stroke="#A6A6A6" stroke-linecap="round" stroke-linejoin="round"/>
<path d="M26.3072 19.4609C27.4647 19.4609 28.403 18.5226 28.403 17.3651C28.403 16.2076 27.4647 15.2693 26.3072 15.2693C25.1498 15.2693 24.2114 16.2076 24.2114 17.3651C24.2114 18.5226 25.1498 19.4609 26.3072 19.4609Z" fill="#A6A6A6"/>
<path d="M25.2397 12.7742L28.5232 14.4808" stroke="#A6A6A6" stroke-linecap="round" stroke-linejoin="round"/>
<path d="M13.4136 27.3556C14.5114 26.168 15.9585 25.14 19.9106 25.1001C23.8028 25.0602 25.3297 26.2378 26.4076 27.3556" stroke="#A6A6A6" stroke-linecap="round" stroke-linejoin="round"/>
</svg>
