<svg width="44" height="44" viewBox="0 0 44 44" fill="none" xmlns="http://www.w3.org/2000/svg">
<mask id="mask0_2566_16225" style="mask-type:alpha" maskUnits="userSpaceOnUse" x="10" y="10" width="24" height="24">
<rect x="10" y="10" width="24" height="24" fill="#D9D9D9"/>
</mask>
<g mask="url(#mask0_2566_16225)">
<path d="M26.9805 27.9999H30.942C31.1549 27.9999 31.3331 28.0717 31.4768 28.2154C31.6203 28.3589 31.692 28.5371 31.692 28.7499C31.692 28.9627 31.6203 29.1409 31.4768 29.2844C31.3331 29.4281 31.1549 29.4999 30.942 29.4999H25.4805L26.9805 27.9999ZM15.0305 29.4999C14.91 29.4999 14.7953 29.4781 14.6863 29.4344C14.5773 29.3909 14.476 29.3223 14.3825 29.2287L12.8845 27.7307C12.5332 27.3793 12.3533 26.9524 12.345 26.4499C12.3367 25.9474 12.5082 25.5122 12.8595 25.1442L23.4363 14.1672C23.7876 13.7993 24.2119 13.617 24.7093 13.6202C25.2068 13.6233 25.6312 13.8006 25.9825 14.1519L30.515 18.6847C30.8664 19.0358 31.0436 19.4643 31.0468 19.9702C31.0499 20.4758 30.8759 20.9043 30.5248 21.2557L22.7518 29.2287C22.6581 29.3223 22.5552 29.3909 22.443 29.4344C22.3309 29.4781 22.2145 29.4999 22.094 29.4999H15.0305ZM21.842 27.9999L29.4708 20.1712C29.5221 20.1198 29.5478 20.0461 29.5478 19.9499C29.5478 19.8537 29.5221 19.78 29.4708 19.7287L24.9535 15.2114C24.9024 15.1602 24.8303 15.1347 24.7373 15.1347C24.6443 15.1347 24.5721 15.1635 24.5208 15.2212L13.9133 26.1787C13.8619 26.2363 13.8363 26.3117 13.8363 26.4047C13.8363 26.4977 13.8619 26.5698 13.9133 26.6212L15.292 27.9999H21.842Z" fill="#020B0D"/>
</g>
</svg>
