<svg width="22" height="20" viewBox="0 0 22 20" fill="none" xmlns="http://www.w3.org/2000/svg">
<g id="facial_expressions">
<path id="face" d="M10.9999 20C6.00888 20 0.624268 16.8694 0.624268 10C0.624268 3.13059 6.00888 0 10.9999 0C13.7727 0 16.3309 0.912343 18.2271 2.57603C20.2844 4.40072 21.3756 6.97674 21.3756 10C21.3756 13.0233 20.2844 15.5814 18.2271 17.4061C16.3309 19.0698 13.7549 20 10.9999 20Z" fill="url(#paint0_radial_2352_21181)"/>
<path id="mouth" d="M10.8932 15.1361C9.27069 15.1486 7.72149 14.467 6.63562 13.2613C6.55333 13.1665 6.53366 13.0323 6.58553 12.9178C6.63741 12.8015 6.7519 12.7264 6.87892 12.7246C6.93616 12.7246 6.99341 12.7407 7.0435 12.7693C7.90575 13.2649 9.34761 13.8802 10.8932 13.8802H10.9183C12.4621 13.8802 13.9058 13.2649 14.7662 12.7693C14.8163 12.7407 14.8735 12.7246 14.9308 12.7246C15.0578 12.7264 15.1723 12.8015 15.2242 12.9178C15.2778 13.0323 15.2582 13.1665 15.1741 13.2613C14.0882 14.467 12.5354 15.1504 10.9129 15.1361" fill="#422B0D"/>
<path id="Vector" d="M7.49363 6.07178C6.74407 6.07178 6.0625 6.70505 6.0625 7.75693C6.0625 8.80881 6.74407 9.44029 7.49363 9.44029C8.24497 9.44029 8.92475 8.80702 8.92475 7.75693C8.92475 6.70684 8.25212 6.07178 7.49363 6.07178Z" fill="#422B0D"/>
<g id="peepers">
<path id="Vector_2" d="M7.43171 6.77474C7.17768 6.6531 6.87178 6.76043 6.74834 7.01446C6.65353 7.21302 6.69647 7.45095 6.85568 7.6048C7.1097 7.72644 7.41561 7.61911 7.53904 7.36508C7.63385 7.16651 7.59092 6.92859 7.43171 6.77474Z" fill="#896024"/>
</g>
<path id="Vector_3" d="M14.3637 6.07178C13.6142 6.07178 12.9326 6.70505 12.9326 7.75693C12.9326 8.80881 13.6142 9.44029 14.3637 9.44029C15.1133 9.44029 15.7949 8.80702 15.7949 7.75693C15.7949 6.70684 15.1133 6.07178 14.3637 6.07178Z" fill="#422B0D"/>
<g id="peepers-2">
<path id="Vector_4" d="M14.293 6.77474C14.039 6.6531 13.7331 6.76043 13.6097 7.01446C13.5149 7.21302 13.5578 7.45095 13.717 7.6048C13.971 7.72644 14.2769 7.61911 14.4004 7.36508C14.4952 7.16651 14.4522 6.92859 14.293 6.77474Z" fill="#896024"/>
</g>
<path id="Vector_5" d="M6.24108 17.4418C5.07829 17.4418 4.18384 16.3147 4.18384 15.3487C4.18384 14.6689 4.48795 13.8818 4.91729 12.7906C4.97096 12.6296 5.04251 12.4686 5.11407 12.2897C5.36452 11.6421 5.65074 11.0088 5.97275 10.3935C6.03715 10.27 6.18384 10.2163 6.31264 10.2682C6.36631 10.2951 6.41103 10.3398 6.43786 10.3935C6.7062 10.948 7.01031 11.6278 7.31443 12.3255C8.06577 14.007 8.28044 14.6868 8.28044 15.3666C8.29833 16.3147 7.38598 17.4418 6.24108 17.4418Z" fill="url(#paint1_radial_2352_21181)"/>
<path id="Vector_6" d="M7.49369 16.152C7.23072 16.5581 6.63501 16.4812 6.63501 15.8068C6.63501 15.3756 6.72267 13.161 7.09297 13.4705C7.7012 13.9749 7.87293 15.5778 7.49369 16.152Z" fill="#81D4FA"/>
<path id="Vector_7" d="M19.567 4.05566C20.5205 5.59413 21.0178 7.42597 21.0178 9.46354C21.0178 12.4868 19.9266 15.0449 17.8693 16.8696C15.9731 18.5333 13.3971 19.4635 10.6422 19.4635C7.41139 19.4635 4.02319 18.1487 2.02319 15.3598C3.94806 18.519 7.56881 20.0002 10.9999 20.0002C13.7549 20.0002 16.3309 19.07 18.2271 17.4063C20.2844 15.5816 21.3756 13.0235 21.3756 10.0002C21.3756 7.72114 20.7549 5.69609 19.567 4.05566Z" fill="#EB8F00"/>
</g>
<defs>
<radialGradient id="paint0_radial_2352_21181" cx="0" cy="0" r="1" gradientUnits="userSpaceOnUse" gradientTransform="translate(10.9999 10) scale(10.1896)">
<stop offset="0.5" stop-color="#FDE030"/>
<stop offset="0.92" stop-color="#F7C02B"/>
<stop offset="1" stop-color="#F4A223"/>
</radialGradient>
<radialGradient id="paint1_radial_2352_21181" cx="0" cy="0" r="1" gradientUnits="userSpaceOnUse" gradientTransform="translate(6.38777 11.1626) scale(4.7263 7.2785)">
<stop offset="0.46" stop-color="#29B6F6"/>
<stop offset="1" stop-color="#1E88E5"/>
</radialGradient>
</defs>
</svg>
