<svg width="18" height="19" viewBox="0 0 18 19" fill="none" xmlns="http://www.w3.org/2000/svg">
<path d="M7.36835 13.9357H11.0066M12.9215 16.25H5.45346C5.03043 16.25 4.6875 15.9046 4.6875 15.4786V13.4178C4.6875 13.2531 4.73982 13.0928 4.83682 12.9602L7.03356 9.95761C7.23265 9.68548 7.23265 9.31452 7.03356 9.04239L4.83682 6.03981C4.73982 5.90723 4.6875 5.74688 4.6875 5.5822V3.52143C4.6875 3.09538 5.03043 2.75 5.45346 2.75H12.7301C13.1531 2.75 13.496 3.09538 13.496 3.52143V5.59706C13.496 5.75253 13.4494 5.90437 13.3622 6.03268L11.3138 9.04784C11.1299 9.31861 11.1361 9.67694 11.3293 9.94106L13.5382 12.9602C13.6352 13.0928 13.6875 13.2531 13.6875 13.4178V15.4786C13.6875 15.9046 13.3446 16.25 12.9215 16.25Z" stroke="#D84E35" stroke-linecap="round" stroke-linejoin="round"/>
</svg>
