<svg width="24" height="24" viewBox="0 0 24 24" fill="none" xmlns="http://www.w3.org/2000/svg">
<g id="Icon/feed">
<path id="Union" fill-rule="evenodd" clip-rule="evenodd" d="M4 4C3.44772 4 3 4.44772 3 5V11C3 11.5523 3.44772 12 4 12H10C10.5523 12 11 11.5523 11 11V5C11 4.44772 10.5523 4 10 4H4ZM13 4C12.4477 4 12 4.44772 12 5V11C12 11.5523 12.4477 12 13 12H19C19.5523 12 20 11.5523 20 11V5C20 4.44772 19.5523 4 19 4H13ZM3 14C3 13.4477 3.44772 13 4 13H10C10.5523 13 11 13.4477 11 14V20C11 20.5523 10.5523 21 10 21H4C3.44772 21 3 20.5523 3 20V14ZM13 13C12.4477 13 12 13.4477 12 14V20C12 20.5523 12.4477 21 13 21H19C19.5523 21 20 20.5523 20 20V14C20 13.4477 19.5523 13 19 13H13Z" fill="#A6A6A6"/>
</g>
</svg>
