<svg width="11" height="17" viewBox="0 0 11 17" fill="none" xmlns="http://www.w3.org/2000/svg">
<path fill-rule="evenodd" clip-rule="evenodd" d="M10.75 5.75C10.75 8.39485 8.79422 10.5829 6.25 10.9468V11.75H8.5C8.91421 11.75 9.25 12.0858 9.25 12.5C9.25 12.9142 8.91421 13.25 8.5 13.25H6.25V15.4999C6.25 15.9142 5.91421 16.2499 5.5 16.2499C5.08579 16.2499 4.75 15.9142 4.75 15.4999V13.25H2.5C2.08579 13.25 1.75 12.9142 1.75 12.5C1.75 12.0858 2.08579 11.75 2.5 11.75H4.75V10.9468C2.20578 10.5829 0.25 8.39485 0.25 5.75C0.25 2.85051 2.60051 0.5 5.5 0.5C8.3995 0.5 10.75 2.85051 10.75 5.75ZM5.5 9.5C7.57107 9.5 9.25 7.82107 9.25 5.75C9.25 3.67893 7.57107 2 5.5 2C3.42893 2 1.75 3.67893 1.75 5.75C1.75 7.82107 3.42893 9.5 5.5 9.5Z" fill="white"/>
</svg>
