<svg width="18" height="18" viewBox="0 0 18 18" fill="none" xmlns="http://www.w3.org/2000/svg">
<path fill-rule="evenodd" clip-rule="evenodd" d="M14.25 6.75C14.25 9.39485 12.2942 11.5829 9.75 11.9468V12.75H12C12.4142 12.75 12.75 13.0858 12.75 13.5C12.75 13.9142 12.4142 14.25 12 14.25H9.75V16.4999C9.75 16.9142 9.41421 17.2499 9 17.2499C8.58579 17.2499 8.25 16.9142 8.25 16.4999V14.25H6C5.58579 14.25 5.25 13.9142 5.25 13.5C5.25 13.0858 5.58579 12.75 6 12.75H8.25V11.9468C5.70578 11.5829 3.75 9.39485 3.75 6.75C3.75 3.85051 6.10051 1.5 9 1.5C11.8995 1.5 14.25 3.85051 14.25 6.75ZM9 10.5C11.0711 10.5 12.75 8.82107 12.75 6.75C12.75 4.67893 11.0711 3 9 3C6.92893 3 5.25 4.67893 5.25 6.75C5.25 8.82107 6.92893 10.5 9 10.5Z" fill="#D84E35"/>
</svg>
