<svg width="19" height="18" viewBox="0 0 19 18" fill="none" xmlns="http://www.w3.org/2000/svg">
<path fill-rule="evenodd" clip-rule="evenodd" d="M14.75 6.75C14.75 9.39485 12.7942 11.5829 10.25 11.9468V12.75H12.5C12.9142 12.75 13.25 13.0858 13.25 13.5C13.25 13.9142 12.9142 14.25 12.5 14.25H10.25V16.4999C10.25 16.9142 9.91421 17.2499 9.5 17.2499C9.08579 17.2499 8.75 16.9142 8.75 16.4999V14.25H6.5C6.08579 14.25 5.75 13.9142 5.75 13.5C5.75 13.0858 6.08579 12.75 6.5 12.75H8.75V11.9468C6.20578 11.5829 4.25 9.39485 4.25 6.75C4.25 3.85051 6.60051 1.5 9.5 1.5C12.3995 1.5 14.75 3.85051 14.75 6.75ZM9.5 10.5C11.5711 10.5 13.25 8.82107 13.25 6.75C13.25 4.67893 11.5711 3 9.5 3C7.42893 3 5.75 4.67893 5.75 6.75C5.75 8.82107 7.42893 10.5 9.5 10.5Z" fill="white"/>
</svg>
