<svg width="18" height="23" viewBox="0 0 18 23" fill="none" xmlns="http://www.w3.org/2000/svg">
<g id="Group 1000005726">
<path id="Vector" d="M2.50669 5.1085V5.08159C1.39632 5.08159 0.5 4.15009 0.5 3V19.9184C0.5 21.0685 1.39967 22 2.50669 22H15.4532C16.5836 22 17.5 21.0786 17.5 19.9419V5.1085H2.50669Z" fill="#EFE6DE" stroke="black" stroke-miterlimit="10"/>
<path id="Vector_2" d="M15.5823 18L2.5 18L2.5 1L15.4518 1C16.583 1 17.5 1.92733 17.5 3.07127L17.5 16.0573C17.5 17.1302 16.6399 18 15.579 18H15.5823Z" fill="#E89080" stroke="black" stroke-miterlimit="10"/>
<path id="Vector_3" d="M2.5 1V17.9184C1.39333 17.9184 0.5 18.8499 0.5 20V3.08159C0.5 1.9315 1.39667 1 2.5 1Z" fill="#A63C29" stroke="black" stroke-miterlimit="10"/>
<path id="Vector_4" d="M13.9706 8H17.0206C17.2853 8 17.5 8.292 17.5 8.652V11.348C17.5 11.708 17.2853 12 17.0206 12H13.9706C13.1588 12 12.5 11.104 12.5 10C12.5 8.896 13.1588 8 13.9706 8Z" fill="#A63C29" stroke="black" stroke-miterlimit="10"/>
<path id="Vector 2239" d="M2 20H16" stroke="black" stroke-linecap="round"/>
</g>
</svg>
