<svg width="206" height="60" viewBox="0 0 206 60" fill="none" xmlns="http://www.w3.org/2000/svg">
<path d="M26.5459 13.3022C27.1202 13.4127 27.6724 13.4657 28.1936 13.4657H31.489C32.9158 13.6026 33.6314 14.1504 33.6314 15.1134V15.935C33.1366 16.7036 32.5315 17.0879 31.8203 17.0879C31.5464 17.0879 31.1046 17.0349 30.5039 16.9245L29.5144 17.0879C28.1406 16.9775 27.4294 16.9245 27.372 16.9245C24.7922 17.0349 22.8707 17.0879 21.6073 17.0879V17.2514L21.9386 25.6532H22.1021C24.1341 25.6532 28.0876 25.4897 33.9627 25.1584C34.9522 25.5162 35.4469 26.1214 35.4469 26.9695C35.4469 28.2859 33.6888 28.9441 30.177 28.9441C26.25 29.165 22.9016 29.2754 20.1275 29.2754C19.275 29.2754 18.6742 28.6172 18.3164 27.3008C18.206 21.7571 18.153 17.6357 18.153 14.9455C18.153 14.0664 19.032 13.5717 20.7901 13.4613H25.075C25.6536 13.4613 26.144 13.4083 26.5592 13.2978L26.5459 13.3022ZM22.6719 31.0114H33.7065C39.4181 31.0114 42.2717 31.2853 42.2717 31.8331C42.603 32.6856 42.7665 34.055 42.7665 35.95C42.7665 38.5872 41.6135 39.9036 39.3077 39.9036C36.6175 40.014 31.6745 40.1244 24.483 40.2349V42.1299H31.8954C33.8169 42.1299 35.7915 42.1829 37.8234 42.2934C38.3182 42.1829 39.5241 42.1299 41.4457 42.1299C42.4882 42.1299 43.0359 42.8455 43.0934 44.2723C42.7621 45.2618 42.0509 45.7566 40.9509 45.7566H22.9944C21.5676 45.5092 20.852 44.9614 20.852 44.1089L21.0154 42.956V42.6247C21.0154 42.1034 20.9624 41.4143 20.852 40.5662C20.852 37.929 21.784 36.6126 23.6526 36.6126C24.0899 36.6126 24.3108 36.6656 24.3108 36.7761C24.4212 36.7761 24.8585 36.7231 25.6271 36.6126C32.6021 36.5022 36.7191 36.4492 37.9825 36.4492L39.1354 36.2857V34.6381C34.0554 34.5276 30.1019 34.4746 27.2748 34.4746H23.1578C22.9104 34.4746 22.6896 34.5276 22.4996 34.6381C21.7575 34.6381 21.1523 34.2008 20.6885 33.3217V32.6635C20.6885 31.674 21.3467 31.1263 22.6675 31.0158L22.6719 31.0114ZM40.1735 11.0361C40.8582 11.0361 41.4103 11.5309 41.8212 12.5204C41.9316 15.2105 41.9846 17.353 41.9846 18.9432V19.1066H45.6068C46.6758 19.1066 47.281 19.7648 47.4179 21.0812C47.0336 22.0707 46.4859 22.5654 45.7703 22.5654H41.8167V22.7289C41.8167 23.3871 41.8697 23.7184 41.9802 23.7184L41.8167 25.366V28.8248C41.8167 29.0722 41.8697 29.2931 41.9802 29.483C41.6798 30.7994 41.0172 31.4576 40.0056 31.4576C38.9057 31.1572 38.358 30.552 38.358 29.6465V16.9642C38.358 15.8687 38.3005 14.5479 38.1945 13.0107C38.4949 11.6943 39.1531 11.0361 40.1691 11.0361H40.1735Z" fill="black"/>
<path d="M79.8783 30.8351C80.9738 31.109 81.5259 31.7142 81.5259 32.6463L81.5657 38.6185H88.978C89.6097 38.6185 90.4888 38.6715 91.6152 38.782C91.8051 38.6715 92.0834 38.6185 92.4368 38.6185C93.5367 38.9189 94.0845 39.4711 94.0845 40.2662V40.5975C93.8371 41.6974 93.2894 42.2452 92.4368 42.2452C79.5337 42.1347 71.1319 42.0817 67.2358 42.0817C65.6986 42.0817 64.9299 41.534 64.9299 40.4341V40.1028C64.9299 39.2237 65.5351 38.6759 66.7411 38.4551H77.9435C77.9435 38.2342 77.9567 37.1917 77.9832 35.3276C77.9258 33.8743 77.8993 32.982 77.8993 32.6507C77.8993 31.7451 78.5575 31.1399 79.8739 30.8396L79.8783 30.8351ZM87.909 15.021H88.5672C90.0205 15.021 90.8466 15.9 91.0365 17.6582C90.6787 29.077 89.7997 34.7887 88.3994 34.7887C88.2359 34.8991 87.9046 34.9521 87.4099 34.9521C86.5308 34.5413 86.0935 33.9935 86.0935 33.3044V33.141C86.9725 27.182 87.4099 22.3538 87.4099 18.6476H85.4353C84.5032 18.6476 79.5072 18.7581 70.4472 18.9789H70.1159C69.016 18.8155 68.4682 18.3208 68.4682 17.4947V16.6731C68.4682 15.9045 69.5637 15.4671 71.7636 15.3567C80.3288 15.1358 85.7092 15.0254 87.9046 15.0254L87.909 15.021Z" fill="black"/>
<path d="M115.305 13.8282C116.511 13.8282 117.116 15.1445 117.116 17.7817C117.226 21.4348 117.279 24.6153 117.279 27.3364V31.9482C120.491 31.9482 124.775 31.6169 130.129 30.9587C130.54 30.9587 131.035 31.343 131.614 32.1116V32.9332C131.614 34.36 129.418 35.0756 125.023 35.0756C122.717 35.2965 120.027 35.46 116.952 35.5704C114.867 35.5704 113.825 34.5279 113.825 32.4429C113.714 30.0266 113.604 24.315 113.494 15.3124C113.851 14.3229 114.452 13.8282 115.305 13.8282ZM137.007 10.9878C137.776 10.9878 138.323 11.4825 138.655 12.472C138.655 13.0772 138.602 13.6824 138.491 14.2831C138.602 17.1103 138.655 19.5265 138.655 21.532V23.6744H143.267C144.035 24.0588 144.419 24.6065 144.419 25.3221C144.419 26.6385 143.487 27.2967 141.619 27.2967H138.655V36.6836C138.655 38.1104 138.708 39.9789 138.818 42.2848C138.518 43.3847 137.966 43.9324 137.171 43.9324H136.839C135.739 43.7116 135.192 43.1638 135.192 42.2848C135.192 40.6106 135.139 38.689 135.028 36.5201C135.028 35.2568 135.081 32.7875 135.192 29.1078C135.081 22.9058 135.028 17.5211 135.028 12.9668C135.302 11.6504 135.96 10.9922 137.007 10.9922V10.9878Z" fill="black"/>
<path d="M0.519531 1H205.481" stroke="#F15848" stroke-width="0.883471" stroke-miterlimit="10"/>
<path d="M0.519531 6.27441H205.481" stroke="#F15848" stroke-width="0.883471" stroke-miterlimit="10"/>
<path d="M0.519531 53.73H205.481" stroke="#F15848" stroke-width="0.883471" stroke-miterlimit="10"/>
<path d="M0.519531 59H205.481" stroke="#F15848" stroke-width="0.883471" stroke-miterlimit="10"/>
<path d="M102.998 6.27441H55.5421V53.7301H102.998V6.27441Z" stroke="#F15848" stroke-width="0.883471" stroke-miterlimit="10"/>
<path d="M55.542 6.27441H8.0863V53.7301H55.542V6.27441Z" stroke="#F15848" stroke-width="0.883471" stroke-miterlimit="10"/>
<path d="M150.454 6.27441H102.998V53.7301H150.454V6.27441Z" stroke="#F15848" stroke-width="0.883471" stroke-miterlimit="10"/>
<path d="M197.909 6.27441H150.453V53.7301H197.909V6.27441Z" stroke="#F15848" stroke-width="0.883471" stroke-miterlimit="10"/>
<path d="M159.315 44.7228L159.991 32.2305L163.931 28.4404L175.672 40.1818L171.807 44.047L159.315 44.7228Z" fill="#E9CCA0" stroke="black" stroke-width="1.76694" stroke-linecap="round" stroke-linejoin="round"/>
<path d="M159.58 39.8374L159.315 44.723L164.2 44.458C164.236 43.3183 163.781 42.1168 162.849 41.1847C161.917 40.2527 160.715 39.8021 159.575 39.833L159.58 39.8374Z" fill="black" stroke="black" stroke-width="0.441736" stroke-miterlimit="10"/>
<path d="M178.226 19.8398L165.588 32.4779C164.108 33.9577 164.258 36.5021 165.923 38.163C167.589 39.824 170.133 39.9742 171.608 38.4988L184.247 25.8607L178.226 19.8398Z" fill="#F59E16" stroke="black" stroke-width="1.76694" stroke-linecap="round" stroke-linejoin="round"/>
<path d="M178.521 13.7441L165.362 26.9034L162.65 29.6157L160.012 32.2529C161.66 33.7989 164.099 33.9182 165.547 32.5135L181.419 16.6419L178.521 13.7441Z" fill="#F59E16" stroke="black" stroke-width="1.76694" stroke-linecap="round" stroke-linejoin="round"/>
<path d="M187.445 22.6675L171.573 38.5391C170.168 39.9879 170.288 42.4263 171.834 44.074L174.471 41.4368L177.183 38.7246L190.342 25.5653L187.445 22.6675Z" fill="#F59E16" stroke="black" stroke-width="1.76694" stroke-linecap="round" stroke-linejoin="round"/>
<path d="M190.589 19.4203L184.666 13.4966L178.512 13.7307L178.274 19.8885L184.197 25.8122L190.355 25.5781L190.589 19.4203Z" fill="#E9CCA0" stroke="black" stroke-width="1.76694" stroke-linecap="round" stroke-linejoin="round"/>
<path d="M186.714 21.9306C187.284 21.3614 186.713 19.8678 185.44 18.5947C184.167 17.3216 182.673 16.751 182.104 17.3203C181.535 17.8896 182.105 19.3831 183.378 20.6562C184.651 21.9294 186.145 22.4999 186.714 21.9306Z" fill="black"/>
</svg>
