<svg width="19" height="18" viewBox="0 0 19 18" fill="none" xmlns="http://www.w3.org/2000/svg">
<path fill-rule="evenodd" clip-rule="evenodd" d="M9.14583 3.33333C9.14583 2.94213 9.46297 2.625 9.85417 2.625H15.1667H15.875V3.33333V8.64583C15.875 9.03703 15.5579 9.35417 15.1667 9.35417C14.7755 9.35417 14.4583 9.03703 14.4583 8.64583V4.88638L11.6569 7.68786C12.5144 8.57919 13.0417 9.7906 13.0417 11.1252C13.0417 13.8636 10.8217 16.0835 8.08333 16.0835C5.34492 16.0835 3.125 13.8636 3.125 11.1252C3.125 8.38675 5.34492 6.16683 8.08333 6.16683C8.973 6.16683 9.80795 6.40114 10.5298 6.81143L13.2996 4.04167H9.85417C9.46297 4.04167 9.14583 3.72453 9.14583 3.33333ZM8.08333 14.6668C10.0393 14.6668 11.625 13.0812 11.625 11.1252C11.625 9.16915 10.0393 7.5835 8.08333 7.5835C6.12732 7.5835 4.54167 9.16915 4.54167 11.1252C4.54167 13.0812 6.12732 14.6668 8.08333 14.6668Z" fill="#D84E35"/>
</svg>
