<svg width="18" height="18" viewBox="0 0 18 18" fill="none" xmlns="http://www.w3.org/2000/svg">
<path fill-rule="evenodd" clip-rule="evenodd" d="M8.64583 3.33333C8.64583 2.94213 8.96297 2.625 9.35417 2.625H14.6667H15.375V3.33333V8.64583C15.375 9.03703 15.0579 9.35417 14.6667 9.35417C14.2755 9.35417 13.9583 9.03703 13.9583 8.64583V4.88638L11.1569 7.6878C12.0144 8.57912 12.5417 9.79051 12.5417 11.125C12.5417 13.8635 10.3217 16.0834 7.58333 16.0834C4.84492 16.0834 2.625 13.8635 2.625 11.125C2.625 8.38663 4.84492 6.16671 7.58333 6.16671C8.47303 6.16671 9.30801 6.40104 10.0299 6.81135L12.7996 4.04167H9.35417C8.96297 4.04167 8.64583 3.72453 8.64583 3.33333ZM7.58333 14.6667C9.53934 14.6667 11.125 13.081 11.125 11.125C11.125 9.16903 9.53934 7.58337 7.58333 7.58337C5.62732 7.58337 4.04167 9.16903 4.04167 11.125C4.04167 13.081 5.62732 14.6667 7.58333 14.6667Z" fill="#26B9D9"/>
</svg>
