<svg width="20" height="19" viewBox="0 0 20 19" fill="none" xmlns="http://www.w3.org/2000/svg">
<path d="M2.8954 16.6001L3.15469 11.8551L4.65427 10.416L9.11412 14.8758L7.64479 16.3452L2.8954 16.6001Z" fill="white" stroke="black" stroke-linecap="round" stroke-linejoin="round"/>
<path d="M2.99929 14.7419L2.8999 16.5959L4.75385 16.4965C4.76681 16.06 4.59395 15.6105 4.23958 15.2562C3.88521 14.9018 3.42713 14.729 2.99929 14.7419Z" fill="black" stroke="black" stroke-width="0.75" stroke-miterlimit="10"/>
<path d="M13.708 1.33643L7.48064 7.56379L5.39765 9.64678L3.37084 11.6736C4.63706 12.862 6.51262 12.9571 7.62326 11.8724L15.9336 3.56203L13.708 1.33643Z" fill="white" stroke="black" stroke-linecap="round" stroke-linejoin="round"/>
<path d="M15.933 3.56194L7.62268 11.8723C6.54229 12.9873 6.63304 14.8585 7.82147 16.1247L9.84828 14.0979L11.9313 12.0149L18.1586 5.78754L15.9287 3.55762L15.933 3.56194Z" fill="white" stroke="black" stroke-linecap="round" stroke-linejoin="round"/>
<path d="M14.6978 4.79782C15.927 6.02699 17.4613 6.48554 18.1248 5.82203C18.7883 5.15852 18.3298 3.6242 17.1006 2.39504C15.8714 1.16587 14.3371 0.707315 13.6736 1.37083C13.0101 2.03434 13.4687 3.56865 14.6978 4.79782Z" fill="white" stroke="black" stroke-linecap="round" stroke-linejoin="round"/>
<path d="M15.6001 3.89473C16.0679 4.36253 16.6174 4.57149 16.8274 4.36146C17.0375 4.15142 16.8285 3.60193 16.3607 3.13413C15.8929 2.66634 15.3434 2.45737 15.1334 2.66741C14.9233 2.87744 15.1323 3.42693 15.6001 3.89473Z" fill="black"/>
</svg>
