<svg width="25" height="24" viewBox="0 0 25 24" fill="none" xmlns="http://www.w3.org/2000/svg">
<g id="Navigation_icon">
<path id="Icon" d="M15.3182 7.00966C15.3182 8.52528 14.0293 9.87491 12.5 9.87491C10.9707 9.87491 9.68182 8.52528 9.68182 7.00966C9.68182 5.44619 11.016 4 12.5 4C13.984 4 15.3182 5.44619 15.3182 7.00966ZM20.5 16.7779C20.5 17.4743 20.1212 18.235 18.8901 18.8767C17.6259 19.5356 15.5587 20.0002 12.5 20.0002C9.44127 20.0002 7.37409 19.5356 6.10994 18.8767C4.87885 18.235 4.5 17.4743 4.5 16.7779C4.5 16.2284 5.01302 15.4237 6.56076 14.6976C8.02907 14.0088 10.1278 13.5556 12.5 13.5556C14.8722 13.5556 16.9709 14.0088 18.4392 14.6976C19.987 15.4237 20.5 16.2284 20.5 16.7779Z" stroke="black" stroke-width="2"/>
</g>
</svg>
