<svg width="44" height="44" viewBox="0 0 44 44" fill="none" xmlns="http://www.w3.org/2000/svg">
<mask id="mask0_2566_16224" style="mask-type:alpha" maskUnits="userSpaceOnUse" x="10" y="10" width="24" height="24">
<rect x="10" y="10" width="24" height="24" fill="#D9D9D9"/>
</mask>
<g mask="url(#mask0_2566_16224)">
<path d="M21.9808 31.5C20.6846 31.5 19.4603 31.2503 18.3078 30.751C17.1551 30.2517 16.1487 29.5718 15.2885 28.7115C14.4282 27.8513 13.7483 26.8433 13.249 25.6875C12.7497 24.5317 12.5 23.3025 12.5 22C12.5 20.6808 12.7564 19.4433 13.2693 18.2875C13.7821 17.1317 14.4786 16.1262 15.3588 15.2712C16.2388 14.4161 17.2683 13.7404 18.4473 13.2443C19.6261 12.7481 20.8834 12.5 22.2192 12.5C23.4692 12.5 24.6538 12.7132 25.773 13.1395C26.8923 13.5658 27.8753 14.1559 28.722 14.9098C29.5688 15.6636 30.2435 16.5594 30.746 17.5973C31.2487 18.6349 31.5 19.7602 31.5 20.973C31.5 22.7038 30.9856 24.0577 29.9568 25.0345C28.9279 26.0115 27.609 26.5 26 26.5H24.1885C23.9038 26.5 23.6762 26.5929 23.5057 26.7788C23.3352 26.9648 23.25 27.1847 23.25 27.4385C23.25 27.7475 23.375 28.0687 23.625 28.402C23.875 28.7353 24 29.118 24 29.55C24 30.2102 23.8173 30.7003 23.452 31.0203C23.0865 31.3401 22.5961 31.5 21.9808 31.5ZM16.5 22.75C16.8563 22.75 17.1537 22.6307 17.3923 22.3923C17.6308 22.1538 17.75 21.8563 17.75 21.5C17.75 21.1437 17.6308 20.8462 17.3923 20.6077C17.1537 20.3692 16.8563 20.25 16.5 20.25C16.1437 20.25 15.8463 20.3692 15.6077 20.6077C15.3692 20.8462 15.25 21.1437 15.25 21.5C15.25 21.8563 15.3692 22.1538 15.6077 22.3923C15.8463 22.6307 16.1437 22.75 16.5 22.75ZM19.5 18.75C19.8563 18.75 20.1537 18.6308 20.3923 18.3923C20.6307 18.1537 20.75 17.8563 20.75 17.5C20.75 17.1437 20.6307 16.8463 20.3923 16.6077C20.1537 16.3692 19.8563 16.25 19.5 16.25C19.1437 16.25 18.8463 16.3692 18.6077 16.6077C18.3692 16.8463 18.25 17.1437 18.25 17.5C18.25 17.8563 18.3692 18.1537 18.6077 18.3923C18.8463 18.6308 19.1437 18.75 19.5 18.75ZM24.5 18.75C24.8563 18.75 25.1538 18.6308 25.3923 18.3923C25.6307 18.1537 25.75 17.8563 25.75 17.5C25.75 17.1437 25.6307 16.8463 25.3923 16.6077C25.1538 16.3692 24.8563 16.25 24.5 16.25C24.1437 16.25 23.8462 16.3692 23.6077 16.6077C23.3693 16.8463 23.25 17.1437 23.25 17.5C23.25 17.8563 23.3693 18.1537 23.6077 18.3923C23.8462 18.6308 24.1437 18.75 24.5 18.75ZM27.5 22.75C27.8563 22.75 28.1538 22.6307 28.3923 22.3923C28.6308 22.1538 28.75 21.8563 28.75 21.5C28.75 21.1437 28.6308 20.8462 28.3923 20.6077C28.1538 20.3692 27.8563 20.25 27.5 20.25C27.1437 20.25 26.8462 20.3692 26.6077 20.6077C26.3693 20.8462 26.25 21.1437 26.25 21.5C26.25 21.8563 26.3693 22.1538 26.6077 22.3923C26.8462 22.6307 27.1437 22.75 27.5 22.75ZM21.9808 30C22.1436 30 22.2708 29.9599 22.3625 29.8798C22.4542 29.7996 22.5 29.6897 22.5 29.55C22.5 29.3167 22.375 29.0545 22.125 28.7635C21.875 28.4725 21.75 28.0167 21.75 27.3962C21.75 26.6834 21.9917 26.1058 22.475 25.6635C22.9583 25.2212 23.55 25 24.25 25H26C27.177 25 28.1379 24.6552 28.8827 23.9655C29.6276 23.2757 30 22.2782 30 20.973C30 18.95 29.2243 17.2821 27.673 15.9693C26.1218 14.6564 24.3039 14 22.2192 14C19.9334 14 17.9921 14.775 16.3953 16.325C14.7984 17.875 14 19.7667 14 22C14 24.2167 14.7792 26.1042 16.3375 27.6625C17.8958 29.2208 19.7769 30 21.9808 30Z" fill="#020B0D"/>
</g>
</svg>
