<svg width="44" height="44" viewBox="0 0 44 44" fill="none" xmlns="http://www.w3.org/2000/svg">
<mask id="mask0_2566_16229" style="mask-type:alpha" maskUnits="userSpaceOnUse" x="10" y="10" width="24" height="24">
<rect x="10" y="10" width="24" height="24" fill="#D9D9D9"/>
</mask>
<g mask="url(#mask0_2566_16229)">
<path d="M16.8192 30.7078L15.9269 29.8153L14.9922 30.75C14.7525 30.9897 14.4628 31.1121 14.1229 31.1173C13.7833 31.1225 13.4987 31 13.2692 30.75C13.0295 30.5102 12.9097 30.223 12.9097 29.8885C12.9097 29.5539 13.0295 29.2667 13.2692 29.027L14.2039 28.0923L13.3114 27.1693L26.5654 13.9155C26.7461 13.7347 26.9588 13.6443 27.2037 13.6443C27.4487 13.6443 27.6615 13.7347 27.8422 13.9155L30.1037 16.177C30.2845 16.3577 30.3749 16.5705 30.3749 16.8155C30.3749 17.0604 30.2845 17.2731 30.1037 17.4538L16.8192 30.7078ZM21.0999 21.5193L15.4192 27.1693L16.8499 28.6L22.4999 22.9193L21.0999 21.5193Z" fill="#D84E35"/>
</g>
</svg>
