<svg width="44" height="44" viewBox="0 0 44 44" fill="none" xmlns="http://www.w3.org/2000/svg">
<mask id="mask0_2639_12828" style="mask-type:alpha" maskUnits="userSpaceOnUse" x="3" y="10" width="25" height="24">
<rect x="3" y="10" width="25" height="24" fill="#D9D9D9"/>
</mask>
<g mask="url(#mask0_2639_12828)">
<path d="M25.6421 19.8363H18.6211C17.5774 19.8363 16.6794 20.1792 15.9269 20.8651C15.1742 21.5511 14.7979 22.4005 14.7979 23.4133C14.7979 24.4262 15.1742 25.2771 15.9269 25.9661C16.6794 26.6552 17.5774 26.9998 18.6211 26.9998H25.0479C25.2607 26.9998 25.4389 27.0717 25.5826 27.2153C25.7261 27.3588 25.7979 27.537 25.7979 27.7498C25.7979 27.9627 25.7261 28.1408 25.5826 28.2843C25.4389 28.428 25.2607 28.4998 25.0479 28.4998H18.6211C17.1583 28.4998 15.9054 28.0101 14.8624 27.0306C13.8194 26.0511 13.2979 24.8453 13.2979 23.4133C13.2979 21.9813 13.8194 20.7772 14.8624 19.8008C15.9054 18.8245 17.1583 18.3363 18.6211 18.3363H25.6421L23.3864 16.0806C23.2479 15.9421 23.177 15.7681 23.1739 15.5586C23.1707 15.3489 23.2415 15.1717 23.3864 15.0268C23.5312 14.882 23.7069 14.8096 23.9134 14.8096C24.1197 14.8096 24.2953 14.882 24.4401 15.0268L27.7441 18.4536C27.8378 18.5472 27.9038 18.646 27.9421 18.7498C27.9806 18.8537 27.9999 18.9658 27.9999 19.0863C27.9999 19.2068 27.9806 19.319 27.9421 19.4228C27.9038 19.5267 27.8378 19.6254 27.7441 19.7191L24.4401 23.1461C24.3018 23.2844 24.1278 23.3552 23.9181 23.3586C23.7084 23.3617 23.5312 23.2909 23.3864 23.1461C23.2415 23.0011 23.1691 22.8254 23.1691 22.6191C23.1691 22.4127 23.2415 22.2371 23.3864 22.0921L25.6421 19.8363Z" fill="#020B0D"/>
</g>
</svg>
