<svg width="44" height="44" viewBox="0 0 44 44" fill="none" xmlns="http://www.w3.org/2000/svg">
<mask id="mask0_2639_12829" style="mask-type:alpha" maskUnits="userSpaceOnUse" x="13" y="10" width="25" height="24">
<rect x="13.25" y="10" width="24" height="24" fill="#D9D9D9"/>
</mask>
<g mask="url(#mask0_2639_12829)">
<path d="M18.0577 30C17.5526 30 17.125 29.825 16.775 29.475C16.425 29.125 16.25 28.6974 16.25 28.1923V14.8077C16.25 14.3026 16.425 13.875 16.775 13.525C17.125 13.175 17.5526 13 18.0577 13H28.7902C29.0314 13 29.2632 13.0468 29.4855 13.1405C29.708 13.234 29.9012 13.3628 30.0652 13.527L32.723 16.1848C32.8872 16.3488 33.016 16.542 33.1095 16.7645C33.2032 16.9868 33.25 17.2186 33.25 17.4598V28.1923C33.25 28.6974 33.075 29.125 32.725 29.475C32.375 29.825 31.9474 30 31.4423 30H18.0577ZM31.75 17.35L28.9 14.5H18.0577C17.9679 14.5 17.8942 14.5288 17.8365 14.5865C17.7788 14.6442 17.75 14.7179 17.75 14.8077V28.1923C17.75 28.2821 17.7788 28.3558 17.8365 28.4135C17.8942 28.4712 17.9679 28.5 18.0577 28.5H31.4423C31.5321 28.5 31.6058 28.4712 31.6635 28.4135C31.7212 28.3558 31.75 28.2821 31.75 28.1923V17.35ZM24.75 26.7693C25.4423 26.7693 26.0321 26.5257 26.5193 26.0385C27.0064 25.5513 27.25 24.9616 27.25 24.2692C27.25 23.5769 27.0064 22.9872 26.5193 22.5C26.0321 22.0128 25.4423 21.7692 24.75 21.7692C24.0577 21.7692 23.4679 22.0128 22.9808 22.5C22.4936 22.9872 22.25 23.5769 22.25 24.2692C22.25 24.9616 22.4936 25.5513 22.9808 26.0385C23.4679 26.5257 24.0577 26.7693 24.75 26.7693ZM20.0385 19.3845H26.4423C26.6999 19.3845 26.915 19.2983 27.0875 19.126C27.2598 18.9535 27.346 18.7384 27.346 18.4807V16.7885C27.346 16.5308 27.2598 16.3157 27.0875 16.1432C26.915 15.9709 26.6999 15.8848 26.4423 15.8848H20.0385C19.7808 15.8848 19.5658 15.9709 19.3933 16.1432C19.2209 16.3157 19.1348 16.5308 19.1348 16.7885V18.4807C19.1348 18.7384 19.2209 18.9535 19.3933 19.126C19.5658 19.2983 19.7808 19.3845 20.0385 19.3845Z" fill="#020B0D"/>
</g>
</svg>
