<svg width="44" height="44" viewBox="0 0 44 44" fill="none" xmlns="http://www.w3.org/2000/svg">
<mask id="mask0_3490_88431" style="mask-type:alpha" maskUnits="userSpaceOnUse" x="6" y="6" width="32" height="32">
<rect x="6.5" y="6.5" width="31" height="31" fill="#D9D9D9" stroke="#0D0D0D"/>
</mask>
<g mask="url(#mask0_3490_88431)">
<path d="M12.4103 32.6667C11.7368 32.6667 11.1667 32.4333 10.7 31.9667C10.2333 31.5 10 30.9299 10 30.2563V12.4103C10 11.7368 10.2333 11.1667 10.7 10.7C11.1667 10.2333 11.7368 10 12.4103 10H26.7203C27.0419 10 27.3509 10.0624 27.6473 10.1873C27.944 10.312 28.2017 10.4838 28.4203 10.7027L31.964 14.2463C32.1829 14.465 32.3547 14.7227 32.4793 15.0193C32.6042 15.3158 32.6667 15.6248 32.6667 15.9463V30.2563C32.6667 30.9299 32.4333 31.5 31.9667 31.9667C31.5 32.4333 30.9299 32.6667 30.2563 32.6667H12.4103ZM30.6667 15.8L26.8667 12H12.4103C12.2906 12 12.1922 12.0384 12.1153 12.1153C12.0384 12.1922 12 12.2906 12 12.4103V30.2563C12 30.3761 12.0384 30.4744 12.1153 30.5513C12.1922 30.6282 12.2906 30.6667 12.4103 30.6667H30.2563C30.3761 30.6667 30.4744 30.6282 30.5513 30.5513C30.6282 30.4744 30.6667 30.3761 30.6667 30.2563V15.8ZM21.3333 28.359C22.2564 28.359 23.0428 28.0342 23.6923 27.3847C24.3419 26.7351 24.6667 25.9488 24.6667 25.0257C24.6667 24.1026 24.3419 23.3162 23.6923 22.6667C23.0428 22.0171 22.2564 21.6923 21.3333 21.6923C20.4102 21.6923 19.6239 22.0171 18.9743 22.6667C18.3248 23.3162 18 24.1026 18 25.0257C18 25.9488 18.3248 26.7351 18.9743 27.3847C19.6239 28.0342 20.4102 28.359 21.3333 28.359ZM15.0513 18.5127H23.5897C23.9332 18.5127 24.22 18.3978 24.45 18.168C24.6798 17.938 24.7947 17.6512 24.7947 17.3077V15.0513C24.7947 14.7078 24.6798 14.421 24.45 14.191C24.22 13.9612 23.9332 13.8463 23.5897 13.8463H15.0513C14.7078 13.8463 14.421 13.9612 14.191 14.191C13.9612 14.421 13.8463 14.7078 13.8463 15.0513V17.3077C13.8463 17.6512 13.9612 17.938 14.191 18.168C14.421 18.3978 14.7078 18.5127 15.0513 18.5127Z" fill="#0D0D0D"/>
</g>
</svg>
