<svg width="44" height="44" viewBox="0 0 44 44" fill="none" xmlns="http://www.w3.org/2000/svg">
<mask id="mask0_2639_12827" style="mask-type:alpha" maskUnits="userSpaceOnUse" x="10" y="10" width="24" height="24">
<rect x="10" y="10" width="24" height="24" fill="#D9D9D9"/>
</mask>
<g mask="url(#mask0_2639_12827)">
<path d="M17.952 28.4998C17.7391 28.4998 17.5609 28.428 17.4172 28.2843C17.2737 28.1408 17.202 27.9627 17.202 27.7498C17.202 27.537 17.2737 27.3588 17.4172 27.2153C17.5609 27.0717 17.7391 26.9998 17.952 26.9998H24.3787C25.4224 26.9998 26.3205 26.6552 27.073 25.9661C27.8256 25.2771 28.202 24.4262 28.202 23.4133C28.202 22.4005 27.8256 21.5511 27.073 20.8651C26.3205 20.1792 25.4224 19.8363 24.3787 19.8363H17.3577L19.6135 22.0921C19.7583 22.2371 19.8307 22.4127 19.8307 22.6191C19.8307 22.8254 19.7583 23.0011 19.6135 23.1461C19.4686 23.2909 19.2914 23.3617 19.0817 23.3586C18.872 23.3552 18.698 23.2844 18.5597 23.1461L15.1327 19.7191C15.039 19.6254 14.973 19.5267 14.9347 19.4228C14.8962 19.319 14.877 19.2068 14.877 19.0863C14.877 18.9658 14.8962 18.8537 14.9347 18.7498C14.973 18.646 15.039 18.5472 15.1327 18.4536L18.5597 15.0268C18.7045 14.882 18.8801 14.8096 19.0865 14.8096C19.293 14.8096 19.4686 14.882 19.6135 15.0268C19.7583 15.1717 19.8291 15.3489 19.826 15.5586C19.8228 15.7681 19.752 15.9421 19.6135 16.0806L17.3577 18.3363H24.3787C25.8415 18.3363 27.0945 18.8245 28.1375 19.8008C29.1805 20.7772 29.702 21.9813 29.702 23.4133C29.702 24.8453 29.1805 26.0511 28.1375 27.0306C27.0945 28.0101 25.8415 28.4998 24.3787 28.4998H17.952Z" fill="#020B0D"/>
</g>
</svg>
